<?xml version="1.0" encoding="UTF-8" standalone="no"?>
<!DOCTYPE svg PUBLIC "-//W3C//DTD SVG 1.1//EN"
 "http://www.w3.org/Graphics/SVG/1.1/DTD/svg11.dtd">
<!-- Generated by graphviz version 12.1.2 (20240928.0832)
 -->
<!-- Title: Dim_Consent Pages: 1 -->
<svg width="1177pt" height="2050pt"
 viewBox="0.00 0.00 1177.29 2049.60" xmlns="http://www.w3.org/2000/svg" xmlns:xlink="http://www.w3.org/1999/xlink">
<g id="graph0" class="graph" transform="scale(1 1) rotate(0) translate(4 2045.6)">
<title>Dim_Consent</title>
<polygon fill="white" stroke="none" points="-4,4 -4,-2045.6 1173.29,-2045.6 1173.29,4 -4,4"/>
<!-- Dim_Consent -->
<g id="node1" class="node">
<title>Dim_Consent</title>
<polygon fill="#efefef" stroke="none" points="456.8,-1959.8 456.8,-1995.4 729.95,-1995.4 729.95,-1959.8 456.8,-1959.8"/>
<polygon fill="none" stroke="black" points="456.8,-1959.8 456.8,-1995.4 729.95,-1995.4 729.95,-1959.8 456.8,-1959.8"/>
<text text-anchor="start" x="481.13" y="-1973.2" font-family="Arial Bold" font-size="18.00">Dim_Consent</text>
<text text-anchor="start" x="581.13" y="-1973.2" font-family="Arial" font-size="14.00">    </text>
<text text-anchor="start" x="612.25" y="-1973.2" font-family="Arial" font-size="14.00" fill="#666666">[BASE TABLE]</text>
<polygon fill="none" stroke="black" points="456.8,-1929 456.8,-1959.8 729.95,-1959.8 729.95,-1929 456.8,-1929"/>
<text text-anchor="start" x="463.8" y="-1941.2" font-family="Arial" font-size="14.00">Consent_Key </text>
<text text-anchor="start" x="551.75" y="-1941.2" font-family="Arial" font-size="14.00" fill="#666666">[bigint unsigned]</text>
<polygon fill="none" stroke="black" points="456.8,-1898.2 456.8,-1929 729.95,-1929 729.95,-1898.2 456.8,-1898.2"/>
<text text-anchor="start" x="463.8" y="-1910.4" font-family="Arial" font-size="14.00">Source_Consent_Id </text>
<text text-anchor="start" x="591.44" y="-1910.4" font-family="Arial" font-size="14.00" fill="#666666">[bigint unsigned]</text>
<polygon fill="none" stroke="black" points="456.8,-1867.4 456.8,-1898.2 729.95,-1898.2 729.95,-1867.4 456.8,-1867.4"/>
<text text-anchor="start" x="463.8" y="-1879.6" font-family="Arial" font-size="14.00">Source_System_Key </text>
<text text-anchor="start" x="598.42" y="-1879.6" font-family="Arial" font-size="14.00" fill="#666666">[bigint unsigned]</text>
<polygon fill="none" stroke="black" points="456.8,-1836.6 456.8,-1867.4 729.95,-1867.4 729.95,-1836.6 456.8,-1836.6"/>
<text text-anchor="start" x="463.8" y="-1848.8" font-family="Arial" font-size="14.00">Rider_Key </text>
<text text-anchor="start" x="533.06" y="-1848.8" font-family="Arial" font-size="14.00" fill="#666666">[bigint unsigned]</text>
<polygon fill="none" stroke="black" points="456.8,-1805.8 456.8,-1836.6 729.95,-1836.6 729.95,-1805.8 456.8,-1805.8"/>
<text text-anchor="start" x="463.8" y="-1818" font-family="Arial" font-size="14.00">Delivery_Key </text>
<text text-anchor="start" x="550.17" y="-1818" font-family="Arial" font-size="14.00" fill="#666666">[bigint unsigned]</text>
<polygon fill="none" stroke="black" points="456.8,-1775 456.8,-1805.8 729.95,-1805.8 729.95,-1775 456.8,-1775"/>
<text text-anchor="start" x="463.8" y="-1787.2" font-family="Arial" font-size="14.00">Consent_Status </text>
<text text-anchor="start" x="567.31" y="-1787.2" font-family="Arial" font-size="14.00" fill="#666666">[tinyint]</text>
<polygon fill="none" stroke="black" points="456.8,-1744.2 456.8,-1775 729.95,-1775 729.95,-1744.2 456.8,-1744.2"/>
<text text-anchor="start" x="463.8" y="-1756.4" font-family="Arial" font-size="14.00">Pref_Join_Bikeclub </text>
<text text-anchor="start" x="587.54" y="-1756.4" font-family="Arial" font-size="14.00" fill="#666666">[tinyint(1)]</text>
<polygon fill="none" stroke="black" points="456.8,-1713.4 456.8,-1744.2 729.95,-1744.2 729.95,-1713.4 456.8,-1713.4"/>
<text text-anchor="start" x="463.8" y="-1725.6" font-family="Arial" font-size="14.00">Pref_Further_Research </text>
<text text-anchor="start" x="613.98" y="-1725.6" font-family="Arial" font-size="14.00" fill="#666666">[tinyint(1)]</text>
<polygon fill="none" stroke="black" points="456.8,-1682.6 456.8,-1713.4 729.95,-1713.4 729.95,-1682.6 456.8,-1682.6"/>
<text text-anchor="start" x="463.8" y="-1694.8" font-family="Arial" font-size="14.00">Pref_Receive_News </text>
<text text-anchor="start" x="594.53" y="-1694.8" font-family="Arial" font-size="14.00" fill="#666666">[tinyint(1)]</text>
<polygon fill="none" stroke="black" points="456.8,-1651.8 456.8,-1682.6 729.95,-1682.6 729.95,-1651.8 456.8,-1651.8"/>
<text text-anchor="start" x="463.8" y="-1664" font-family="Arial" font-size="14.00">Has_Bike </text>
<text text-anchor="start" x="527.61" y="-1664" font-family="Arial" font-size="14.00" fill="#666666">[tinyint]</text>
<polygon fill="none" stroke="black" points="456.8,-1621 456.8,-1651.8 729.95,-1651.8 729.95,-1621 456.8,-1621"/>
<text text-anchor="start" x="463.8" y="-1633.2" font-family="Arial" font-size="14.00">Ability_Cannot_Cycle </text>
<text text-anchor="start" x="600.76" y="-1633.2" font-family="Arial" font-size="14.00" fill="#666666">[tinyint]</text>
<polygon fill="none" stroke="black" points="456.8,-1590.2 456.8,-1621 729.95,-1621 729.95,-1590.2 456.8,-1590.2"/>
<text text-anchor="start" x="463.8" y="-1602.4" font-family="Arial" font-size="14.00">Ability_Can_Look_Over_Shoulder </text>
<text text-anchor="start" x="678.6" y="-1602.4" font-family="Arial" font-size="14.00" fill="#666666">[tinyint]</text>
<polygon fill="none" stroke="black" points="456.8,-1559.4 456.8,-1590.2 729.95,-1590.2 729.95,-1559.4 456.8,-1559.4"/>
<text text-anchor="start" x="463.8" y="-1571.6" font-family="Arial" font-size="14.00">Ability_Can_One_Hand_Signal </text>
<text text-anchor="start" x="660.71" y="-1571.6" font-family="Arial" font-size="14.00" fill="#666666">[tinyint]</text>
<polygon fill="none" stroke="black" points="456.8,-1528.6 456.8,-1559.4 729.95,-1559.4 729.95,-1528.6 456.8,-1528.6"/>
<text text-anchor="start" x="463.8" y="-1540.8" font-family="Arial" font-size="14.00">Ability_Has_Level_2 </text>
<text text-anchor="start" x="594.55" y="-1540.8" font-family="Arial" font-size="14.00" fill="#666666">[tinyint]</text>
<polygon fill="none" stroke="black" points="456.8,-1497.8 456.8,-1528.6 729.95,-1528.6 729.95,-1497.8 456.8,-1497.8"/>
<text text-anchor="start" x="463.8" y="-1510" font-family="Arial" font-size="14.00">Cycle_Ability_Raw </text>
<text text-anchor="start" x="583.62" y="-1510" font-family="Arial" font-size="14.00" fill="#666666">[text]</text>
<polygon fill="none" stroke="black" points="456.8,-1467 456.8,-1497.8 729.95,-1497.8 729.95,-1467 456.8,-1467"/>
<text text-anchor="start" x="463.8" y="-1479.2" font-family="Arial" font-size="14.00">Is_Pupil_Premium </text>
<text text-anchor="start" x="581.29" y="-1479.2" font-family="Arial" font-size="14.00" fill="#666666">[tinyint]</text>
<polygon fill="none" stroke="black" points="456.8,-1436.2 456.8,-1467 729.95,-1467 729.95,-1436.2 456.8,-1436.2"/>
<text text-anchor="start" x="463.8" y="-1448.4" font-family="Arial" font-size="14.00">Is_SEND </text>
<text text-anchor="start" x="525.26" y="-1448.4" font-family="Arial" font-size="14.00" fill="#666666">[tinyint]</text>
<polygon fill="none" stroke="black" points="456.8,-1405.4 456.8,-1436.2 729.95,-1436.2 729.95,-1405.4 456.8,-1405.4"/>
<text text-anchor="start" x="463.8" y="-1417.6" font-family="Arial" font-size="14.00">SEND_Details </text>
<text text-anchor="start" x="557.17" y="-1417.6" font-family="Arial" font-size="14.00" fill="#666666">[text]</text>
<polygon fill="none" stroke="black" points="456.8,-1374.6 456.8,-1405.4 729.95,-1405.4 729.95,-1374.6 456.8,-1374.6"/>
<text text-anchor="start" x="463.8" y="-1386.8" font-family="Arial" font-size="14.00">Has_Medical_Condition </text>
<text text-anchor="start" x="615.55" y="-1386.8" font-family="Arial" font-size="14.00" fill="#666666">[tinyint]</text>
<polygon fill="none" stroke="black" points="456.8,-1343.8 456.8,-1374.6 729.95,-1374.6 729.95,-1343.8 456.8,-1343.8"/>
<text text-anchor="start" x="463.8" y="-1356" font-family="Arial" font-size="14.00">Medical_Details </text>
<text text-anchor="start" x="566.51" y="-1356" font-family="Arial" font-size="14.00" fill="#666666">[text]</text>
<polygon fill="none" stroke="black" points="456.8,-1313 456.8,-1343.8 729.95,-1343.8 729.95,-1313 456.8,-1313"/>
<text text-anchor="start" x="463.8" y="-1325.2" font-family="Arial" font-size="14.00">Attended </text>
<text text-anchor="start" x="523.74" y="-1325.2" font-family="Arial" font-size="14.00" fill="#666666">[tinyint]</text>
<polygon fill="none" stroke="black" points="456.8,-1282.2 456.8,-1313 729.95,-1313 729.95,-1282.2 456.8,-1282.2"/>
<text text-anchor="start" x="463.8" y="-1294.4" font-family="Arial" font-size="14.00">Year_Group </text>
<text text-anchor="start" x="543.96" y="-1294.4" font-family="Arial" font-size="14.00" fill="#666666">[varchar(10)]</text>
<polygon fill="none" stroke="black" points="456.8,-1251.4 456.8,-1282.2 729.95,-1282.2 729.95,-1251.4 456.8,-1251.4"/>
<text text-anchor="start" x="463.8" y="-1263.6" font-family="Arial" font-size="14.00">Gender </text>
<text text-anchor="start" x="514.39" y="-1263.6" font-family="Arial" font-size="14.00" fill="#666666">[varchar(50)]</text>
<polygon fill="none" stroke="black" points="456.8,-1220.6 456.8,-1251.4 729.95,-1251.4 729.95,-1220.6 456.8,-1220.6"/>
<text text-anchor="start" x="463.8" y="-1232.8" font-family="Arial" font-size="14.00">Ethnicity </text>
<text text-anchor="start" x="520.6" y="-1232.8" font-family="Arial" font-size="14.00" fill="#666666">[varchar(100)]</text>
<polygon fill="none" stroke="black" points="456.8,-1189.8 456.8,-1220.6 729.95,-1220.6 729.95,-1189.8 456.8,-1189.8"/>
<text text-anchor="start" x="463.8" y="-1202" font-family="Arial" font-size="14.00">Pre_Freq_To_School </text>
<text text-anchor="start" x="600.77" y="-1202" font-family="Arial" font-size="14.00" fill="#666666">[int]</text>
<polygon fill="none" stroke="black" points="456.8,-1159 456.8,-1189.8 729.95,-1189.8 729.95,-1159 456.8,-1159"/>
<text text-anchor="start" x="463.8" y="-1171.2" font-family="Arial" font-size="14.00">Pre_Freq_Leisure </text>
<text text-anchor="start" x="579.75" y="-1171.2" font-family="Arial" font-size="14.00" fill="#666666">[int]</text>
<polygon fill="none" stroke="black" points="456.8,-1128.2 456.8,-1159 729.95,-1159 729.95,-1128.2 456.8,-1128.2"/>
<text text-anchor="start" x="463.8" y="-1140.4" font-family="Arial" font-size="14.00">Pre_Freq_Exercise </text>
<text text-anchor="start" x="587.52" y="-1140.4" font-family="Arial" font-size="14.00" fill="#666666">[int]</text>
<polygon fill="none" stroke="black" points="456.8,-1097.4 456.8,-1128.2 729.95,-1128.2 729.95,-1097.4 456.8,-1097.4"/>
<text text-anchor="start" x="463.8" y="-1109.6" font-family="Arial" font-size="14.00">Pre_Freq_Other </text>
<text text-anchor="start" x="568.85" y="-1109.6" font-family="Arial" font-size="14.00" fill="#666666">[int]</text>
<polygon fill="none" stroke="black" stroke-width="3" points="455.3,-1095.9 455.3,-1996.9 731.45,-1996.9 731.45,-1095.9 455.3,-1095.9"/>
</g>
<!-- Dim_Source_System -->
<g id="node2" class="node">
<title>Dim_Source_System</title>
<polygon fill="#efefef" stroke="none" points="72.64,-551.4 72.64,-587 364.12,-587 364.12,-551.4 72.64,-551.4"/>
<polygon fill="none" stroke="black" points="72.64,-551.4 72.64,-587 364.12,-587 364.12,-551.4 72.64,-551.4"/>
<text text-anchor="start" x="79.64" y="-564.8" font-family="Arial Bold" font-size="18.00">Dim_Source_System</text>
<text text-anchor="start" x="232.63" y="-564.8" font-family="Arial" font-size="14.00">    </text>
<text text-anchor="start" x="263.75" y="-564.8" font-family="Arial" font-size="14.00" fill="#666666">[BASE TABLE]</text>
<polygon fill="none" stroke="black" points="72.64,-520.6 72.64,-551.4 364.12,-551.4 364.12,-520.6 72.64,-520.6"/>
<text text-anchor="start" x="79.64" y="-532.8" font-family="Arial" font-size="14.00">Source_System_Key </text>
<text text-anchor="start" x="214.26" y="-532.8" font-family="Arial" font-size="14.00" fill="#666666">[bigint unsigned]</text>
<polygon fill="none" stroke="black" points="72.64,-489.8 72.64,-520.6 364.12,-520.6 364.12,-489.8 72.64,-489.8"/>
<text text-anchor="start" x="79.64" y="-502" font-family="Arial" font-size="14.00">System_Name </text>
<text text-anchor="start" x="175.33" y="-502" font-family="Arial" font-size="14.00" fill="#666666">[varchar(50)]</text>
<polygon fill="none" stroke="black" points="72.64,-459 72.64,-489.8 364.12,-489.8 364.12,-459 72.64,-459"/>
<text text-anchor="start" x="79.64" y="-471.2" font-family="Arial" font-size="14.00">System_Type </text>
<text text-anchor="start" x="169.11" y="-471.2" font-family="Arial" font-size="14.00" fill="#666666">[varchar(50)]</text>
<polygon fill="none" stroke="black" points="72.64,-428.2 72.64,-459 364.12,-459 364.12,-428.2 72.64,-428.2"/>
<text text-anchor="start" x="79.64" y="-440.4" font-family="Arial" font-size="14.00">Last_Sync_Date </text>
<text text-anchor="start" x="186.26" y="-440.4" font-family="Arial" font-size="14.00" fill="#666666">[datetime]</text>
</g>
<!-- Dim_Consent&#45;&gt;Dim_Source_System -->
<g id="edge1" class="edge">
<title>Dim_Consent:Source_System_Key&#45;&gt;Dim_Source_System:Source_System_Key</title>
<path fill="none" stroke="black" d="M447.61,-1876.8C385.24,-1779.64 437.18,-536 365.12,-536"/>
<polygon fill="black" stroke="black" points="447.47,-1876.69 452.87,-1886.23 451.77,-1879.84 455.26,-1882.4 455.26,-1882.4 455.26,-1882.4 451.77,-1879.84 458.19,-1878.97 447.47,-1876.69"/>
<text text-anchor="start" x="7" y="-1892.8" font-family="Arial" font-size="10.00">FOREIGN KEY (Source_System_Key) REFERENCES Dim_Source_System (Source_System_Key)</text>
</g>
<!-- Dim_Rider -->
<g id="node3" class="node">
<title>Dim_Rider</title>
<polygon fill="#efefef" stroke="none" points="468.08,-613 468.08,-648.6 718.67,-648.6 718.67,-613 468.08,-613"/>
<polygon fill="none" stroke="black" points="468.08,-613 468.08,-648.6 718.67,-648.6 718.67,-613 468.08,-613"/>
<text text-anchor="start" x="490.64" y="-626.4" font-family="Arial Bold" font-size="18.00">Dim_Rider</text>
<text text-anchor="start" x="571.63" y="-626.4" font-family="Arial" font-size="14.00">    </text>
<text text-anchor="start" x="602.75" y="-626.4" font-family="Arial" font-size="14.00" fill="#666666">[BASE TABLE]</text>
<polygon fill="none" stroke="black" points="468.08,-582.2 468.08,-613 718.67,-613 718.67,-582.2 468.08,-582.2"/>
<text text-anchor="start" x="475.08" y="-594.4" font-family="Arial" font-size="14.00">Rider_Key </text>
<text text-anchor="start" x="544.34" y="-594.4" font-family="Arial" font-size="14.00" fill="#666666">[bigint unsigned]</text>
<polygon fill="none" stroke="black" points="468.08,-551.4 468.08,-582.2 718.67,-582.2 718.67,-551.4 468.08,-551.4"/>
<text text-anchor="start" x="475.08" y="-563.6" font-family="Arial" font-size="14.00">Source_Rider_Id </text>
<text text-anchor="start" x="584.04" y="-563.6" font-family="Arial" font-size="14.00" fill="#666666">[bigint unsigned]</text>
<polygon fill="none" stroke="black" points="468.08,-520.6 468.08,-551.4 718.67,-551.4 718.67,-520.6 468.08,-520.6"/>
<text text-anchor="start" x="475.08" y="-532.8" font-family="Arial" font-size="14.00">Source_System_Key </text>
<text text-anchor="start" x="609.7" y="-532.8" font-family="Arial" font-size="14.00" fill="#666666">[bigint unsigned]</text>
<polygon fill="none" stroke="black" points="468.08,-489.8 468.08,-520.6 718.67,-520.6 718.67,-489.8 468.08,-489.8"/>
<text text-anchor="start" x="475.08" y="-502" font-family="Arial" font-size="14.00">School_Key </text>
<text text-anchor="start" x="553.69" y="-502" font-family="Arial" font-size="14.00" fill="#666666">[bigint unsigned]</text>
<polygon fill="none" stroke="black" points="468.08,-459 468.08,-489.8 718.67,-489.8 718.67,-459 468.08,-459"/>
<text text-anchor="start" x="475.08" y="-471.2" font-family="Arial" font-size="14.00">Ethnicity </text>
<text text-anchor="start" x="531.88" y="-471.2" font-family="Arial" font-size="14.00" fill="#666666">[varchar(50)]</text>
<polygon fill="none" stroke="black" points="468.08,-428.2 468.08,-459 718.67,-459 718.67,-428.2 468.08,-428.2"/>
<text text-anchor="start" x="475.08" y="-440.4" font-family="Arial" font-size="14.00">Gender </text>
<text text-anchor="start" x="525.67" y="-440.4" font-family="Arial" font-size="14.00" fill="#666666">[varchar(20)]</text>
<polygon fill="none" stroke="black" points="468.08,-397.4 468.08,-428.2 718.67,-428.2 718.67,-397.4 468.08,-397.4"/>
<text text-anchor="start" x="475.08" y="-409.6" font-family="Arial" font-size="14.00">Pupil_Premium </text>
<text text-anchor="start" x="573.9" y="-409.6" font-family="Arial" font-size="14.00" fill="#666666">[tinyint]</text>
<polygon fill="none" stroke="black" points="468.08,-366.6 468.08,-397.4 718.67,-397.4 718.67,-366.6 468.08,-366.6"/>
<text text-anchor="start" x="475.08" y="-378.8" font-family="Arial" font-size="14.00">Has_Send </text>
<text text-anchor="start" x="544.35" y="-378.8" font-family="Arial" font-size="14.00" fill="#666666">[tinyint]</text>
</g>
<!-- Dim_Consent&#45;&gt;Dim_Rider -->
<g id="edge2" class="edge">
<title>Dim_Consent:Rider_Key&#45;&gt;Dim_Rider:Rider_Key</title>
<path fill="none" stroke="black" d="M735.82,-1842.98C764.62,-1730.16 752.78,-597.6 719.67,-597.6"/>
<polygon fill="black" stroke="black" points="735.86,-1842.9 727.15,-1849.57 733.33,-1847.6 731.27,-1851.41 731.27,-1851.41 731.27,-1851.41 733.33,-1847.6 735.07,-1853.84 735.86,-1842.9"/>
<text text-anchor="start" x="737.95" y="-1862" font-family="Arial" font-size="10.00">FOREIGN KEY (Rider_Key) REFERENCES Dim_Rider (Rider_Key)</text>
</g>
<!-- Dim_Delivery_Header -->
<g id="node4" class="node">
<title>Dim_Delivery_Header</title>
<polygon fill="#efefef" stroke="none" points="822.66,-936.4 822.66,-972 1126.09,-972 1126.09,-936.4 822.66,-936.4"/>
<polygon fill="none" stroke="black" points="822.66,-936.4 822.66,-972 1126.09,-972 1126.09,-936.4 822.66,-936.4"/>
<text text-anchor="start" x="829.66" y="-949.8" font-family="Arial Bold" font-size="18.00">Dim_Delivery_Header</text>
<text text-anchor="start" x="994.6" y="-949.8" font-family="Arial" font-size="14.00">    </text>
<text text-anchor="start" x="1025.72" y="-949.8" font-family="Arial" font-size="14.00" fill="#666666">[BASE TABLE]</text>
<polygon fill="none" stroke="black" points="822.66,-905.6 822.66,-936.4 1126.09,-936.4 1126.09,-905.6 822.66,-905.6"/>
<text text-anchor="start" x="829.66" y="-917.8" font-family="Arial" font-size="14.00">Delivery_Key </text>
<text text-anchor="start" x="916.03" y="-917.8" font-family="Arial" font-size="14.00" fill="#666666">[bigint unsigned]</text>
<polygon fill="none" stroke="black" points="822.66,-874.8 822.66,-905.6 1126.09,-905.6 1126.09,-874.8 822.66,-874.8"/>
<text text-anchor="start" x="829.66" y="-887" font-family="Arial" font-size="14.00">Source_Delivery_Id </text>
<text text-anchor="start" x="955.73" y="-887" font-family="Arial" font-size="14.00" fill="#666666">[bigint unsigned]</text>
<polygon fill="none" stroke="black" points="822.66,-844 822.66,-874.8 1126.09,-874.8 1126.09,-844 822.66,-844"/>
<text text-anchor="start" x="829.66" y="-856.2" font-family="Arial" font-size="14.00">Source_System_Key </text>
<text text-anchor="start" x="964.28" y="-856.2" font-family="Arial" font-size="14.00" fill="#666666">[bigint unsigned]</text>
<polygon fill="none" stroke="black" points="822.66,-813.2 822.66,-844 1126.09,-844 1126.09,-813.2 822.66,-813.2"/>
<text text-anchor="start" x="829.66" y="-825.4" font-family="Arial" font-size="14.00">Grant_Key </text>
<text text-anchor="start" x="900.48" y="-825.4" font-family="Arial" font-size="14.00" fill="#666666">[bigint unsigned]</text>
<polygon fill="none" stroke="black" points="822.66,-782.4 822.66,-813.2 1126.09,-813.2 1126.09,-782.4 822.66,-782.4"/>
<text text-anchor="start" x="829.66" y="-794.6" font-family="Arial" font-size="14.00">School_Key </text>
<text text-anchor="start" x="908.27" y="-794.6" font-family="Arial" font-size="14.00" fill="#666666">[bigint unsigned]</text>
<polygon fill="none" stroke="black" points="822.66,-751.6 822.66,-782.4 1126.09,-782.4 1126.09,-751.6 822.66,-751.6"/>
<text text-anchor="start" x="829.66" y="-763.8" font-family="Arial" font-size="14.00">Organisation_Key </text>
<text text-anchor="start" x="944.84" y="-763.8" font-family="Arial" font-size="14.00" fill="#666666">[bigint unsigned]</text>
<polygon fill="none" stroke="black" points="822.66,-720.8 822.66,-751.6 1126.09,-751.6 1126.09,-720.8 822.66,-720.8"/>
<text text-anchor="start" x="829.66" y="-733" font-family="Arial" font-size="14.00">Training_Provider_Key </text>
<text text-anchor="start" x="975.96" y="-733" font-family="Arial" font-size="14.00" fill="#666666">[bigint unsigned]</text>
<polygon fill="none" stroke="black" points="822.66,-690 822.66,-720.8 1126.09,-720.8 1126.09,-690 822.66,-690"/>
<text text-anchor="start" x="829.66" y="-702.2" font-family="Arial" font-size="14.00">External_System_Key </text>
<text text-anchor="start" x="971.28" y="-702.2" font-family="Arial" font-size="14.00" fill="#666666">[bigint unsigned]</text>
<polygon fill="none" stroke="black" points="822.66,-659.2 822.66,-690 1126.09,-690 1126.09,-659.2 822.66,-659.2"/>
<text text-anchor="start" x="829.66" y="-671.4" font-family="Arial" font-size="14.00">Delivery_Status </text>
<text text-anchor="start" x="931.6" y="-671.4" font-family="Arial" font-size="14.00" fill="#666666">[varchar(50)]</text>
<polygon fill="none" stroke="black" points="822.66,-628.4 822.66,-659.2 1126.09,-659.2 1126.09,-628.4 822.66,-628.4"/>
<text text-anchor="start" x="829.66" y="-640.6" font-family="Arial" font-size="14.00">Date_Delivery_Start </text>
<text text-anchor="start" x="958.83" y="-640.6" font-family="Arial" font-size="14.00" fill="#666666">[date]</text>
<polygon fill="none" stroke="black" points="822.66,-597.6 822.66,-628.4 1126.09,-628.4 1126.09,-597.6 822.66,-597.6"/>
<text text-anchor="start" x="829.66" y="-609.8" font-family="Arial" font-size="14.00">Date_Delivery_End </text>
<text text-anchor="start" x="954.17" y="-609.8" font-family="Arial" font-size="14.00" fill="#666666">[date]</text>
<polygon fill="none" stroke="black" points="822.66,-566.8 822.66,-597.6 1126.09,-597.6 1126.09,-566.8 822.66,-566.8"/>
<text text-anchor="start" x="829.66" y="-579" font-family="Arial" font-size="14.00">Digitisation_Booking </text>
<text text-anchor="start" x="960.41" y="-579" font-family="Arial" font-size="14.00" fill="#666666">[tinyint]</text>
<polygon fill="none" stroke="black" points="822.66,-536 822.66,-566.8 1126.09,-566.8 1126.09,-536 822.66,-536"/>
<text text-anchor="start" x="829.66" y="-548.2" font-family="Arial" font-size="14.00">Fleet_Cycles_Used </text>
<text text-anchor="start" x="954.94" y="-548.2" font-family="Arial" font-size="14.00" fill="#666666">[int]</text>
<polygon fill="none" stroke="black" points="822.66,-505.2 822.66,-536 1126.09,-536 1126.09,-505.2 822.66,-505.2"/>
<text text-anchor="start" x="829.66" y="-517.4" font-family="Arial" font-size="14.00">Consent_Cutoff_Date </text>
<text text-anchor="start" x="968.19" y="-517.4" font-family="Arial" font-size="14.00" fill="#666666">[date]</text>
<polygon fill="none" stroke="black" points="822.66,-474.4 822.66,-505.2 1126.09,-505.2 1126.09,-474.4 822.66,-474.4"/>
<text text-anchor="start" x="829.66" y="-486.6" font-family="Arial" font-size="14.00">Pref_Alt_Delivery_Location </text>
<text text-anchor="start" x="1002.42" y="-486.6" font-family="Arial" font-size="14.00" fill="#666666">[tinyint]</text>
<polygon fill="none" stroke="black" points="822.66,-443.6 822.66,-474.4 1126.09,-474.4 1126.09,-443.6 822.66,-443.6"/>
<text text-anchor="start" x="829.66" y="-455.8" font-family="Arial" font-size="14.00">Alt_Delivery_Location </text>
<text text-anchor="start" x="968.96" y="-455.8" font-family="Arial" font-size="14.00" fill="#666666">[text]</text>
<polygon fill="none" stroke="black" points="822.66,-412.8 822.66,-443.6 1126.09,-443.6 1126.09,-412.8 822.66,-412.8"/>
<text text-anchor="start" x="829.66" y="-425" font-family="Arial" font-size="14.00">Notes </text>
<text text-anchor="start" x="870.13" y="-425" font-family="Arial" font-size="14.00" fill="#666666">[text]</text>
<polygon fill="none" stroke="black" points="822.66,-382 822.66,-412.8 1126.09,-412.8 1126.09,-382 822.66,-382"/>
<text text-anchor="start" x="829.66" y="-394.2" font-family="Arial" font-size="14.00">Instructor_General_Notes </text>
<text text-anchor="start" x="993.86" y="-394.2" font-family="Arial" font-size="14.00" fill="#666666">[text]</text>
<polygon fill="none" stroke="black" points="822.66,-351.2 822.66,-382 1126.09,-382 1126.09,-351.2 822.66,-351.2"/>
<text text-anchor="start" x="829.66" y="-363.4" font-family="Arial" font-size="14.00">Teacher_Notes </text>
<text text-anchor="start" x="929.27" y="-363.4" font-family="Arial" font-size="14.00" fill="#666666">[text]</text>
<polygon fill="none" stroke="black" points="822.66,-320.4 822.66,-351.2 1126.09,-351.2 1126.09,-320.4 822.66,-320.4"/>
<text text-anchor="start" x="829.66" y="-332.6" font-family="Arial" font-size="14.00">School_Contacts </text>
<text text-anchor="start" x="939.4" y="-332.6" font-family="Arial" font-size="14.00" fill="#666666">[json]</text>
<polygon fill="none" stroke="black" points="822.66,-289.6 822.66,-320.4 1126.09,-320.4 1126.09,-289.6 822.66,-289.6"/>
<text text-anchor="start" x="829.66" y="-301.8" font-family="Arial" font-size="14.00">Venue </text>
<text text-anchor="start" x="874.04" y="-301.8" font-family="Arial" font-size="14.00" fill="#666666">[json]</text>
<polygon fill="none" stroke="black" points="822.66,-258.8 822.66,-289.6 1126.09,-289.6 1126.09,-258.8 822.66,-258.8"/>
<text text-anchor="start" x="829.66" y="-271" font-family="Arial" font-size="14.00">Provider_Additional_Questions </text>
<text text-anchor="start" x="1025.78" y="-271" font-family="Arial" font-size="14.00" fill="#666666">[json]</text>
<polygon fill="none" stroke="black" points="822.66,-228 822.66,-258.8 1126.09,-258.8 1126.09,-228 822.66,-228"/>
<text text-anchor="start" x="829.66" y="-240.2" font-family="Arial" font-size="14.00">Comms_Start_Date </text>
<text text-anchor="start" x="956.48" y="-240.2" font-family="Arial" font-size="14.00" fill="#666666">[date]</text>
<polygon fill="none" stroke="black" points="822.66,-197.2 822.66,-228 1126.09,-228 1126.09,-197.2 822.66,-197.2"/>
<text text-anchor="start" x="829.66" y="-209.4" font-family="Arial" font-size="14.00">Date_Completed </text>
<text text-anchor="start" x="938.62" y="-209.4" font-family="Arial" font-size="14.00" fill="#666666">[date]</text>
<polygon fill="none" stroke="black" points="822.66,-166.4 822.66,-197.2 1126.09,-197.2 1126.09,-166.4 822.66,-166.4"/>
<text text-anchor="start" x="829.66" y="-178.6" font-family="Arial" font-size="14.00">Pref_Link_Managed_Consent </text>
<text text-anchor="start" x="1018.79" y="-178.6" font-family="Arial" font-size="14.00" fill="#666666">[tinyint]</text>
<polygon fill="none" stroke="black" points="822.66,-135.6 822.66,-166.4 1126.09,-166.4 1126.09,-135.6 822.66,-135.6"/>
<text text-anchor="start" x="829.66" y="-147.8" font-family="Arial" font-size="14.00">Include_Tp_Terms_In_Consent </text>
<text text-anchor="start" x="1029.66" y="-147.8" font-family="Arial" font-size="14.00" fill="#666666">[tinyint]</text>
<polygon fill="none" stroke="black" points="822.66,-104.8 822.66,-135.6 1126.09,-135.6 1126.09,-104.8 822.66,-104.8"/>
<text text-anchor="start" x="829.66" y="-117" font-family="Arial" font-size="14.00">Consent_Src_Characteristics </text>
<text text-anchor="start" x="1014.85" y="-117" font-family="Arial" font-size="14.00" fill="#666666">[tinyint]</text>
<polygon fill="none" stroke="black" points="822.66,-74 822.66,-104.8 1126.09,-104.8 1126.09,-74 822.66,-74"/>
<text text-anchor="start" x="829.66" y="-86.2" font-family="Arial" font-size="14.00">Max_Consents </text>
<text text-anchor="start" x="926.93" y="-86.2" font-family="Arial" font-size="14.00" fill="#666666">[int]</text>
<polygon fill="none" stroke="black" points="822.66,-43.2 822.66,-74 1126.09,-74 1126.09,-43.2 822.66,-43.2"/>
<text text-anchor="start" x="829.66" y="-55.4" font-family="Arial" font-size="14.00">Waiting_List_Enabled </text>
<text text-anchor="start" x="968.97" y="-55.4" font-family="Arial" font-size="14.00" fill="#666666">[tinyint]</text>
</g>
<!-- Dim_Consent&#45;&gt;Dim_Delivery_Header -->
<g id="edge3" class="edge">
<title>Dim_Consent:Delivery_Key&#45;&gt;Dim_Delivery_Header:Delivery_Key</title>
<path fill="none" stroke="black" d="M740.79,-1817.94C823.98,-1759.02 724.67,-921 821.66,-921"/>
<polygon fill="black" stroke="black" points="740.76,-1817.95 729.85,-1816.82 735.7,-1819.63 731.59,-1820.99 731.59,-1820.99 731.59,-1820.99 735.7,-1819.63 732.68,-1825.37 740.76,-1817.95"/>
<text text-anchor="start" x="737.95" y="-1831.2" font-family="Arial" font-size="10.00">FOREIGN KEY (Delivery_Key) REFERENCES Dim_Delivery_Header (Delivery_Key)</text>
</g>
</g>
</svg>
