<?xml version="1.0" encoding="UTF-8" standalone="no"?>
<!DOCTYPE svg PUBLIC "-//W3C//DTD SVG 1.1//EN"
 "http://www.w3.org/Graphics/SVG/1.1/DTD/svg11.dtd">
<!-- Generated by graphviz version 12.1.2 (20240928.0832)
 -->
<!-- Title: Dim_Grant_Recipient Pages: 1 -->
<svg width="809pt" height="1468pt"
 viewBox="0.00 0.00 809.45 1468.40" xmlns="http://www.w3.org/2000/svg" xmlns:xlink="http://www.w3.org/1999/xlink">
<g id="graph0" class="graph" transform="scale(1 1) rotate(0) translate(4 1464.4)">
<title>Dim_Grant_Recipient</title>
<polygon fill="white" stroke="none" points="-4,4 -4,-1464.4 805.45,-1464.4 805.45,4 -4,4"/>
<!-- Dim_Grant_Recipient -->
<g id="node1" class="node">
<title>Dim_Grant_Recipient</title>
<polygon fill="#efefef" stroke="none" points="46.2,-974.2 46.2,-1009.8 344.65,-1009.8 344.65,-974.2 46.2,-974.2"/>
<polygon fill="none" stroke="black" points="46.2,-974.2 46.2,-1009.8 344.65,-1009.8 344.65,-974.2 46.2,-974.2"/>
<text text-anchor="start" x="53.2" y="-987.6" font-family="Arial Bold" font-size="18.00">Dim_Grant_Recipient</text>
<text text-anchor="start" x="213.16" y="-987.6" font-family="Arial" font-size="14.00">    </text>
<text text-anchor="start" x="244.28" y="-987.6" font-family="Arial" font-size="14.00" fill="#666666">[BASE TABLE]</text>
<polygon fill="none" stroke="black" points="46.2,-943.4 46.2,-974.2 344.65,-974.2 344.65,-943.4 46.2,-943.4"/>
<text text-anchor="start" x="53.2" y="-955.6" font-family="Arial" font-size="14.00">Recipient_Key </text>
<text text-anchor="start" x="147.37" y="-955.6" font-family="Arial" font-size="14.00" fill="#666666">[bigint unsigned]</text>
<polygon fill="none" stroke="black" points="46.2,-912.6 46.2,-943.4 344.65,-943.4 344.65,-912.6 46.2,-912.6"/>
<text text-anchor="start" x="53.2" y="-924.8" font-family="Arial" font-size="14.00">Source_Recipient_Id </text>
<text text-anchor="start" x="187.06" y="-924.8" font-family="Arial" font-size="14.00" fill="#666666">[bigint unsigned]</text>
<polygon fill="none" stroke="black" points="46.2,-881.8 46.2,-912.6 344.65,-912.6 344.65,-881.8 46.2,-881.8"/>
<text text-anchor="start" x="53.2" y="-894" font-family="Arial" font-size="14.00">Source_System_Key </text>
<text text-anchor="start" x="187.82" y="-894" font-family="Arial" font-size="14.00" fill="#666666">[bigint unsigned]</text>
<polygon fill="none" stroke="black" points="46.2,-851 46.2,-881.8 344.65,-881.8 344.65,-851 46.2,-851"/>
<text text-anchor="start" x="53.2" y="-863.2" font-family="Arial" font-size="14.00">Recipient_Name </text>
<text text-anchor="start" x="160.59" y="-863.2" font-family="Arial" font-size="14.00" fill="#666666">[varchar(255)]</text>
<polygon fill="none" stroke="black" points="46.2,-820.2 46.2,-851 344.65,-851 344.65,-820.2 46.2,-820.2"/>
<text text-anchor="start" x="53.2" y="-832.4" font-family="Arial" font-size="14.00">Recipient_Number </text>
<text text-anchor="start" x="173.03" y="-832.4" font-family="Arial" font-size="14.00" fill="#666666">[varchar(255)]</text>
<polygon fill="none" stroke="black" points="46.2,-789.4 46.2,-820.2 344.65,-820.2 344.65,-789.4 46.2,-789.4"/>
<text text-anchor="start" x="53.2" y="-801.6" font-family="Arial" font-size="14.00">LA_Id </text>
<text text-anchor="start" x="93.68" y="-801.6" font-family="Arial" font-size="14.00" fill="#666666">[varchar(255)]</text>
<polygon fill="none" stroke="black" points="46.2,-758.6 46.2,-789.4 344.65,-789.4 344.65,-758.6 46.2,-758.6"/>
<text text-anchor="start" x="53.2" y="-770.8" font-family="Arial" font-size="14.00">Is_Active </text>
<text text-anchor="start" x="113.89" y="-770.8" font-family="Arial" font-size="14.00" fill="#666666">[char(1)]</text>
<polygon fill="none" stroke="black" points="46.2,-727.8 46.2,-758.6 344.65,-758.6 344.65,-727.8 46.2,-727.8"/>
<text text-anchor="start" x="53.2" y="-740" font-family="Arial" font-size="14.00">Valid_From_Date </text>
<text text-anchor="start" x="166.03" y="-740" font-family="Arial" font-size="14.00" fill="#666666">[date]</text>
<polygon fill="none" stroke="black" points="46.2,-697 46.2,-727.8 344.65,-727.8 344.65,-697 46.2,-697"/>
<text text-anchor="start" x="53.2" y="-709.2" font-family="Arial" font-size="14.00">Valid_To_Date </text>
<text text-anchor="start" x="149.7" y="-709.2" font-family="Arial" font-size="14.00" fill="#666666">[date]</text>
<polygon fill="none" stroke="black" points="46.2,-666.2 46.2,-697 344.65,-697 344.65,-666.2 46.2,-666.2"/>
<text text-anchor="start" x="53.2" y="-678.4" font-family="Arial" font-size="14.00">Is_Current </text>
<text text-anchor="start" x="122.45" y="-678.4" font-family="Arial" font-size="14.00" fill="#666666">[tinyint(1)]</text>
<polygon fill="none" stroke="black" points="46.2,-635.4 46.2,-666.2 344.65,-666.2 344.65,-635.4 46.2,-635.4"/>
<text text-anchor="start" x="53.2" y="-647.6" font-family="Arial" font-size="14.00">Address_Line_1 </text>
<text text-anchor="start" x="158.28" y="-647.6" font-family="Arial" font-size="14.00" fill="#666666">[varchar(255)]</text>
<polygon fill="none" stroke="black" points="46.2,-604.6 46.2,-635.4 344.65,-635.4 344.65,-604.6 46.2,-604.6"/>
<text text-anchor="start" x="53.2" y="-616.8" font-family="Arial" font-size="14.00">Address_Line_2 </text>
<text text-anchor="start" x="158.28" y="-616.8" font-family="Arial" font-size="14.00" fill="#666666">[varchar(255)]</text>
<polygon fill="none" stroke="black" points="46.2,-573.8 46.2,-604.6 344.65,-604.6 344.65,-573.8 46.2,-573.8"/>
<text text-anchor="start" x="53.2" y="-586" font-family="Arial" font-size="14.00">City </text>
<text text-anchor="start" x="81.2" y="-586" font-family="Arial" font-size="14.00" fill="#666666">[varchar(255)]</text>
<polygon fill="none" stroke="black" points="46.2,-543 46.2,-573.8 344.65,-573.8 344.65,-543 46.2,-543"/>
<text text-anchor="start" x="53.2" y="-555.2" font-family="Arial" font-size="14.00">Postcode </text>
<text text-anchor="start" x="115.46" y="-555.2" font-family="Arial" font-size="14.00" fill="#666666">[varchar(255)]</text>
<polygon fill="none" stroke="black" points="46.2,-512.2 46.2,-543 344.65,-543 344.65,-512.2 46.2,-512.2"/>
<text text-anchor="start" x="53.2" y="-524.4" font-family="Arial" font-size="14.00">Website </text>
<text text-anchor="start" x="107.66" y="-524.4" font-family="Arial" font-size="14.00" fill="#666666">[varchar(255)]</text>
<polygon fill="none" stroke="black" points="46.2,-481.4 46.2,-512.2 344.65,-512.2 344.65,-481.4 46.2,-481.4"/>
<text text-anchor="start" x="53.2" y="-493.6" font-family="Arial" font-size="14.00">Inception_Date </text>
<text text-anchor="start" x="151.27" y="-493.6" font-family="Arial" font-size="14.00" fill="#666666">[date]</text>
<polygon fill="none" stroke="black" points="46.2,-450.6 46.2,-481.4 344.65,-481.4 344.65,-450.6 46.2,-450.6"/>
<text text-anchor="start" x="53.2" y="-462.8" font-family="Arial" font-size="14.00">Renewal_Date </text>
<text text-anchor="start" x="148.92" y="-462.8" font-family="Arial" font-size="14.00" fill="#666666">[date]</text>
<polygon fill="none" stroke="black" points="46.2,-419.8 46.2,-450.6 344.65,-450.6 344.65,-419.8 46.2,-419.8"/>
<text text-anchor="start" x="53.2" y="-432" font-family="Arial" font-size="14.00">Deregistered_Date </text>
<text text-anchor="start" x="174.6" y="-432" font-family="Arial" font-size="14.00" fill="#666666">[date]</text>
<polygon fill="none" stroke="black" points="46.2,-389 46.2,-419.8 344.65,-419.8 344.65,-389 46.2,-389"/>
<text text-anchor="start" x="53.2" y="-401.2" font-family="Arial" font-size="14.00">Is_SGO </text>
<text text-anchor="start" x="106.88" y="-401.2" font-family="Arial" font-size="14.00" fill="#666666">[tinyint(1)]</text>
<polygon fill="none" stroke="black" points="46.2,-358.2 46.2,-389 344.65,-389 344.65,-358.2 46.2,-358.2"/>
<text text-anchor="start" x="53.2" y="-370.4" font-family="Arial" font-size="14.00">Source_Created_At </text>
<text text-anchor="start" x="180.05" y="-370.4" font-family="Arial" font-size="14.00" fill="#666666">[timestamp]</text>
<polygon fill="none" stroke="black" points="46.2,-327.4 46.2,-358.2 344.65,-358.2 344.65,-327.4 46.2,-327.4"/>
<text text-anchor="start" x="53.2" y="-339.6" font-family="Arial" font-size="14.00">Source_Updated_At </text>
<text text-anchor="start" x="183.18" y="-339.6" font-family="Arial" font-size="14.00" fill="#666666">[timestamp]</text>
<polygon fill="none" stroke="black" stroke-width="3" points="44.7,-325.9 44.7,-1011.3 346.15,-1011.3 346.15,-325.9 44.7,-325.9"/>
</g>
<!-- Dim_Source_System -->
<g id="node3" class="node">
<title>Dim_Source_System</title>
<polygon fill="#efefef" stroke="none" points="49.68,-166.4 49.68,-202 341.17,-202 341.17,-166.4 49.68,-166.4"/>
<polygon fill="none" stroke="black" points="49.68,-166.4 49.68,-202 341.17,-202 341.17,-166.4 49.68,-166.4"/>
<text text-anchor="start" x="56.68" y="-179.8" font-family="Arial Bold" font-size="18.00">Dim_Source_System</text>
<text text-anchor="start" x="209.68" y="-179.8" font-family="Arial" font-size="14.00">    </text>
<text text-anchor="start" x="240.79" y="-179.8" font-family="Arial" font-size="14.00" fill="#666666">[BASE TABLE]</text>
<polygon fill="none" stroke="black" points="49.68,-135.6 49.68,-166.4 341.17,-166.4 341.17,-135.6 49.68,-135.6"/>
<text text-anchor="start" x="56.68" y="-147.8" font-family="Arial" font-size="14.00">Source_System_Key </text>
<text text-anchor="start" x="191.3" y="-147.8" font-family="Arial" font-size="14.00" fill="#666666">[bigint unsigned]</text>
<polygon fill="none" stroke="black" points="49.68,-104.8 49.68,-135.6 341.17,-135.6 341.17,-104.8 49.68,-104.8"/>
<text text-anchor="start" x="56.68" y="-117" font-family="Arial" font-size="14.00">System_Name </text>
<text text-anchor="start" x="152.38" y="-117" font-family="Arial" font-size="14.00" fill="#666666">[varchar(50)]</text>
<polygon fill="none" stroke="black" points="49.68,-74 49.68,-104.8 341.17,-104.8 341.17,-74 49.68,-74"/>
<text text-anchor="start" x="56.68" y="-86.2" font-family="Arial" font-size="14.00">System_Type </text>
<text text-anchor="start" x="146.16" y="-86.2" font-family="Arial" font-size="14.00" fill="#666666">[varchar(50)]</text>
<polygon fill="none" stroke="black" points="49.68,-43.2 49.68,-74 341.17,-74 341.17,-43.2 49.68,-43.2"/>
<text text-anchor="start" x="56.68" y="-55.4" font-family="Arial" font-size="14.00">Last_Sync_Date </text>
<text text-anchor="start" x="163.3" y="-55.4" font-family="Arial" font-size="14.00" fill="#666666">[datetime]</text>
</g>
<!-- Dim_Grant_Recipient&#45;&gt;Dim_Source_System -->
<g id="edge2" class="edge">
<title>Dim_Grant_Recipient:Source_System_Key&#45;&gt;Dim_Source_System:Source_System_Key</title>
<path fill="none" stroke="black" d="M355.42,-893.54C428.14,-837.24 421.68,-151 342.17,-151"/>
<polygon fill="black" stroke="black" points="355.33,-893.57 344.38,-892.87 350.33,-895.44 346.28,-896.97 346.28,-896.97 346.28,-896.97 350.33,-895.44 347.54,-901.3 355.33,-893.57"/>
<text text-anchor="start" x="352.65" y="-907.2" font-family="Arial" font-size="10.00">FOREIGN KEY (Source_System_Key) REFERENCES Dim_Source_System (Source_System_Key)</text>
</g>
<!-- Dim_Grant -->
<g id="node2" class="node">
<title>Dim_Grant</title>
<polygon fill="#efefef" stroke="none" points="68.96,-1381.6 68.96,-1417.2 321.89,-1417.2 321.89,-1381.6 68.96,-1381.6"/>
<polygon fill="none" stroke="black" points="68.96,-1381.6 68.96,-1417.2 321.89,-1417.2 321.89,-1381.6 68.96,-1381.6"/>
<text text-anchor="start" x="92.19" y="-1395" font-family="Arial Bold" font-size="18.00">Dim_Grant</text>
<text text-anchor="start" x="174.17" y="-1395" font-family="Arial" font-size="14.00">    </text>
<text text-anchor="start" x="205.29" y="-1395" font-family="Arial" font-size="14.00" fill="#666666">[BASE TABLE]</text>
<polygon fill="none" stroke="black" points="68.96,-1350.8 68.96,-1381.6 321.89,-1381.6 321.89,-1350.8 68.96,-1350.8"/>
<text text-anchor="start" x="75.96" y="-1363" font-family="Arial" font-size="14.00">Grant_Key </text>
<text text-anchor="start" x="146.77" y="-1363" font-family="Arial" font-size="14.00" fill="#666666">[bigint unsigned]</text>
<polygon fill="none" stroke="black" points="68.96,-1320 68.96,-1350.8 321.89,-1350.8 321.89,-1320 68.96,-1320"/>
<text text-anchor="start" x="75.96" y="-1332.2" font-family="Arial" font-size="14.00">Source_Grant_Id </text>
<text text-anchor="start" x="186.47" y="-1332.2" font-family="Arial" font-size="14.00" fill="#666666">[bigint unsigned]</text>
<polygon fill="none" stroke="black" points="68.96,-1289.2 68.96,-1320 321.89,-1320 321.89,-1289.2 68.96,-1289.2"/>
<text text-anchor="start" x="75.96" y="-1301.4" font-family="Arial" font-size="14.00">Source_System_Key </text>
<text text-anchor="start" x="210.58" y="-1301.4" font-family="Arial" font-size="14.00" fill="#666666">[bigint unsigned]</text>
<polygon fill="none" stroke="black" points="68.96,-1258.4 68.96,-1289.2 321.89,-1289.2 321.89,-1258.4 68.96,-1258.4"/>
<text text-anchor="start" x="75.96" y="-1270.6" font-family="Arial" font-size="14.00">Grant_Recipient_Key </text>
<text text-anchor="start" x="212.93" y="-1270.6" font-family="Arial" font-size="14.00" fill="#666666">[bigint unsigned]</text>
<polygon fill="none" stroke="black" points="68.96,-1227.6 68.96,-1258.4 321.89,-1258.4 321.89,-1227.6 68.96,-1227.6"/>
<text text-anchor="start" x="75.96" y="-1239.8" font-family="Arial" font-size="14.00">Grant_Number </text>
<text text-anchor="start" x="172.44" y="-1239.8" font-family="Arial" font-size="14.00" fill="#666666">[varchar(255)]</text>
<polygon fill="none" stroke="black" points="68.96,-1196.8 68.96,-1227.6 321.89,-1227.6 321.89,-1196.8 68.96,-1196.8"/>
<text text-anchor="start" x="75.96" y="-1209" font-family="Arial" font-size="14.00">Grant_Label </text>
<text text-anchor="start" x="156.9" y="-1209" font-family="Arial" font-size="14.00" fill="#666666">[varchar(255)]</text>
<polygon fill="none" stroke="black" points="68.96,-1166 68.96,-1196.8 321.89,-1196.8 321.89,-1166 68.96,-1166"/>
<text text-anchor="start" x="75.96" y="-1178.2" font-family="Arial" font-size="14.00">Grant_Source </text>
<text text-anchor="start" x="167.01" y="-1178.2" font-family="Arial" font-size="14.00" fill="#666666">[varchar(255)]</text>
<polygon fill="none" stroke="black" points="68.96,-1135.2 68.96,-1166 321.89,-1166 321.89,-1135.2 68.96,-1135.2"/>
<text text-anchor="start" x="75.96" y="-1147.4" font-family="Arial" font-size="14.00">Grant_Period_Start_Year </text>
<text text-anchor="start" x="237.83" y="-1147.4" font-family="Arial" font-size="14.00" fill="#666666">[smallint]</text>
</g>
<!-- Dim_Grant&#45;&gt;Dim_Grant_Recipient -->
<g id="edge1" class="edge">
<title>Dim_Grant:Grant_Recipient_Key&#45;&gt;Dim_Grant_Recipient:Recipient_Key</title>
<path fill="none" stroke="black" d="M332.83,-1271.62C395.07,-1243.79 412.41,-958.8 345.65,-958.8"/>
<polygon fill="black" stroke="black" points="332.98,-1271.59 322.25,-1269.33 327.77,-1272.73 323.54,-1273.66 323.54,-1273.66 323.54,-1273.66 327.77,-1272.73 324.18,-1278.12 332.98,-1271.59"/>
<text text-anchor="start" x="329.89" y="-1283.8" font-family="Arial" font-size="10.00">FOREIGN KEY (Grant_Recipient_Key) REFERENCES Dim_Grant_Recipient (Recipient_Key)</text>
</g>
</g>
</svg>
