<?xml version="1.0" encoding="UTF-8" standalone="no"?>
<!DOCTYPE svg PUBLIC "-//W3C//DTD SVG 1.1//EN"
 "http://www.w3.org/Graphics/SVG/1.1/DTD/svg11.dtd">
<!-- Generated by graphviz version 12.1.2 (20240928.0832)
 -->
<!-- Title: Dim_Send_Code Pages: 1 -->
<svg width="588pt" height="448pt"
 viewBox="0.00 0.00 587.95 448.00" xmlns="http://www.w3.org/2000/svg" xmlns:xlink="http://www.w3.org/1999/xlink">
<g id="graph0" class="graph" transform="scale(1 1) rotate(0) translate(4 444)">
<title>Dim_Send_Code</title>
<polygon fill="white" stroke="none" points="-4,4 -4,-444 583.95,-444 583.95,4 -4,4"/>
<!-- Dim_Send_Code -->
<g id="node1" class="node">
<title>Dim_Send_Code</title>
<polygon fill="#efefef" stroke="none" points="271.27,-138.6 271.27,-174.2 533.75,-174.2 533.75,-138.6 271.27,-138.6"/>
<polygon fill="none" stroke="black" points="271.27,-138.6 271.27,-174.2 533.75,-174.2 533.75,-138.6 271.27,-138.6"/>
<text text-anchor="start" x="278.27" y="-152" font-family="Arial Bold" font-size="18.00">Dim_Send_Code</text>
<text text-anchor="start" x="402.26" y="-152" font-family="Arial" font-size="14.00">    </text>
<text text-anchor="start" x="433.38" y="-152" font-family="Arial" font-size="14.00" fill="#666666">[BASE TABLE]</text>
<polygon fill="none" stroke="black" points="271.27,-107.8 271.27,-138.6 533.75,-138.6 533.75,-107.8 271.27,-107.8"/>
<text text-anchor="start" x="278.27" y="-120" font-family="Arial" font-size="14.00">Send_Code_Key </text>
<text text-anchor="start" x="388.02" y="-120" font-family="Arial" font-size="14.00" fill="#666666">[bigint unsigned]</text>
<polygon fill="none" stroke="black" points="271.27,-77 271.27,-107.8 533.75,-107.8 533.75,-77 271.27,-77"/>
<text text-anchor="start" x="278.27" y="-89.2" font-family="Arial" font-size="14.00">Send_Code </text>
<text text-anchor="start" x="356.11" y="-89.2" font-family="Arial" font-size="14.00" fill="#666666">[varchar(20)]</text>
<polygon fill="none" stroke="black" points="271.27,-46.2 271.27,-77 533.75,-77 533.75,-46.2 271.27,-46.2"/>
<text text-anchor="start" x="278.27" y="-58.4" font-family="Arial" font-size="14.00">Description </text>
<text text-anchor="start" x="352.19" y="-58.4" font-family="Arial" font-size="14.00" fill="#666666">[varchar(255)]</text>
<polygon fill="none" stroke="black" stroke-width="3" points="269.77,-44.7 269.77,-175.7 535.25,-175.7 535.25,-44.7 269.77,-44.7"/>
</g>
<!-- Map_Rider_Send -->
<g id="node2" class="node">
<title>Map_Rider_Send</title>
<polygon fill="#efefef" stroke="none" points="269.77,-361.2 269.77,-396.8 535.25,-396.8 535.25,-361.2 269.77,-361.2"/>
<polygon fill="none" stroke="black" points="269.77,-361.2 269.77,-396.8 535.25,-396.8 535.25,-361.2 269.77,-361.2"/>
<text text-anchor="start" x="276.77" y="-374.6" font-family="Arial Bold" font-size="18.00">Map_Rider_Send</text>
<text text-anchor="start" x="403.76" y="-374.6" font-family="Arial" font-size="14.00">    </text>
<text text-anchor="start" x="434.88" y="-374.6" font-family="Arial" font-size="14.00" fill="#666666">[BASE TABLE]</text>
<polygon fill="none" stroke="black" points="269.77,-330.4 269.77,-361.2 535.25,-361.2 535.25,-330.4 269.77,-330.4"/>
<text text-anchor="start" x="276.77" y="-342.6" font-family="Arial" font-size="14.00">Rider_Key </text>
<text text-anchor="start" x="346.03" y="-342.6" font-family="Arial" font-size="14.00" fill="#666666">[bigint unsigned]</text>
<polygon fill="none" stroke="black" points="269.77,-299.6 269.77,-330.4 535.25,-330.4 535.25,-299.6 269.77,-299.6"/>
<text text-anchor="start" x="276.77" y="-311.8" font-family="Arial" font-size="14.00">Send_Code_Key </text>
<text text-anchor="start" x="386.52" y="-311.8" font-family="Arial" font-size="14.00" fill="#666666">[bigint unsigned]</text>
</g>
<!-- Map_Rider_Send&#45;&gt;Dim_Send_Code -->
<g id="edge1" class="edge">
<title>Map_Rider_Send:Send_Code_Key&#45;&gt;Dim_Send_Code:Send_Code_Key</title>
<path fill="none" stroke="black" d="M403.36,-288.47C412.97,-235.69 501.76,-276.04 533.75,-220.4 555.29,-182.95 577.96,-123.2 534.75,-123.2"/>
<polygon fill="black" stroke="black" points="403.37,-288.3 398.05,-297.89 402.93,-293.62 402.57,-297.93 402.57,-297.93 402.57,-297.93 402.93,-293.62 407.02,-298.64 403.37,-288.3"/>
<text text-anchor="start" x="7" y="-308.6" font-family="Arial" font-size="10.00">FOREIGN KEY (Send_Code_Key) REFERENCES Dim_Send_Code (Send_Code_Key)</text>
</g>
</g>
</svg>
