<?xml version="1.0" encoding="UTF-8" standalone="no"?>
<!DOCTYPE svg PUBLIC "-//W3C//DTD SVG 1.1//EN"
 "http://www.w3.org/Graphics/SVG/1.1/DTD/svg11.dtd">
<!-- Generated by graphviz version 12.1.2 (20240928.0832)
 -->
<!-- Title: Fact_Grant_Claims Pages: 1 -->
<svg width="392pt" height="567pt"
 viewBox="0.00 0.00 392.21 567.20" xmlns="http://www.w3.org/2000/svg" xmlns:xlink="http://www.w3.org/1999/xlink">
<g id="graph0" class="graph" transform="scale(1 1) rotate(0) translate(4 563.2)">
<title>Fact_Grant_Claims</title>
<polygon fill="white" stroke="none" points="-4,4 -4,-563.2 388.21,-563.2 388.21,4 -4,4"/>
<!-- Fact_Grant_Claims -->
<g id="node1" class="node">
<title>Fact_Grant_Claims</title>
<polygon fill="#efefef" stroke="none" points="46.2,-477.4 46.2,-513 338.01,-513 338.01,-477.4 46.2,-477.4"/>
<polygon fill="none" stroke="black" points="46.2,-477.4 46.2,-513 338.01,-513 338.01,-477.4 46.2,-477.4"/>
<text text-anchor="start" x="59.37" y="-490.8" font-family="Arial Bold" font-size="18.00">Fact_Grant_Claims</text>
<text text-anchor="start" x="200.35" y="-490.8" font-family="Arial" font-size="14.00">    </text>
<text text-anchor="start" x="231.46" y="-490.8" font-family="Arial" font-size="14.00" fill="#666666">[BASE TABLE]</text>
<polygon fill="none" stroke="black" points="46.2,-446.6 46.2,-477.4 338.01,-477.4 338.01,-446.6 46.2,-446.6"/>
<text text-anchor="start" x="53.2" y="-458.8" font-family="Arial" font-size="14.00">Claim_Key </text>
<text text-anchor="start" x="124.78" y="-458.8" font-family="Arial" font-size="14.00" fill="#666666">[bigint unsigned]</text>
<polygon fill="none" stroke="black" points="46.2,-415.8 46.2,-446.6 338.01,-446.6 338.01,-415.8 46.2,-415.8"/>
<text text-anchor="start" x="53.2" y="-428" font-family="Arial" font-size="14.00">Grant_Key </text>
<text text-anchor="start" x="124.01" y="-428" font-family="Arial" font-size="14.00" fill="#666666">[bigint unsigned]</text>
<polygon fill="none" stroke="black" points="46.2,-385 46.2,-415.8 338.01,-415.8 338.01,-385 46.2,-385"/>
<text text-anchor="start" x="53.2" y="-397.2" font-family="Arial" font-size="14.00">Source_System_Key </text>
<text text-anchor="start" x="187.82" y="-397.2" font-family="Arial" font-size="14.00" fill="#666666">[int]</text>
<polygon fill="none" stroke="black" points="46.2,-354.2 46.2,-385 338.01,-385 338.01,-354.2 46.2,-354.2"/>
<text text-anchor="start" x="53.2" y="-366.4" font-family="Arial" font-size="14.00">Source_Claim_Id </text>
<text text-anchor="start" x="164.48" y="-366.4" font-family="Arial" font-size="14.00" fill="#666666">[bigint unsigned]</text>
<polygon fill="none" stroke="black" points="46.2,-323.4 46.2,-354.2 338.01,-354.2 338.01,-323.4 46.2,-323.4"/>
<text text-anchor="start" x="53.2" y="-335.6" font-family="Arial" font-size="14.00">Claim_Number </text>
<text text-anchor="start" x="150.45" y="-335.6" font-family="Arial" font-size="14.00" fill="#666666">[varchar(255)]</text>
<polygon fill="none" stroke="black" points="46.2,-292.6 46.2,-323.4 338.01,-323.4 338.01,-292.6 46.2,-292.6"/>
<text text-anchor="start" x="53.2" y="-304.8" font-family="Arial" font-size="14.00">Status_Raw </text>
<text text-anchor="start" x="132.57" y="-304.8" font-family="Arial" font-size="14.00" fill="#666666">[tinyint]</text>
<polygon fill="none" stroke="black" points="46.2,-261.8 46.2,-292.6 338.01,-292.6 338.01,-261.8 46.2,-261.8"/>
<text text-anchor="start" x="53.2" y="-274" font-family="Arial" font-size="14.00">Pref_Authority_Given </text>
<text text-anchor="start" x="190.16" y="-274" font-family="Arial" font-size="14.00" fill="#666666">[tinyint(1)]</text>
<polygon fill="none" stroke="black" points="46.2,-231 46.2,-261.8 338.01,-261.8 338.01,-231 46.2,-231"/>
<text text-anchor="start" x="53.2" y="-243.2" font-family="Arial" font-size="14.00">Pref_Claim_Paid </text>
<text text-anchor="start" x="162.14" y="-243.2" font-family="Arial" font-size="14.00" fill="#666666">[tinyint(1)]</text>
<polygon fill="none" stroke="black" points="46.2,-200.2 46.2,-231 338.01,-231 338.01,-200.2 46.2,-200.2"/>
<text text-anchor="start" x="53.2" y="-212.4" font-family="Arial" font-size="14.00">Date_Approved </text>
<text text-anchor="start" x="154.38" y="-212.4" font-family="Arial" font-size="14.00" fill="#666666">[date]</text>
<polygon fill="none" stroke="black" points="46.2,-169.4 46.2,-200.2 338.01,-200.2 338.01,-169.4 46.2,-169.4"/>
<text text-anchor="start" x="53.2" y="-181.6" font-family="Arial" font-size="14.00">Delivery_On_Track_Prediction </text>
<text text-anchor="start" x="246.94" y="-181.6" font-family="Arial" font-size="14.00" fill="#666666">[varchar(10)]</text>
<polygon fill="none" stroke="black" points="46.2,-138.6 46.2,-169.4 338.01,-169.4 338.01,-138.6 46.2,-138.6"/>
<text text-anchor="start" x="53.2" y="-150.8" font-family="Arial" font-size="14.00">Send_Claimable_Amount </text>
<text text-anchor="start" x="215.85" y="-150.8" font-family="Arial" font-size="14.00" fill="#666666">[decimal(15,2)]</text>
<polygon fill="none" stroke="black" points="46.2,-107.8 46.2,-138.6 338.01,-138.6 338.01,-107.8 46.2,-107.8"/>
<text text-anchor="start" x="53.2" y="-120" font-family="Arial" font-size="14.00">Inclusion_Claimable_Amount </text>
<text text-anchor="start" x="238.41" y="-120" font-family="Arial" font-size="14.00" fill="#666666">[decimal(15,2)]</text>
<polygon fill="none" stroke="black" points="46.2,-77 46.2,-107.8 338.01,-107.8 338.01,-77 46.2,-77"/>
<text text-anchor="start" x="53.2" y="-89.2" font-family="Arial" font-size="14.00">created_at </text>
<text text-anchor="start" x="123.25" y="-89.2" font-family="Arial" font-size="14.00" fill="#666666">[timestamp]</text>
<polygon fill="none" stroke="black" points="46.2,-46.2 46.2,-77 338.01,-77 338.01,-46.2 46.2,-46.2"/>
<text text-anchor="start" x="53.2" y="-58.4" font-family="Arial" font-size="14.00">updated_at </text>
<text text-anchor="start" x="127.16" y="-58.4" font-family="Arial" font-size="14.00" fill="#666666">[timestamp]</text>
<polygon fill="none" stroke="black" stroke-width="3" points="44.7,-44.7 44.7,-514.5 339.51,-514.5 339.51,-44.7 44.7,-44.7"/>
</g>
</g>
</svg>
