<?xml version="1.0" encoding="UTF-8" standalone="no"?>
<!DOCTYPE svg PUBLIC "-//W3C//DTD SVG 1.1//EN"
 "http://www.w3.org/Graphics/SVG/1.1/DTD/svg11.dtd">
<!-- Generated by graphviz version 12.1.2 (20240928.0832)
 -->
<!-- Title: Fact_Parent_Survey Pages: 1 -->
<svg width="692pt" height="2481pt"
 viewBox="0.00 0.00 691.78 2480.80" xmlns="http://www.w3.org/2000/svg" xmlns:xlink="http://www.w3.org/1999/xlink">
<g id="graph0" class="graph" transform="scale(1 1) rotate(0) translate(4 2476.8)">
<title>Fact_Parent_Survey</title>
<polygon fill="white" stroke="none" points="-4,4 -4,-2476.8 687.78,-2476.8 687.78,4 -4,4"/>
<!-- Fact_Parent_Survey -->
<g id="node1" class="node">
<title>Fact_Parent_Survey</title>
<polygon fill="#efefef" stroke="none" points="46.2,-2391 46.2,-2426.6 375.36,-2426.6 375.36,-2391 46.2,-2391"/>
<polygon fill="none" stroke="black" points="46.2,-2391 46.2,-2426.6 375.36,-2426.6 375.36,-2391 46.2,-2391"/>
<text text-anchor="start" x="75.55" y="-2404.4" font-family="Arial Bold" font-size="18.00">Fact_Parent_Survey</text>
<text text-anchor="start" x="221.52" y="-2404.4" font-family="Arial" font-size="14.00">    </text>
<text text-anchor="start" x="252.64" y="-2404.4" font-family="Arial" font-size="14.00" fill="#666666">[BASE TABLE]</text>
<polygon fill="none" stroke="black" points="46.2,-2360.2 46.2,-2391 375.36,-2391 375.36,-2360.2 46.2,-2360.2"/>
<text text-anchor="start" x="53.2" y="-2372.4" font-family="Arial" font-size="14.00">Parent_Survey_Key </text>
<text text-anchor="start" x="181.61" y="-2372.4" font-family="Arial" font-size="14.00" fill="#666666">[bigint unsigned]</text>
<polygon fill="none" stroke="black" points="46.2,-2329.4 46.2,-2360.2 375.36,-2360.2 375.36,-2329.4 46.2,-2329.4"/>
<text text-anchor="start" x="53.2" y="-2341.6" font-family="Arial" font-size="14.00">Date_Key </text>
<text text-anchor="start" x="118.57" y="-2341.6" font-family="Arial" font-size="14.00" fill="#666666">[int]</text>
<polygon fill="none" stroke="black" points="46.2,-2298.6 46.2,-2329.4 375.36,-2329.4 375.36,-2298.6 46.2,-2298.6"/>
<text text-anchor="start" x="53.2" y="-2310.8" font-family="Arial" font-size="14.00">Rider_Key </text>
<text text-anchor="start" x="122.45" y="-2310.8" font-family="Arial" font-size="14.00" fill="#666666">[bigint unsigned]</text>
<polygon fill="none" stroke="black" points="46.2,-2267.8 46.2,-2298.6 375.36,-2298.6 375.36,-2267.8 46.2,-2267.8"/>
<text text-anchor="start" x="53.2" y="-2280" font-family="Arial" font-size="14.00">Course_Key </text>
<text text-anchor="start" x="134.13" y="-2280" font-family="Arial" font-size="14.00" fill="#666666">[bigint unsigned]</text>
<polygon fill="none" stroke="black" points="46.2,-2237 46.2,-2267.8 375.36,-2267.8 375.36,-2237 46.2,-2237"/>
<text text-anchor="start" x="53.2" y="-2249.2" font-family="Arial" font-size="14.00">Delivery_Key </text>
<text text-anchor="start" x="139.57" y="-2249.2" font-family="Arial" font-size="14.00" fill="#666666">[bigint unsigned]</text>
<polygon fill="none" stroke="black" points="46.2,-2206.2 46.2,-2237 375.36,-2237 375.36,-2206.2 46.2,-2206.2"/>
<text text-anchor="start" x="53.2" y="-2218.4" font-family="Arial" font-size="14.00">Grant_Key </text>
<text text-anchor="start" x="124.01" y="-2218.4" font-family="Arial" font-size="14.00" fill="#666666">[bigint unsigned]</text>
<polygon fill="none" stroke="black" points="46.2,-2175.4 46.2,-2206.2 375.36,-2206.2 375.36,-2175.4 46.2,-2175.4"/>
<text text-anchor="start" x="53.2" y="-2187.6" font-family="Arial" font-size="14.00">Like_To_Participate </text>
<text text-anchor="start" x="180.83" y="-2187.6" font-family="Arial" font-size="14.00" fill="#666666">[tinyint(1)]</text>
<polygon fill="none" stroke="black" points="46.2,-2144.6 46.2,-2175.4 375.36,-2175.4 375.36,-2144.6 46.2,-2144.6"/>
<text text-anchor="start" x="53.2" y="-2156.8" font-family="Arial" font-size="14.00">Like_To_Answer_Survey </text>
<text text-anchor="start" x="212.72" y="-2156.8" font-family="Arial" font-size="14.00" fill="#666666">[tinyint(1)]</text>
<polygon fill="none" stroke="black" points="46.2,-2113.8 46.2,-2144.6 375.36,-2144.6 375.36,-2113.8 46.2,-2113.8"/>
<text text-anchor="start" x="53.2" y="-2126" font-family="Arial" font-size="14.00">Pref_Join_Bikeability </text>
<text text-anchor="start" x="187.05" y="-2126" font-family="Arial" font-size="14.00" fill="#666666">[tinyint(1)]</text>
<polygon fill="none" stroke="black" points="46.2,-2083 46.2,-2113.8 375.36,-2113.8 375.36,-2083 46.2,-2083"/>
<text text-anchor="start" x="53.2" y="-2095.2" font-family="Arial" font-size="14.00">Rider_Emotion </text>
<text text-anchor="start" x="149.69" y="-2095.2" font-family="Arial" font-size="14.00" fill="#666666">[int]</text>
<polygon fill="none" stroke="black" points="46.2,-2052.2 46.2,-2083 375.36,-2083 375.36,-2052.2 46.2,-2052.2"/>
<text text-anchor="start" x="53.2" y="-2064.4" font-family="Arial" font-size="14.00">Pref_More_Training </text>
<text text-anchor="start" x="180.81" y="-2064.4" font-family="Arial" font-size="14.00" fill="#666666">[int]</text>
<polygon fill="none" stroke="black" points="46.2,-2021.4 46.2,-2052.2 375.36,-2052.2 375.36,-2021.4 46.2,-2021.4"/>
<text text-anchor="start" x="53.2" y="-2033.6" font-family="Arial" font-size="14.00">Pref_Interest_In_Training </text>
<text text-anchor="start" x="215.07" y="-2033.6" font-family="Arial" font-size="14.00" fill="#666666">[int]</text>
<polygon fill="none" stroke="black" points="46.2,-1990.6 46.2,-2021.4 375.36,-2021.4 375.36,-1990.6 46.2,-1990.6"/>
<text text-anchor="start" x="53.2" y="-2002.8" font-family="Arial" font-size="14.00">Confidence_Bike_General </text>
<text text-anchor="start" x="220.53" y="-2002.8" font-family="Arial" font-size="14.00" fill="#666666">[int]</text>
<polygon fill="none" stroke="black" points="46.2,-1959.8 46.2,-1990.6 375.36,-1990.6 375.36,-1959.8 46.2,-1959.8"/>
<text text-anchor="start" x="53.2" y="-1972" font-family="Arial" font-size="14.00">Confidence_Road </text>
<text text-anchor="start" x="169.17" y="-1972" font-family="Arial" font-size="14.00" fill="#666666">[int]</text>
<polygon fill="none" stroke="black" points="46.2,-1929 46.2,-1959.8 375.36,-1959.8 375.36,-1929 46.2,-1929"/>
<text text-anchor="start" x="53.2" y="-1941.2" font-family="Arial" font-size="14.00">Confidence_Independent </text>
<text text-anchor="start" x="213.56" y="-1941.2" font-family="Arial" font-size="14.00" fill="#666666">[int]</text>
<polygon fill="none" stroke="black" points="46.2,-1898.2 46.2,-1929 375.36,-1929 375.36,-1898.2 46.2,-1898.2"/>
<text text-anchor="start" x="53.2" y="-1910.4" font-family="Arial" font-size="14.00">Frequency_School </text>
<text text-anchor="start" x="173.83" y="-1910.4" font-family="Arial" font-size="14.00" fill="#666666">[int]</text>
<polygon fill="none" stroke="black" points="46.2,-1867.4 46.2,-1898.2 375.36,-1898.2 375.36,-1867.4 46.2,-1867.4"/>
<text text-anchor="start" x="53.2" y="-1879.6" font-family="Arial" font-size="14.00">Frequency_Leisure </text>
<text text-anchor="start" x="176.94" y="-1879.6" font-family="Arial" font-size="14.00" fill="#666666">[int]</text>
<polygon fill="none" stroke="black" points="46.2,-1836.6 46.2,-1867.4 375.36,-1867.4 375.36,-1836.6 46.2,-1836.6"/>
<text text-anchor="start" x="53.2" y="-1848.8" font-family="Arial" font-size="14.00">Frequency_Exercise </text>
<text text-anchor="start" x="184.7" y="-1848.8" font-family="Arial" font-size="14.00" fill="#666666">[int]</text>
<polygon fill="none" stroke="black" points="46.2,-1805.8 46.2,-1836.6 375.36,-1836.6 375.36,-1805.8 46.2,-1805.8"/>
<text text-anchor="start" x="53.2" y="-1818" font-family="Arial" font-size="14.00">Feedback_Is_Fun </text>
<text text-anchor="start" x="169.16" y="-1818" font-family="Arial" font-size="14.00" fill="#666666">[tinyint(1)]</text>
<polygon fill="none" stroke="black" points="46.2,-1775 46.2,-1805.8 375.36,-1805.8 375.36,-1775 46.2,-1775"/>
<text text-anchor="start" x="53.2" y="-1787.2" font-family="Arial" font-size="14.00">Feedback_Is_Hard </text>
<text text-anchor="start" x="175.38" y="-1787.2" font-family="Arial" font-size="14.00" fill="#666666">[tinyint(1)]</text>
<polygon fill="none" stroke="black" points="46.2,-1744.2 46.2,-1775 375.36,-1775 375.36,-1744.2 46.2,-1744.2"/>
<text text-anchor="start" x="53.2" y="-1756.4" font-family="Arial" font-size="14.00">Feedback_Is_Healthy </text>
<text text-anchor="start" x="192.5" y="-1756.4" font-family="Arial" font-size="14.00" fill="#666666">[tinyint(1)]</text>
<polygon fill="none" stroke="black" points="46.2,-1713.4 46.2,-1744.2 375.36,-1744.2 375.36,-1713.4 46.2,-1713.4"/>
<text text-anchor="start" x="53.2" y="-1725.6" font-family="Arial" font-size="14.00">Feedback_Still_New </text>
<text text-anchor="start" x="184.71" y="-1725.6" font-family="Arial" font-size="14.00" fill="#666666">[tinyint(1)]</text>
<polygon fill="none" stroke="black" points="46.2,-1682.6 46.2,-1713.4 375.36,-1713.4 375.36,-1682.6 46.2,-1682.6"/>
<text text-anchor="start" x="53.2" y="-1694.8" font-family="Arial" font-size="14.00">Feedback_Family_Friends </text>
<text text-anchor="start" x="222.05" y="-1694.8" font-family="Arial" font-size="14.00" fill="#666666">[tinyint(1)]</text>
<polygon fill="none" stroke="black" points="46.2,-1651.8 46.2,-1682.6 375.36,-1682.6 375.36,-1651.8 46.2,-1651.8"/>
<text text-anchor="start" x="53.2" y="-1664" font-family="Arial" font-size="14.00">Feedback_Dont_See_Others_Like_Me </text>
<text text-anchor="start" x="299.13" y="-1664" font-family="Arial" font-size="14.00" fill="#666666">[tinyint(1)]</text>
<polygon fill="none" stroke="black" points="46.2,-1621 46.2,-1651.8 375.36,-1651.8 375.36,-1621 46.2,-1621"/>
<text text-anchor="start" x="53.2" y="-1633.2" font-family="Arial" font-size="14.00">Feedback_On_Own </text>
<text text-anchor="start" x="181.61" y="-1633.2" font-family="Arial" font-size="14.00" fill="#666666">[tinyint(1)]</text>
<polygon fill="none" stroke="black" points="46.2,-1590.2 46.2,-1621 375.36,-1621 375.36,-1590.2 46.2,-1590.2"/>
<text text-anchor="start" x="53.2" y="-1602.4" font-family="Arial" font-size="14.00">Feedback_Not_Enjoy </text>
<text text-anchor="start" x="190.95" y="-1602.4" font-family="Arial" font-size="14.00" fill="#666666">[tinyint(1)]</text>
<polygon fill="none" stroke="black" points="46.2,-1559.4 46.2,-1590.2 375.36,-1590.2 375.36,-1559.4 46.2,-1559.4"/>
<text text-anchor="start" x="53.2" y="-1571.6" font-family="Arial" font-size="14.00">Feedback_None_Apply </text>
<text text-anchor="start" x="202.63" y="-1571.6" font-family="Arial" font-size="14.00" fill="#666666">[tinyint(1)]</text>
<polygon fill="none" stroke="black" points="46.2,-1528.6 46.2,-1559.4 375.36,-1559.4 375.36,-1528.6 46.2,-1528.6"/>
<text text-anchor="start" x="53.2" y="-1540.8" font-family="Arial" font-size="14.00">Feedback_None_Apply_Input </text>
<text text-anchor="start" x="241.56" y="-1540.8" font-family="Arial" font-size="14.00" fill="#666666">[varchar(500)]</text>
<polygon fill="none" stroke="black" points="46.2,-1497.8 46.2,-1528.6 375.36,-1528.6 375.36,-1497.8 46.2,-1497.8"/>
<text text-anchor="start" x="53.2" y="-1510" font-family="Arial" font-size="14.00">Encouragement_Use_Bike </text>
<text text-anchor="start" x="223.63" y="-1510" font-family="Arial" font-size="14.00" fill="#666666">[tinyint(1)]</text>
<polygon fill="none" stroke="black" points="46.2,-1467 46.2,-1497.8 375.36,-1497.8 375.36,-1467 46.2,-1467"/>
<text text-anchor="start" x="53.2" y="-1479.2" font-family="Arial" font-size="14.00">Encouragement_Use_Bike_On_Road </text>
<text text-anchor="start" x="291.35" y="-1479.2" font-family="Arial" font-size="14.00" fill="#666666">[tinyint(1)]</text>
<polygon fill="none" stroke="black" points="46.2,-1436.2 46.2,-1467 375.36,-1467 375.36,-1436.2 46.2,-1436.2"/>
<text text-anchor="start" x="53.2" y="-1448.4" font-family="Arial" font-size="14.00">Encourage_More_Direct_Routes </text>
<text text-anchor="start" x="260.98" y="-1448.4" font-family="Arial" font-size="14.00" fill="#666666">[tinyint]</text>
<polygon fill="none" stroke="black" points="46.2,-1405.4 46.2,-1436.2 375.36,-1436.2 375.36,-1405.4 46.2,-1405.4"/>
<text text-anchor="start" x="53.2" y="-1417.6" font-family="Arial" font-size="14.00">Encourage_Local_Route_Awareness </text>
<text text-anchor="start" x="288.25" y="-1417.6" font-family="Arial" font-size="14.00" fill="#666666">[tinyint]</text>
<polygon fill="none" stroke="black" points="46.2,-1374.6 46.2,-1405.4 375.36,-1405.4 375.36,-1374.6 46.2,-1374.6"/>
<text text-anchor="start" x="53.2" y="-1386.8" font-family="Arial" font-size="14.00">Encourage_Storage </text>
<text text-anchor="start" x="181.63" y="-1386.8" font-family="Arial" font-size="14.00" fill="#666666">[tinyint]</text>
<polygon fill="none" stroke="black" points="46.2,-1343.8 46.2,-1374.6 375.36,-1374.6 375.36,-1343.8 46.2,-1343.8"/>
<text text-anchor="start" x="53.2" y="-1356" font-family="Arial" font-size="14.00">Encourage_Road_Surfaces </text>
<text text-anchor="start" x="229.1" y="-1356" font-family="Arial" font-size="14.00" fill="#666666">[tinyint]</text>
<polygon fill="none" stroke="black" points="46.2,-1313 46.2,-1343.8 375.36,-1343.8 375.36,-1313 46.2,-1313"/>
<text text-anchor="start" x="53.2" y="-1325.2" font-family="Arial" font-size="14.00">Encourage_Confidence </text>
<text text-anchor="start" x="203.42" y="-1325.2" font-family="Arial" font-size="14.00" fill="#666666">[tinyint]</text>
<polygon fill="none" stroke="black" points="46.2,-1282.2 46.2,-1313 375.36,-1313 375.36,-1282.2 46.2,-1282.2"/>
<text text-anchor="start" x="53.2" y="-1294.4" font-family="Arial" font-size="14.00">Encourage_Cycle_Maintenance </text>
<text text-anchor="start" x="255.55" y="-1294.4" font-family="Arial" font-size="14.00" fill="#666666">[tinyint]</text>
<polygon fill="none" stroke="black" points="46.2,-1251.4 46.2,-1282.2 375.36,-1282.2 375.36,-1251.4 46.2,-1251.4"/>
<text text-anchor="start" x="53.2" y="-1263.6" font-family="Arial" font-size="14.00">Encourage_Local_Initiatives </text>
<text text-anchor="start" x="232.21" y="-1263.6" font-family="Arial" font-size="14.00" fill="#666666">[tinyint]</text>
<polygon fill="none" stroke="black" points="46.2,-1220.6 46.2,-1251.4 375.36,-1251.4 375.36,-1220.6 46.2,-1220.6"/>
<text text-anchor="start" x="53.2" y="-1232.8" font-family="Arial" font-size="14.00">Encourage_Purchase_Ability </text>
<text text-anchor="start" x="236.87" y="-1232.8" font-family="Arial" font-size="14.00" fill="#666666">[tinyint]</text>
<polygon fill="none" stroke="black" points="46.2,-1189.8 46.2,-1220.6 375.36,-1220.6 375.36,-1189.8 46.2,-1189.8"/>
<text text-anchor="start" x="53.2" y="-1202" font-family="Arial" font-size="14.00">Encourage_Doesnt_Want_To_Cycle_More </text>
<text text-anchor="start" x="324.01" y="-1202" font-family="Arial" font-size="14.00" fill="#666666">[tinyint]</text>
<polygon fill="none" stroke="black" points="46.2,-1159 46.2,-1189.8 375.36,-1189.8 375.36,-1159 46.2,-1159"/>
<text text-anchor="start" x="53.2" y="-1171.2" font-family="Arial" font-size="14.00">Encourage_None </text>
<text text-anchor="start" x="166.06" y="-1171.2" font-family="Arial" font-size="14.00" fill="#666666">[tinyint]</text>
<polygon fill="none" stroke="black" points="46.2,-1128.2 46.2,-1159 375.36,-1159 375.36,-1128.2 46.2,-1128.2"/>
<text text-anchor="start" x="53.2" y="-1140.4" font-family="Arial" font-size="14.00">Encourage_Other_Reason </text>
<text text-anchor="start" x="223.65" y="-1140.4" font-family="Arial" font-size="14.00" fill="#666666">[varchar(500)]</text>
<polygon fill="none" stroke="black" points="46.2,-1097.4 46.2,-1128.2 375.36,-1128.2 375.36,-1097.4 46.2,-1097.4"/>
<text text-anchor="start" x="53.2" y="-1109.6" font-family="Arial" font-size="14.00">Likert_Life_Skill </text>
<text text-anchor="start" x="155.14" y="-1109.6" font-family="Arial" font-size="14.00" fill="#666666">[tinyint]</text>
<polygon fill="none" stroke="black" points="46.2,-1066.6 46.2,-1097.4 375.36,-1097.4 375.36,-1066.6 46.2,-1066.6"/>
<text text-anchor="start" x="53.2" y="-1078.8" font-family="Arial" font-size="14.00">Likert_Self_Esteem </text>
<text text-anchor="start" x="178.48" y="-1078.8" font-family="Arial" font-size="14.00" fill="#666666">[tinyint]</text>
<polygon fill="none" stroke="black" points="46.2,-1035.8 46.2,-1066.6 375.36,-1066.6 375.36,-1035.8 46.2,-1035.8"/>
<text text-anchor="start" x="53.2" y="-1048" font-family="Arial" font-size="14.00">Likert_Fitness </text>
<text text-anchor="start" x="144.23" y="-1048" font-family="Arial" font-size="14.00" fill="#666666">[tinyint]</text>
<polygon fill="none" stroke="black" points="46.2,-1005 46.2,-1035.8 375.36,-1035.8 375.36,-1005 46.2,-1005"/>
<text text-anchor="start" x="53.2" y="-1017.2" font-family="Arial" font-size="14.00">Likert_Active </text>
<text text-anchor="start" x="137.23" y="-1017.2" font-family="Arial" font-size="14.00" fill="#666666">[tinyint]</text>
<polygon fill="none" stroke="black" points="46.2,-974.2 46.2,-1005 375.36,-1005 375.36,-974.2 46.2,-974.2"/>
<text text-anchor="start" x="53.2" y="-986.4" font-family="Arial" font-size="14.00">Likert_Mindfulness </text>
<text text-anchor="start" x="173.81" y="-986.4" font-family="Arial" font-size="14.00" fill="#666666">[tinyint]</text>
<polygon fill="none" stroke="black" points="46.2,-943.4 46.2,-974.2 375.36,-974.2 375.36,-943.4 46.2,-943.4"/>
<text text-anchor="start" x="53.2" y="-955.6" font-family="Arial" font-size="14.00">Likert_Improve_Self_Regulate </text>
<text text-anchor="start" x="245.42" y="-955.6" font-family="Arial" font-size="14.00" fill="#666666">[tinyint]</text>
<polygon fill="none" stroke="black" points="46.2,-912.6 46.2,-943.4 375.36,-943.4 375.36,-912.6 46.2,-912.6"/>
<text text-anchor="start" x="53.2" y="-924.8" font-family="Arial" font-size="14.00">Likert_Improve_Concentration </text>
<text text-anchor="start" x="244.63" y="-924.8" font-family="Arial" font-size="14.00" fill="#666666">[tinyint]</text>
<polygon fill="none" stroke="black" points="46.2,-881.8 46.2,-912.6 375.36,-912.6 375.36,-881.8 46.2,-881.8"/>
<text text-anchor="start" x="53.2" y="-894" font-family="Arial" font-size="14.00">Likert_Improve_Academic_Performance </text>
<text text-anchor="start" x="306.87" y="-894" font-family="Arial" font-size="14.00" fill="#666666">[tinyint]</text>
<polygon fill="none" stroke="black" points="46.2,-851 46.2,-881.8 375.36,-881.8 375.36,-851 46.2,-851"/>
<text text-anchor="start" x="53.2" y="-863.2" font-family="Arial" font-size="14.00">Likert_Independence </text>
<text text-anchor="start" x="187.86" y="-863.2" font-family="Arial" font-size="14.00" fill="#666666">[tinyint]</text>
<polygon fill="none" stroke="black" points="46.2,-820.2 46.2,-851 375.36,-851 375.36,-820.2 46.2,-820.2"/>
<text text-anchor="start" x="53.2" y="-832.4" font-family="Arial" font-size="14.00">Likert_Improve_Road_Awareness </text>
<text text-anchor="start" x="267.98" y="-832.4" font-family="Arial" font-size="14.00" fill="#666666">[tinyint]</text>
<polygon fill="none" stroke="black" points="46.2,-789.4 46.2,-820.2 375.36,-820.2 375.36,-789.4 46.2,-789.4"/>
<text text-anchor="start" x="53.2" y="-801.6" font-family="Arial" font-size="14.00">Likert_Improve_Environment_Awareness </text>
<text text-anchor="start" x="313.1" y="-801.6" font-family="Arial" font-size="14.00" fill="#666666">[tinyint]</text>
<polygon fill="none" stroke="black" points="46.2,-758.6 46.2,-789.4 375.36,-789.4 375.36,-758.6 46.2,-758.6"/>
<text text-anchor="start" x="53.2" y="-770.8" font-family="Arial" font-size="14.00">Likert_Help_Socialise </text>
<text text-anchor="start" x="191.72" y="-770.8" font-family="Arial" font-size="14.00" fill="#666666">[tinyint]</text>
<polygon fill="none" stroke="black" points="46.2,-727.8 46.2,-758.6 375.36,-758.6 375.36,-727.8 46.2,-727.8"/>
<text text-anchor="start" x="53.2" y="-740" font-family="Arial" font-size="14.00">Likert_Make_Children_Happy </text>
<text text-anchor="start" x="241.52" y="-740" font-family="Arial" font-size="14.00" fill="#666666">[tinyint]</text>
<polygon fill="none" stroke="black" points="46.2,-697 46.2,-727.8 375.36,-727.8 375.36,-697 46.2,-697"/>
<text text-anchor="start" x="53.2" y="-709.2" font-family="Arial" font-size="14.00">Likert_Keep_Children_Occupied </text>
<text text-anchor="start" x="258.66" y="-709.2" font-family="Arial" font-size="14.00" fill="#666666">[tinyint]</text>
<polygon fill="none" stroke="black" points="46.2,-666.2 46.2,-697 375.36,-697 375.36,-666.2 46.2,-666.2"/>
<text text-anchor="start" x="53.2" y="-678.4" font-family="Arial" font-size="14.00">Likert_Encourage_Children_Outside </text>
<text text-anchor="start" x="282.78" y="-678.4" font-family="Arial" font-size="14.00" fill="#666666">[tinyint]</text>
<polygon fill="none" stroke="black" points="46.2,-635.4 46.2,-666.2 375.36,-666.2 375.36,-635.4 46.2,-635.4"/>
<text text-anchor="start" x="53.2" y="-647.6" font-family="Arial" font-size="14.00">Likert_Children_Less_Dependent </text>
<text text-anchor="start" x="264.9" y="-647.6" font-family="Arial" font-size="14.00" fill="#666666">[tinyint]</text>
<polygon fill="none" stroke="black" points="46.2,-604.6 46.2,-635.4 375.36,-635.4 375.36,-604.6 46.2,-604.6"/>
<text text-anchor="start" x="53.2" y="-616.8" font-family="Arial" font-size="14.00">Likert_Reduce_Other_Transport_Expense </text>
<text text-anchor="start" x="320.13" y="-616.8" font-family="Arial" font-size="14.00" fill="#666666">[tinyint]</text>
<polygon fill="none" stroke="black" points="46.2,-573.8 46.2,-604.6 375.36,-604.6 375.36,-573.8 46.2,-573.8"/>
<text text-anchor="start" x="53.2" y="-586" font-family="Arial" font-size="14.00">Likert_Enable_Cycle_As_Family </text>
<text text-anchor="start" x="258.63" y="-586" font-family="Arial" font-size="14.00" fill="#666666">[tinyint]</text>
<polygon fill="none" stroke="black" points="46.2,-543 46.2,-573.8 375.36,-573.8 375.36,-543 46.2,-543"/>
<text text-anchor="start" x="53.2" y="-555.2" font-family="Arial" font-size="14.00">Likely_To_Recommend </text>
<text text-anchor="start" x="204.16" y="-555.2" font-family="Arial" font-size="14.00" fill="#666666">[int]</text>
<polygon fill="none" stroke="black" points="46.2,-512.2 46.2,-543 375.36,-543 375.36,-512.2 46.2,-512.2"/>
<text text-anchor="start" x="53.2" y="-524.4" font-family="Arial" font-size="14.00">Source_Survey_Id </text>
<text text-anchor="start" x="172.27" y="-524.4" font-family="Arial" font-size="14.00" fill="#666666">[bigint unsigned]</text>
<polygon fill="none" stroke="black" points="46.2,-481.4 46.2,-512.2 375.36,-512.2 375.36,-481.4 46.2,-481.4"/>
<text text-anchor="start" x="53.2" y="-493.6" font-family="Arial" font-size="14.00">Source_Created_At </text>
<text text-anchor="start" x="180.05" y="-493.6" font-family="Arial" font-size="14.00" fill="#666666">[timestamp]</text>
<polygon fill="none" stroke="black" points="46.2,-450.6 46.2,-481.4 375.36,-481.4 375.36,-450.6 46.2,-450.6"/>
<text text-anchor="start" x="53.2" y="-462.8" font-family="Arial" font-size="14.00">Source_Updated_At </text>
<text text-anchor="start" x="183.18" y="-462.8" font-family="Arial" font-size="14.00" fill="#666666">[timestamp]</text>
<polygon fill="none" stroke="black" stroke-width="3" points="44.7,-449.1 44.7,-2428.1 376.86,-2428.1 376.86,-449.1 44.7,-449.1"/>
</g>
<!-- Dim_Date -->
<g id="node2" class="node">
<title>Dim_Date</title>
<polygon fill="#efefef" stroke="none" points="104.05,-289.6 104.05,-325.2 317.52,-325.2 317.52,-289.6 104.05,-289.6"/>
<polygon fill="none" stroke="black" points="104.05,-289.6 104.05,-325.2 317.52,-325.2 317.52,-289.6 104.05,-289.6"/>
<text text-anchor="start" x="111.05" y="-303" font-family="Arial Bold" font-size="18.00">Dim_Date</text>
<text text-anchor="start" x="186.03" y="-303" font-family="Arial" font-size="14.00">    </text>
<text text-anchor="start" x="217.14" y="-303" font-family="Arial" font-size="14.00" fill="#666666">[BASE TABLE]</text>
<polygon fill="none" stroke="black" points="104.05,-258.8 104.05,-289.6 317.52,-289.6 317.52,-258.8 104.05,-258.8"/>
<text text-anchor="start" x="111.05" y="-271" font-family="Arial" font-size="14.00">Date_Key </text>
<text text-anchor="start" x="176.42" y="-271" font-family="Arial" font-size="14.00" fill="#666666">[int]</text>
<polygon fill="none" stroke="black" points="104.05,-228 104.05,-258.8 317.52,-258.8 317.52,-228 104.05,-228"/>
<text text-anchor="start" x="111.05" y="-240.2" font-family="Arial" font-size="14.00">Full_Date </text>
<text text-anchor="start" x="174.85" y="-240.2" font-family="Arial" font-size="14.00" fill="#666666">[date]</text>
<polygon fill="none" stroke="black" points="104.05,-197.2 104.05,-228 317.52,-228 317.52,-197.2 104.05,-197.2"/>
<text text-anchor="start" x="111.05" y="-209.4" font-family="Arial" font-size="14.00">Month_Name </text>
<text text-anchor="start" x="198.98" y="-209.4" font-family="Arial" font-size="14.00" fill="#666666">[varchar(10)]</text>
<polygon fill="none" stroke="black" points="104.05,-166.4 104.05,-197.2 317.52,-197.2 317.52,-166.4 104.05,-166.4"/>
<text text-anchor="start" x="111.05" y="-178.6" font-family="Arial" font-size="14.00">Calendar_Year </text>
<text text-anchor="start" x="209.11" y="-178.6" font-family="Arial" font-size="14.00" fill="#666666">[int]</text>
<polygon fill="none" stroke="black" points="104.05,-135.6 104.05,-166.4 317.52,-166.4 317.52,-135.6 104.05,-135.6"/>
<text text-anchor="start" x="111.05" y="-147.8" font-family="Arial" font-size="14.00">Financial_Year </text>
<text text-anchor="start" x="208.32" y="-147.8" font-family="Arial" font-size="14.00" fill="#666666">[varchar(10)]</text>
<polygon fill="none" stroke="black" points="104.05,-104.8 104.05,-135.6 317.52,-135.6 317.52,-104.8 104.05,-104.8"/>
<text text-anchor="start" x="111.05" y="-117" font-family="Arial" font-size="14.00">Financial_Quarter </text>
<text text-anchor="start" x="226.21" y="-117" font-family="Arial" font-size="14.00" fill="#666666">[char(2)]</text>
<polygon fill="none" stroke="black" points="104.05,-74 104.05,-104.8 317.52,-104.8 317.52,-74 104.05,-74"/>
<text text-anchor="start" x="111.05" y="-86.2" font-family="Arial" font-size="14.00">Financial_Month_Number </text>
<text text-anchor="start" x="275.24" y="-86.2" font-family="Arial" font-size="14.00" fill="#666666">[int]</text>
<polygon fill="none" stroke="black" points="104.05,-43.2 104.05,-74 317.52,-74 317.52,-43.2 104.05,-43.2"/>
<text text-anchor="start" x="111.05" y="-55.4" font-family="Arial" font-size="14.00">Is_Weekend </text>
<text text-anchor="start" x="192.76" y="-55.4" font-family="Arial" font-size="14.00" fill="#666666">[tinyint(1)]</text>
</g>
<!-- Fact_Parent_Survey&#45;&gt;Dim_Date -->
<g id="edge1" class="edge">
<title>Fact_Parent_Survey:Date_Key&#45;&gt;Dim_Date:Date_Key</title>
<path fill="none" stroke="black" d="M385.34,-2340.16C479.14,-2238.77 396.78,-506.83 375.36,-404.4 362.44,-342.59 381.66,-274.2 318.52,-274.2"/>
<polygon fill="black" stroke="black" points="385.55,-2340.06 374.6,-2340.65 380.81,-2342.51 376.96,-2344.49 376.96,-2344.49 376.96,-2344.49 380.81,-2342.51 378.73,-2348.65 385.55,-2340.06"/>
<text text-anchor="start" x="383.36" y="-2354.8" font-family="Arial" font-size="10.00">FOREIGN KEY (Date_Key) REFERENCES Dim_Date (Date_Key)</text>
</g>
</g>
</svg>
