<?xml version="1.0" encoding="UTF-8" standalone="no"?>
<!DOCTYPE svg PUBLIC "-//W3C//DTD SVG 1.1//EN"
 "http://www.w3.org/Graphics/SVG/1.1/DTD/svg11.dtd">
<!-- Generated by graphviz version 12.1.2 (20240928.0832)
 -->
<!-- Title: Fact_HandsUp_Survey Pages: 1 -->
<svg width="965pt" height="1187pt"
 viewBox="0.00 0.00 964.63 1187.20" xmlns="http://www.w3.org/2000/svg" xmlns:xlink="http://www.w3.org/1999/xlink">
<g id="graph0" class="graph" transform="scale(1 1) rotate(0) translate(4 1183.2)">
<title>Fact_HandsUp_Survey</title>
<polygon fill="white" stroke="none" points="-4,4 -4,-1183.2 960.63,-1183.2 960.63,4 -4,4"/>
<!-- Fact_HandsUp_Survey -->
<g id="node1" class="node">
<title>Fact_HandsUp_Survey</title>
<polygon fill="#efefef" stroke="none" points="308.41,-1097.4 308.41,-1133 614.88,-1133 614.88,-1097.4 308.41,-1097.4"/>
<polygon fill="none" stroke="black" points="308.41,-1097.4 308.41,-1133 614.88,-1133 614.88,-1097.4 308.41,-1097.4"/>
<text text-anchor="start" x="315.41" y="-1110.8" font-family="Arial Bold" font-size="18.00">Fact_HandsUp_Survey</text>
<text text-anchor="start" x="483.39" y="-1110.8" font-family="Arial" font-size="14.00">    </text>
<text text-anchor="start" x="514.51" y="-1110.8" font-family="Arial" font-size="14.00" fill="#666666">[BASE TABLE]</text>
<polygon fill="none" stroke="black" points="308.41,-1066.6 308.41,-1097.4 614.88,-1097.4 614.88,-1066.6 308.41,-1066.6"/>
<text text-anchor="start" x="315.41" y="-1078.8" font-family="Arial" font-size="14.00">Survey_Fact_Key </text>
<text text-anchor="start" x="429.8" y="-1078.8" font-family="Arial" font-size="14.00" fill="#666666">[bigint unsigned]</text>
<polygon fill="none" stroke="black" points="308.41,-1035.8 308.41,-1066.6 614.88,-1066.6 614.88,-1035.8 308.41,-1035.8"/>
<text text-anchor="start" x="315.41" y="-1048" font-family="Arial" font-size="14.00">Date_Key </text>
<text text-anchor="start" x="380.79" y="-1048" font-family="Arial" font-size="14.00" fill="#666666">[int]</text>
<polygon fill="none" stroke="black" points="308.41,-1005 308.41,-1035.8 614.88,-1035.8 614.88,-1005 308.41,-1005"/>
<text text-anchor="start" x="315.41" y="-1017.2" font-family="Arial" font-size="14.00">Delivery_Key </text>
<text text-anchor="start" x="401.78" y="-1017.2" font-family="Arial" font-size="14.00" fill="#666666">[bigint unsigned]</text>
<polygon fill="none" stroke="black" points="308.41,-974.2 308.41,-1005 614.88,-1005 614.88,-974.2 308.41,-974.2"/>
<text text-anchor="start" x="315.41" y="-986.4" font-family="Arial" font-size="14.00">Course_Key </text>
<text text-anchor="start" x="396.34" y="-986.4" font-family="Arial" font-size="14.00" fill="#666666">[bigint unsigned]</text>
<polygon fill="none" stroke="black" points="308.41,-943.4 308.41,-974.2 614.88,-974.2 614.88,-943.4 308.41,-943.4"/>
<text text-anchor="start" x="315.41" y="-955.6" font-family="Arial" font-size="14.00">Exp_Enjoyed </text>
<text text-anchor="start" x="401.81" y="-955.6" font-family="Arial" font-size="14.00" fill="#666666">[int]</text>
<polygon fill="none" stroke="black" points="308.41,-912.6 308.41,-943.4 614.88,-943.4 614.88,-912.6 308.41,-912.6"/>
<text text-anchor="start" x="315.41" y="-924.8" font-family="Arial" font-size="14.00">Exp_Did_Not_Enjoy </text>
<text text-anchor="start" x="444.6" y="-924.8" font-family="Arial" font-size="14.00" fill="#666666">[int]</text>
<polygon fill="none" stroke="black" points="308.41,-881.8 308.41,-912.6 614.88,-912.6 614.88,-881.8 308.41,-881.8"/>
<text text-anchor="start" x="315.41" y="-894" font-family="Arial" font-size="14.00">Exp_Not_Sure </text>
<text text-anchor="start" x="410.36" y="-894" font-family="Arial" font-size="14.00" fill="#666666">[int]</text>
<polygon fill="none" stroke="black" points="308.41,-851 308.41,-881.8 614.88,-881.8 614.88,-851 308.41,-851"/>
<text text-anchor="start" x="315.41" y="-863.2" font-family="Arial" font-size="14.00">Exp_Absent </text>
<text text-anchor="start" x="394.8" y="-863.2" font-family="Arial" font-size="14.00" fill="#666666">[int]</text>
<polygon fill="none" stroke="black" points="308.41,-820.2 308.41,-851 614.88,-851 614.88,-820.2 308.41,-820.2"/>
<text text-anchor="start" x="315.41" y="-832.4" font-family="Arial" font-size="14.00">Base_Yes </text>
<text text-anchor="start" x="383.12" y="-832.4" font-family="Arial" font-size="14.00" fill="#666666">[int]</text>
<polygon fill="none" stroke="black" points="308.41,-789.4 308.41,-820.2 614.88,-820.2 614.88,-789.4 308.41,-789.4"/>
<text text-anchor="start" x="315.41" y="-801.6" font-family="Arial" font-size="14.00">Base_No </text>
<text text-anchor="start" x="376.9" y="-801.6" font-family="Arial" font-size="14.00" fill="#666666">[int]</text>
<polygon fill="none" stroke="black" points="308.41,-758.6 308.41,-789.4 614.88,-789.4 614.88,-758.6 308.41,-758.6"/>
<text text-anchor="start" x="315.41" y="-770.8" font-family="Arial" font-size="14.00">Base_Not_Sure </text>
<text text-anchor="start" x="418.14" y="-770.8" font-family="Arial" font-size="14.00" fill="#666666">[int]</text>
<polygon fill="none" stroke="black" points="308.41,-727.8 308.41,-758.6 614.88,-758.6 614.88,-727.8 308.41,-727.8"/>
<text text-anchor="start" x="315.41" y="-740" font-family="Arial" font-size="14.00">Safe_More </text>
<text text-anchor="start" x="387.79" y="-740" font-family="Arial" font-size="14.00" fill="#666666">[int]</text>
<polygon fill="none" stroke="black" points="308.41,-697 308.41,-727.8 614.88,-727.8 614.88,-697 308.41,-697"/>
<text text-anchor="start" x="315.41" y="-709.2" font-family="Arial" font-size="14.00">Safe_Less </text>
<text text-anchor="start" x="385.46" y="-709.2" font-family="Arial" font-size="14.00" fill="#666666">[int]</text>
<polygon fill="none" stroke="black" points="308.41,-666.2 308.41,-697 614.88,-697 614.88,-666.2 308.41,-666.2"/>
<text text-anchor="start" x="315.41" y="-678.4" font-family="Arial" font-size="14.00">Safe_No_Diff </text>
<text text-anchor="start" x="402.57" y="-678.4" font-family="Arial" font-size="14.00" fill="#666666">[int]</text>
<polygon fill="none" stroke="black" points="308.41,-635.4 308.41,-666.2 614.88,-666.2 614.88,-635.4 308.41,-635.4"/>
<text text-anchor="start" x="315.41" y="-647.6" font-family="Arial" font-size="14.00">Safe_Not_Sure </text>
<text text-anchor="start" x="415.03" y="-647.6" font-family="Arial" font-size="14.00" fill="#666666">[int]</text>
<polygon fill="none" stroke="black" points="308.41,-604.6 308.41,-635.4 614.88,-635.4 614.88,-604.6 308.41,-604.6"/>
<text text-anchor="start" x="315.41" y="-616.8" font-family="Arial" font-size="14.00">Conf_More </text>
<text text-anchor="start" x="388.56" y="-616.8" font-family="Arial" font-size="14.00" fill="#666666">[int]</text>
<polygon fill="none" stroke="black" points="308.41,-573.8 308.41,-604.6 614.88,-604.6 614.88,-573.8 308.41,-573.8"/>
<text text-anchor="start" x="315.41" y="-586" font-family="Arial" font-size="14.00">Conf_Less </text>
<text text-anchor="start" x="386.23" y="-586" font-family="Arial" font-size="14.00" fill="#666666">[int]</text>
<polygon fill="none" stroke="black" points="308.41,-543 308.41,-573.8 614.88,-573.8 614.88,-543 308.41,-543"/>
<text text-anchor="start" x="315.41" y="-555.2" font-family="Arial" font-size="14.00">Conf_No_Diff </text>
<text text-anchor="start" x="403.34" y="-555.2" font-family="Arial" font-size="14.00" fill="#666666">[int]</text>
<polygon fill="none" stroke="black" points="308.41,-512.2 308.41,-543 614.88,-543 614.88,-512.2 308.41,-512.2"/>
<text text-anchor="start" x="315.41" y="-524.4" font-family="Arial" font-size="14.00">Conf_Not_Sure </text>
<text text-anchor="start" x="415.81" y="-524.4" font-family="Arial" font-size="14.00" fill="#666666">[int]</text>
<polygon fill="none" stroke="black" stroke-width="3" points="306.91,-510.7 306.91,-1134.5 616.38,-1134.5 616.38,-510.7 306.91,-510.7"/>
</g>
<!-- Dim_Date -->
<g id="node2" class="node">
<title>Dim_Date</title>
<polygon fill="#efefef" stroke="none" points="186.91,-320.4 186.91,-356 400.38,-356 400.38,-320.4 186.91,-320.4"/>
<polygon fill="none" stroke="black" points="186.91,-320.4 186.91,-356 400.38,-356 400.38,-320.4 186.91,-320.4"/>
<text text-anchor="start" x="193.91" y="-333.8" font-family="Arial Bold" font-size="18.00">Dim_Date</text>
<text text-anchor="start" x="268.89" y="-333.8" font-family="Arial" font-size="14.00">    </text>
<text text-anchor="start" x="300.01" y="-333.8" font-family="Arial" font-size="14.00" fill="#666666">[BASE TABLE]</text>
<polygon fill="none" stroke="black" points="186.91,-289.6 186.91,-320.4 400.38,-320.4 400.38,-289.6 186.91,-289.6"/>
<text text-anchor="start" x="193.91" y="-301.8" font-family="Arial" font-size="14.00">Date_Key </text>
<text text-anchor="start" x="259.28" y="-301.8" font-family="Arial" font-size="14.00" fill="#666666">[int]</text>
<polygon fill="none" stroke="black" points="186.91,-258.8 186.91,-289.6 400.38,-289.6 400.38,-258.8 186.91,-258.8"/>
<text text-anchor="start" x="193.91" y="-271" font-family="Arial" font-size="14.00">Full_Date </text>
<text text-anchor="start" x="257.72" y="-271" font-family="Arial" font-size="14.00" fill="#666666">[date]</text>
<polygon fill="none" stroke="black" points="186.91,-228 186.91,-258.8 400.38,-258.8 400.38,-228 186.91,-228"/>
<text text-anchor="start" x="193.91" y="-240.2" font-family="Arial" font-size="14.00">Month_Name </text>
<text text-anchor="start" x="281.84" y="-240.2" font-family="Arial" font-size="14.00" fill="#666666">[varchar(10)]</text>
<polygon fill="none" stroke="black" points="186.91,-197.2 186.91,-228 400.38,-228 400.38,-197.2 186.91,-197.2"/>
<text text-anchor="start" x="193.91" y="-209.4" font-family="Arial" font-size="14.00">Calendar_Year </text>
<text text-anchor="start" x="291.97" y="-209.4" font-family="Arial" font-size="14.00" fill="#666666">[int]</text>
<polygon fill="none" stroke="black" points="186.91,-166.4 186.91,-197.2 400.38,-197.2 400.38,-166.4 186.91,-166.4"/>
<text text-anchor="start" x="193.91" y="-178.6" font-family="Arial" font-size="14.00">Financial_Year </text>
<text text-anchor="start" x="291.19" y="-178.6" font-family="Arial" font-size="14.00" fill="#666666">[varchar(10)]</text>
<polygon fill="none" stroke="black" points="186.91,-135.6 186.91,-166.4 400.38,-166.4 400.38,-135.6 186.91,-135.6"/>
<text text-anchor="start" x="193.91" y="-147.8" font-family="Arial" font-size="14.00">Financial_Quarter </text>
<text text-anchor="start" x="309.08" y="-147.8" font-family="Arial" font-size="14.00" fill="#666666">[char(2)]</text>
<polygon fill="none" stroke="black" points="186.91,-104.8 186.91,-135.6 400.38,-135.6 400.38,-104.8 186.91,-104.8"/>
<text text-anchor="start" x="193.91" y="-117" font-family="Arial" font-size="14.00">Financial_Month_Number </text>
<text text-anchor="start" x="358.1" y="-117" font-family="Arial" font-size="14.00" fill="#666666">[int]</text>
<polygon fill="none" stroke="black" points="186.91,-74 186.91,-104.8 400.38,-104.8 400.38,-74 186.91,-74"/>
<text text-anchor="start" x="193.91" y="-86.2" font-family="Arial" font-size="14.00">Is_Weekend </text>
<text text-anchor="start" x="275.62" y="-86.2" font-family="Arial" font-size="14.00" fill="#666666">[tinyint(1)]</text>
</g>
<!-- Fact_HandsUp_Survey&#45;&gt;Dim_Date -->
<g id="edge1" class="edge">
<title>Fact_HandsUp_Survey:Date_Key&#45;&gt;Dim_Date:Date_Key</title>
<path fill="none" stroke="black" d="M297.34,-1051.02C51.08,-1041.9 191.68,-694.58 308.41,-466 331.39,-421.01 377.2,-444.09 400.38,-399.2 419.59,-362 443.25,-305 401.38,-305"/>
<polygon fill="black" stroke="black" points="297.08,-1051.01 307,-1055.69 302.41,-1051.11 306.74,-1051.19 306.74,-1051.19 306.74,-1051.19 302.41,-1051.11 307.16,-1046.69 297.08,-1051.01"/>
<text text-anchor="start" x="7" y="-1061.2" font-family="Arial" font-size="10.00">FOREIGN KEY (Date_Key) REFERENCES Dim_Date (Date_Key)</text>
</g>
<!-- Dim_Course -->
<g id="node3" class="node">
<title>Dim_Course</title>
<polygon fill="#efefef" stroke="none" points="504.35,-351.2 504.35,-386.8 754.94,-386.8 754.94,-351.2 504.35,-351.2"/>
<polygon fill="none" stroke="black" points="504.35,-351.2 504.35,-386.8 754.94,-386.8 754.94,-351.2 504.35,-351.2"/>
<text text-anchor="start" x="521.4" y="-364.6" font-family="Arial Bold" font-size="18.00">Dim_Course</text>
<text text-anchor="start" x="613.4" y="-364.6" font-family="Arial" font-size="14.00">    </text>
<text text-anchor="start" x="644.52" y="-364.6" font-family="Arial" font-size="14.00" fill="#666666">[BASE TABLE]</text>
<polygon fill="none" stroke="black" points="504.35,-320.4 504.35,-351.2 754.94,-351.2 754.94,-320.4 504.35,-320.4"/>
<text text-anchor="start" x="511.35" y="-332.6" font-family="Arial" font-size="14.00">Course_Key </text>
<text text-anchor="start" x="592.28" y="-332.6" font-family="Arial" font-size="14.00" fill="#666666">[bigint unsigned]</text>
<polygon fill="none" stroke="black" points="504.35,-289.6 504.35,-320.4 754.94,-320.4 754.94,-289.6 504.35,-289.6"/>
<text text-anchor="start" x="511.35" y="-301.8" font-family="Arial" font-size="14.00">Source_Course_Id </text>
<text text-anchor="start" x="631.98" y="-301.8" font-family="Arial" font-size="14.00" fill="#666666">[bigint unsigned]</text>
<polygon fill="none" stroke="black" points="504.35,-258.8 504.35,-289.6 754.94,-289.6 754.94,-258.8 504.35,-258.8"/>
<text text-anchor="start" x="511.35" y="-271" font-family="Arial" font-size="14.00">Source_System_Key </text>
<text text-anchor="start" x="645.97" y="-271" font-family="Arial" font-size="14.00" fill="#666666">[bigint unsigned]</text>
<polygon fill="none" stroke="black" points="504.35,-228 504.35,-258.8 754.94,-258.8 754.94,-228 504.35,-228"/>
<text text-anchor="start" x="511.35" y="-240.2" font-family="Arial" font-size="14.00">Delivery_Key </text>
<text text-anchor="start" x="597.72" y="-240.2" font-family="Arial" font-size="14.00" fill="#666666">[bigint unsigned]</text>
<polygon fill="none" stroke="black" points="504.35,-197.2 504.35,-228 754.94,-228 754.94,-197.2 504.35,-197.2"/>
<text text-anchor="start" x="511.35" y="-209.4" font-family="Arial" font-size="14.00">Course_Level </text>
<text text-anchor="start" x="601.63" y="-209.4" font-family="Arial" font-size="14.00" fill="#666666">[varchar(45)]</text>
<polygon fill="none" stroke="black" points="504.35,-166.4 504.35,-197.2 754.94,-197.2 754.94,-166.4 504.35,-166.4"/>
<text text-anchor="start" x="511.35" y="-178.6" font-family="Arial" font-size="14.00">Status </text>
<text text-anchor="start" x="554.93" y="-178.6" font-family="Arial" font-size="14.00" fill="#666666">[int]</text>
<polygon fill="none" stroke="black" points="504.35,-135.6 504.35,-166.4 754.94,-166.4 754.94,-135.6 504.35,-135.6"/>
<text text-anchor="start" x="511.35" y="-147.8" font-family="Arial" font-size="14.00">Start_Date </text>
<text text-anchor="start" x="582.17" y="-147.8" font-family="Arial" font-size="14.00" fill="#666666">[date]</text>
<polygon fill="none" stroke="black" points="504.35,-104.8 504.35,-135.6 754.94,-135.6 754.94,-104.8 504.35,-104.8"/>
<text text-anchor="start" x="511.35" y="-117" font-family="Arial" font-size="14.00">Date_Complete </text>
<text text-anchor="start" x="612.52" y="-117" font-family="Arial" font-size="14.00" fill="#666666">[date]</text>
<polygon fill="none" stroke="black" points="504.35,-74 504.35,-104.8 754.94,-104.8 754.94,-74 504.35,-74"/>
<text text-anchor="start" x="511.35" y="-86.2" font-family="Arial" font-size="14.00">Year_Group </text>
<text text-anchor="start" x="591.51" y="-86.2" font-family="Arial" font-size="14.00" fill="#666666">[varchar(45)]</text>
<polygon fill="none" stroke="black" points="504.35,-43.2 504.35,-74 754.94,-74 754.94,-43.2 504.35,-43.2"/>
<text text-anchor="start" x="511.35" y="-55.4" font-family="Arial" font-size="14.00">Parent_Course_Key </text>
<text text-anchor="start" x="641.32" y="-55.4" font-family="Arial" font-size="14.00" fill="#666666">[bigint unsigned]</text>
</g>
<!-- Fact_HandsUp_Survey&#45;&gt;Dim_Course -->
<g id="edge2" class="edge">
<title>Fact_HandsUp_Survey:Course_Key&#45;&gt;Dim_Course:Course_Key</title>
<path fill="none" stroke="black" d="M626.22,-989.37C845.65,-979.48 749.7,-651.34 614.88,-466 584.49,-424.22 534.93,-471.65 504.35,-430 479.58,-396.25 461.48,-335.8 503.35,-335.8"/>
<polygon fill="black" stroke="black" points="626.21,-989.37 616.11,-985.09 620.88,-989.49 616.55,-989.59 616.55,-989.59 616.55,-989.59 620.88,-989.49 616.31,-994.09 626.21,-989.37"/>
<text text-anchor="start" x="622.88" y="-999.6" font-family="Arial" font-size="10.00">FOREIGN KEY (Course_Key) REFERENCES Dim_Course (Course_Key)</text>
</g>
</g>
</svg>
