<?xml version="1.0" encoding="UTF-8" standalone="no"?>
<!DOCTYPE svg PUBLIC "-//W3C//DTD SVG 1.1//EN"
 "http://www.w3.org/Graphics/SVG/1.1/DTD/svg11.dtd">
<!-- Generated by graphviz version 12.1.2 (20240928.0832)
 -->
<!-- Title: Map_Rider_Send Pages: 1 -->
<svg width="994pt" height="602pt"
 viewBox="0.00 0.00 993.72 602.00" xmlns="http://www.w3.org/2000/svg" xmlns:xlink="http://www.w3.org/1999/xlink">
<g id="graph0" class="graph" transform="scale(1 1) rotate(0) translate(4 598)">
<title>Map_Rider_Send</title>
<polygon fill="white" stroke="none" points="-4,4 -4,-598 989.72,-598 989.72,4 -4,4"/>
<!-- Map_Rider_Send -->
<g id="node1" class="node">
<title>Map_Rider_Send</title>
<polygon fill="#efefef" stroke="none" points="316.73,-512.2 316.73,-547.8 582.21,-547.8 582.21,-512.2 316.73,-512.2"/>
<polygon fill="none" stroke="black" points="316.73,-512.2 316.73,-547.8 582.21,-547.8 582.21,-512.2 316.73,-512.2"/>
<text text-anchor="start" x="323.73" y="-525.6" font-family="Arial Bold" font-size="18.00">Map_Rider_Send</text>
<text text-anchor="start" x="450.72" y="-525.6" font-family="Arial" font-size="14.00">    </text>
<text text-anchor="start" x="481.83" y="-525.6" font-family="Arial" font-size="14.00" fill="#666666">[BASE TABLE]</text>
<polygon fill="none" stroke="black" points="316.73,-481.4 316.73,-512.2 582.21,-512.2 582.21,-481.4 316.73,-481.4"/>
<text text-anchor="start" x="323.73" y="-493.6" font-family="Arial" font-size="14.00">Rider_Key </text>
<text text-anchor="start" x="392.99" y="-493.6" font-family="Arial" font-size="14.00" fill="#666666">[bigint unsigned]</text>
<polygon fill="none" stroke="black" points="316.73,-450.6 316.73,-481.4 582.21,-481.4 582.21,-450.6 316.73,-450.6"/>
<text text-anchor="start" x="323.73" y="-462.8" font-family="Arial" font-size="14.00">Send_Code_Key </text>
<text text-anchor="start" x="433.48" y="-462.8" font-family="Arial" font-size="14.00" fill="#666666">[bigint unsigned]</text>
<polygon fill="none" stroke="black" stroke-width="3" points="315.23,-449.1 315.23,-549.3 583.71,-549.3 583.71,-449.1 315.23,-449.1"/>
</g>
<!-- Dim_Rider -->
<g id="node2" class="node">
<title>Dim_Rider</title>
<polygon fill="#efefef" stroke="none" points="144.18,-289.6 144.18,-325.2 394.76,-325.2 394.76,-289.6 144.18,-289.6"/>
<polygon fill="none" stroke="black" points="144.18,-289.6 144.18,-325.2 394.76,-325.2 394.76,-289.6 144.18,-289.6"/>
<text text-anchor="start" x="166.73" y="-303" font-family="Arial Bold" font-size="18.00">Dim_Rider</text>
<text text-anchor="start" x="247.72" y="-303" font-family="Arial" font-size="14.00">    </text>
<text text-anchor="start" x="278.84" y="-303" font-family="Arial" font-size="14.00" fill="#666666">[BASE TABLE]</text>
<polygon fill="none" stroke="black" points="144.18,-258.8 144.18,-289.6 394.76,-289.6 394.76,-258.8 144.18,-258.8"/>
<text text-anchor="start" x="151.18" y="-271" font-family="Arial" font-size="14.00">Rider_Key </text>
<text text-anchor="start" x="220.43" y="-271" font-family="Arial" font-size="14.00" fill="#666666">[bigint unsigned]</text>
<polygon fill="none" stroke="black" points="144.18,-228 144.18,-258.8 394.76,-258.8 394.76,-228 144.18,-228"/>
<text text-anchor="start" x="151.18" y="-240.2" font-family="Arial" font-size="14.00">Source_Rider_Id </text>
<text text-anchor="start" x="260.13" y="-240.2" font-family="Arial" font-size="14.00" fill="#666666">[bigint unsigned]</text>
<polygon fill="none" stroke="black" points="144.18,-197.2 144.18,-228 394.76,-228 394.76,-197.2 144.18,-197.2"/>
<text text-anchor="start" x="151.18" y="-209.4" font-family="Arial" font-size="14.00">Source_System_Key </text>
<text text-anchor="start" x="285.8" y="-209.4" font-family="Arial" font-size="14.00" fill="#666666">[bigint unsigned]</text>
<polygon fill="none" stroke="black" points="144.18,-166.4 144.18,-197.2 394.76,-197.2 394.76,-166.4 144.18,-166.4"/>
<text text-anchor="start" x="151.18" y="-178.6" font-family="Arial" font-size="14.00">School_Key </text>
<text text-anchor="start" x="229.78" y="-178.6" font-family="Arial" font-size="14.00" fill="#666666">[bigint unsigned]</text>
<polygon fill="none" stroke="black" points="144.18,-135.6 144.18,-166.4 394.76,-166.4 394.76,-135.6 144.18,-135.6"/>
<text text-anchor="start" x="151.18" y="-147.8" font-family="Arial" font-size="14.00">Ethnicity </text>
<text text-anchor="start" x="207.98" y="-147.8" font-family="Arial" font-size="14.00" fill="#666666">[varchar(50)]</text>
<polygon fill="none" stroke="black" points="144.18,-104.8 144.18,-135.6 394.76,-135.6 394.76,-104.8 144.18,-104.8"/>
<text text-anchor="start" x="151.18" y="-117" font-family="Arial" font-size="14.00">Gender </text>
<text text-anchor="start" x="201.76" y="-117" font-family="Arial" font-size="14.00" fill="#666666">[varchar(20)]</text>
<polygon fill="none" stroke="black" points="144.18,-74 144.18,-104.8 394.76,-104.8 394.76,-74 144.18,-74"/>
<text text-anchor="start" x="151.18" y="-86.2" font-family="Arial" font-size="14.00">Pupil_Premium </text>
<text text-anchor="start" x="249.99" y="-86.2" font-family="Arial" font-size="14.00" fill="#666666">[tinyint]</text>
<polygon fill="none" stroke="black" points="144.18,-43.2 144.18,-74 394.76,-74 394.76,-43.2 144.18,-43.2"/>
<text text-anchor="start" x="151.18" y="-55.4" font-family="Arial" font-size="14.00">Has_Send </text>
<text text-anchor="start" x="220.45" y="-55.4" font-family="Arial" font-size="14.00" fill="#666666">[tinyint]</text>
</g>
<!-- Map_Rider_Send&#45;&gt;Dim_Rider -->
<g id="edge1" class="edge">
<title>Map_Rider_Send:Rider_Key&#45;&gt;Dim_Rider:Rider_Key</title>
<path fill="none" stroke="black" d="M305.74,-495.34C278.39,-486.14 296.5,-435.64 316.73,-404.4 337.49,-372.34 374.01,-400.46 394.76,-368.4 417.52,-333.25 437.63,-274.2 395.76,-274.2"/>
<polygon fill="black" stroke="black" points="305.51,-495.31 314.75,-501.2 310.79,-496.08 315.07,-496.7 315.07,-496.7 315.07,-496.7 310.79,-496.08 316.05,-492.3 305.51,-495.31"/>
<text text-anchor="start" x="7" y="-506.8" font-family="Arial" font-size="10.00">FOREIGN KEY (Rider_Key) REFERENCES Dim_Rider (Rider_Key)</text>
</g>
<!-- Dim_Send_Code -->
<g id="node3" class="node">
<title>Dim_Send_Code</title>
<polygon fill="#efefef" stroke="none" points="499.23,-212.6 499.23,-248.2 761.71,-248.2 761.71,-212.6 499.23,-212.6"/>
<polygon fill="none" stroke="black" points="499.23,-212.6 499.23,-248.2 761.71,-248.2 761.71,-212.6 499.23,-212.6"/>
<text text-anchor="start" x="506.23" y="-226" font-family="Arial Bold" font-size="18.00">Dim_Send_Code</text>
<text text-anchor="start" x="630.22" y="-226" font-family="Arial" font-size="14.00">    </text>
<text text-anchor="start" x="661.34" y="-226" font-family="Arial" font-size="14.00" fill="#666666">[BASE TABLE]</text>
<polygon fill="none" stroke="black" points="499.23,-181.8 499.23,-212.6 761.71,-212.6 761.71,-181.8 499.23,-181.8"/>
<text text-anchor="start" x="506.23" y="-194" font-family="Arial" font-size="14.00">Send_Code_Key </text>
<text text-anchor="start" x="615.98" y="-194" font-family="Arial" font-size="14.00" fill="#666666">[bigint unsigned]</text>
<polygon fill="none" stroke="black" points="499.23,-151 499.23,-181.8 761.71,-181.8 761.71,-151 499.23,-151"/>
<text text-anchor="start" x="506.23" y="-163.2" font-family="Arial" font-size="14.00">Send_Code </text>
<text text-anchor="start" x="584.07" y="-163.2" font-family="Arial" font-size="14.00" fill="#666666">[varchar(20)]</text>
<polygon fill="none" stroke="black" points="499.23,-120.2 499.23,-151 761.71,-151 761.71,-120.2 499.23,-120.2"/>
<text text-anchor="start" x="506.23" y="-132.4" font-family="Arial" font-size="14.00">Description </text>
<text text-anchor="start" x="580.14" y="-132.4" font-family="Arial" font-size="14.00" fill="#666666">[varchar(255)]</text>
</g>
<!-- Map_Rider_Send&#45;&gt;Dim_Send_Code -->
<g id="edge2" class="edge">
<title>Map_Rider_Send:Send_Code_Key&#45;&gt;Dim_Send_Code:Send_Code_Key</title>
<path fill="none" stroke="black" d="M593.14,-463.32C604.44,-454.56 589.51,-426.09 582.21,-404.4 562.32,-345.35 518.95,-350.51 499.23,-291.4 485.98,-251.68 456.36,-197.2 498.23,-197.2"/>
<polygon fill="black" stroke="black" points="593.19,-463.31 582.36,-461.57 588.03,-464.7 583.85,-465.83 583.85,-465.83 583.85,-465.83 588.03,-464.7 584.7,-470.26 593.19,-463.31"/>
<text text-anchor="start" x="590.21" y="-476" font-family="Arial" font-size="10.00">FOREIGN KEY (Send_Code_Key) REFERENCES Dim_Send_Code (Send_Code_Key)</text>
</g>
</g>
</svg>
