<?xml version="1.0" encoding="UTF-8" standalone="no"?>
<!DOCTYPE svg PUBLIC "-//W3C//DTD SVG 1.1//EN"
 "http://www.w3.org/Graphics/SVG/1.1/DTD/svg11.dtd">
<!-- Generated by graphviz version 12.1.2 (20240928.0832)
 -->
<!-- Title: Dim_Organisation Pages: 1 -->
<svg width="1168pt" height="2115pt"
 viewBox="0.00 0.00 1167.89 2115.20" xmlns="http://www.w3.org/2000/svg" xmlns:xlink="http://www.w3.org/1999/xlink">
<g id="graph0" class="graph" transform="scale(1 1) rotate(0) translate(4 2111.2)">
<title>Dim_Organisation</title>
<polygon fill="white" stroke="none" points="-4,4 -4,-2111.2 1163.89,-2111.2 1163.89,4 -4,4"/>
<!-- Dim_Organisation -->
<g id="node1" class="node">
<title>Dim_Organisation</title>
<polygon fill="#efefef" stroke="none" points="456.8,-974.2 456.8,-1009.8 729.27,-1009.8 729.27,-974.2 456.8,-974.2"/>
<polygon fill="none" stroke="black" points="456.8,-974.2 456.8,-1009.8 729.27,-1009.8 729.27,-974.2 456.8,-974.2"/>
<text text-anchor="start" x="463.8" y="-987.6" font-family="Arial Bold" font-size="18.00">Dim_Organisation</text>
<text text-anchor="start" x="597.78" y="-987.6" font-family="Arial" font-size="14.00">    </text>
<text text-anchor="start" x="628.9" y="-987.6" font-family="Arial" font-size="14.00" fill="#666666">[BASE TABLE]</text>
<polygon fill="none" stroke="black" points="456.8,-943.4 456.8,-974.2 729.27,-974.2 729.27,-943.4 456.8,-943.4"/>
<text text-anchor="start" x="463.8" y="-955.6" font-family="Arial" font-size="14.00">Organisation_Key </text>
<text text-anchor="start" x="578.98" y="-955.6" font-family="Arial" font-size="14.00" fill="#666666">[bigint unsigned]</text>
<polygon fill="none" stroke="black" points="456.8,-912.6 456.8,-943.4 729.27,-943.4 729.27,-912.6 456.8,-912.6"/>
<text text-anchor="start" x="463.8" y="-924.8" font-family="Arial" font-size="14.00">Source_Organisation_Id </text>
<text text-anchor="start" x="618.68" y="-924.8" font-family="Arial" font-size="14.00" fill="#666666">[bigint unsigned]</text>
<polygon fill="none" stroke="black" points="456.8,-881.8 456.8,-912.6 729.27,-912.6 729.27,-881.8 456.8,-881.8"/>
<text text-anchor="start" x="463.8" y="-894" font-family="Arial" font-size="14.00">Source_System_Key </text>
<text text-anchor="start" x="598.42" y="-894" font-family="Arial" font-size="14.00" fill="#666666">[bigint unsigned]</text>
<polygon fill="none" stroke="black" points="456.8,-851 456.8,-881.8 729.27,-881.8 729.27,-851 456.8,-851"/>
<text text-anchor="start" x="463.8" y="-863.2" font-family="Arial" font-size="14.00">Provider_Key </text>
<text text-anchor="start" x="551.73" y="-863.2" font-family="Arial" font-size="14.00" fill="#666666">[bigint unsigned]</text>
<polygon fill="none" stroke="black" points="456.8,-820.2 456.8,-851 729.27,-851 729.27,-820.2 456.8,-820.2"/>
<text text-anchor="start" x="463.8" y="-832.4" font-family="Arial" font-size="14.00">Organisation_Name </text>
<text text-anchor="start" x="592.2" y="-832.4" font-family="Arial" font-size="14.00" fill="#666666">[varchar(255)]</text>
<polygon fill="none" stroke="black" stroke-width="3" points="455.3,-818.7 455.3,-1011.3 730.77,-1011.3 730.77,-818.7 455.3,-818.7"/>
</g>
<!-- Dim_Source_System -->
<g id="node3" class="node">
<title>Dim_Source_System</title>
<polygon fill="#efefef" stroke="none" points="244.3,-412.8 244.3,-448.4 535.78,-448.4 535.78,-412.8 244.3,-412.8"/>
<polygon fill="none" stroke="black" points="244.3,-412.8 244.3,-448.4 535.78,-448.4 535.78,-412.8 244.3,-412.8"/>
<text text-anchor="start" x="251.3" y="-426.2" font-family="Arial Bold" font-size="18.00">Dim_Source_System</text>
<text text-anchor="start" x="404.29" y="-426.2" font-family="Arial" font-size="14.00">    </text>
<text text-anchor="start" x="435.4" y="-426.2" font-family="Arial" font-size="14.00" fill="#666666">[BASE TABLE]</text>
<polygon fill="none" stroke="black" points="244.3,-382 244.3,-412.8 535.78,-412.8 535.78,-382 244.3,-382"/>
<text text-anchor="start" x="251.3" y="-394.2" font-family="Arial" font-size="14.00">Source_System_Key </text>
<text text-anchor="start" x="385.92" y="-394.2" font-family="Arial" font-size="14.00" fill="#666666">[bigint unsigned]</text>
<polygon fill="none" stroke="black" points="244.3,-351.2 244.3,-382 535.78,-382 535.78,-351.2 244.3,-351.2"/>
<text text-anchor="start" x="251.3" y="-363.4" font-family="Arial" font-size="14.00">System_Name </text>
<text text-anchor="start" x="346.99" y="-363.4" font-family="Arial" font-size="14.00" fill="#666666">[varchar(50)]</text>
<polygon fill="none" stroke="black" points="244.3,-320.4 244.3,-351.2 535.78,-351.2 535.78,-320.4 244.3,-320.4"/>
<text text-anchor="start" x="251.3" y="-332.6" font-family="Arial" font-size="14.00">System_Type </text>
<text text-anchor="start" x="340.77" y="-332.6" font-family="Arial" font-size="14.00" fill="#666666">[varchar(50)]</text>
<polygon fill="none" stroke="black" points="244.3,-289.6 244.3,-320.4 535.78,-320.4 535.78,-289.6 244.3,-289.6"/>
<text text-anchor="start" x="251.3" y="-301.8" font-family="Arial" font-size="14.00">Last_Sync_Date </text>
<text text-anchor="start" x="357.92" y="-301.8" font-family="Arial" font-size="14.00" fill="#666666">[datetime]</text>
</g>
<!-- Dim_Organisation&#45;&gt;Dim_Source_System -->
<g id="edge2" class="edge">
<title>Dim_Organisation:Source_System_Key&#45;&gt;Dim_Source_System:Source_System_Key</title>
<path fill="none" stroke="black" d="M445.95,-895.58C363.15,-864.56 645.56,-397.4 536.78,-397.4"/>
<polygon fill="black" stroke="black" points="445.6,-895.53 454.74,-901.59 450.87,-896.39 455.14,-897.09 455.14,-897.09 455.14,-897.09 450.87,-896.39 456.2,-892.71 445.6,-895.53"/>
<text text-anchor="start" x="7" y="-907.2" font-family="Arial" font-size="10.00">FOREIGN KEY (Source_System_Key) REFERENCES Dim_Source_System (Source_System_Key)</text>
</g>
<!-- Dim_Training_Provider -->
<g id="node4" class="node">
<title>Dim_Training_Provider</title>
<polygon fill="#efefef" stroke="none" points="639.81,-659.2 639.81,-694.8 952.27,-694.8 952.27,-659.2 639.81,-659.2"/>
<polygon fill="none" stroke="black" points="639.81,-659.2 639.81,-694.8 952.27,-694.8 952.27,-659.2 639.81,-659.2"/>
<text text-anchor="start" x="646.81" y="-672.6" font-family="Arial Bold" font-size="18.00">Dim_Training_Provider</text>
<text text-anchor="start" x="820.78" y="-672.6" font-family="Arial" font-size="14.00">    </text>
<text text-anchor="start" x="851.89" y="-672.6" font-family="Arial" font-size="14.00" fill="#666666">[BASE TABLE]</text>
<polygon fill="none" stroke="black" points="639.81,-628.4 639.81,-659.2 952.27,-659.2 952.27,-628.4 639.81,-628.4"/>
<text text-anchor="start" x="646.81" y="-640.6" font-family="Arial" font-size="14.00">Provider_Key </text>
<text text-anchor="start" x="734.74" y="-640.6" font-family="Arial" font-size="14.00" fill="#666666">[bigint unsigned]</text>
<polygon fill="none" stroke="black" points="639.81,-597.6 639.81,-628.4 952.27,-628.4 952.27,-597.6 639.81,-597.6"/>
<text text-anchor="start" x="646.81" y="-609.8" font-family="Arial" font-size="14.00">Source_Provider_Id </text>
<text text-anchor="start" x="774.43" y="-609.8" font-family="Arial" font-size="14.00" fill="#666666">[bigint unsigned]</text>
<polygon fill="none" stroke="black" points="639.81,-566.8 639.81,-597.6 952.27,-597.6 952.27,-566.8 639.81,-566.8"/>
<text text-anchor="start" x="646.81" y="-579" font-family="Arial" font-size="14.00">Source_System_Key </text>
<text text-anchor="start" x="781.43" y="-579" font-family="Arial" font-size="14.00" fill="#666666">[bigint unsigned]</text>
<polygon fill="none" stroke="black" points="639.81,-536 639.81,-566.8 952.27,-566.8 952.27,-536 639.81,-536"/>
<text text-anchor="start" x="646.81" y="-548.2" font-family="Arial" font-size="14.00">Provider_Name </text>
<text text-anchor="start" x="747.96" y="-548.2" font-family="Arial" font-size="14.00" fill="#666666">[varchar(255)]</text>
<polygon fill="none" stroke="black" points="639.81,-505.2 639.81,-536 952.27,-536 952.27,-505.2 639.81,-505.2"/>
<text text-anchor="start" x="646.81" y="-517.4" font-family="Arial" font-size="14.00">Provider_Number </text>
<text text-anchor="start" x="760.41" y="-517.4" font-family="Arial" font-size="14.00" fill="#666666">[varchar(255)]</text>
<polygon fill="none" stroke="black" points="639.81,-474.4 639.81,-505.2 952.27,-505.2 952.27,-474.4 639.81,-474.4"/>
<text text-anchor="start" x="646.81" y="-486.6" font-family="Arial" font-size="14.00">Is_Active </text>
<text text-anchor="start" x="707.5" y="-486.6" font-family="Arial" font-size="14.00" fill="#666666">[char(1)]</text>
<polygon fill="none" stroke="black" points="639.81,-443.6 639.81,-474.4 952.27,-474.4 952.27,-443.6 639.81,-443.6"/>
<text text-anchor="start" x="646.81" y="-455.8" font-family="Arial" font-size="14.00">Valid_From_Date </text>
<text text-anchor="start" x="759.63" y="-455.8" font-family="Arial" font-size="14.00" fill="#666666">[date]</text>
<polygon fill="none" stroke="black" points="639.81,-412.8 639.81,-443.6 952.27,-443.6 952.27,-412.8 639.81,-412.8"/>
<text text-anchor="start" x="646.81" y="-425" font-family="Arial" font-size="14.00">Valid_To_Date </text>
<text text-anchor="start" x="743.31" y="-425" font-family="Arial" font-size="14.00" fill="#666666">[date]</text>
<polygon fill="none" stroke="black" points="639.81,-382 639.81,-412.8 952.27,-412.8 952.27,-382 639.81,-382"/>
<text text-anchor="start" x="646.81" y="-394.2" font-family="Arial" font-size="14.00">Is_Current </text>
<text text-anchor="start" x="716.05" y="-394.2" font-family="Arial" font-size="14.00" fill="#666666">[tinyint(1)]</text>
<polygon fill="none" stroke="black" points="639.81,-351.2 639.81,-382 952.27,-382 952.27,-351.2 639.81,-351.2"/>
<text text-anchor="start" x="646.81" y="-363.4" font-family="Arial" font-size="14.00">Address_Line_1 </text>
<text text-anchor="start" x="751.88" y="-363.4" font-family="Arial" font-size="14.00" fill="#666666">[varchar(255)]</text>
<polygon fill="none" stroke="black" points="639.81,-320.4 639.81,-351.2 952.27,-351.2 952.27,-320.4 639.81,-320.4"/>
<text text-anchor="start" x="646.81" y="-332.6" font-family="Arial" font-size="14.00">Address_Line_2 </text>
<text text-anchor="start" x="751.88" y="-332.6" font-family="Arial" font-size="14.00" fill="#666666">[varchar(255)]</text>
<polygon fill="none" stroke="black" points="639.81,-289.6 639.81,-320.4 952.27,-320.4 952.27,-289.6 639.81,-289.6"/>
<text text-anchor="start" x="646.81" y="-301.8" font-family="Arial" font-size="14.00">City </text>
<text text-anchor="start" x="674.81" y="-301.8" font-family="Arial" font-size="14.00" fill="#666666">[varchar(255)]</text>
<polygon fill="none" stroke="black" points="639.81,-258.8 639.81,-289.6 952.27,-289.6 952.27,-258.8 639.81,-258.8"/>
<text text-anchor="start" x="646.81" y="-271" font-family="Arial" font-size="14.00">Postcode </text>
<text text-anchor="start" x="709.07" y="-271" font-family="Arial" font-size="14.00" fill="#666666">[varchar(255)]</text>
<polygon fill="none" stroke="black" points="639.81,-228 639.81,-258.8 952.27,-258.8 952.27,-228 639.81,-228"/>
<text text-anchor="start" x="646.81" y="-240.2" font-family="Arial" font-size="14.00">Website </text>
<text text-anchor="start" x="701.27" y="-240.2" font-family="Arial" font-size="14.00" fill="#666666">[varchar(255)]</text>
<polygon fill="none" stroke="black" points="639.81,-197.2 639.81,-228 952.27,-228 952.27,-197.2 639.81,-197.2"/>
<text text-anchor="start" x="646.81" y="-209.4" font-family="Arial" font-size="14.00">Telephone </text>
<text text-anchor="start" x="716.86" y="-209.4" font-family="Arial" font-size="14.00" fill="#666666">[varchar(255)]</text>
<polygon fill="none" stroke="black" points="639.81,-166.4 639.81,-197.2 952.27,-197.2 952.27,-166.4 639.81,-166.4"/>
<text text-anchor="start" x="646.81" y="-178.6" font-family="Arial" font-size="14.00">Public_Email </text>
<text text-anchor="start" x="731.62" y="-178.6" font-family="Arial" font-size="14.00" fill="#666666">[varchar(255)]</text>
<polygon fill="none" stroke="black" points="639.81,-135.6 639.81,-166.4 952.27,-166.4 952.27,-135.6 639.81,-135.6"/>
<text text-anchor="start" x="646.81" y="-147.8" font-family="Arial" font-size="14.00">Public_Telephone </text>
<text text-anchor="start" x="762.78" y="-147.8" font-family="Arial" font-size="14.00" fill="#666666">[varchar(255)]</text>
<polygon fill="none" stroke="black" points="639.81,-104.8 639.81,-135.6 952.27,-135.6 952.27,-104.8 639.81,-104.8"/>
<text text-anchor="start" x="646.81" y="-117" font-family="Arial" font-size="14.00">Provider_Type </text>
<text text-anchor="start" x="741.74" y="-117" font-family="Arial" font-size="14.00" fill="#666666">[varchar(255)]</text>
<polygon fill="none" stroke="black" points="639.81,-74 639.81,-104.8 952.27,-104.8 952.27,-74 639.81,-74"/>
<text text-anchor="start" x="646.81" y="-86.2" font-family="Arial" font-size="14.00">Source_Created_At </text>
<text text-anchor="start" x="773.66" y="-86.2" font-family="Arial" font-size="14.00" fill="#666666">[timestamp]</text>
<polygon fill="none" stroke="black" points="639.81,-43.2 639.81,-74 952.27,-74 952.27,-43.2 639.81,-43.2"/>
<text text-anchor="start" x="646.81" y="-55.4" font-family="Arial" font-size="14.00">Source_Updated_At </text>
<text text-anchor="start" x="776.79" y="-55.4" font-family="Arial" font-size="14.00" fill="#666666">[timestamp]</text>
</g>
<!-- Dim_Organisation&#45;&gt;Dim_Training_Provider -->
<g id="edge3" class="edge">
<title>Dim_Organisation:Provider_Key&#45;&gt;Dim_Training_Provider:Provider_Key</title>
<path fill="none" stroke="black" d="M740.29,-864.93C767.76,-855.65 750.27,-804.73 729.27,-774 705.09,-738.61 663.99,-773.39 639.81,-738 616.19,-703.43 596.94,-643.8 638.81,-643.8"/>
<polygon fill="black" stroke="black" points="740.5,-864.9 729.95,-861.9 735.22,-865.67 730.93,-866.3 730.93,-866.3 730.93,-866.3 735.22,-865.67 731.26,-870.8 740.5,-864.9"/>
<text text-anchor="start" x="737.27" y="-876.4" font-family="Arial" font-size="10.00">FOREIGN KEY (Provider_Key) REFERENCES Dim_Training_Provider (Provider_Key)</text>
</g>
<!-- Dim_Delivery_Header -->
<g id="node2" class="node">
<title>Dim_Delivery_Header</title>
<polygon fill="#efefef" stroke="none" points="441.32,-2028.4 441.32,-2064 744.75,-2064 744.75,-2028.4 441.32,-2028.4"/>
<polygon fill="none" stroke="black" points="441.32,-2028.4 441.32,-2064 744.75,-2064 744.75,-2028.4 441.32,-2028.4"/>
<text text-anchor="start" x="448.32" y="-2041.8" font-family="Arial Bold" font-size="18.00">Dim_Delivery_Header</text>
<text text-anchor="start" x="613.26" y="-2041.8" font-family="Arial" font-size="14.00">    </text>
<text text-anchor="start" x="644.38" y="-2041.8" font-family="Arial" font-size="14.00" fill="#666666">[BASE TABLE]</text>
<polygon fill="none" stroke="black" points="441.32,-1997.6 441.32,-2028.4 744.75,-2028.4 744.75,-1997.6 441.32,-1997.6"/>
<text text-anchor="start" x="448.32" y="-2009.8" font-family="Arial" font-size="14.00">Delivery_Key </text>
<text text-anchor="start" x="534.69" y="-2009.8" font-family="Arial" font-size="14.00" fill="#666666">[bigint unsigned]</text>
<polygon fill="none" stroke="black" points="441.32,-1966.8 441.32,-1997.6 744.75,-1997.6 744.75,-1966.8 441.32,-1966.8"/>
<text text-anchor="start" x="448.32" y="-1979" font-family="Arial" font-size="14.00">Source_Delivery_Id </text>
<text text-anchor="start" x="574.39" y="-1979" font-family="Arial" font-size="14.00" fill="#666666">[bigint unsigned]</text>
<polygon fill="none" stroke="black" points="441.32,-1936 441.32,-1966.8 744.75,-1966.8 744.75,-1936 441.32,-1936"/>
<text text-anchor="start" x="448.32" y="-1948.2" font-family="Arial" font-size="14.00">Source_System_Key </text>
<text text-anchor="start" x="582.94" y="-1948.2" font-family="Arial" font-size="14.00" fill="#666666">[bigint unsigned]</text>
<polygon fill="none" stroke="black" points="441.32,-1905.2 441.32,-1936 744.75,-1936 744.75,-1905.2 441.32,-1905.2"/>
<text text-anchor="start" x="448.32" y="-1917.4" font-family="Arial" font-size="14.00">Grant_Key </text>
<text text-anchor="start" x="519.14" y="-1917.4" font-family="Arial" font-size="14.00" fill="#666666">[bigint unsigned]</text>
<polygon fill="none" stroke="black" points="441.32,-1874.4 441.32,-1905.2 744.75,-1905.2 744.75,-1874.4 441.32,-1874.4"/>
<text text-anchor="start" x="448.32" y="-1886.6" font-family="Arial" font-size="14.00">School_Key </text>
<text text-anchor="start" x="526.93" y="-1886.6" font-family="Arial" font-size="14.00" fill="#666666">[bigint unsigned]</text>
<polygon fill="none" stroke="black" points="441.32,-1843.6 441.32,-1874.4 744.75,-1874.4 744.75,-1843.6 441.32,-1843.6"/>
<text text-anchor="start" x="448.32" y="-1855.8" font-family="Arial" font-size="14.00">Organisation_Key </text>
<text text-anchor="start" x="563.5" y="-1855.8" font-family="Arial" font-size="14.00" fill="#666666">[bigint unsigned]</text>
<polygon fill="none" stroke="black" points="441.32,-1812.8 441.32,-1843.6 744.75,-1843.6 744.75,-1812.8 441.32,-1812.8"/>
<text text-anchor="start" x="448.32" y="-1825" font-family="Arial" font-size="14.00">Training_Provider_Key </text>
<text text-anchor="start" x="594.62" y="-1825" font-family="Arial" font-size="14.00" fill="#666666">[bigint unsigned]</text>
<polygon fill="none" stroke="black" points="441.32,-1782 441.32,-1812.8 744.75,-1812.8 744.75,-1782 441.32,-1782"/>
<text text-anchor="start" x="448.32" y="-1794.2" font-family="Arial" font-size="14.00">External_System_Key </text>
<text text-anchor="start" x="589.94" y="-1794.2" font-family="Arial" font-size="14.00" fill="#666666">[bigint unsigned]</text>
<polygon fill="none" stroke="black" points="441.32,-1751.2 441.32,-1782 744.75,-1782 744.75,-1751.2 441.32,-1751.2"/>
<text text-anchor="start" x="448.32" y="-1763.4" font-family="Arial" font-size="14.00">Delivery_Status </text>
<text text-anchor="start" x="550.25" y="-1763.4" font-family="Arial" font-size="14.00" fill="#666666">[varchar(50)]</text>
<polygon fill="none" stroke="black" points="441.32,-1720.4 441.32,-1751.2 744.75,-1751.2 744.75,-1720.4 441.32,-1720.4"/>
<text text-anchor="start" x="448.32" y="-1732.6" font-family="Arial" font-size="14.00">Date_Delivery_Start </text>
<text text-anchor="start" x="577.49" y="-1732.6" font-family="Arial" font-size="14.00" fill="#666666">[date]</text>
<polygon fill="none" stroke="black" points="441.32,-1689.6 441.32,-1720.4 744.75,-1720.4 744.75,-1689.6 441.32,-1689.6"/>
<text text-anchor="start" x="448.32" y="-1701.8" font-family="Arial" font-size="14.00">Date_Delivery_End </text>
<text text-anchor="start" x="572.83" y="-1701.8" font-family="Arial" font-size="14.00" fill="#666666">[date]</text>
<polygon fill="none" stroke="black" points="441.32,-1658.8 441.32,-1689.6 744.75,-1689.6 744.75,-1658.8 441.32,-1658.8"/>
<text text-anchor="start" x="448.32" y="-1671" font-family="Arial" font-size="14.00">Digitisation_Booking </text>
<text text-anchor="start" x="579.07" y="-1671" font-family="Arial" font-size="14.00" fill="#666666">[tinyint]</text>
<polygon fill="none" stroke="black" points="441.32,-1628 441.32,-1658.8 744.75,-1658.8 744.75,-1628 441.32,-1628"/>
<text text-anchor="start" x="448.32" y="-1640.2" font-family="Arial" font-size="14.00">Fleet_Cycles_Used </text>
<text text-anchor="start" x="573.6" y="-1640.2" font-family="Arial" font-size="14.00" fill="#666666">[int]</text>
<polygon fill="none" stroke="black" points="441.32,-1597.2 441.32,-1628 744.75,-1628 744.75,-1597.2 441.32,-1597.2"/>
<text text-anchor="start" x="448.32" y="-1609.4" font-family="Arial" font-size="14.00">Consent_Cutoff_Date </text>
<text text-anchor="start" x="586.85" y="-1609.4" font-family="Arial" font-size="14.00" fill="#666666">[date]</text>
<polygon fill="none" stroke="black" points="441.32,-1566.4 441.32,-1597.2 744.75,-1597.2 744.75,-1566.4 441.32,-1566.4"/>
<text text-anchor="start" x="448.32" y="-1578.6" font-family="Arial" font-size="14.00">Pref_Alt_Delivery_Location </text>
<text text-anchor="start" x="621.08" y="-1578.6" font-family="Arial" font-size="14.00" fill="#666666">[tinyint]</text>
<polygon fill="none" stroke="black" points="441.32,-1535.6 441.32,-1566.4 744.75,-1566.4 744.75,-1535.6 441.32,-1535.6"/>
<text text-anchor="start" x="448.32" y="-1547.8" font-family="Arial" font-size="14.00">Alt_Delivery_Location </text>
<text text-anchor="start" x="587.62" y="-1547.8" font-family="Arial" font-size="14.00" fill="#666666">[text]</text>
<polygon fill="none" stroke="black" points="441.32,-1504.8 441.32,-1535.6 744.75,-1535.6 744.75,-1504.8 441.32,-1504.8"/>
<text text-anchor="start" x="448.32" y="-1517" font-family="Arial" font-size="14.00">Notes </text>
<text text-anchor="start" x="488.79" y="-1517" font-family="Arial" font-size="14.00" fill="#666666">[text]</text>
<polygon fill="none" stroke="black" points="441.32,-1474 441.32,-1504.8 744.75,-1504.8 744.75,-1474 441.32,-1474"/>
<text text-anchor="start" x="448.32" y="-1486.2" font-family="Arial" font-size="14.00">Instructor_General_Notes </text>
<text text-anchor="start" x="612.52" y="-1486.2" font-family="Arial" font-size="14.00" fill="#666666">[text]</text>
<polygon fill="none" stroke="black" points="441.32,-1443.2 441.32,-1474 744.75,-1474 744.75,-1443.2 441.32,-1443.2"/>
<text text-anchor="start" x="448.32" y="-1455.4" font-family="Arial" font-size="14.00">Teacher_Notes </text>
<text text-anchor="start" x="547.93" y="-1455.4" font-family="Arial" font-size="14.00" fill="#666666">[text]</text>
<polygon fill="none" stroke="black" points="441.32,-1412.4 441.32,-1443.2 744.75,-1443.2 744.75,-1412.4 441.32,-1412.4"/>
<text text-anchor="start" x="448.32" y="-1424.6" font-family="Arial" font-size="14.00">School_Contacts </text>
<text text-anchor="start" x="558.05" y="-1424.6" font-family="Arial" font-size="14.00" fill="#666666">[json]</text>
<polygon fill="none" stroke="black" points="441.32,-1381.6 441.32,-1412.4 744.75,-1412.4 744.75,-1381.6 441.32,-1381.6"/>
<text text-anchor="start" x="448.32" y="-1393.8" font-family="Arial" font-size="14.00">Venue </text>
<text text-anchor="start" x="492.7" y="-1393.8" font-family="Arial" font-size="14.00" fill="#666666">[json]</text>
<polygon fill="none" stroke="black" points="441.32,-1350.8 441.32,-1381.6 744.75,-1381.6 744.75,-1350.8 441.32,-1350.8"/>
<text text-anchor="start" x="448.32" y="-1363" font-family="Arial" font-size="14.00">Provider_Additional_Questions </text>
<text text-anchor="start" x="644.44" y="-1363" font-family="Arial" font-size="14.00" fill="#666666">[json]</text>
<polygon fill="none" stroke="black" points="441.32,-1320 441.32,-1350.8 744.75,-1350.8 744.75,-1320 441.32,-1320"/>
<text text-anchor="start" x="448.32" y="-1332.2" font-family="Arial" font-size="14.00">Comms_Start_Date </text>
<text text-anchor="start" x="575.14" y="-1332.2" font-family="Arial" font-size="14.00" fill="#666666">[date]</text>
<polygon fill="none" stroke="black" points="441.32,-1289.2 441.32,-1320 744.75,-1320 744.75,-1289.2 441.32,-1289.2"/>
<text text-anchor="start" x="448.32" y="-1301.4" font-family="Arial" font-size="14.00">Date_Completed </text>
<text text-anchor="start" x="557.28" y="-1301.4" font-family="Arial" font-size="14.00" fill="#666666">[date]</text>
<polygon fill="none" stroke="black" points="441.32,-1258.4 441.32,-1289.2 744.75,-1289.2 744.75,-1258.4 441.32,-1258.4"/>
<text text-anchor="start" x="448.32" y="-1270.6" font-family="Arial" font-size="14.00">Pref_Link_Managed_Consent </text>
<text text-anchor="start" x="637.45" y="-1270.6" font-family="Arial" font-size="14.00" fill="#666666">[tinyint]</text>
<polygon fill="none" stroke="black" points="441.32,-1227.6 441.32,-1258.4 744.75,-1258.4 744.75,-1227.6 441.32,-1227.6"/>
<text text-anchor="start" x="448.32" y="-1239.8" font-family="Arial" font-size="14.00">Include_Tp_Terms_In_Consent </text>
<text text-anchor="start" x="648.32" y="-1239.8" font-family="Arial" font-size="14.00" fill="#666666">[tinyint]</text>
<polygon fill="none" stroke="black" points="441.32,-1196.8 441.32,-1227.6 744.75,-1227.6 744.75,-1196.8 441.32,-1196.8"/>
<text text-anchor="start" x="448.32" y="-1209" font-family="Arial" font-size="14.00">Consent_Src_Characteristics </text>
<text text-anchor="start" x="633.51" y="-1209" font-family="Arial" font-size="14.00" fill="#666666">[tinyint]</text>
<polygon fill="none" stroke="black" points="441.32,-1166 441.32,-1196.8 744.75,-1196.8 744.75,-1166 441.32,-1166"/>
<text text-anchor="start" x="448.32" y="-1178.2" font-family="Arial" font-size="14.00">Max_Consents </text>
<text text-anchor="start" x="545.59" y="-1178.2" font-family="Arial" font-size="14.00" fill="#666666">[int]</text>
<polygon fill="none" stroke="black" points="441.32,-1135.2 441.32,-1166 744.75,-1166 744.75,-1135.2 441.32,-1135.2"/>
<text text-anchor="start" x="448.32" y="-1147.4" font-family="Arial" font-size="14.00">Waiting_List_Enabled </text>
<text text-anchor="start" x="587.63" y="-1147.4" font-family="Arial" font-size="14.00" fill="#666666">[tinyint]</text>
</g>
<!-- Dim_Delivery_Header&#45;&gt;Dim_Organisation -->
<g id="edge1" class="edge">
<title>Dim_Delivery_Header:Organisation_Key&#45;&gt;Dim_Organisation:Organisation_Key</title>
<path fill="none" stroke="black" d="M756.1,-1858.18C945.22,-1827.63 926.83,-958.8 730.27,-958.8"/>
<polygon fill="black" stroke="black" points="756.05,-1858.18 745.73,-1854.49 750.73,-1858.6 746.42,-1858.95 746.42,-1858.95 746.42,-1858.95 750.73,-1858.6 746.44,-1863.46 756.05,-1858.18"/>
<text text-anchor="start" x="752.75" y="-1869" font-family="Arial" font-size="10.00">FOREIGN KEY (Organisation_Key) REFERENCES Dim_Organisation (Organisation_Key)</text>
</g>
</g>
</svg>
