<?xml version="1.0" encoding="UTF-8" standalone="no"?>
<!DOCTYPE svg PUBLIC "-//W3C//DTD SVG 1.1//EN"
 "http://www.w3.org/Graphics/SVG/1.1/DTD/svg11.dtd">
<!-- Generated by graphviz version 12.1.2 (20240928.0832)
 -->
<!-- Title: Dim_Course Pages: 1 -->
<svg width="1107pt" height="2793pt"
 viewBox="0.00 0.00 1107.14 2792.80" xmlns="http://www.w3.org/2000/svg" xmlns:xlink="http://www.w3.org/1999/xlink">
<g id="graph0" class="graph" transform="scale(1 1) rotate(0) translate(4 2788.8)">
<title>Dim_Course</title>
<polygon fill="white" stroke="none" points="-4,4 -4,-2788.8 1103.14,-2788.8 1103.14,4 -4,4"/>
<!-- Dim_Course -->
<g id="node1" class="node">
<title>Dim_Course</title>
<polygon fill="#efefef" stroke="none" points="456.8,-1405.4 456.8,-1441 707.39,-1441 707.39,-1405.4 456.8,-1405.4"/>
<polygon fill="none" stroke="black" points="456.8,-1405.4 456.8,-1441 707.39,-1441 707.39,-1405.4 456.8,-1405.4"/>
<text text-anchor="start" x="473.85" y="-1418.8" font-family="Arial Bold" font-size="18.00">Dim_Course</text>
<text text-anchor="start" x="565.85" y="-1418.8" font-family="Arial" font-size="14.00">    </text>
<text text-anchor="start" x="596.96" y="-1418.8" font-family="Arial" font-size="14.00" fill="#666666">[BASE TABLE]</text>
<polygon fill="none" stroke="black" points="456.8,-1374.6 456.8,-1405.4 707.39,-1405.4 707.39,-1374.6 456.8,-1374.6"/>
<text text-anchor="start" x="463.8" y="-1386.8" font-family="Arial" font-size="14.00">Course_Key </text>
<text text-anchor="start" x="544.73" y="-1386.8" font-family="Arial" font-size="14.00" fill="#666666">[bigint unsigned]</text>
<polygon fill="none" stroke="black" points="456.8,-1343.8 456.8,-1374.6 707.39,-1374.6 707.39,-1343.8 456.8,-1343.8"/>
<text text-anchor="start" x="463.8" y="-1356" font-family="Arial" font-size="14.00">Source_Course_Id </text>
<text text-anchor="start" x="584.43" y="-1356" font-family="Arial" font-size="14.00" fill="#666666">[bigint unsigned]</text>
<polygon fill="none" stroke="black" points="456.8,-1313 456.8,-1343.8 707.39,-1343.8 707.39,-1313 456.8,-1313"/>
<text text-anchor="start" x="463.8" y="-1325.2" font-family="Arial" font-size="14.00">Source_System_Key </text>
<text text-anchor="start" x="598.42" y="-1325.2" font-family="Arial" font-size="14.00" fill="#666666">[bigint unsigned]</text>
<polygon fill="none" stroke="black" points="456.8,-1282.2 456.8,-1313 707.39,-1313 707.39,-1282.2 456.8,-1282.2"/>
<text text-anchor="start" x="463.8" y="-1294.4" font-family="Arial" font-size="14.00">Delivery_Key </text>
<text text-anchor="start" x="550.17" y="-1294.4" font-family="Arial" font-size="14.00" fill="#666666">[bigint unsigned]</text>
<polygon fill="none" stroke="black" points="456.8,-1251.4 456.8,-1282.2 707.39,-1282.2 707.39,-1251.4 456.8,-1251.4"/>
<text text-anchor="start" x="463.8" y="-1263.6" font-family="Arial" font-size="14.00">Course_Level </text>
<text text-anchor="start" x="554.08" y="-1263.6" font-family="Arial" font-size="14.00" fill="#666666">[varchar(45)]</text>
<polygon fill="none" stroke="black" points="456.8,-1220.6 456.8,-1251.4 707.39,-1251.4 707.39,-1220.6 456.8,-1220.6"/>
<text text-anchor="start" x="463.8" y="-1232.8" font-family="Arial" font-size="14.00">Status </text>
<text text-anchor="start" x="507.38" y="-1232.8" font-family="Arial" font-size="14.00" fill="#666666">[int]</text>
<polygon fill="none" stroke="black" points="456.8,-1189.8 456.8,-1220.6 707.39,-1220.6 707.39,-1189.8 456.8,-1189.8"/>
<text text-anchor="start" x="463.8" y="-1202" font-family="Arial" font-size="14.00">Start_Date </text>
<text text-anchor="start" x="534.62" y="-1202" font-family="Arial" font-size="14.00" fill="#666666">[date]</text>
<polygon fill="none" stroke="black" points="456.8,-1159 456.8,-1189.8 707.39,-1189.8 707.39,-1159 456.8,-1159"/>
<text text-anchor="start" x="463.8" y="-1171.2" font-family="Arial" font-size="14.00">Date_Complete </text>
<text text-anchor="start" x="564.97" y="-1171.2" font-family="Arial" font-size="14.00" fill="#666666">[date]</text>
<polygon fill="none" stroke="black" points="456.8,-1128.2 456.8,-1159 707.39,-1159 707.39,-1128.2 456.8,-1128.2"/>
<text text-anchor="start" x="463.8" y="-1140.4" font-family="Arial" font-size="14.00">Year_Group </text>
<text text-anchor="start" x="543.96" y="-1140.4" font-family="Arial" font-size="14.00" fill="#666666">[varchar(45)]</text>
<polygon fill="none" stroke="black" points="456.8,-1097.4 456.8,-1128.2 707.39,-1128.2 707.39,-1097.4 456.8,-1097.4"/>
<text text-anchor="start" x="463.8" y="-1109.6" font-family="Arial" font-size="14.00">Parent_Course_Key </text>
<text text-anchor="start" x="593.77" y="-1109.6" font-family="Arial" font-size="14.00" fill="#666666">[bigint unsigned]</text>
<polygon fill="none" stroke="black" stroke-width="3" points="455.3,-1095.9 455.3,-1442.5 708.89,-1442.5 708.89,-1095.9 455.3,-1095.9"/>
</g>
<!-- Dim_Course&#45;&gt;Dim_Course -->
<g id="edge1" class="edge">
<title>Dim_Course:Parent_Course_Key&#45;&gt;Dim_Course:Course_Key</title>
<path fill="none" stroke="black" d="M583.12,-1138.17C591.08,-1355.59 590.74,-1868 582.09,-1868 573.32,-1868 573.1,-1603.56 581.43,-1405.35"/>
<polygon fill="black" stroke="black" points="583.13,-1138.37 587.25,-1128.21 582.93,-1133.04 582.76,-1128.71 582.76,-1128.71 582.76,-1128.71 582.93,-1133.04 578.25,-1128.55 583.13,-1138.37"/>
<text text-anchor="start" x="213.96" y="-1138.04" font-family="Arial" font-size="10.00">FOREIGN KEY (Parent_Course_Key) REFERENCES Dim_Course (Course_Key)</text>
</g>
<!-- Dim_Source_System -->
<g id="node4" class="node">
<title>Dim_Source_System</title>
<polygon fill="#efefef" stroke="none" points="235.35,-551.4 235.35,-587 526.83,-587 526.83,-551.4 235.35,-551.4"/>
<polygon fill="none" stroke="black" points="235.35,-551.4 235.35,-587 526.83,-587 526.83,-551.4 235.35,-551.4"/>
<text text-anchor="start" x="242.35" y="-564.8" font-family="Arial Bold" font-size="18.00">Dim_Source_System</text>
<text text-anchor="start" x="395.35" y="-564.8" font-family="Arial" font-size="14.00">    </text>
<text text-anchor="start" x="426.46" y="-564.8" font-family="Arial" font-size="14.00" fill="#666666">[BASE TABLE]</text>
<polygon fill="none" stroke="black" points="235.35,-520.6 235.35,-551.4 526.83,-551.4 526.83,-520.6 235.35,-520.6"/>
<text text-anchor="start" x="242.35" y="-532.8" font-family="Arial" font-size="14.00">Source_System_Key </text>
<text text-anchor="start" x="376.97" y="-532.8" font-family="Arial" font-size="14.00" fill="#666666">[bigint unsigned]</text>
<polygon fill="none" stroke="black" points="235.35,-489.8 235.35,-520.6 526.83,-520.6 526.83,-489.8 235.35,-489.8"/>
<text text-anchor="start" x="242.35" y="-502" font-family="Arial" font-size="14.00">System_Name </text>
<text text-anchor="start" x="338.05" y="-502" font-family="Arial" font-size="14.00" fill="#666666">[varchar(50)]</text>
<polygon fill="none" stroke="black" points="235.35,-459 235.35,-489.8 526.83,-489.8 526.83,-459 235.35,-459"/>
<text text-anchor="start" x="242.35" y="-471.2" font-family="Arial" font-size="14.00">System_Type </text>
<text text-anchor="start" x="331.83" y="-471.2" font-family="Arial" font-size="14.00" fill="#666666">[varchar(50)]</text>
<polygon fill="none" stroke="black" points="235.35,-428.2 235.35,-459 526.83,-459 526.83,-428.2 235.35,-428.2"/>
<text text-anchor="start" x="242.35" y="-440.4" font-family="Arial" font-size="14.00">Last_Sync_Date </text>
<text text-anchor="start" x="348.97" y="-440.4" font-family="Arial" font-size="14.00" fill="#666666">[datetime]</text>
</g>
<!-- Dim_Course&#45;&gt;Dim_Source_System -->
<g id="edge4" class="edge">
<title>Dim_Course:Source_System_Key&#45;&gt;Dim_Source_System:Source_System_Key</title>
<path fill="none" stroke="black" d="M445.67,-1327.41C296.19,-1296.23 701.02,-536 527.83,-536"/>
<polygon fill="black" stroke="black" points="445.52,-1327.4 455.03,-1332.85 450.83,-1327.92 455.14,-1328.34 455.14,-1328.34 455.14,-1328.34 450.83,-1327.92 455.9,-1323.89 445.52,-1327.4"/>
<text text-anchor="start" x="7" y="-1338.4" font-family="Arial" font-size="10.00">FOREIGN KEY (Source_System_Key) REFERENCES Dim_Source_System (Source_System_Key)</text>
</g>
<!-- Dim_Delivery_Header -->
<g id="node5" class="node">
<title>Dim_Delivery_Header</title>
<polygon fill="#efefef" stroke="none" points="631.38,-936.4 631.38,-972 934.81,-972 934.81,-936.4 631.38,-936.4"/>
<polygon fill="none" stroke="black" points="631.38,-936.4 631.38,-972 934.81,-972 934.81,-936.4 631.38,-936.4"/>
<text text-anchor="start" x="638.38" y="-949.8" font-family="Arial Bold" font-size="18.00">Dim_Delivery_Header</text>
<text text-anchor="start" x="803.32" y="-949.8" font-family="Arial" font-size="14.00">    </text>
<text text-anchor="start" x="834.43" y="-949.8" font-family="Arial" font-size="14.00" fill="#666666">[BASE TABLE]</text>
<polygon fill="none" stroke="black" points="631.38,-905.6 631.38,-936.4 934.81,-936.4 934.81,-905.6 631.38,-905.6"/>
<text text-anchor="start" x="638.38" y="-917.8" font-family="Arial" font-size="14.00">Delivery_Key </text>
<text text-anchor="start" x="724.75" y="-917.8" font-family="Arial" font-size="14.00" fill="#666666">[bigint unsigned]</text>
<polygon fill="none" stroke="black" points="631.38,-874.8 631.38,-905.6 934.81,-905.6 934.81,-874.8 631.38,-874.8"/>
<text text-anchor="start" x="638.38" y="-887" font-family="Arial" font-size="14.00">Source_Delivery_Id </text>
<text text-anchor="start" x="764.44" y="-887" font-family="Arial" font-size="14.00" fill="#666666">[bigint unsigned]</text>
<polygon fill="none" stroke="black" points="631.38,-844 631.38,-874.8 934.81,-874.8 934.81,-844 631.38,-844"/>
<text text-anchor="start" x="638.38" y="-856.2" font-family="Arial" font-size="14.00">Source_System_Key </text>
<text text-anchor="start" x="773" y="-856.2" font-family="Arial" font-size="14.00" fill="#666666">[bigint unsigned]</text>
<polygon fill="none" stroke="black" points="631.38,-813.2 631.38,-844 934.81,-844 934.81,-813.2 631.38,-813.2"/>
<text text-anchor="start" x="638.38" y="-825.4" font-family="Arial" font-size="14.00">Grant_Key </text>
<text text-anchor="start" x="709.2" y="-825.4" font-family="Arial" font-size="14.00" fill="#666666">[bigint unsigned]</text>
<polygon fill="none" stroke="black" points="631.38,-782.4 631.38,-813.2 934.81,-813.2 934.81,-782.4 631.38,-782.4"/>
<text text-anchor="start" x="638.38" y="-794.6" font-family="Arial" font-size="14.00">School_Key </text>
<text text-anchor="start" x="716.99" y="-794.6" font-family="Arial" font-size="14.00" fill="#666666">[bigint unsigned]</text>
<polygon fill="none" stroke="black" points="631.38,-751.6 631.38,-782.4 934.81,-782.4 934.81,-751.6 631.38,-751.6"/>
<text text-anchor="start" x="638.38" y="-763.8" font-family="Arial" font-size="14.00">Organisation_Key </text>
<text text-anchor="start" x="753.56" y="-763.8" font-family="Arial" font-size="14.00" fill="#666666">[bigint unsigned]</text>
<polygon fill="none" stroke="black" points="631.38,-720.8 631.38,-751.6 934.81,-751.6 934.81,-720.8 631.38,-720.8"/>
<text text-anchor="start" x="638.38" y="-733" font-family="Arial" font-size="14.00">Training_Provider_Key </text>
<text text-anchor="start" x="784.68" y="-733" font-family="Arial" font-size="14.00" fill="#666666">[bigint unsigned]</text>
<polygon fill="none" stroke="black" points="631.38,-690 631.38,-720.8 934.81,-720.8 934.81,-690 631.38,-690"/>
<text text-anchor="start" x="638.38" y="-702.2" font-family="Arial" font-size="14.00">External_System_Key </text>
<text text-anchor="start" x="780" y="-702.2" font-family="Arial" font-size="14.00" fill="#666666">[bigint unsigned]</text>
<polygon fill="none" stroke="black" points="631.38,-659.2 631.38,-690 934.81,-690 934.81,-659.2 631.38,-659.2"/>
<text text-anchor="start" x="638.38" y="-671.4" font-family="Arial" font-size="14.00">Delivery_Status </text>
<text text-anchor="start" x="740.31" y="-671.4" font-family="Arial" font-size="14.00" fill="#666666">[varchar(50)]</text>
<polygon fill="none" stroke="black" points="631.38,-628.4 631.38,-659.2 934.81,-659.2 934.81,-628.4 631.38,-628.4"/>
<text text-anchor="start" x="638.38" y="-640.6" font-family="Arial" font-size="14.00">Date_Delivery_Start </text>
<text text-anchor="start" x="767.55" y="-640.6" font-family="Arial" font-size="14.00" fill="#666666">[date]</text>
<polygon fill="none" stroke="black" points="631.38,-597.6 631.38,-628.4 934.81,-628.4 934.81,-597.6 631.38,-597.6"/>
<text text-anchor="start" x="638.38" y="-609.8" font-family="Arial" font-size="14.00">Date_Delivery_End </text>
<text text-anchor="start" x="762.89" y="-609.8" font-family="Arial" font-size="14.00" fill="#666666">[date]</text>
<polygon fill="none" stroke="black" points="631.38,-566.8 631.38,-597.6 934.81,-597.6 934.81,-566.8 631.38,-566.8"/>
<text text-anchor="start" x="638.38" y="-579" font-family="Arial" font-size="14.00">Digitisation_Booking </text>
<text text-anchor="start" x="769.13" y="-579" font-family="Arial" font-size="14.00" fill="#666666">[tinyint]</text>
<polygon fill="none" stroke="black" points="631.38,-536 631.38,-566.8 934.81,-566.8 934.81,-536 631.38,-536"/>
<text text-anchor="start" x="638.38" y="-548.2" font-family="Arial" font-size="14.00">Fleet_Cycles_Used </text>
<text text-anchor="start" x="763.66" y="-548.2" font-family="Arial" font-size="14.00" fill="#666666">[int]</text>
<polygon fill="none" stroke="black" points="631.38,-505.2 631.38,-536 934.81,-536 934.81,-505.2 631.38,-505.2"/>
<text text-anchor="start" x="638.38" y="-517.4" font-family="Arial" font-size="14.00">Consent_Cutoff_Date </text>
<text text-anchor="start" x="776.91" y="-517.4" font-family="Arial" font-size="14.00" fill="#666666">[date]</text>
<polygon fill="none" stroke="black" points="631.38,-474.4 631.38,-505.2 934.81,-505.2 934.81,-474.4 631.38,-474.4"/>
<text text-anchor="start" x="638.38" y="-486.6" font-family="Arial" font-size="14.00">Pref_Alt_Delivery_Location </text>
<text text-anchor="start" x="811.14" y="-486.6" font-family="Arial" font-size="14.00" fill="#666666">[tinyint]</text>
<polygon fill="none" stroke="black" points="631.38,-443.6 631.38,-474.4 934.81,-474.4 934.81,-443.6 631.38,-443.6"/>
<text text-anchor="start" x="638.38" y="-455.8" font-family="Arial" font-size="14.00">Alt_Delivery_Location </text>
<text text-anchor="start" x="777.68" y="-455.8" font-family="Arial" font-size="14.00" fill="#666666">[text]</text>
<polygon fill="none" stroke="black" points="631.38,-412.8 631.38,-443.6 934.81,-443.6 934.81,-412.8 631.38,-412.8"/>
<text text-anchor="start" x="638.38" y="-425" font-family="Arial" font-size="14.00">Notes </text>
<text text-anchor="start" x="678.84" y="-425" font-family="Arial" font-size="14.00" fill="#666666">[text]</text>
<polygon fill="none" stroke="black" points="631.38,-382 631.38,-412.8 934.81,-412.8 934.81,-382 631.38,-382"/>
<text text-anchor="start" x="638.38" y="-394.2" font-family="Arial" font-size="14.00">Instructor_General_Notes </text>
<text text-anchor="start" x="802.57" y="-394.2" font-family="Arial" font-size="14.00" fill="#666666">[text]</text>
<polygon fill="none" stroke="black" points="631.38,-351.2 631.38,-382 934.81,-382 934.81,-351.2 631.38,-351.2"/>
<text text-anchor="start" x="638.38" y="-363.4" font-family="Arial" font-size="14.00">Teacher_Notes </text>
<text text-anchor="start" x="737.99" y="-363.4" font-family="Arial" font-size="14.00" fill="#666666">[text]</text>
<polygon fill="none" stroke="black" points="631.38,-320.4 631.38,-351.2 934.81,-351.2 934.81,-320.4 631.38,-320.4"/>
<text text-anchor="start" x="638.38" y="-332.6" font-family="Arial" font-size="14.00">School_Contacts </text>
<text text-anchor="start" x="748.11" y="-332.6" font-family="Arial" font-size="14.00" fill="#666666">[json]</text>
<polygon fill="none" stroke="black" points="631.38,-289.6 631.38,-320.4 934.81,-320.4 934.81,-289.6 631.38,-289.6"/>
<text text-anchor="start" x="638.38" y="-301.8" font-family="Arial" font-size="14.00">Venue </text>
<text text-anchor="start" x="682.75" y="-301.8" font-family="Arial" font-size="14.00" fill="#666666">[json]</text>
<polygon fill="none" stroke="black" points="631.38,-258.8 631.38,-289.6 934.81,-289.6 934.81,-258.8 631.38,-258.8"/>
<text text-anchor="start" x="638.38" y="-271" font-family="Arial" font-size="14.00">Provider_Additional_Questions </text>
<text text-anchor="start" x="834.5" y="-271" font-family="Arial" font-size="14.00" fill="#666666">[json]</text>
<polygon fill="none" stroke="black" points="631.38,-228 631.38,-258.8 934.81,-258.8 934.81,-228 631.38,-228"/>
<text text-anchor="start" x="638.38" y="-240.2" font-family="Arial" font-size="14.00">Comms_Start_Date </text>
<text text-anchor="start" x="765.2" y="-240.2" font-family="Arial" font-size="14.00" fill="#666666">[date]</text>
<polygon fill="none" stroke="black" points="631.38,-197.2 631.38,-228 934.81,-228 934.81,-197.2 631.38,-197.2"/>
<text text-anchor="start" x="638.38" y="-209.4" font-family="Arial" font-size="14.00">Date_Completed </text>
<text text-anchor="start" x="747.33" y="-209.4" font-family="Arial" font-size="14.00" fill="#666666">[date]</text>
<polygon fill="none" stroke="black" points="631.38,-166.4 631.38,-197.2 934.81,-197.2 934.81,-166.4 631.38,-166.4"/>
<text text-anchor="start" x="638.38" y="-178.6" font-family="Arial" font-size="14.00">Pref_Link_Managed_Consent </text>
<text text-anchor="start" x="827.51" y="-178.6" font-family="Arial" font-size="14.00" fill="#666666">[tinyint]</text>
<polygon fill="none" stroke="black" points="631.38,-135.6 631.38,-166.4 934.81,-166.4 934.81,-135.6 631.38,-135.6"/>
<text text-anchor="start" x="638.38" y="-147.8" font-family="Arial" font-size="14.00">Include_Tp_Terms_In_Consent </text>
<text text-anchor="start" x="838.38" y="-147.8" font-family="Arial" font-size="14.00" fill="#666666">[tinyint]</text>
<polygon fill="none" stroke="black" points="631.38,-104.8 631.38,-135.6 934.81,-135.6 934.81,-104.8 631.38,-104.8"/>
<text text-anchor="start" x="638.38" y="-117" font-family="Arial" font-size="14.00">Consent_Src_Characteristics </text>
<text text-anchor="start" x="823.57" y="-117" font-family="Arial" font-size="14.00" fill="#666666">[tinyint]</text>
<polygon fill="none" stroke="black" points="631.38,-74 631.38,-104.8 934.81,-104.8 934.81,-74 631.38,-74"/>
<text text-anchor="start" x="638.38" y="-86.2" font-family="Arial" font-size="14.00">Max_Consents </text>
<text text-anchor="start" x="735.65" y="-86.2" font-family="Arial" font-size="14.00" fill="#666666">[int]</text>
<polygon fill="none" stroke="black" points="631.38,-43.2 631.38,-74 934.81,-74 934.81,-43.2 631.38,-43.2"/>
<text text-anchor="start" x="638.38" y="-55.4" font-family="Arial" font-size="14.00">Waiting_List_Enabled </text>
<text text-anchor="start" x="777.69" y="-55.4" font-family="Arial" font-size="14.00" fill="#666666">[tinyint]</text>
</g>
<!-- Dim_Course&#45;&gt;Dim_Delivery_Header -->
<g id="edge5" class="edge">
<title>Dim_Course:Delivery_Key&#45;&gt;Dim_Delivery_Header:Delivery_Key</title>
<path fill="none" stroke="black" d="M718.77,-1297.1C814.45,-1287.44 764.19,-1140.55 707.39,-1051.2 687.33,-1019.66 651.54,-1046.68 631.38,-1015.2 608.8,-979.94 588.51,-921 630.38,-921"/>
<polygon fill="black" stroke="black" points="718.71,-1297.1 708.5,-1293.09 713.38,-1297.36 709.05,-1297.57 709.05,-1297.57 709.05,-1297.57 713.38,-1297.36 708.94,-1302.08 718.71,-1297.1"/>
<text text-anchor="start" x="715.39" y="-1307.6" font-family="Arial" font-size="10.00">FOREIGN KEY (Delivery_Key) REFERENCES Dim_Delivery_Header (Delivery_Key)</text>
</g>
<!-- Fact_Course_Delivery -->
<g id="node2" class="node">
<title>Fact_Course_Delivery</title>
<polygon fill="#efefef" stroke="none" points="212.8,-2706 212.8,-2741.6 533.39,-2741.6 533.39,-2706 212.8,-2706"/>
<polygon fill="none" stroke="black" points="212.8,-2706 212.8,-2741.6 533.39,-2741.6 533.39,-2706 212.8,-2706"/>
<text text-anchor="start" x="229.37" y="-2719.4" font-family="Arial Bold" font-size="18.00">Fact_Course_Delivery</text>
<text text-anchor="start" x="392.33" y="-2719.4" font-family="Arial" font-size="14.00">    </text>
<text text-anchor="start" x="423.45" y="-2719.4" font-family="Arial" font-size="14.00" fill="#666666">[BASE TABLE]</text>
<polygon fill="none" stroke="black" points="212.8,-2675.2 212.8,-2706 533.39,-2706 533.39,-2675.2 212.8,-2675.2"/>
<text text-anchor="start" x="219.8" y="-2687.4" font-family="Arial" font-size="14.00">Delivery_Fact_Key </text>
<text text-anchor="start" x="341.18" y="-2687.4" font-family="Arial" font-size="14.00" fill="#666666">[bigint unsigned]</text>
<polygon fill="none" stroke="black" points="212.8,-2644.4 212.8,-2675.2 533.39,-2675.2 533.39,-2644.4 212.8,-2644.4"/>
<text text-anchor="start" x="219.8" y="-2656.6" font-family="Arial" font-size="14.00">Date_Key </text>
<text text-anchor="start" x="285.17" y="-2656.6" font-family="Arial" font-size="14.00" fill="#666666">[int]</text>
<polygon fill="none" stroke="black" points="212.8,-2613.6 212.8,-2644.4 533.39,-2644.4 533.39,-2613.6 212.8,-2613.6"/>
<text text-anchor="start" x="219.8" y="-2625.8" font-family="Arial" font-size="14.00">Delivery_Key </text>
<text text-anchor="start" x="306.16" y="-2625.8" font-family="Arial" font-size="14.00" fill="#666666">[bigint unsigned]</text>
<polygon fill="none" stroke="black" points="212.8,-2582.8 212.8,-2613.6 533.39,-2613.6 533.39,-2582.8 212.8,-2582.8"/>
<text text-anchor="start" x="219.8" y="-2595" font-family="Arial" font-size="14.00">School_Key </text>
<text text-anchor="start" x="298.4" y="-2595" font-family="Arial" font-size="14.00" fill="#666666">[bigint unsigned]</text>
<polygon fill="none" stroke="black" points="212.8,-2552 212.8,-2582.8 533.39,-2582.8 533.39,-2552 212.8,-2552"/>
<text text-anchor="start" x="219.8" y="-2564.2" font-family="Arial" font-size="14.00">Organisation_Key </text>
<text text-anchor="start" x="334.98" y="-2564.2" font-family="Arial" font-size="14.00" fill="#666666">[bigint unsigned]</text>
<polygon fill="none" stroke="black" points="212.8,-2521.2 212.8,-2552 533.39,-2552 533.39,-2521.2 212.8,-2521.2"/>
<text text-anchor="start" x="219.8" y="-2533.4" font-family="Arial" font-size="14.00">Course_Key </text>
<text text-anchor="start" x="300.73" y="-2533.4" font-family="Arial" font-size="14.00" fill="#666666">[bigint unsigned]</text>
<polygon fill="none" stroke="black" points="212.8,-2490.4 212.8,-2521.2 533.39,-2521.2 533.39,-2490.4 212.8,-2490.4"/>
<text text-anchor="start" x="219.8" y="-2502.6" font-family="Arial" font-size="14.00">Provider_Key </text>
<text text-anchor="start" x="307.73" y="-2502.6" font-family="Arial" font-size="14.00" fill="#666666">[bigint unsigned]</text>
<polygon fill="none" stroke="black" points="212.8,-2459.6 212.8,-2490.4 533.39,-2490.4 533.39,-2459.6 212.8,-2459.6"/>
<text text-anchor="start" x="219.8" y="-2471.8" font-family="Arial" font-size="14.00">Grant_Key </text>
<text text-anchor="start" x="290.61" y="-2471.8" font-family="Arial" font-size="14.00" fill="#666666">[bigint unsigned]</text>
<polygon fill="none" stroke="black" points="212.8,-2428.8 212.8,-2459.6 533.39,-2459.6 533.39,-2428.8 212.8,-2428.8"/>
<text text-anchor="start" x="219.8" y="-2441" font-family="Arial" font-size="14.00">Riders_Enrolled_Count </text>
<text text-anchor="start" x="368.44" y="-2441" font-family="Arial" font-size="14.00" fill="#666666">[int]</text>
<polygon fill="none" stroke="black" points="212.8,-2398 212.8,-2428.8 533.39,-2428.8 533.39,-2398 212.8,-2398"/>
<text text-anchor="start" x="219.8" y="-2410.2" font-family="Arial" font-size="14.00">Riders_Completed_Count </text>
<text text-anchor="start" x="384.78" y="-2410.2" font-family="Arial" font-size="14.00" fill="#666666">[int]</text>
<polygon fill="none" stroke="black" points="212.8,-2367.2 212.8,-2398 533.39,-2398 533.39,-2367.2 212.8,-2367.2"/>
<text text-anchor="start" x="219.8" y="-2379.4" font-family="Arial" font-size="14.00">Count_Booked_Provisional </text>
<text text-anchor="start" x="392.58" y="-2379.4" font-family="Arial" font-size="14.00" fill="#666666">[int]</text>
<polygon fill="none" stroke="black" points="212.8,-2336.4 212.8,-2367.2 533.39,-2367.2 533.39,-2336.4 212.8,-2336.4"/>
<text text-anchor="start" x="219.8" y="-2348.6" font-family="Arial" font-size="14.00">Count_Booked_Confirmed </text>
<text text-anchor="start" x="388.68" y="-2348.6" font-family="Arial" font-size="14.00" fill="#666666">[int]</text>
<polygon fill="none" stroke="black" points="212.8,-2305.6 212.8,-2336.4 533.39,-2336.4 533.39,-2305.6 212.8,-2305.6"/>
<text text-anchor="start" x="219.8" y="-2317.8" font-family="Arial" font-size="14.00">Count_Attended_Confirmed </text>
<text text-anchor="start" x="397.25" y="-2317.8" font-family="Arial" font-size="14.00" fill="#666666">[int]</text>
<polygon fill="none" stroke="black" points="212.8,-2274.8 212.8,-2305.6 533.39,-2305.6 533.39,-2274.8 212.8,-2274.8"/>
<text text-anchor="start" x="219.8" y="-2287" font-family="Arial" font-size="14.00">Count_Female </text>
<text text-anchor="start" x="315.52" y="-2287" font-family="Arial" font-size="14.00" fill="#666666">[int]</text>
<polygon fill="none" stroke="black" points="212.8,-2244 212.8,-2274.8 533.39,-2274.8 533.39,-2244 212.8,-2244"/>
<text text-anchor="start" x="219.8" y="-2256.2" font-family="Arial" font-size="14.00">Count_Male </text>
<text text-anchor="start" x="299.18" y="-2256.2" font-family="Arial" font-size="14.00" fill="#666666">[int]</text>
<polygon fill="none" stroke="black" points="212.8,-2213.2 212.8,-2244 533.39,-2244 533.39,-2213.2 212.8,-2213.2"/>
<text text-anchor="start" x="219.8" y="-2225.4" font-family="Arial" font-size="14.00">Count_Gender_Other </text>
<text text-anchor="start" x="358.33" y="-2225.4" font-family="Arial" font-size="14.00" fill="#666666">[int]</text>
<polygon fill="none" stroke="black" points="212.8,-2182.4 212.8,-2213.2 533.39,-2213.2 533.39,-2182.4 212.8,-2182.4"/>
<text text-anchor="start" x="219.8" y="-2194.6" font-family="Arial" font-size="14.00">Count_Pupil_Premium </text>
<text text-anchor="start" x="363.76" y="-2194.6" font-family="Arial" font-size="14.00" fill="#666666">[int]</text>
<polygon fill="none" stroke="black" points="212.8,-2151.6 212.8,-2182.4 533.39,-2182.4 533.39,-2151.6 212.8,-2151.6"/>
<text text-anchor="start" x="219.8" y="-2163.8" font-family="Arial" font-size="14.00">Count_SEND </text>
<text text-anchor="start" x="307.73" y="-2163.8" font-family="Arial" font-size="14.00" fill="#666666">[int]</text>
<polygon fill="none" stroke="black" points="212.8,-2120.8 212.8,-2151.6 533.39,-2151.6 533.39,-2120.8 212.8,-2120.8"/>
<text text-anchor="start" x="219.8" y="-2133" font-family="Arial" font-size="14.00">Count_Ethnicity_White_British </text>
<text text-anchor="start" x="412" y="-2133" font-family="Arial" font-size="14.00" fill="#666666">[int]</text>
<polygon fill="none" stroke="black" points="212.8,-2090 212.8,-2120.8 533.39,-2120.8 533.39,-2090 212.8,-2090"/>
<text text-anchor="start" x="219.8" y="-2102.2" font-family="Arial" font-size="14.00">Count_Ethnicity_White_Irish </text>
<text text-anchor="start" x="399.55" y="-2102.2" font-family="Arial" font-size="14.00" fill="#666666">[int]</text>
<polygon fill="none" stroke="black" points="212.8,-2059.2 212.8,-2090 533.39,-2090 533.39,-2059.2 212.8,-2059.2"/>
<text text-anchor="start" x="219.8" y="-2071.4" font-family="Arial" font-size="14.00">Count_Ethnicity_Gypsy_Romany </text>
<text text-anchor="start" x="429.12" y="-2071.4" font-family="Arial" font-size="14.00" fill="#666666">[int]</text>
<polygon fill="none" stroke="black" points="212.8,-2028.4 212.8,-2059.2 533.39,-2059.2 533.39,-2028.4 212.8,-2028.4"/>
<text text-anchor="start" x="219.8" y="-2040.6" font-family="Arial" font-size="14.00">Count_Ethnicity_White_Other </text>
<text text-anchor="start" x="408.11" y="-2040.6" font-family="Arial" font-size="14.00" fill="#666666">[int]</text>
<polygon fill="none" stroke="black" points="212.8,-1997.6 212.8,-2028.4 533.39,-2028.4 533.39,-1997.6 212.8,-1997.6"/>
<text text-anchor="start" x="219.8" y="-2009.8" font-family="Arial" font-size="14.00">Count_Ethnicity_Mixed_White_Black_Carib </text>
<text text-anchor="start" x="493.71" y="-2009.8" font-family="Arial" font-size="14.00" fill="#666666">[int]</text>
<polygon fill="none" stroke="black" points="212.8,-1966.8 212.8,-1997.6 533.39,-1997.6 533.39,-1966.8 212.8,-1966.8"/>
<text text-anchor="start" x="219.8" y="-1979" font-family="Arial" font-size="14.00">Count_Ethnicity_Mixed_White_Black_African </text>
<text text-anchor="start" x="503.82" y="-1979" font-family="Arial" font-size="14.00" fill="#666666">[int]</text>
<polygon fill="none" stroke="black" points="212.8,-1936 212.8,-1966.8 533.39,-1966.8 533.39,-1936 212.8,-1936"/>
<text text-anchor="start" x="219.8" y="-1948.2" font-family="Arial" font-size="14.00">Count_Ethnicity_Mixed_White_Asian </text>
<text text-anchor="start" x="453.25" y="-1948.2" font-family="Arial" font-size="14.00" fill="#666666">[int]</text>
<polygon fill="none" stroke="black" points="212.8,-1905.2 212.8,-1936 533.39,-1936 533.39,-1905.2 212.8,-1905.2"/>
<text text-anchor="start" x="219.8" y="-1917.4" font-family="Arial" font-size="14.00">Count_Ethnicity_Mixed_Other </text>
<text text-anchor="start" x="409.67" y="-1917.4" font-family="Arial" font-size="14.00" fill="#666666">[int]</text>
<polygon fill="none" stroke="black" points="212.8,-1874.4 212.8,-1905.2 533.39,-1905.2 533.39,-1874.4 212.8,-1874.4"/>
<text text-anchor="start" x="219.8" y="-1886.6" font-family="Arial" font-size="14.00">Count_Ethnicity_Asian_Indian </text>
<text text-anchor="start" x="410.48" y="-1886.6" font-family="Arial" font-size="14.00" fill="#666666">[int]</text>
<polygon fill="none" stroke="black" points="212.8,-1843.6 212.8,-1874.4 533.39,-1874.4 533.39,-1843.6 212.8,-1843.6"/>
<text text-anchor="start" x="219.8" y="-1855.8" font-family="Arial" font-size="14.00">Count_Ethnicity_Asian_Pakistani </text>
<text text-anchor="start" x="429.14" y="-1855.8" font-family="Arial" font-size="14.00" fill="#666666">[int]</text>
<polygon fill="none" stroke="black" points="212.8,-1812.8 212.8,-1843.6 533.39,-1843.6 533.39,-1812.8 212.8,-1812.8"/>
<text text-anchor="start" x="219.8" y="-1825" font-family="Arial" font-size="14.00">Count_Ethnicity_Asian_Bangladeshi </text>
<text text-anchor="start" x="449.4" y="-1825" font-family="Arial" font-size="14.00" fill="#666666">[int]</text>
<polygon fill="none" stroke="black" points="212.8,-1782 212.8,-1812.8 533.39,-1812.8 533.39,-1782 212.8,-1782"/>
<text text-anchor="start" x="219.8" y="-1794.2" font-family="Arial" font-size="14.00">Count_Ethnicity_Asian_Chinese </text>
<text text-anchor="start" x="423.7" y="-1794.2" font-family="Arial" font-size="14.00" fill="#666666">[int]</text>
<polygon fill="none" stroke="black" points="212.8,-1751.2 212.8,-1782 533.39,-1782 533.39,-1751.2 212.8,-1751.2"/>
<text text-anchor="start" x="219.8" y="-1763.4" font-family="Arial" font-size="14.00">Count_Ethnicity_Asian_Other </text>
<text text-anchor="start" x="407.35" y="-1763.4" font-family="Arial" font-size="14.00" fill="#666666">[int]</text>
<polygon fill="none" stroke="black" points="212.8,-1720.4 212.8,-1751.2 533.39,-1751.2 533.39,-1720.4 212.8,-1720.4"/>
<text text-anchor="start" x="219.8" y="-1732.6" font-family="Arial" font-size="14.00">Count_Ethnicity_Black_African </text>
<text text-anchor="start" x="415.12" y="-1732.6" font-family="Arial" font-size="14.00" fill="#666666">[int]</text>
<polygon fill="none" stroke="black" points="212.8,-1689.6 212.8,-1720.4 533.39,-1720.4 533.39,-1689.6 212.8,-1689.6"/>
<text text-anchor="start" x="219.8" y="-1701.8" font-family="Arial" font-size="14.00">Count_Ethnicity_Black_Caribbean </text>
<text text-anchor="start" x="436.15" y="-1701.8" font-family="Arial" font-size="14.00" fill="#666666">[int]</text>
<polygon fill="none" stroke="black" points="212.8,-1658.8 212.8,-1689.6 533.39,-1689.6 533.39,-1658.8 212.8,-1658.8"/>
<text text-anchor="start" x="219.8" y="-1671" font-family="Arial" font-size="14.00">Count_Ethnicity_Black_Other </text>
<text text-anchor="start" x="406.56" y="-1671" font-family="Arial" font-size="14.00" fill="#666666">[int]</text>
<polygon fill="none" stroke="black" points="212.8,-1628 212.8,-1658.8 533.39,-1658.8 533.39,-1628 212.8,-1628"/>
<text text-anchor="start" x="219.8" y="-1640.2" font-family="Arial" font-size="14.00">Count_Ethnicity_Other_Arab </text>
<text text-anchor="start" x="401.9" y="-1640.2" font-family="Arial" font-size="14.00" fill="#666666">[int]</text>
<polygon fill="none" stroke="black" points="212.8,-1597.2 212.8,-1628 533.39,-1628 533.39,-1597.2 212.8,-1597.2"/>
<text text-anchor="start" x="219.8" y="-1609.4" font-family="Arial" font-size="14.00">Count_Ethnicity_Other_Any </text>
<text text-anchor="start" x="396.45" y="-1609.4" font-family="Arial" font-size="14.00" fill="#666666">[int]</text>
<polygon fill="none" stroke="black" points="212.8,-1566.4 212.8,-1597.2 533.39,-1597.2 533.39,-1566.4 212.8,-1566.4"/>
<text text-anchor="start" x="219.8" y="-1578.6" font-family="Arial" font-size="14.00">Count_Ethnicity_Not_Stated </text>
<text text-anchor="start" x="399.58" y="-1578.6" font-family="Arial" font-size="14.00" fill="#666666">[int]</text>
</g>
<!-- Fact_Course_Delivery&#45;&gt;Dim_Course -->
<g id="edge2" class="edge">
<title>Fact_Course_Delivery:Course_Key&#45;&gt;Dim_Course:Course_Key</title>
<path fill="none" stroke="black" d="M542.05,-2529.91C588.04,-2444.46 562.12,-1568.39 533.39,-1523.2 513.21,-1491.46 477.13,-1518.85 456.8,-1487.2 433.46,-1450.85 412.6,-1390 455.8,-1390"/>
<polygon fill="black" stroke="black" points="542.17,-2529.8 531.68,-2532.99 538.16,-2533.31 534.89,-2536.16 534.89,-2536.16 534.89,-2536.16 538.16,-2533.31 537.6,-2539.77 542.17,-2529.8"/>
<text text-anchor="start" x="541.39" y="-2546.6" font-family="Arial" font-size="10.00">FOREIGN KEY (Course_Key) REFERENCES Dim_Course (Course_Key)</text>
</g>
<!-- Fact_HandsUp_Survey -->
<g id="node3" class="node">
<title>Fact_HandsUp_Survey</title>
<polygon fill="#efefef" stroke="none" points="637.86,-2428.8 637.86,-2464.4 944.33,-2464.4 944.33,-2428.8 637.86,-2428.8"/>
<polygon fill="none" stroke="black" points="637.86,-2428.8 637.86,-2464.4 944.33,-2464.4 944.33,-2428.8 637.86,-2428.8"/>
<text text-anchor="start" x="644.86" y="-2442.2" font-family="Arial Bold" font-size="18.00">Fact_HandsUp_Survey</text>
<text text-anchor="start" x="812.84" y="-2442.2" font-family="Arial" font-size="14.00">    </text>
<text text-anchor="start" x="843.96" y="-2442.2" font-family="Arial" font-size="14.00" fill="#666666">[BASE TABLE]</text>
<polygon fill="none" stroke="black" points="637.86,-2398 637.86,-2428.8 944.33,-2428.8 944.33,-2398 637.86,-2398"/>
<text text-anchor="start" x="644.86" y="-2410.2" font-family="Arial" font-size="14.00">Survey_Fact_Key </text>
<text text-anchor="start" x="759.25" y="-2410.2" font-family="Arial" font-size="14.00" fill="#666666">[bigint unsigned]</text>
<polygon fill="none" stroke="black" points="637.86,-2367.2 637.86,-2398 944.33,-2398 944.33,-2367.2 637.86,-2367.2"/>
<text text-anchor="start" x="644.86" y="-2379.4" font-family="Arial" font-size="14.00">Date_Key </text>
<text text-anchor="start" x="710.23" y="-2379.4" font-family="Arial" font-size="14.00" fill="#666666">[int]</text>
<polygon fill="none" stroke="black" points="637.86,-2336.4 637.86,-2367.2 944.33,-2367.2 944.33,-2336.4 637.86,-2336.4"/>
<text text-anchor="start" x="644.86" y="-2348.6" font-family="Arial" font-size="14.00">Delivery_Key </text>
<text text-anchor="start" x="731.23" y="-2348.6" font-family="Arial" font-size="14.00" fill="#666666">[bigint unsigned]</text>
<polygon fill="none" stroke="black" points="637.86,-2305.6 637.86,-2336.4 944.33,-2336.4 944.33,-2305.6 637.86,-2305.6"/>
<text text-anchor="start" x="644.86" y="-2317.8" font-family="Arial" font-size="14.00">Course_Key </text>
<text text-anchor="start" x="725.79" y="-2317.8" font-family="Arial" font-size="14.00" fill="#666666">[bigint unsigned]</text>
<polygon fill="none" stroke="black" points="637.86,-2274.8 637.86,-2305.6 944.33,-2305.6 944.33,-2274.8 637.86,-2274.8"/>
<text text-anchor="start" x="644.86" y="-2287" font-family="Arial" font-size="14.00">Exp_Enjoyed </text>
<text text-anchor="start" x="731.25" y="-2287" font-family="Arial" font-size="14.00" fill="#666666">[int]</text>
<polygon fill="none" stroke="black" points="637.86,-2244 637.86,-2274.8 944.33,-2274.8 944.33,-2244 637.86,-2244"/>
<text text-anchor="start" x="644.86" y="-2256.2" font-family="Arial" font-size="14.00">Exp_Did_Not_Enjoy </text>
<text text-anchor="start" x="774.05" y="-2256.2" font-family="Arial" font-size="14.00" fill="#666666">[int]</text>
<polygon fill="none" stroke="black" points="637.86,-2213.2 637.86,-2244 944.33,-2244 944.33,-2213.2 637.86,-2213.2"/>
<text text-anchor="start" x="644.86" y="-2225.4" font-family="Arial" font-size="14.00">Exp_Not_Sure </text>
<text text-anchor="start" x="739.81" y="-2225.4" font-family="Arial" font-size="14.00" fill="#666666">[int]</text>
<polygon fill="none" stroke="black" points="637.86,-2182.4 637.86,-2213.2 944.33,-2213.2 944.33,-2182.4 637.86,-2182.4"/>
<text text-anchor="start" x="644.86" y="-2194.6" font-family="Arial" font-size="14.00">Exp_Absent </text>
<text text-anchor="start" x="724.25" y="-2194.6" font-family="Arial" font-size="14.00" fill="#666666">[int]</text>
<polygon fill="none" stroke="black" points="637.86,-2151.6 637.86,-2182.4 944.33,-2182.4 944.33,-2151.6 637.86,-2151.6"/>
<text text-anchor="start" x="644.86" y="-2163.8" font-family="Arial" font-size="14.00">Base_Yes </text>
<text text-anchor="start" x="712.57" y="-2163.8" font-family="Arial" font-size="14.00" fill="#666666">[int]</text>
<polygon fill="none" stroke="black" points="637.86,-2120.8 637.86,-2151.6 944.33,-2151.6 944.33,-2120.8 637.86,-2120.8"/>
<text text-anchor="start" x="644.86" y="-2133" font-family="Arial" font-size="14.00">Base_No </text>
<text text-anchor="start" x="706.34" y="-2133" font-family="Arial" font-size="14.00" fill="#666666">[int]</text>
<polygon fill="none" stroke="black" points="637.86,-2090 637.86,-2120.8 944.33,-2120.8 944.33,-2090 637.86,-2090"/>
<text text-anchor="start" x="644.86" y="-2102.2" font-family="Arial" font-size="14.00">Base_Not_Sure </text>
<text text-anchor="start" x="747.59" y="-2102.2" font-family="Arial" font-size="14.00" fill="#666666">[int]</text>
<polygon fill="none" stroke="black" points="637.86,-2059.2 637.86,-2090 944.33,-2090 944.33,-2059.2 637.86,-2059.2"/>
<text text-anchor="start" x="644.86" y="-2071.4" font-family="Arial" font-size="14.00">Safe_More </text>
<text text-anchor="start" x="717.23" y="-2071.4" font-family="Arial" font-size="14.00" fill="#666666">[int]</text>
<polygon fill="none" stroke="black" points="637.86,-2028.4 637.86,-2059.2 944.33,-2059.2 944.33,-2028.4 637.86,-2028.4"/>
<text text-anchor="start" x="644.86" y="-2040.6" font-family="Arial" font-size="14.00">Safe_Less </text>
<text text-anchor="start" x="714.91" y="-2040.6" font-family="Arial" font-size="14.00" fill="#666666">[int]</text>
<polygon fill="none" stroke="black" points="637.86,-1997.6 637.86,-2028.4 944.33,-2028.4 944.33,-1997.6 637.86,-1997.6"/>
<text text-anchor="start" x="644.86" y="-2009.8" font-family="Arial" font-size="14.00">Safe_No_Diff </text>
<text text-anchor="start" x="732.02" y="-2009.8" font-family="Arial" font-size="14.00" fill="#666666">[int]</text>
<polygon fill="none" stroke="black" points="637.86,-1966.8 637.86,-1997.6 944.33,-1997.6 944.33,-1966.8 637.86,-1966.8"/>
<text text-anchor="start" x="644.86" y="-1979" font-family="Arial" font-size="14.00">Safe_Not_Sure </text>
<text text-anchor="start" x="744.48" y="-1979" font-family="Arial" font-size="14.00" fill="#666666">[int]</text>
<polygon fill="none" stroke="black" points="637.86,-1936 637.86,-1966.8 944.33,-1966.8 944.33,-1936 637.86,-1936"/>
<text text-anchor="start" x="644.86" y="-1948.2" font-family="Arial" font-size="14.00">Conf_More </text>
<text text-anchor="start" x="718.01" y="-1948.2" font-family="Arial" font-size="14.00" fill="#666666">[int]</text>
<polygon fill="none" stroke="black" points="637.86,-1905.2 637.86,-1936 944.33,-1936 944.33,-1905.2 637.86,-1905.2"/>
<text text-anchor="start" x="644.86" y="-1917.4" font-family="Arial" font-size="14.00">Conf_Less </text>
<text text-anchor="start" x="715.68" y="-1917.4" font-family="Arial" font-size="14.00" fill="#666666">[int]</text>
<polygon fill="none" stroke="black" points="637.86,-1874.4 637.86,-1905.2 944.33,-1905.2 944.33,-1874.4 637.86,-1874.4"/>
<text text-anchor="start" x="644.86" y="-1886.6" font-family="Arial" font-size="14.00">Conf_No_Diff </text>
<text text-anchor="start" x="732.79" y="-1886.6" font-family="Arial" font-size="14.00" fill="#666666">[int]</text>
<polygon fill="none" stroke="black" points="637.86,-1843.6 637.86,-1874.4 944.33,-1874.4 944.33,-1843.6 637.86,-1843.6"/>
<text text-anchor="start" x="644.86" y="-1855.8" font-family="Arial" font-size="14.00">Conf_Not_Sure </text>
<text text-anchor="start" x="745.25" y="-1855.8" font-family="Arial" font-size="14.00" fill="#666666">[int]</text>
</g>
<!-- Fact_HandsUp_Survey&#45;&gt;Dim_Course -->
<g id="edge3" class="edge">
<title>Fact_HandsUp_Survey:Course_Key&#45;&gt;Dim_Course:Course_Key</title>
<path fill="none" stroke="black" d="M627.8,-2316.4C585.01,-2268.12 631.87,-1854.53 637.86,-1800.4 653.54,-1658.68 691.12,-1628.86 707.39,-1487.2 712.32,-1444.28 751.59,-1390 708.39,-1390"/>
<polygon fill="black" stroke="black" points="627.64,-2316.33 634.53,-2324.86 632.4,-2318.74 636.26,-2320.7 636.26,-2320.7 636.26,-2320.7 632.4,-2318.74 638.6,-2316.84 627.64,-2316.33"/>
<text text-anchor="start" x="643.86" y="-2331" font-family="Arial" font-size="10.00">FOREIGN KEY (Course_Key) REFERENCES Dim_Course (Course_Key)</text>
</g>
</g>
</svg>
