<?xml version="1.0" encoding="UTF-8" standalone="no"?>
<!DOCTYPE svg PUBLIC "-//W3C//DTD SVG 1.1//EN"
 "http://www.w3.org/Graphics/SVG/1.1/DTD/svg11.dtd">
<!-- Generated by graphviz version 12.1.2 (20240928.0832)
 -->
<!-- Title: Dim_External_Systems Pages: 1 -->
<svg width="820pt" height="725pt"
 viewBox="0.00 0.00 820.47 725.20" xmlns="http://www.w3.org/2000/svg" xmlns:xlink="http://www.w3.org/1999/xlink">
<g id="graph0" class="graph" transform="scale(1 1) rotate(0) translate(4 721.2)">
<title>Dim_External_Systems</title>
<polygon fill="white" stroke="none" points="-4,4 -4,-721.2 816.47,-721.2 816.47,4 -4,4"/>
<!-- Dim_External_Systems -->
<g id="node1" class="node">
<title>Dim_External_Systems</title>
<polygon fill="#efefef" stroke="none" points="46.2,-635.4 46.2,-671 355.67,-671 355.67,-635.4 46.2,-635.4"/>
<polygon fill="none" stroke="black" points="46.2,-635.4 46.2,-671 355.67,-671 355.67,-635.4 46.2,-635.4"/>
<text text-anchor="start" x="53.2" y="-648.8" font-family="Arial Bold" font-size="18.00">Dim_External_Systems</text>
<text text-anchor="start" x="224.18" y="-648.8" font-family="Arial" font-size="14.00">    </text>
<text text-anchor="start" x="255.3" y="-648.8" font-family="Arial" font-size="14.00" fill="#666666">[BASE TABLE]</text>
<polygon fill="none" stroke="black" points="46.2,-604.6 46.2,-635.4 355.67,-635.4 355.67,-604.6 46.2,-604.6"/>
<text text-anchor="start" x="53.2" y="-616.8" font-family="Arial" font-size="14.00">External_System_Key </text>
<text text-anchor="start" x="194.82" y="-616.8" font-family="Arial" font-size="14.00" fill="#666666">[bigint unsigned]</text>
<polygon fill="none" stroke="black" points="46.2,-573.8 46.2,-604.6 355.67,-604.6 355.67,-573.8 46.2,-573.8"/>
<text text-anchor="start" x="53.2" y="-586" font-family="Arial" font-size="14.00">Source_External_System_Id </text>
<text text-anchor="start" x="234.52" y="-586" font-family="Arial" font-size="14.00" fill="#666666">[bigint unsigned]</text>
<polygon fill="none" stroke="black" points="46.2,-543 46.2,-573.8 355.67,-573.8 355.67,-543 46.2,-543"/>
<text text-anchor="start" x="53.2" y="-555.2" font-family="Arial" font-size="14.00">Source_System_Key </text>
<text text-anchor="start" x="187.82" y="-555.2" font-family="Arial" font-size="14.00" fill="#666666">[bigint unsigned]</text>
<polygon fill="none" stroke="black" points="46.2,-512.2 46.2,-543 355.67,-543 355.67,-512.2 46.2,-512.2"/>
<text text-anchor="start" x="53.2" y="-524.4" font-family="Arial" font-size="14.00">Username </text>
<text text-anchor="start" x="121.67" y="-524.4" font-family="Arial" font-size="14.00" fill="#666666">[varchar(255)]</text>
<polygon fill="none" stroke="black" points="46.2,-481.4 46.2,-512.2 355.67,-512.2 355.67,-481.4 46.2,-481.4"/>
<text text-anchor="start" x="53.2" y="-493.6" font-family="Arial" font-size="14.00">Name </text>
<text text-anchor="start" x="94.43" y="-493.6" font-family="Arial" font-size="14.00" fill="#666666">[varchar(255)]</text>
<polygon fill="none" stroke="black" points="46.2,-450.6 46.2,-481.4 355.67,-481.4 355.67,-450.6 46.2,-450.6"/>
<text text-anchor="start" x="53.2" y="-462.8" font-family="Arial" font-size="14.00">Pref_Link_Managed_Consent </text>
<text text-anchor="start" x="242.33" y="-462.8" font-family="Arial" font-size="14.00" fill="#666666">[tinyint]</text>
<polygon fill="none" stroke="black" points="46.2,-419.8 46.2,-450.6 355.67,-450.6 355.67,-419.8 46.2,-419.8"/>
<text text-anchor="start" x="53.2" y="-432" font-family="Arial" font-size="14.00">Pref_Use_Instructor_App </text>
<text text-anchor="start" x="214.28" y="-432" font-family="Arial" font-size="14.00" fill="#666666">[tinyint]</text>
<polygon fill="none" stroke="black" points="46.2,-389 46.2,-419.8 355.67,-419.8 355.67,-389 46.2,-389"/>
<text text-anchor="start" x="53.2" y="-401.2" font-family="Arial" font-size="14.00">Pref_Link_Managed_Comms </text>
<text text-anchor="start" x="238.41" y="-401.2" font-family="Arial" font-size="14.00" fill="#666666">[tinyint]</text>
<polygon fill="none" stroke="black" points="46.2,-358.2 46.2,-389 355.67,-389 355.67,-358.2 46.2,-358.2"/>
<text text-anchor="start" x="53.2" y="-370.4" font-family="Arial" font-size="14.00">created_at </text>
<text text-anchor="start" x="123.25" y="-370.4" font-family="Arial" font-size="14.00" fill="#666666">[timestamp]</text>
<polygon fill="none" stroke="black" points="46.2,-327.4 46.2,-358.2 355.67,-358.2 355.67,-327.4 46.2,-327.4"/>
<text text-anchor="start" x="53.2" y="-339.6" font-family="Arial" font-size="14.00">updated_at </text>
<text text-anchor="start" x="127.16" y="-339.6" font-family="Arial" font-size="14.00" fill="#666666">[timestamp]</text>
<polygon fill="none" stroke="black" stroke-width="3" points="44.7,-325.9 44.7,-672.5 357.17,-672.5 357.17,-325.9 44.7,-325.9"/>
</g>
<!-- Dim_Source_System -->
<g id="node2" class="node">
<title>Dim_Source_System</title>
<polygon fill="#efefef" stroke="none" points="55.2,-166.4 55.2,-202 346.68,-202 346.68,-166.4 55.2,-166.4"/>
<polygon fill="none" stroke="black" points="55.2,-166.4 55.2,-202 346.68,-202 346.68,-166.4 55.2,-166.4"/>
<text text-anchor="start" x="62.2" y="-179.8" font-family="Arial Bold" font-size="18.00">Dim_Source_System</text>
<text text-anchor="start" x="215.19" y="-179.8" font-family="Arial" font-size="14.00">    </text>
<text text-anchor="start" x="246.3" y="-179.8" font-family="Arial" font-size="14.00" fill="#666666">[BASE TABLE]</text>
<polygon fill="none" stroke="black" points="55.2,-135.6 55.2,-166.4 346.68,-166.4 346.68,-135.6 55.2,-135.6"/>
<text text-anchor="start" x="62.2" y="-147.8" font-family="Arial" font-size="14.00">Source_System_Key </text>
<text text-anchor="start" x="196.82" y="-147.8" font-family="Arial" font-size="14.00" fill="#666666">[bigint unsigned]</text>
<polygon fill="none" stroke="black" points="55.2,-104.8 55.2,-135.6 346.68,-135.6 346.68,-104.8 55.2,-104.8"/>
<text text-anchor="start" x="62.2" y="-117" font-family="Arial" font-size="14.00">System_Name </text>
<text text-anchor="start" x="157.89" y="-117" font-family="Arial" font-size="14.00" fill="#666666">[varchar(50)]</text>
<polygon fill="none" stroke="black" points="55.2,-74 55.2,-104.8 346.68,-104.8 346.68,-74 55.2,-74"/>
<text text-anchor="start" x="62.2" y="-86.2" font-family="Arial" font-size="14.00">System_Type </text>
<text text-anchor="start" x="151.67" y="-86.2" font-family="Arial" font-size="14.00" fill="#666666">[varchar(50)]</text>
<polygon fill="none" stroke="black" points="55.2,-43.2 55.2,-74 346.68,-74 346.68,-43.2 55.2,-43.2"/>
<text text-anchor="start" x="62.2" y="-55.4" font-family="Arial" font-size="14.00">Last_Sync_Date </text>
<text text-anchor="start" x="168.82" y="-55.4" font-family="Arial" font-size="14.00" fill="#666666">[datetime]</text>
</g>
<!-- Dim_External_Systems&#45;&gt;Dim_Source_System -->
<g id="edge1" class="edge">
<title>Dim_External_Systems:Source_System_Key&#45;&gt;Dim_Source_System:Source_System_Key</title>
<path fill="none" stroke="black" d="M366.83,-556.58C446.4,-527.19 434.69,-151 347.68,-151"/>
<polygon fill="black" stroke="black" points="366.84,-556.58 356.21,-553.91 361.59,-557.52 357.33,-558.28 357.33,-558.28 357.33,-558.28 361.59,-557.52 357.79,-562.77 366.84,-556.58"/>
<text text-anchor="start" x="363.67" y="-568.4" font-family="Arial" font-size="10.00">FOREIGN KEY (Source_System_Key) REFERENCES Dim_Source_System (Source_System_Key)</text>
</g>
</g>
</svg>
