<?xml version="1.0" encoding="UTF-8" standalone="no"?>
<!DOCTYPE svg PUBLIC "-//W3C//DTD SVG 1.1//EN"
 "http://www.w3.org/Graphics/SVG/1.1/DTD/svg11.dtd">
<!-- Generated by graphviz version 12.1.2 (20240928.0832)
 -->
<!-- Title: Fact_Rider_Course Pages: 1 -->
<svg width="379pt" height="536pt"
 viewBox="0.00 0.00 378.86 536.40" xmlns="http://www.w3.org/2000/svg" xmlns:xlink="http://www.w3.org/1999/xlink">
<g id="graph0" class="graph" transform="scale(1 1) rotate(0) translate(4 532.4)">
<title>Fact_Rider_Course</title>
<polygon fill="white" stroke="none" points="-4,4 -4,-532.4 374.86,-532.4 374.86,4 -4,4"/>
<!-- Fact_Rider_Course -->
<g id="node1" class="node">
<title>Fact_Rider_Course</title>
<polygon fill="#efefef" stroke="none" points="46.2,-446.6 46.2,-482.2 324.66,-482.2 324.66,-446.6 46.2,-446.6"/>
<polygon fill="none" stroke="black" points="46.2,-446.6 46.2,-482.2 324.66,-482.2 324.66,-446.6 46.2,-446.6"/>
<text text-anchor="start" x="53.2" y="-460" font-family="Arial Bold" font-size="18.00">Fact_Rider_Course</text>
<text text-anchor="start" x="193.17" y="-460" font-family="Arial" font-size="14.00">    </text>
<text text-anchor="start" x="224.29" y="-460" font-family="Arial" font-size="14.00" fill="#666666">[BASE TABLE]</text>
<polygon fill="none" stroke="black" points="46.2,-415.8 46.2,-446.6 324.66,-446.6 324.66,-415.8 46.2,-415.8"/>
<text text-anchor="start" x="53.2" y="-428" font-family="Arial" font-size="14.00">Source_Rider_Id </text>
<text text-anchor="start" x="162.15" y="-428" font-family="Arial" font-size="14.00" fill="#666666">[bigint unsigned]</text>
<polygon fill="none" stroke="black" points="46.2,-385 46.2,-415.8 324.66,-415.8 324.66,-385 46.2,-385"/>
<text text-anchor="start" x="53.2" y="-397.2" font-family="Arial" font-size="14.00">Source_Course_Id </text>
<text text-anchor="start" x="173.83" y="-397.2" font-family="Arial" font-size="14.00" fill="#666666">[bigint unsigned]</text>
<polygon fill="none" stroke="black" points="46.2,-354.2 46.2,-385 324.66,-385 324.66,-354.2 46.2,-354.2"/>
<text text-anchor="start" x="53.2" y="-366.4" font-family="Arial" font-size="14.00">Source_System_Key </text>
<text text-anchor="start" x="187.82" y="-366.4" font-family="Arial" font-size="14.00" fill="#666666">[varchar(50)]</text>
<polygon fill="none" stroke="black" points="46.2,-323.4 46.2,-354.2 324.66,-354.2 324.66,-323.4 46.2,-323.4"/>
<text text-anchor="start" x="53.2" y="-335.6" font-family="Arial" font-size="14.00">Status </text>
<text text-anchor="start" x="96.78" y="-335.6" font-family="Arial" font-size="14.00" fill="#666666">[int]</text>
<polygon fill="none" stroke="black" points="46.2,-292.6 46.2,-323.4 324.66,-323.4 324.66,-292.6 46.2,-292.6"/>
<text text-anchor="start" x="53.2" y="-304.8" font-family="Arial" font-size="14.00">Attended </text>
<text text-anchor="start" x="113.14" y="-304.8" font-family="Arial" font-size="14.00" fill="#666666">[tinyint]</text>
<polygon fill="none" stroke="black" points="46.2,-261.8 46.2,-292.6 324.66,-292.6 324.66,-261.8 46.2,-261.8"/>
<text text-anchor="start" x="53.2" y="-274" font-family="Arial" font-size="14.00">Withdrawn </text>
<text text-anchor="start" x="123.22" y="-274" font-family="Arial" font-size="14.00" fill="#666666">[tinyint(1)]</text>
<polygon fill="none" stroke="black" points="46.2,-231 46.2,-261.8 324.66,-261.8 324.66,-231 46.2,-231"/>
<text text-anchor="start" x="53.2" y="-243.2" font-family="Arial" font-size="14.00">Withdrawal_Reason </text>
<text text-anchor="start" x="182.37" y="-243.2" font-family="Arial" font-size="14.00" fill="#666666">[text]</text>
<polygon fill="none" stroke="black" points="46.2,-200.2 46.2,-231 324.66,-231 324.66,-200.2 46.2,-200.2"/>
<text text-anchor="start" x="53.2" y="-212.4" font-family="Arial" font-size="14.00">Has_Completed_Course </text>
<text text-anchor="start" x="210.39" y="-212.4" font-family="Arial" font-size="14.00" fill="#666666">[tinyint(1)]</text>
<polygon fill="none" stroke="black" points="46.2,-169.4 46.2,-200.2 324.66,-200.2 324.66,-169.4 46.2,-169.4"/>
<text text-anchor="start" x="53.2" y="-181.6" font-family="Arial" font-size="14.00">Has_Survey_Completed </text>
<text text-anchor="start" x="208.83" y="-181.6" font-family="Arial" font-size="14.00" fill="#666666">[tinyint(1)]</text>
<polygon fill="none" stroke="black" points="46.2,-138.6 46.2,-169.4 324.66,-169.4 324.66,-138.6 46.2,-138.6"/>
<text text-anchor="start" x="53.2" y="-150.8" font-family="Arial" font-size="14.00">Course_Complete_Date </text>
<text text-anchor="start" x="207.28" y="-150.8" font-family="Arial" font-size="14.00" fill="#666666">[date]</text>
<polygon fill="none" stroke="black" points="46.2,-107.8 46.2,-138.6 324.66,-138.6 324.66,-107.8 46.2,-107.8"/>
<text text-anchor="start" x="53.2" y="-120" font-family="Arial" font-size="14.00">Source_Created_At </text>
<text text-anchor="start" x="180.05" y="-120" font-family="Arial" font-size="14.00" fill="#666666">[timestamp]</text>
<polygon fill="none" stroke="black" points="46.2,-77 46.2,-107.8 324.66,-107.8 324.66,-77 46.2,-77"/>
<text text-anchor="start" x="53.2" y="-89.2" font-family="Arial" font-size="14.00">Source_Updated_At </text>
<text text-anchor="start" x="183.18" y="-89.2" font-family="Arial" font-size="14.00" fill="#666666">[timestamp]</text>
<polygon fill="none" stroke="black" points="46.2,-46.2 46.2,-77 324.66,-77 324.66,-46.2 46.2,-46.2"/>
<text text-anchor="start" x="53.2" y="-58.4" font-family="Arial" font-size="14.00">Updated_At </text>
<text text-anchor="start" x="131.03" y="-58.4" font-family="Arial" font-size="14.00" fill="#666666">[timestamp]</text>
<polygon fill="none" stroke="black" stroke-width="3" points="44.7,-44.7 44.7,-483.7 326.16,-483.7 326.16,-44.7 44.7,-44.7"/>
</g>
</g>
</svg>
