<?xml version="1.0" encoding="UTF-8" standalone="no"?>
<!DOCTYPE svg PUBLIC "-//W3C//DTD SVG 1.1//EN"
 "http://www.w3.org/Graphics/SVG/1.1/DTD/svg11.dtd">
<!-- Generated by graphviz version 12.1.2 (20240928.0832)
 -->
<!-- Title: Dim_Grant Pages: 1 -->
<svg width="1149pt" height="2485pt"
 viewBox="0.00 0.00 1148.99 2484.80" xmlns="http://www.w3.org/2000/svg" xmlns:xlink="http://www.w3.org/1999/xlink">
<g id="graph0" class="graph" transform="scale(1 1) rotate(0) translate(4 2480.8)">
<title>Dim_Grant</title>
<polygon fill="white" stroke="none" points="-4,4 -4,-2480.8 1144.99,-2480.8 1144.99,4 -4,4"/>
<!-- Dim_Grant -->
<g id="node1" class="node">
<title>Dim_Grant</title>
<polygon fill="#efefef" stroke="none" points="456.8,-1097.4 456.8,-1133 709.73,-1133 709.73,-1097.4 456.8,-1097.4"/>
<polygon fill="none" stroke="black" points="456.8,-1097.4 456.8,-1133 709.73,-1133 709.73,-1097.4 456.8,-1097.4"/>
<text text-anchor="start" x="480.03" y="-1110.8" font-family="Arial Bold" font-size="18.00">Dim_Grant</text>
<text text-anchor="start" x="562.01" y="-1110.8" font-family="Arial" font-size="14.00">    </text>
<text text-anchor="start" x="593.13" y="-1110.8" font-family="Arial" font-size="14.00" fill="#666666">[BASE TABLE]</text>
<polygon fill="none" stroke="black" points="456.8,-1066.6 456.8,-1097.4 709.73,-1097.4 709.73,-1066.6 456.8,-1066.6"/>
<text text-anchor="start" x="463.8" y="-1078.8" font-family="Arial" font-size="14.00">Grant_Key </text>
<text text-anchor="start" x="534.62" y="-1078.8" font-family="Arial" font-size="14.00" fill="#666666">[bigint unsigned]</text>
<polygon fill="none" stroke="black" points="456.8,-1035.8 456.8,-1066.6 709.73,-1066.6 709.73,-1035.8 456.8,-1035.8"/>
<text text-anchor="start" x="463.8" y="-1048" font-family="Arial" font-size="14.00">Source_Grant_Id </text>
<text text-anchor="start" x="574.31" y="-1048" font-family="Arial" font-size="14.00" fill="#666666">[bigint unsigned]</text>
<polygon fill="none" stroke="black" points="456.8,-1005 456.8,-1035.8 709.73,-1035.8 709.73,-1005 456.8,-1005"/>
<text text-anchor="start" x="463.8" y="-1017.2" font-family="Arial" font-size="14.00">Source_System_Key </text>
<text text-anchor="start" x="598.42" y="-1017.2" font-family="Arial" font-size="14.00" fill="#666666">[bigint unsigned]</text>
<polygon fill="none" stroke="black" points="456.8,-974.2 456.8,-1005 709.73,-1005 709.73,-974.2 456.8,-974.2"/>
<text text-anchor="start" x="463.8" y="-986.4" font-family="Arial" font-size="14.00">Grant_Recipient_Key </text>
<text text-anchor="start" x="600.77" y="-986.4" font-family="Arial" font-size="14.00" fill="#666666">[bigint unsigned]</text>
<polygon fill="none" stroke="black" points="456.8,-943.4 456.8,-974.2 709.73,-974.2 709.73,-943.4 456.8,-943.4"/>
<text text-anchor="start" x="463.8" y="-955.6" font-family="Arial" font-size="14.00">Grant_Number </text>
<text text-anchor="start" x="560.28" y="-955.6" font-family="Arial" font-size="14.00" fill="#666666">[varchar(255)]</text>
<polygon fill="none" stroke="black" points="456.8,-912.6 456.8,-943.4 709.73,-943.4 709.73,-912.6 456.8,-912.6"/>
<text text-anchor="start" x="463.8" y="-924.8" font-family="Arial" font-size="14.00">Grant_Label </text>
<text text-anchor="start" x="544.75" y="-924.8" font-family="Arial" font-size="14.00" fill="#666666">[varchar(255)]</text>
<polygon fill="none" stroke="black" points="456.8,-881.8 456.8,-912.6 709.73,-912.6 709.73,-881.8 456.8,-881.8"/>
<text text-anchor="start" x="463.8" y="-894" font-family="Arial" font-size="14.00">Grant_Source </text>
<text text-anchor="start" x="554.85" y="-894" font-family="Arial" font-size="14.00" fill="#666666">[varchar(255)]</text>
<polygon fill="none" stroke="black" points="456.8,-851 456.8,-881.8 709.73,-881.8 709.73,-851 456.8,-851"/>
<text text-anchor="start" x="463.8" y="-863.2" font-family="Arial" font-size="14.00">Grant_Period_Start_Year </text>
<text text-anchor="start" x="625.67" y="-863.2" font-family="Arial" font-size="14.00" fill="#666666">[smallint]</text>
<polygon fill="none" stroke="black" stroke-width="3" points="455.3,-849.5 455.3,-1134.5 711.23,-1134.5 711.23,-849.5 455.3,-849.5"/>
</g>
<!-- Dim_Source_System -->
<g id="node3" class="node">
<title>Dim_Source_System</title>
<polygon fill="#efefef" stroke="none" points="238.53,-428.2 238.53,-463.8 530.01,-463.8 530.01,-428.2 238.53,-428.2"/>
<polygon fill="none" stroke="black" points="238.53,-428.2 238.53,-463.8 530.01,-463.8 530.01,-428.2 238.53,-428.2"/>
<text text-anchor="start" x="245.53" y="-441.6" font-family="Arial Bold" font-size="18.00">Dim_Source_System</text>
<text text-anchor="start" x="398.52" y="-441.6" font-family="Arial" font-size="14.00">    </text>
<text text-anchor="start" x="429.63" y="-441.6" font-family="Arial" font-size="14.00" fill="#666666">[BASE TABLE]</text>
<polygon fill="none" stroke="black" points="238.53,-397.4 238.53,-428.2 530.01,-428.2 530.01,-397.4 238.53,-397.4"/>
<text text-anchor="start" x="245.53" y="-409.6" font-family="Arial" font-size="14.00">Source_System_Key </text>
<text text-anchor="start" x="380.15" y="-409.6" font-family="Arial" font-size="14.00" fill="#666666">[bigint unsigned]</text>
<polygon fill="none" stroke="black" points="238.53,-366.6 238.53,-397.4 530.01,-397.4 530.01,-366.6 238.53,-366.6"/>
<text text-anchor="start" x="245.53" y="-378.8" font-family="Arial" font-size="14.00">System_Name </text>
<text text-anchor="start" x="341.22" y="-378.8" font-family="Arial" font-size="14.00" fill="#666666">[varchar(50)]</text>
<polygon fill="none" stroke="black" points="238.53,-335.8 238.53,-366.6 530.01,-366.6 530.01,-335.8 238.53,-335.8"/>
<text text-anchor="start" x="245.53" y="-348" font-family="Arial" font-size="14.00">System_Type </text>
<text text-anchor="start" x="335" y="-348" font-family="Arial" font-size="14.00" fill="#666666">[varchar(50)]</text>
<polygon fill="none" stroke="black" points="238.53,-305 238.53,-335.8 530.01,-335.8 530.01,-305 238.53,-305"/>
<text text-anchor="start" x="245.53" y="-317.2" font-family="Arial" font-size="14.00">Last_Sync_Date </text>
<text text-anchor="start" x="352.15" y="-317.2" font-family="Arial" font-size="14.00" fill="#666666">[datetime]</text>
</g>
<!-- Dim_Grant&#45;&gt;Dim_Source_System -->
<g id="edge2" class="edge">
<title>Dim_Grant:Source_System_Key&#45;&gt;Dim_Source_System:Source_System_Key</title>
<path fill="none" stroke="black" d="M445.6,-1018.42C375.34,-988.01 516.34,-615 530.01,-507 535.26,-465.46 572.88,-412.8 531.01,-412.8"/>
<polygon fill="black" stroke="black" points="445.66,-1018.44 454.62,-1024.75 450.89,-1019.45 455.14,-1020.27 455.14,-1020.27 455.14,-1020.27 450.89,-1019.45 456.33,-1015.92 445.66,-1018.44"/>
<text text-anchor="start" x="7" y="-1030.4" font-family="Arial" font-size="10.00">FOREIGN KEY (Source_System_Key) REFERENCES Dim_Source_System (Source_System_Key)</text>
</g>
<!-- Dim_Grant_Recipient -->
<g id="node4" class="node">
<title>Dim_Grant_Recipient</title>
<polygon fill="#efefef" stroke="none" points="634.04,-690 634.04,-725.6 932.49,-725.6 932.49,-690 634.04,-690"/>
<polygon fill="none" stroke="black" points="634.04,-690 634.04,-725.6 932.49,-725.6 932.49,-690 634.04,-690"/>
<text text-anchor="start" x="641.04" y="-703.4" font-family="Arial Bold" font-size="18.00">Dim_Grant_Recipient</text>
<text text-anchor="start" x="801" y="-703.4" font-family="Arial" font-size="14.00">    </text>
<text text-anchor="start" x="832.12" y="-703.4" font-family="Arial" font-size="14.00" fill="#666666">[BASE TABLE]</text>
<polygon fill="none" stroke="black" points="634.04,-659.2 634.04,-690 932.49,-690 932.49,-659.2 634.04,-659.2"/>
<text text-anchor="start" x="641.04" y="-671.4" font-family="Arial" font-size="14.00">Recipient_Key </text>
<text text-anchor="start" x="735.21" y="-671.4" font-family="Arial" font-size="14.00" fill="#666666">[bigint unsigned]</text>
<polygon fill="none" stroke="black" points="634.04,-628.4 634.04,-659.2 932.49,-659.2 932.49,-628.4 634.04,-628.4"/>
<text text-anchor="start" x="641.04" y="-640.6" font-family="Arial" font-size="14.00">Source_Recipient_Id </text>
<text text-anchor="start" x="774.9" y="-640.6" font-family="Arial" font-size="14.00" fill="#666666">[bigint unsigned]</text>
<polygon fill="none" stroke="black" points="634.04,-597.6 634.04,-628.4 932.49,-628.4 932.49,-597.6 634.04,-597.6"/>
<text text-anchor="start" x="641.04" y="-609.8" font-family="Arial" font-size="14.00">Source_System_Key </text>
<text text-anchor="start" x="775.66" y="-609.8" font-family="Arial" font-size="14.00" fill="#666666">[bigint unsigned]</text>
<polygon fill="none" stroke="black" points="634.04,-566.8 634.04,-597.6 932.49,-597.6 932.49,-566.8 634.04,-566.8"/>
<text text-anchor="start" x="641.04" y="-579" font-family="Arial" font-size="14.00">Recipient_Name </text>
<text text-anchor="start" x="748.43" y="-579" font-family="Arial" font-size="14.00" fill="#666666">[varchar(255)]</text>
<polygon fill="none" stroke="black" points="634.04,-536 634.04,-566.8 932.49,-566.8 932.49,-536 634.04,-536"/>
<text text-anchor="start" x="641.04" y="-548.2" font-family="Arial" font-size="14.00">Recipient_Number </text>
<text text-anchor="start" x="760.88" y="-548.2" font-family="Arial" font-size="14.00" fill="#666666">[varchar(255)]</text>
<polygon fill="none" stroke="black" points="634.04,-505.2 634.04,-536 932.49,-536 932.49,-505.2 634.04,-505.2"/>
<text text-anchor="start" x="641.04" y="-517.4" font-family="Arial" font-size="14.00">LA_Id </text>
<text text-anchor="start" x="681.52" y="-517.4" font-family="Arial" font-size="14.00" fill="#666666">[varchar(255)]</text>
<polygon fill="none" stroke="black" points="634.04,-474.4 634.04,-505.2 932.49,-505.2 932.49,-474.4 634.04,-474.4"/>
<text text-anchor="start" x="641.04" y="-486.6" font-family="Arial" font-size="14.00">Is_Active </text>
<text text-anchor="start" x="701.73" y="-486.6" font-family="Arial" font-size="14.00" fill="#666666">[char(1)]</text>
<polygon fill="none" stroke="black" points="634.04,-443.6 634.04,-474.4 932.49,-474.4 932.49,-443.6 634.04,-443.6"/>
<text text-anchor="start" x="641.04" y="-455.8" font-family="Arial" font-size="14.00">Valid_From_Date </text>
<text text-anchor="start" x="753.87" y="-455.8" font-family="Arial" font-size="14.00" fill="#666666">[date]</text>
<polygon fill="none" stroke="black" points="634.04,-412.8 634.04,-443.6 932.49,-443.6 932.49,-412.8 634.04,-412.8"/>
<text text-anchor="start" x="641.04" y="-425" font-family="Arial" font-size="14.00">Valid_To_Date </text>
<text text-anchor="start" x="737.54" y="-425" font-family="Arial" font-size="14.00" fill="#666666">[date]</text>
<polygon fill="none" stroke="black" points="634.04,-382 634.04,-412.8 932.49,-412.8 932.49,-382 634.04,-382"/>
<text text-anchor="start" x="641.04" y="-394.2" font-family="Arial" font-size="14.00">Is_Current </text>
<text text-anchor="start" x="710.29" y="-394.2" font-family="Arial" font-size="14.00" fill="#666666">[tinyint(1)]</text>
<polygon fill="none" stroke="black" points="634.04,-351.2 634.04,-382 932.49,-382 932.49,-351.2 634.04,-351.2"/>
<text text-anchor="start" x="641.04" y="-363.4" font-family="Arial" font-size="14.00">Address_Line_1 </text>
<text text-anchor="start" x="746.12" y="-363.4" font-family="Arial" font-size="14.00" fill="#666666">[varchar(255)]</text>
<polygon fill="none" stroke="black" points="634.04,-320.4 634.04,-351.2 932.49,-351.2 932.49,-320.4 634.04,-320.4"/>
<text text-anchor="start" x="641.04" y="-332.6" font-family="Arial" font-size="14.00">Address_Line_2 </text>
<text text-anchor="start" x="746.12" y="-332.6" font-family="Arial" font-size="14.00" fill="#666666">[varchar(255)]</text>
<polygon fill="none" stroke="black" points="634.04,-289.6 634.04,-320.4 932.49,-320.4 932.49,-289.6 634.04,-289.6"/>
<text text-anchor="start" x="641.04" y="-301.8" font-family="Arial" font-size="14.00">City </text>
<text text-anchor="start" x="669.04" y="-301.8" font-family="Arial" font-size="14.00" fill="#666666">[varchar(255)]</text>
<polygon fill="none" stroke="black" points="634.04,-258.8 634.04,-289.6 932.49,-289.6 932.49,-258.8 634.04,-258.8"/>
<text text-anchor="start" x="641.04" y="-271" font-family="Arial" font-size="14.00">Postcode </text>
<text text-anchor="start" x="703.3" y="-271" font-family="Arial" font-size="14.00" fill="#666666">[varchar(255)]</text>
<polygon fill="none" stroke="black" points="634.04,-228 634.04,-258.8 932.49,-258.8 932.49,-228 634.04,-228"/>
<text text-anchor="start" x="641.04" y="-240.2" font-family="Arial" font-size="14.00">Website </text>
<text text-anchor="start" x="695.5" y="-240.2" font-family="Arial" font-size="14.00" fill="#666666">[varchar(255)]</text>
<polygon fill="none" stroke="black" points="634.04,-197.2 634.04,-228 932.49,-228 932.49,-197.2 634.04,-197.2"/>
<text text-anchor="start" x="641.04" y="-209.4" font-family="Arial" font-size="14.00">Inception_Date </text>
<text text-anchor="start" x="739.11" y="-209.4" font-family="Arial" font-size="14.00" fill="#666666">[date]</text>
<polygon fill="none" stroke="black" points="634.04,-166.4 634.04,-197.2 932.49,-197.2 932.49,-166.4 634.04,-166.4"/>
<text text-anchor="start" x="641.04" y="-178.6" font-family="Arial" font-size="14.00">Renewal_Date </text>
<text text-anchor="start" x="736.77" y="-178.6" font-family="Arial" font-size="14.00" fill="#666666">[date]</text>
<polygon fill="none" stroke="black" points="634.04,-135.6 634.04,-166.4 932.49,-166.4 932.49,-135.6 634.04,-135.6"/>
<text text-anchor="start" x="641.04" y="-147.8" font-family="Arial" font-size="14.00">Deregistered_Date </text>
<text text-anchor="start" x="762.44" y="-147.8" font-family="Arial" font-size="14.00" fill="#666666">[date]</text>
<polygon fill="none" stroke="black" points="634.04,-104.8 634.04,-135.6 932.49,-135.6 932.49,-104.8 634.04,-104.8"/>
<text text-anchor="start" x="641.04" y="-117" font-family="Arial" font-size="14.00">Is_SGO </text>
<text text-anchor="start" x="694.72" y="-117" font-family="Arial" font-size="14.00" fill="#666666">[tinyint(1)]</text>
<polygon fill="none" stroke="black" points="634.04,-74 634.04,-104.8 932.49,-104.8 932.49,-74 634.04,-74"/>
<text text-anchor="start" x="641.04" y="-86.2" font-family="Arial" font-size="14.00">Source_Created_At </text>
<text text-anchor="start" x="767.9" y="-86.2" font-family="Arial" font-size="14.00" fill="#666666">[timestamp]</text>
<polygon fill="none" stroke="black" points="634.04,-43.2 634.04,-74 932.49,-74 932.49,-43.2 634.04,-43.2"/>
<text text-anchor="start" x="641.04" y="-55.4" font-family="Arial" font-size="14.00">Source_Updated_At </text>
<text text-anchor="start" x="771.02" y="-55.4" font-family="Arial" font-size="14.00" fill="#666666">[timestamp]</text>
</g>
<!-- Dim_Grant&#45;&gt;Dim_Grant_Recipient -->
<g id="edge3" class="edge">
<title>Dim_Grant:Grant_Recipient_Key&#45;&gt;Dim_Grant_Recipient:Recipient_Key</title>
<path fill="none" stroke="black" d="M721.08,-988.92C789.34,-979.32 751.81,-871.01 709.73,-804.8 689.75,-773.36 654.1,-800.19 634.04,-768.8 611.49,-733.52 591.17,-674.6 633.04,-674.6"/>
<polygon fill="black" stroke="black" points="721.04,-988.92 710.77,-985.09 715.72,-989.27 711.4,-989.56 711.4,-989.56 711.4,-989.56 715.72,-989.27 711.36,-994.07 721.04,-988.92"/>
<text text-anchor="start" x="717.73" y="-999.6" font-family="Arial" font-size="10.00">FOREIGN KEY (Grant_Recipient_Key) REFERENCES Dim_Grant_Recipient (Recipient_Key)</text>
</g>
<!-- Fact_Course_Delivery -->
<g id="node2" class="node">
<title>Fact_Course_Delivery</title>
<polygon fill="#efefef" stroke="none" points="422.97,-2398 422.97,-2433.6 743.56,-2433.6 743.56,-2398 422.97,-2398"/>
<polygon fill="none" stroke="black" points="422.97,-2398 422.97,-2433.6 743.56,-2433.6 743.56,-2398 422.97,-2398"/>
<text text-anchor="start" x="439.54" y="-2411.4" font-family="Arial Bold" font-size="18.00">Fact_Course_Delivery</text>
<text text-anchor="start" x="602.5" y="-2411.4" font-family="Arial" font-size="14.00">    </text>
<text text-anchor="start" x="633.62" y="-2411.4" font-family="Arial" font-size="14.00" fill="#666666">[BASE TABLE]</text>
<polygon fill="none" stroke="black" points="422.97,-2367.2 422.97,-2398 743.56,-2398 743.56,-2367.2 422.97,-2367.2"/>
<text text-anchor="start" x="429.97" y="-2379.4" font-family="Arial" font-size="14.00">Delivery_Fact_Key </text>
<text text-anchor="start" x="551.35" y="-2379.4" font-family="Arial" font-size="14.00" fill="#666666">[bigint unsigned]</text>
<polygon fill="none" stroke="black" points="422.97,-2336.4 422.97,-2367.2 743.56,-2367.2 743.56,-2336.4 422.97,-2336.4"/>
<text text-anchor="start" x="429.97" y="-2348.6" font-family="Arial" font-size="14.00">Date_Key </text>
<text text-anchor="start" x="495.34" y="-2348.6" font-family="Arial" font-size="14.00" fill="#666666">[int]</text>
<polygon fill="none" stroke="black" points="422.97,-2305.6 422.97,-2336.4 743.56,-2336.4 743.56,-2305.6 422.97,-2305.6"/>
<text text-anchor="start" x="429.97" y="-2317.8" font-family="Arial" font-size="14.00">Delivery_Key </text>
<text text-anchor="start" x="516.34" y="-2317.8" font-family="Arial" font-size="14.00" fill="#666666">[bigint unsigned]</text>
<polygon fill="none" stroke="black" points="422.97,-2274.8 422.97,-2305.6 743.56,-2305.6 743.56,-2274.8 422.97,-2274.8"/>
<text text-anchor="start" x="429.97" y="-2287" font-family="Arial" font-size="14.00">School_Key </text>
<text text-anchor="start" x="508.58" y="-2287" font-family="Arial" font-size="14.00" fill="#666666">[bigint unsigned]</text>
<polygon fill="none" stroke="black" points="422.97,-2244 422.97,-2274.8 743.56,-2274.8 743.56,-2244 422.97,-2244"/>
<text text-anchor="start" x="429.97" y="-2256.2" font-family="Arial" font-size="14.00">Organisation_Key </text>
<text text-anchor="start" x="545.15" y="-2256.2" font-family="Arial" font-size="14.00" fill="#666666">[bigint unsigned]</text>
<polygon fill="none" stroke="black" points="422.97,-2213.2 422.97,-2244 743.56,-2244 743.56,-2213.2 422.97,-2213.2"/>
<text text-anchor="start" x="429.97" y="-2225.4" font-family="Arial" font-size="14.00">Course_Key </text>
<text text-anchor="start" x="510.9" y="-2225.4" font-family="Arial" font-size="14.00" fill="#666666">[bigint unsigned]</text>
<polygon fill="none" stroke="black" points="422.97,-2182.4 422.97,-2213.2 743.56,-2213.2 743.56,-2182.4 422.97,-2182.4"/>
<text text-anchor="start" x="429.97" y="-2194.6" font-family="Arial" font-size="14.00">Provider_Key </text>
<text text-anchor="start" x="517.9" y="-2194.6" font-family="Arial" font-size="14.00" fill="#666666">[bigint unsigned]</text>
<polygon fill="none" stroke="black" points="422.97,-2151.6 422.97,-2182.4 743.56,-2182.4 743.56,-2151.6 422.97,-2151.6"/>
<text text-anchor="start" x="429.97" y="-2163.8" font-family="Arial" font-size="14.00">Grant_Key </text>
<text text-anchor="start" x="500.78" y="-2163.8" font-family="Arial" font-size="14.00" fill="#666666">[bigint unsigned]</text>
<polygon fill="none" stroke="black" points="422.97,-2120.8 422.97,-2151.6 743.56,-2151.6 743.56,-2120.8 422.97,-2120.8"/>
<text text-anchor="start" x="429.97" y="-2133" font-family="Arial" font-size="14.00">Riders_Enrolled_Count </text>
<text text-anchor="start" x="578.61" y="-2133" font-family="Arial" font-size="14.00" fill="#666666">[int]</text>
<polygon fill="none" stroke="black" points="422.97,-2090 422.97,-2120.8 743.56,-2120.8 743.56,-2090 422.97,-2090"/>
<text text-anchor="start" x="429.97" y="-2102.2" font-family="Arial" font-size="14.00">Riders_Completed_Count </text>
<text text-anchor="start" x="594.95" y="-2102.2" font-family="Arial" font-size="14.00" fill="#666666">[int]</text>
<polygon fill="none" stroke="black" points="422.97,-2059.2 422.97,-2090 743.56,-2090 743.56,-2059.2 422.97,-2059.2"/>
<text text-anchor="start" x="429.97" y="-2071.4" font-family="Arial" font-size="14.00">Count_Booked_Provisional </text>
<text text-anchor="start" x="602.75" y="-2071.4" font-family="Arial" font-size="14.00" fill="#666666">[int]</text>
<polygon fill="none" stroke="black" points="422.97,-2028.4 422.97,-2059.2 743.56,-2059.2 743.56,-2028.4 422.97,-2028.4"/>
<text text-anchor="start" x="429.97" y="-2040.6" font-family="Arial" font-size="14.00">Count_Booked_Confirmed </text>
<text text-anchor="start" x="598.85" y="-2040.6" font-family="Arial" font-size="14.00" fill="#666666">[int]</text>
<polygon fill="none" stroke="black" points="422.97,-1997.6 422.97,-2028.4 743.56,-2028.4 743.56,-1997.6 422.97,-1997.6"/>
<text text-anchor="start" x="429.97" y="-2009.8" font-family="Arial" font-size="14.00">Count_Attended_Confirmed </text>
<text text-anchor="start" x="607.42" y="-2009.8" font-family="Arial" font-size="14.00" fill="#666666">[int]</text>
<polygon fill="none" stroke="black" points="422.97,-1966.8 422.97,-1997.6 743.56,-1997.6 743.56,-1966.8 422.97,-1966.8"/>
<text text-anchor="start" x="429.97" y="-1979" font-family="Arial" font-size="14.00">Count_Female </text>
<text text-anchor="start" x="525.69" y="-1979" font-family="Arial" font-size="14.00" fill="#666666">[int]</text>
<polygon fill="none" stroke="black" points="422.97,-1936 422.97,-1966.8 743.56,-1966.8 743.56,-1936 422.97,-1936"/>
<text text-anchor="start" x="429.97" y="-1948.2" font-family="Arial" font-size="14.00">Count_Male </text>
<text text-anchor="start" x="509.35" y="-1948.2" font-family="Arial" font-size="14.00" fill="#666666">[int]</text>
<polygon fill="none" stroke="black" points="422.97,-1905.2 422.97,-1936 743.56,-1936 743.56,-1905.2 422.97,-1905.2"/>
<text text-anchor="start" x="429.97" y="-1917.4" font-family="Arial" font-size="14.00">Count_Gender_Other </text>
<text text-anchor="start" x="568.5" y="-1917.4" font-family="Arial" font-size="14.00" fill="#666666">[int]</text>
<polygon fill="none" stroke="black" points="422.97,-1874.4 422.97,-1905.2 743.56,-1905.2 743.56,-1874.4 422.97,-1874.4"/>
<text text-anchor="start" x="429.97" y="-1886.6" font-family="Arial" font-size="14.00">Count_Pupil_Premium </text>
<text text-anchor="start" x="573.93" y="-1886.6" font-family="Arial" font-size="14.00" fill="#666666">[int]</text>
<polygon fill="none" stroke="black" points="422.97,-1843.6 422.97,-1874.4 743.56,-1874.4 743.56,-1843.6 422.97,-1843.6"/>
<text text-anchor="start" x="429.97" y="-1855.8" font-family="Arial" font-size="14.00">Count_SEND </text>
<text text-anchor="start" x="517.9" y="-1855.8" font-family="Arial" font-size="14.00" fill="#666666">[int]</text>
<polygon fill="none" stroke="black" points="422.97,-1812.8 422.97,-1843.6 743.56,-1843.6 743.56,-1812.8 422.97,-1812.8"/>
<text text-anchor="start" x="429.97" y="-1825" font-family="Arial" font-size="14.00">Count_Ethnicity_White_British </text>
<text text-anchor="start" x="622.17" y="-1825" font-family="Arial" font-size="14.00" fill="#666666">[int]</text>
<polygon fill="none" stroke="black" points="422.97,-1782 422.97,-1812.8 743.56,-1812.8 743.56,-1782 422.97,-1782"/>
<text text-anchor="start" x="429.97" y="-1794.2" font-family="Arial" font-size="14.00">Count_Ethnicity_White_Irish </text>
<text text-anchor="start" x="609.72" y="-1794.2" font-family="Arial" font-size="14.00" fill="#666666">[int]</text>
<polygon fill="none" stroke="black" points="422.97,-1751.2 422.97,-1782 743.56,-1782 743.56,-1751.2 422.97,-1751.2"/>
<text text-anchor="start" x="429.97" y="-1763.4" font-family="Arial" font-size="14.00">Count_Ethnicity_Gypsy_Romany </text>
<text text-anchor="start" x="639.29" y="-1763.4" font-family="Arial" font-size="14.00" fill="#666666">[int]</text>
<polygon fill="none" stroke="black" points="422.97,-1720.4 422.97,-1751.2 743.56,-1751.2 743.56,-1720.4 422.97,-1720.4"/>
<text text-anchor="start" x="429.97" y="-1732.6" font-family="Arial" font-size="14.00">Count_Ethnicity_White_Other </text>
<text text-anchor="start" x="618.29" y="-1732.6" font-family="Arial" font-size="14.00" fill="#666666">[int]</text>
<polygon fill="none" stroke="black" points="422.97,-1689.6 422.97,-1720.4 743.56,-1720.4 743.56,-1689.6 422.97,-1689.6"/>
<text text-anchor="start" x="429.97" y="-1701.8" font-family="Arial" font-size="14.00">Count_Ethnicity_Mixed_White_Black_Carib </text>
<text text-anchor="start" x="703.88" y="-1701.8" font-family="Arial" font-size="14.00" fill="#666666">[int]</text>
<polygon fill="none" stroke="black" points="422.97,-1658.8 422.97,-1689.6 743.56,-1689.6 743.56,-1658.8 422.97,-1658.8"/>
<text text-anchor="start" x="429.97" y="-1671" font-family="Arial" font-size="14.00">Count_Ethnicity_Mixed_White_Black_African </text>
<text text-anchor="start" x="714" y="-1671" font-family="Arial" font-size="14.00" fill="#666666">[int]</text>
<polygon fill="none" stroke="black" points="422.97,-1628 422.97,-1658.8 743.56,-1658.8 743.56,-1628 422.97,-1628"/>
<text text-anchor="start" x="429.97" y="-1640.2" font-family="Arial" font-size="14.00">Count_Ethnicity_Mixed_White_Asian </text>
<text text-anchor="start" x="663.42" y="-1640.2" font-family="Arial" font-size="14.00" fill="#666666">[int]</text>
<polygon fill="none" stroke="black" points="422.97,-1597.2 422.97,-1628 743.56,-1628 743.56,-1597.2 422.97,-1597.2"/>
<text text-anchor="start" x="429.97" y="-1609.4" font-family="Arial" font-size="14.00">Count_Ethnicity_Mixed_Other </text>
<text text-anchor="start" x="619.85" y="-1609.4" font-family="Arial" font-size="14.00" fill="#666666">[int]</text>
<polygon fill="none" stroke="black" points="422.97,-1566.4 422.97,-1597.2 743.56,-1597.2 743.56,-1566.4 422.97,-1566.4"/>
<text text-anchor="start" x="429.97" y="-1578.6" font-family="Arial" font-size="14.00">Count_Ethnicity_Asian_Indian </text>
<text text-anchor="start" x="620.65" y="-1578.6" font-family="Arial" font-size="14.00" fill="#666666">[int]</text>
<polygon fill="none" stroke="black" points="422.97,-1535.6 422.97,-1566.4 743.56,-1566.4 743.56,-1535.6 422.97,-1535.6"/>
<text text-anchor="start" x="429.97" y="-1547.8" font-family="Arial" font-size="14.00">Count_Ethnicity_Asian_Pakistani </text>
<text text-anchor="start" x="639.31" y="-1547.8" font-family="Arial" font-size="14.00" fill="#666666">[int]</text>
<polygon fill="none" stroke="black" points="422.97,-1504.8 422.97,-1535.6 743.56,-1535.6 743.56,-1504.8 422.97,-1504.8"/>
<text text-anchor="start" x="429.97" y="-1517" font-family="Arial" font-size="14.00">Count_Ethnicity_Asian_Bangladeshi </text>
<text text-anchor="start" x="659.57" y="-1517" font-family="Arial" font-size="14.00" fill="#666666">[int]</text>
<polygon fill="none" stroke="black" points="422.97,-1474 422.97,-1504.8 743.56,-1504.8 743.56,-1474 422.97,-1474"/>
<text text-anchor="start" x="429.97" y="-1486.2" font-family="Arial" font-size="14.00">Count_Ethnicity_Asian_Chinese </text>
<text text-anchor="start" x="633.87" y="-1486.2" font-family="Arial" font-size="14.00" fill="#666666">[int]</text>
<polygon fill="none" stroke="black" points="422.97,-1443.2 422.97,-1474 743.56,-1474 743.56,-1443.2 422.97,-1443.2"/>
<text text-anchor="start" x="429.97" y="-1455.4" font-family="Arial" font-size="14.00">Count_Ethnicity_Asian_Other </text>
<text text-anchor="start" x="617.52" y="-1455.4" font-family="Arial" font-size="14.00" fill="#666666">[int]</text>
<polygon fill="none" stroke="black" points="422.97,-1412.4 422.97,-1443.2 743.56,-1443.2 743.56,-1412.4 422.97,-1412.4"/>
<text text-anchor="start" x="429.97" y="-1424.6" font-family="Arial" font-size="14.00">Count_Ethnicity_Black_African </text>
<text text-anchor="start" x="625.29" y="-1424.6" font-family="Arial" font-size="14.00" fill="#666666">[int]</text>
<polygon fill="none" stroke="black" points="422.97,-1381.6 422.97,-1412.4 743.56,-1412.4 743.56,-1381.6 422.97,-1381.6"/>
<text text-anchor="start" x="429.97" y="-1393.8" font-family="Arial" font-size="14.00">Count_Ethnicity_Black_Caribbean </text>
<text text-anchor="start" x="646.32" y="-1393.8" font-family="Arial" font-size="14.00" fill="#666666">[int]</text>
<polygon fill="none" stroke="black" points="422.97,-1350.8 422.97,-1381.6 743.56,-1381.6 743.56,-1350.8 422.97,-1350.8"/>
<text text-anchor="start" x="429.97" y="-1363" font-family="Arial" font-size="14.00">Count_Ethnicity_Black_Other </text>
<text text-anchor="start" x="616.74" y="-1363" font-family="Arial" font-size="14.00" fill="#666666">[int]</text>
<polygon fill="none" stroke="black" points="422.97,-1320 422.97,-1350.8 743.56,-1350.8 743.56,-1320 422.97,-1320"/>
<text text-anchor="start" x="429.97" y="-1332.2" font-family="Arial" font-size="14.00">Count_Ethnicity_Other_Arab </text>
<text text-anchor="start" x="612.07" y="-1332.2" font-family="Arial" font-size="14.00" fill="#666666">[int]</text>
<polygon fill="none" stroke="black" points="422.97,-1289.2 422.97,-1320 743.56,-1320 743.56,-1289.2 422.97,-1289.2"/>
<text text-anchor="start" x="429.97" y="-1301.4" font-family="Arial" font-size="14.00">Count_Ethnicity_Other_Any </text>
<text text-anchor="start" x="606.62" y="-1301.4" font-family="Arial" font-size="14.00" fill="#666666">[int]</text>
<polygon fill="none" stroke="black" points="422.97,-1258.4 422.97,-1289.2 743.56,-1289.2 743.56,-1258.4 422.97,-1258.4"/>
<text text-anchor="start" x="429.97" y="-1270.6" font-family="Arial" font-size="14.00">Count_Ethnicity_Not_Stated </text>
<text text-anchor="start" x="609.75" y="-1270.6" font-family="Arial" font-size="14.00" fill="#666666">[int]</text>
</g>
<!-- Fact_Course_Delivery&#45;&gt;Dim_Grant -->
<g id="edge1" class="edge">
<title>Fact_Course_Delivery:Grant_Key&#45;&gt;Dim_Grant:Grant_Key</title>
<path fill="none" stroke="black" d="M754.64,-2166.35C984.79,-2136.49 948.54,-1082 710.73,-1082"/>
<polygon fill="black" stroke="black" points="754.88,-2166.34 744.61,-2162.49 749.55,-2166.68 745.23,-2166.96 745.23,-2166.96 745.23,-2166.96 749.55,-2166.68 745.18,-2171.47 754.88,-2166.34"/>
<text text-anchor="start" x="751.56" y="-2177" font-family="Arial" font-size="10.00">FOREIGN KEY (Grant_Key) REFERENCES Dim_Grant (Grant_Key)</text>
</g>
</g>
</svg>
