<?xml version="1.0" encoding="UTF-8" standalone="no"?>
<!DOCTYPE svg PUBLIC "-//W3C//DTD SVG 1.1//EN"
 "http://www.w3.org/Graphics/SVG/1.1/DTD/svg11.dtd">
<!-- Generated by graphviz version 12.1.2 (20240928.0832)
 -->
<!-- Title: Dim_Training_Provider Pages: 1 -->
<svg width="1208pt" height="2331pt"
 viewBox="0.00 0.00 1207.94 2330.80" xmlns="http://www.w3.org/2000/svg" xmlns:xlink="http://www.w3.org/1999/xlink">
<g id="graph0" class="graph" transform="scale(1 1) rotate(0) translate(4 2326.8)">
<title>Dim_Training_Provider</title>
<polygon fill="white" stroke="none" points="-4,4 -4,-2326.8 1203.94,-2326.8 1203.94,4 -4,4"/>
<!-- Dim_Training_Provider -->
<g id="node1" class="node">
<title>Dim_Training_Provider</title>
<polygon fill="#efefef" stroke="none" points="430.68,-943.4 430.68,-979 743.14,-979 743.14,-943.4 430.68,-943.4"/>
<polygon fill="none" stroke="black" points="430.68,-943.4 430.68,-979 743.14,-979 743.14,-943.4 430.68,-943.4"/>
<text text-anchor="start" x="437.68" y="-956.8" font-family="Arial Bold" font-size="18.00">Dim_Training_Provider</text>
<text text-anchor="start" x="611.65" y="-956.8" font-family="Arial" font-size="14.00">    </text>
<text text-anchor="start" x="642.77" y="-956.8" font-family="Arial" font-size="14.00" fill="#666666">[BASE TABLE]</text>
<polygon fill="none" stroke="black" points="430.68,-912.6 430.68,-943.4 743.14,-943.4 743.14,-912.6 430.68,-912.6"/>
<text text-anchor="start" x="437.68" y="-924.8" font-family="Arial" font-size="14.00">Provider_Key </text>
<text text-anchor="start" x="525.61" y="-924.8" font-family="Arial" font-size="14.00" fill="#666666">[bigint unsigned]</text>
<polygon fill="none" stroke="black" points="430.68,-881.8 430.68,-912.6 743.14,-912.6 743.14,-881.8 430.68,-881.8"/>
<text text-anchor="start" x="437.68" y="-894" font-family="Arial" font-size="14.00">Source_Provider_Id </text>
<text text-anchor="start" x="565.31" y="-894" font-family="Arial" font-size="14.00" fill="#666666">[bigint unsigned]</text>
<polygon fill="none" stroke="black" points="430.68,-851 430.68,-881.8 743.14,-881.8 743.14,-851 430.68,-851"/>
<text text-anchor="start" x="437.68" y="-863.2" font-family="Arial" font-size="14.00">Source_System_Key </text>
<text text-anchor="start" x="572.3" y="-863.2" font-family="Arial" font-size="14.00" fill="#666666">[bigint unsigned]</text>
<polygon fill="none" stroke="black" points="430.68,-820.2 430.68,-851 743.14,-851 743.14,-820.2 430.68,-820.2"/>
<text text-anchor="start" x="437.68" y="-832.4" font-family="Arial" font-size="14.00">Provider_Name </text>
<text text-anchor="start" x="538.83" y="-832.4" font-family="Arial" font-size="14.00" fill="#666666">[varchar(255)]</text>
<polygon fill="none" stroke="black" points="430.68,-789.4 430.68,-820.2 743.14,-820.2 743.14,-789.4 430.68,-789.4"/>
<text text-anchor="start" x="437.68" y="-801.6" font-family="Arial" font-size="14.00">Provider_Number </text>
<text text-anchor="start" x="551.28" y="-801.6" font-family="Arial" font-size="14.00" fill="#666666">[varchar(255)]</text>
<polygon fill="none" stroke="black" points="430.68,-758.6 430.68,-789.4 743.14,-789.4 743.14,-758.6 430.68,-758.6"/>
<text text-anchor="start" x="437.68" y="-770.8" font-family="Arial" font-size="14.00">Is_Active </text>
<text text-anchor="start" x="498.37" y="-770.8" font-family="Arial" font-size="14.00" fill="#666666">[char(1)]</text>
<polygon fill="none" stroke="black" points="430.68,-727.8 430.68,-758.6 743.14,-758.6 743.14,-727.8 430.68,-727.8"/>
<text text-anchor="start" x="437.68" y="-740" font-family="Arial" font-size="14.00">Valid_From_Date </text>
<text text-anchor="start" x="550.51" y="-740" font-family="Arial" font-size="14.00" fill="#666666">[date]</text>
<polygon fill="none" stroke="black" points="430.68,-697 430.68,-727.8 743.14,-727.8 743.14,-697 430.68,-697"/>
<text text-anchor="start" x="437.68" y="-709.2" font-family="Arial" font-size="14.00">Valid_To_Date </text>
<text text-anchor="start" x="534.19" y="-709.2" font-family="Arial" font-size="14.00" fill="#666666">[date]</text>
<polygon fill="none" stroke="black" points="430.68,-666.2 430.68,-697 743.14,-697 743.14,-666.2 430.68,-666.2"/>
<text text-anchor="start" x="437.68" y="-678.4" font-family="Arial" font-size="14.00">Is_Current </text>
<text text-anchor="start" x="506.93" y="-678.4" font-family="Arial" font-size="14.00" fill="#666666">[tinyint(1)]</text>
<polygon fill="none" stroke="black" points="430.68,-635.4 430.68,-666.2 743.14,-666.2 743.14,-635.4 430.68,-635.4"/>
<text text-anchor="start" x="437.68" y="-647.6" font-family="Arial" font-size="14.00">Address_Line_1 </text>
<text text-anchor="start" x="542.76" y="-647.6" font-family="Arial" font-size="14.00" fill="#666666">[varchar(255)]</text>
<polygon fill="none" stroke="black" points="430.68,-604.6 430.68,-635.4 743.14,-635.4 743.14,-604.6 430.68,-604.6"/>
<text text-anchor="start" x="437.68" y="-616.8" font-family="Arial" font-size="14.00">Address_Line_2 </text>
<text text-anchor="start" x="542.76" y="-616.8" font-family="Arial" font-size="14.00" fill="#666666">[varchar(255)]</text>
<polygon fill="none" stroke="black" points="430.68,-573.8 430.68,-604.6 743.14,-604.6 743.14,-573.8 430.68,-573.8"/>
<text text-anchor="start" x="437.68" y="-586" font-family="Arial" font-size="14.00">City </text>
<text text-anchor="start" x="465.68" y="-586" font-family="Arial" font-size="14.00" fill="#666666">[varchar(255)]</text>
<polygon fill="none" stroke="black" points="430.68,-543 430.68,-573.8 743.14,-573.8 743.14,-543 430.68,-543"/>
<text text-anchor="start" x="437.68" y="-555.2" font-family="Arial" font-size="14.00">Postcode </text>
<text text-anchor="start" x="499.94" y="-555.2" font-family="Arial" font-size="14.00" fill="#666666">[varchar(255)]</text>
<polygon fill="none" stroke="black" points="430.68,-512.2 430.68,-543 743.14,-543 743.14,-512.2 430.68,-512.2"/>
<text text-anchor="start" x="437.68" y="-524.4" font-family="Arial" font-size="14.00">Website </text>
<text text-anchor="start" x="492.14" y="-524.4" font-family="Arial" font-size="14.00" fill="#666666">[varchar(255)]</text>
<polygon fill="none" stroke="black" points="430.68,-481.4 430.68,-512.2 743.14,-512.2 743.14,-481.4 430.68,-481.4"/>
<text text-anchor="start" x="437.68" y="-493.6" font-family="Arial" font-size="14.00">Telephone </text>
<text text-anchor="start" x="507.74" y="-493.6" font-family="Arial" font-size="14.00" fill="#666666">[varchar(255)]</text>
<polygon fill="none" stroke="black" points="430.68,-450.6 430.68,-481.4 743.14,-481.4 743.14,-450.6 430.68,-450.6"/>
<text text-anchor="start" x="437.68" y="-462.8" font-family="Arial" font-size="14.00">Public_Email </text>
<text text-anchor="start" x="522.5" y="-462.8" font-family="Arial" font-size="14.00" fill="#666666">[varchar(255)]</text>
<polygon fill="none" stroke="black" points="430.68,-419.8 430.68,-450.6 743.14,-450.6 743.14,-419.8 430.68,-419.8"/>
<text text-anchor="start" x="437.68" y="-432" font-family="Arial" font-size="14.00">Public_Telephone </text>
<text text-anchor="start" x="553.65" y="-432" font-family="Arial" font-size="14.00" fill="#666666">[varchar(255)]</text>
<polygon fill="none" stroke="black" points="430.68,-389 430.68,-419.8 743.14,-419.8 743.14,-389 430.68,-389"/>
<text text-anchor="start" x="437.68" y="-401.2" font-family="Arial" font-size="14.00">Provider_Type </text>
<text text-anchor="start" x="532.61" y="-401.2" font-family="Arial" font-size="14.00" fill="#666666">[varchar(255)]</text>
<polygon fill="none" stroke="black" points="430.68,-358.2 430.68,-389 743.14,-389 743.14,-358.2 430.68,-358.2"/>
<text text-anchor="start" x="437.68" y="-370.4" font-family="Arial" font-size="14.00">Source_Created_At </text>
<text text-anchor="start" x="564.54" y="-370.4" font-family="Arial" font-size="14.00" fill="#666666">[timestamp]</text>
<polygon fill="none" stroke="black" points="430.68,-327.4 430.68,-358.2 743.14,-358.2 743.14,-327.4 430.68,-327.4"/>
<text text-anchor="start" x="437.68" y="-339.6" font-family="Arial" font-size="14.00">Source_Updated_At </text>
<text text-anchor="start" x="567.66" y="-339.6" font-family="Arial" font-size="14.00" fill="#666666">[timestamp]</text>
<polygon fill="none" stroke="black" stroke-width="3" points="429.18,-325.9 429.18,-980.5 744.64,-980.5 744.64,-325.9 429.18,-325.9"/>
</g>
<!-- Dim_Source_System -->
<g id="node5" class="node">
<title>Dim_Source_System</title>
<polygon fill="#efefef" stroke="none" points="441.17,-166.4 441.17,-202 732.65,-202 732.65,-166.4 441.17,-166.4"/>
<polygon fill="none" stroke="black" points="441.17,-166.4 441.17,-202 732.65,-202 732.65,-166.4 441.17,-166.4"/>
<text text-anchor="start" x="448.17" y="-179.8" font-family="Arial Bold" font-size="18.00">Dim_Source_System</text>
<text text-anchor="start" x="601.16" y="-179.8" font-family="Arial" font-size="14.00">    </text>
<text text-anchor="start" x="632.28" y="-179.8" font-family="Arial" font-size="14.00" fill="#666666">[BASE TABLE]</text>
<polygon fill="none" stroke="black" points="441.17,-135.6 441.17,-166.4 732.65,-166.4 732.65,-135.6 441.17,-135.6"/>
<text text-anchor="start" x="448.17" y="-147.8" font-family="Arial" font-size="14.00">Source_System_Key </text>
<text text-anchor="start" x="582.79" y="-147.8" font-family="Arial" font-size="14.00" fill="#666666">[bigint unsigned]</text>
<polygon fill="none" stroke="black" points="441.17,-104.8 441.17,-135.6 732.65,-135.6 732.65,-104.8 441.17,-104.8"/>
<text text-anchor="start" x="448.17" y="-117" font-family="Arial" font-size="14.00">System_Name </text>
<text text-anchor="start" x="543.87" y="-117" font-family="Arial" font-size="14.00" fill="#666666">[varchar(50)]</text>
<polygon fill="none" stroke="black" points="441.17,-74 441.17,-104.8 732.65,-104.8 732.65,-74 441.17,-74"/>
<text text-anchor="start" x="448.17" y="-86.2" font-family="Arial" font-size="14.00">System_Type </text>
<text text-anchor="start" x="537.65" y="-86.2" font-family="Arial" font-size="14.00" fill="#666666">[varchar(50)]</text>
<polygon fill="none" stroke="black" points="441.17,-43.2 441.17,-74 732.65,-74 732.65,-43.2 441.17,-43.2"/>
<text text-anchor="start" x="448.17" y="-55.4" font-family="Arial" font-size="14.00">Last_Sync_Date </text>
<text text-anchor="start" x="554.79" y="-55.4" font-family="Arial" font-size="14.00" fill="#666666">[datetime]</text>
</g>
<!-- Dim_Training_Provider&#45;&gt;Dim_Source_System -->
<g id="edge4" class="edge">
<title>Dim_Training_Provider:Source_System_Key&#45;&gt;Dim_Source_System:Source_System_Key</title>
<path fill="none" stroke="black" d="M754.28,-866.15C1061.87,-851.11 1048.23,-151 733.65,-151"/>
<polygon fill="black" stroke="black" points="754.47,-866.15 744.37,-861.89 749.14,-866.28 744.81,-866.38 744.81,-866.38 744.81,-866.38 749.14,-866.28 744.59,-870.89 754.47,-866.15"/>
<text text-anchor="start" x="751.14" y="-876.4" font-family="Arial" font-size="10.00">FOREIGN KEY (Source_System_Key) REFERENCES Dim_Source_System (Source_System_Key)</text>
</g>
<!-- Dim_Delivery_Header -->
<g id="node2" class="node">
<title>Dim_Delivery_Header</title>
<polygon fill="#efefef" stroke="none" points="43.2,-2120.8 43.2,-2156.4 346.62,-2156.4 346.62,-2120.8 43.2,-2120.8"/>
<polygon fill="none" stroke="black" points="43.2,-2120.8 43.2,-2156.4 346.62,-2156.4 346.62,-2120.8 43.2,-2120.8"/>
<text text-anchor="start" x="50.2" y="-2134.2" font-family="Arial Bold" font-size="18.00">Dim_Delivery_Header</text>
<text text-anchor="start" x="215.14" y="-2134.2" font-family="Arial" font-size="14.00">    </text>
<text text-anchor="start" x="246.25" y="-2134.2" font-family="Arial" font-size="14.00" fill="#666666">[BASE TABLE]</text>
<polygon fill="none" stroke="black" points="43.2,-2090 43.2,-2120.8 346.62,-2120.8 346.62,-2090 43.2,-2090"/>
<text text-anchor="start" x="50.2" y="-2102.2" font-family="Arial" font-size="14.00">Delivery_Key </text>
<text text-anchor="start" x="136.57" y="-2102.2" font-family="Arial" font-size="14.00" fill="#666666">[bigint unsigned]</text>
<polygon fill="none" stroke="black" points="43.2,-2059.2 43.2,-2090 346.62,-2090 346.62,-2059.2 43.2,-2059.2"/>
<text text-anchor="start" x="50.2" y="-2071.4" font-family="Arial" font-size="14.00">Source_Delivery_Id </text>
<text text-anchor="start" x="176.26" y="-2071.4" font-family="Arial" font-size="14.00" fill="#666666">[bigint unsigned]</text>
<polygon fill="none" stroke="black" points="43.2,-2028.4 43.2,-2059.2 346.62,-2059.2 346.62,-2028.4 43.2,-2028.4"/>
<text text-anchor="start" x="50.2" y="-2040.6" font-family="Arial" font-size="14.00">Source_System_Key </text>
<text text-anchor="start" x="184.82" y="-2040.6" font-family="Arial" font-size="14.00" fill="#666666">[bigint unsigned]</text>
<polygon fill="none" stroke="black" points="43.2,-1997.6 43.2,-2028.4 346.62,-2028.4 346.62,-1997.6 43.2,-1997.6"/>
<text text-anchor="start" x="50.2" y="-2009.8" font-family="Arial" font-size="14.00">Grant_Key </text>
<text text-anchor="start" x="121.01" y="-2009.8" font-family="Arial" font-size="14.00" fill="#666666">[bigint unsigned]</text>
<polygon fill="none" stroke="black" points="43.2,-1966.8 43.2,-1997.6 346.62,-1997.6 346.62,-1966.8 43.2,-1966.8"/>
<text text-anchor="start" x="50.2" y="-1979" font-family="Arial" font-size="14.00">School_Key </text>
<text text-anchor="start" x="128.81" y="-1979" font-family="Arial" font-size="14.00" fill="#666666">[bigint unsigned]</text>
<polygon fill="none" stroke="black" points="43.2,-1936 43.2,-1966.8 346.62,-1966.8 346.62,-1936 43.2,-1936"/>
<text text-anchor="start" x="50.2" y="-1948.2" font-family="Arial" font-size="14.00">Organisation_Key </text>
<text text-anchor="start" x="165.38" y="-1948.2" font-family="Arial" font-size="14.00" fill="#666666">[bigint unsigned]</text>
<polygon fill="none" stroke="black" points="43.2,-1905.2 43.2,-1936 346.62,-1936 346.62,-1905.2 43.2,-1905.2"/>
<text text-anchor="start" x="50.2" y="-1917.4" font-family="Arial" font-size="14.00">Training_Provider_Key </text>
<text text-anchor="start" x="196.5" y="-1917.4" font-family="Arial" font-size="14.00" fill="#666666">[bigint unsigned]</text>
<polygon fill="none" stroke="black" points="43.2,-1874.4 43.2,-1905.2 346.62,-1905.2 346.62,-1874.4 43.2,-1874.4"/>
<text text-anchor="start" x="50.2" y="-1886.6" font-family="Arial" font-size="14.00">External_System_Key </text>
<text text-anchor="start" x="191.82" y="-1886.6" font-family="Arial" font-size="14.00" fill="#666666">[bigint unsigned]</text>
<polygon fill="none" stroke="black" points="43.2,-1843.6 43.2,-1874.4 346.62,-1874.4 346.62,-1843.6 43.2,-1843.6"/>
<text text-anchor="start" x="50.2" y="-1855.8" font-family="Arial" font-size="14.00">Delivery_Status </text>
<text text-anchor="start" x="152.13" y="-1855.8" font-family="Arial" font-size="14.00" fill="#666666">[varchar(50)]</text>
<polygon fill="none" stroke="black" points="43.2,-1812.8 43.2,-1843.6 346.62,-1843.6 346.62,-1812.8 43.2,-1812.8"/>
<text text-anchor="start" x="50.2" y="-1825" font-family="Arial" font-size="14.00">Date_Delivery_Start </text>
<text text-anchor="start" x="179.37" y="-1825" font-family="Arial" font-size="14.00" fill="#666666">[date]</text>
<polygon fill="none" stroke="black" points="43.2,-1782 43.2,-1812.8 346.62,-1812.8 346.62,-1782 43.2,-1782"/>
<text text-anchor="start" x="50.2" y="-1794.2" font-family="Arial" font-size="14.00">Date_Delivery_End </text>
<text text-anchor="start" x="174.71" y="-1794.2" font-family="Arial" font-size="14.00" fill="#666666">[date]</text>
<polygon fill="none" stroke="black" points="43.2,-1751.2 43.2,-1782 346.62,-1782 346.62,-1751.2 43.2,-1751.2"/>
<text text-anchor="start" x="50.2" y="-1763.4" font-family="Arial" font-size="14.00">Digitisation_Booking </text>
<text text-anchor="start" x="180.94" y="-1763.4" font-family="Arial" font-size="14.00" fill="#666666">[tinyint]</text>
<polygon fill="none" stroke="black" points="43.2,-1720.4 43.2,-1751.2 346.62,-1751.2 346.62,-1720.4 43.2,-1720.4"/>
<text text-anchor="start" x="50.2" y="-1732.6" font-family="Arial" font-size="14.00">Fleet_Cycles_Used </text>
<text text-anchor="start" x="175.48" y="-1732.6" font-family="Arial" font-size="14.00" fill="#666666">[int]</text>
<polygon fill="none" stroke="black" points="43.2,-1689.6 43.2,-1720.4 346.62,-1720.4 346.62,-1689.6 43.2,-1689.6"/>
<text text-anchor="start" x="50.2" y="-1701.8" font-family="Arial" font-size="14.00">Consent_Cutoff_Date </text>
<text text-anchor="start" x="188.73" y="-1701.8" font-family="Arial" font-size="14.00" fill="#666666">[date]</text>
<polygon fill="none" stroke="black" points="43.2,-1658.8 43.2,-1689.6 346.62,-1689.6 346.62,-1658.8 43.2,-1658.8"/>
<text text-anchor="start" x="50.2" y="-1671" font-family="Arial" font-size="14.00">Pref_Alt_Delivery_Location </text>
<text text-anchor="start" x="222.96" y="-1671" font-family="Arial" font-size="14.00" fill="#666666">[tinyint]</text>
<polygon fill="none" stroke="black" points="43.2,-1628 43.2,-1658.8 346.62,-1658.8 346.62,-1628 43.2,-1628"/>
<text text-anchor="start" x="50.2" y="-1640.2" font-family="Arial" font-size="14.00">Alt_Delivery_Location </text>
<text text-anchor="start" x="189.5" y="-1640.2" font-family="Arial" font-size="14.00" fill="#666666">[text]</text>
<polygon fill="none" stroke="black" points="43.2,-1597.2 43.2,-1628 346.62,-1628 346.62,-1597.2 43.2,-1597.2"/>
<text text-anchor="start" x="50.2" y="-1609.4" font-family="Arial" font-size="14.00">Notes </text>
<text text-anchor="start" x="90.66" y="-1609.4" font-family="Arial" font-size="14.00" fill="#666666">[text]</text>
<polygon fill="none" stroke="black" points="43.2,-1566.4 43.2,-1597.2 346.62,-1597.2 346.62,-1566.4 43.2,-1566.4"/>
<text text-anchor="start" x="50.2" y="-1578.6" font-family="Arial" font-size="14.00">Instructor_General_Notes </text>
<text text-anchor="start" x="214.39" y="-1578.6" font-family="Arial" font-size="14.00" fill="#666666">[text]</text>
<polygon fill="none" stroke="black" points="43.2,-1535.6 43.2,-1566.4 346.62,-1566.4 346.62,-1535.6 43.2,-1535.6"/>
<text text-anchor="start" x="50.2" y="-1547.8" font-family="Arial" font-size="14.00">Teacher_Notes </text>
<text text-anchor="start" x="149.81" y="-1547.8" font-family="Arial" font-size="14.00" fill="#666666">[text]</text>
<polygon fill="none" stroke="black" points="43.2,-1504.8 43.2,-1535.6 346.62,-1535.6 346.62,-1504.8 43.2,-1504.8"/>
<text text-anchor="start" x="50.2" y="-1517" font-family="Arial" font-size="14.00">School_Contacts </text>
<text text-anchor="start" x="159.93" y="-1517" font-family="Arial" font-size="14.00" fill="#666666">[json]</text>
<polygon fill="none" stroke="black" points="43.2,-1474 43.2,-1504.8 346.62,-1504.8 346.62,-1474 43.2,-1474"/>
<text text-anchor="start" x="50.2" y="-1486.2" font-family="Arial" font-size="14.00">Venue </text>
<text text-anchor="start" x="94.57" y="-1486.2" font-family="Arial" font-size="14.00" fill="#666666">[json]</text>
<polygon fill="none" stroke="black" points="43.2,-1443.2 43.2,-1474 346.62,-1474 346.62,-1443.2 43.2,-1443.2"/>
<text text-anchor="start" x="50.2" y="-1455.4" font-family="Arial" font-size="14.00">Provider_Additional_Questions </text>
<text text-anchor="start" x="246.32" y="-1455.4" font-family="Arial" font-size="14.00" fill="#666666">[json]</text>
<polygon fill="none" stroke="black" points="43.2,-1412.4 43.2,-1443.2 346.62,-1443.2 346.62,-1412.4 43.2,-1412.4"/>
<text text-anchor="start" x="50.2" y="-1424.6" font-family="Arial" font-size="14.00">Comms_Start_Date </text>
<text text-anchor="start" x="177.02" y="-1424.6" font-family="Arial" font-size="14.00" fill="#666666">[date]</text>
<polygon fill="none" stroke="black" points="43.2,-1381.6 43.2,-1412.4 346.62,-1412.4 346.62,-1381.6 43.2,-1381.6"/>
<text text-anchor="start" x="50.2" y="-1393.8" font-family="Arial" font-size="14.00">Date_Completed </text>
<text text-anchor="start" x="159.15" y="-1393.8" font-family="Arial" font-size="14.00" fill="#666666">[date]</text>
<polygon fill="none" stroke="black" points="43.2,-1350.8 43.2,-1381.6 346.62,-1381.6 346.62,-1350.8 43.2,-1350.8"/>
<text text-anchor="start" x="50.2" y="-1363" font-family="Arial" font-size="14.00">Pref_Link_Managed_Consent </text>
<text text-anchor="start" x="239.33" y="-1363" font-family="Arial" font-size="14.00" fill="#666666">[tinyint]</text>
<polygon fill="none" stroke="black" points="43.2,-1320 43.2,-1350.8 346.62,-1350.8 346.62,-1320 43.2,-1320"/>
<text text-anchor="start" x="50.2" y="-1332.2" font-family="Arial" font-size="14.00">Include_Tp_Terms_In_Consent </text>
<text text-anchor="start" x="250.2" y="-1332.2" font-family="Arial" font-size="14.00" fill="#666666">[tinyint]</text>
<polygon fill="none" stroke="black" points="43.2,-1289.2 43.2,-1320 346.62,-1320 346.62,-1289.2 43.2,-1289.2"/>
<text text-anchor="start" x="50.2" y="-1301.4" font-family="Arial" font-size="14.00">Consent_Src_Characteristics </text>
<text text-anchor="start" x="235.39" y="-1301.4" font-family="Arial" font-size="14.00" fill="#666666">[tinyint]</text>
<polygon fill="none" stroke="black" points="43.2,-1258.4 43.2,-1289.2 346.62,-1289.2 346.62,-1258.4 43.2,-1258.4"/>
<text text-anchor="start" x="50.2" y="-1270.6" font-family="Arial" font-size="14.00">Max_Consents </text>
<text text-anchor="start" x="147.47" y="-1270.6" font-family="Arial" font-size="14.00" fill="#666666">[int]</text>
<polygon fill="none" stroke="black" points="43.2,-1227.6 43.2,-1258.4 346.62,-1258.4 346.62,-1227.6 43.2,-1227.6"/>
<text text-anchor="start" x="50.2" y="-1239.8" font-family="Arial" font-size="14.00">Waiting_List_Enabled </text>
<text text-anchor="start" x="189.51" y="-1239.8" font-family="Arial" font-size="14.00" fill="#666666">[tinyint]</text>
</g>
<!-- Dim_Delivery_Header&#45;&gt;Dim_Training_Provider -->
<g id="edge1" class="edge">
<title>Dim_Delivery_Header:Training_Provider_Key&#45;&gt;Dim_Training_Provider:Provider_Key</title>
<path fill="none" stroke="black" d="M357.56,-1917.57C449.57,-1857.65 322.58,-928 429.68,-928"/>
<polygon fill="black" stroke="black" points="357.51,-1917.59 346.63,-1916.2 352.41,-1919.14 348.26,-1920.41 348.26,-1920.41 348.26,-1920.41 352.41,-1919.14 349.26,-1924.81 357.51,-1917.59"/>
<text text-anchor="start" x="354.62" y="-1930.6" font-family="Arial" font-size="10.00">FOREIGN KEY (Training_Provider_Key) REFERENCES Dim_Training_Provider (Provider_Key)</text>
</g>
<!-- Dim_Organisation -->
<g id="node3" class="node">
<title>Dim_Organisation</title>
<polygon fill="#efefef" stroke="none" points="450.68,-1751.2 450.68,-1786.8 723.15,-1786.8 723.15,-1751.2 450.68,-1751.2"/>
<polygon fill="none" stroke="black" points="450.68,-1751.2 450.68,-1786.8 723.15,-1786.8 723.15,-1751.2 450.68,-1751.2"/>
<text text-anchor="start" x="457.68" y="-1764.6" font-family="Arial Bold" font-size="18.00">Dim_Organisation</text>
<text text-anchor="start" x="591.66" y="-1764.6" font-family="Arial" font-size="14.00">    </text>
<text text-anchor="start" x="622.78" y="-1764.6" font-family="Arial" font-size="14.00" fill="#666666">[BASE TABLE]</text>
<polygon fill="none" stroke="black" points="450.68,-1720.4 450.68,-1751.2 723.15,-1751.2 723.15,-1720.4 450.68,-1720.4"/>
<text text-anchor="start" x="457.68" y="-1732.6" font-family="Arial" font-size="14.00">Organisation_Key </text>
<text text-anchor="start" x="572.86" y="-1732.6" font-family="Arial" font-size="14.00" fill="#666666">[bigint unsigned]</text>
<polygon fill="none" stroke="black" points="450.68,-1689.6 450.68,-1720.4 723.15,-1720.4 723.15,-1689.6 450.68,-1689.6"/>
<text text-anchor="start" x="457.68" y="-1701.8" font-family="Arial" font-size="14.00">Source_Organisation_Id </text>
<text text-anchor="start" x="612.55" y="-1701.8" font-family="Arial" font-size="14.00" fill="#666666">[bigint unsigned]</text>
<polygon fill="none" stroke="black" points="450.68,-1658.8 450.68,-1689.6 723.15,-1689.6 723.15,-1658.8 450.68,-1658.8"/>
<text text-anchor="start" x="457.68" y="-1671" font-family="Arial" font-size="14.00">Source_System_Key </text>
<text text-anchor="start" x="592.3" y="-1671" font-family="Arial" font-size="14.00" fill="#666666">[bigint unsigned]</text>
<polygon fill="none" stroke="black" points="450.68,-1628 450.68,-1658.8 723.15,-1658.8 723.15,-1628 450.68,-1628"/>
<text text-anchor="start" x="457.68" y="-1640.2" font-family="Arial" font-size="14.00">Provider_Key </text>
<text text-anchor="start" x="545.61" y="-1640.2" font-family="Arial" font-size="14.00" fill="#666666">[bigint unsigned]</text>
<polygon fill="none" stroke="black" points="450.68,-1597.2 450.68,-1628 723.15,-1628 723.15,-1597.2 450.68,-1597.2"/>
<text text-anchor="start" x="457.68" y="-1609.4" font-family="Arial" font-size="14.00">Organisation_Name </text>
<text text-anchor="start" x="586.08" y="-1609.4" font-family="Arial" font-size="14.00" fill="#666666">[varchar(255)]</text>
</g>
<!-- Dim_Organisation&#45;&gt;Dim_Training_Provider -->
<g id="edge2" class="edge">
<title>Dim_Organisation:Provider_Key&#45;&gt;Dim_Training_Provider:Provider_Key</title>
<path fill="none" stroke="black" d="M731.14,-1635.85C766.11,-1559.39 781.5,-928 744.14,-928"/>
<polygon fill="black" stroke="black" points="731.17,-1635.82 721.07,-1640.1 727.55,-1639.73 724.6,-1642.91 724.6,-1642.91 724.6,-1642.91 727.55,-1639.73 727.68,-1646.21 731.17,-1635.82"/>
<text text-anchor="start" x="532.43" y="-1627.4" font-family="Arial" font-size="10.00">FOREIGN KEY (Provider_Key) REFERENCES Dim_Training_Provider (Provider_Key)</text>
</g>
<!-- Fact_Course_Delivery -->
<g id="node4" class="node">
<title>Fact_Course_Delivery</title>
<polygon fill="#efefef" stroke="none" points="827.62,-2244 827.62,-2279.6 1148.21,-2279.6 1148.21,-2244 827.62,-2244"/>
<polygon fill="none" stroke="black" points="827.62,-2244 827.62,-2279.6 1148.21,-2279.6 1148.21,-2244 827.62,-2244"/>
<text text-anchor="start" x="844.19" y="-2257.4" font-family="Arial Bold" font-size="18.00">Fact_Course_Delivery</text>
<text text-anchor="start" x="1007.15" y="-2257.4" font-family="Arial" font-size="14.00">    </text>
<text text-anchor="start" x="1038.26" y="-2257.4" font-family="Arial" font-size="14.00" fill="#666666">[BASE TABLE]</text>
<polygon fill="none" stroke="black" points="827.62,-2213.2 827.62,-2244 1148.21,-2244 1148.21,-2213.2 827.62,-2213.2"/>
<text text-anchor="start" x="834.62" y="-2225.4" font-family="Arial" font-size="14.00">Delivery_Fact_Key </text>
<text text-anchor="start" x="956" y="-2225.4" font-family="Arial" font-size="14.00" fill="#666666">[bigint unsigned]</text>
<polygon fill="none" stroke="black" points="827.62,-2182.4 827.62,-2213.2 1148.21,-2213.2 1148.21,-2182.4 827.62,-2182.4"/>
<text text-anchor="start" x="834.62" y="-2194.6" font-family="Arial" font-size="14.00">Date_Key </text>
<text text-anchor="start" x="899.99" y="-2194.6" font-family="Arial" font-size="14.00" fill="#666666">[int]</text>
<polygon fill="none" stroke="black" points="827.62,-2151.6 827.62,-2182.4 1148.21,-2182.4 1148.21,-2151.6 827.62,-2151.6"/>
<text text-anchor="start" x="834.62" y="-2163.8" font-family="Arial" font-size="14.00">Delivery_Key </text>
<text text-anchor="start" x="920.98" y="-2163.8" font-family="Arial" font-size="14.00" fill="#666666">[bigint unsigned]</text>
<polygon fill="none" stroke="black" points="827.62,-2120.8 827.62,-2151.6 1148.21,-2151.6 1148.21,-2120.8 827.62,-2120.8"/>
<text text-anchor="start" x="834.62" y="-2133" font-family="Arial" font-size="14.00">School_Key </text>
<text text-anchor="start" x="913.22" y="-2133" font-family="Arial" font-size="14.00" fill="#666666">[bigint unsigned]</text>
<polygon fill="none" stroke="black" points="827.62,-2090 827.62,-2120.8 1148.21,-2120.8 1148.21,-2090 827.62,-2090"/>
<text text-anchor="start" x="834.62" y="-2102.2" font-family="Arial" font-size="14.00">Organisation_Key </text>
<text text-anchor="start" x="949.8" y="-2102.2" font-family="Arial" font-size="14.00" fill="#666666">[bigint unsigned]</text>
<polygon fill="none" stroke="black" points="827.62,-2059.2 827.62,-2090 1148.21,-2090 1148.21,-2059.2 827.62,-2059.2"/>
<text text-anchor="start" x="834.62" y="-2071.4" font-family="Arial" font-size="14.00">Course_Key </text>
<text text-anchor="start" x="915.55" y="-2071.4" font-family="Arial" font-size="14.00" fill="#666666">[bigint unsigned]</text>
<polygon fill="none" stroke="black" points="827.62,-2028.4 827.62,-2059.2 1148.21,-2059.2 1148.21,-2028.4 827.62,-2028.4"/>
<text text-anchor="start" x="834.62" y="-2040.6" font-family="Arial" font-size="14.00">Provider_Key </text>
<text text-anchor="start" x="922.55" y="-2040.6" font-family="Arial" font-size="14.00" fill="#666666">[bigint unsigned]</text>
<polygon fill="none" stroke="black" points="827.62,-1997.6 827.62,-2028.4 1148.21,-2028.4 1148.21,-1997.6 827.62,-1997.6"/>
<text text-anchor="start" x="834.62" y="-2009.8" font-family="Arial" font-size="14.00">Grant_Key </text>
<text text-anchor="start" x="905.43" y="-2009.8" font-family="Arial" font-size="14.00" fill="#666666">[bigint unsigned]</text>
<polygon fill="none" stroke="black" points="827.62,-1966.8 827.62,-1997.6 1148.21,-1997.6 1148.21,-1966.8 827.62,-1966.8"/>
<text text-anchor="start" x="834.62" y="-1979" font-family="Arial" font-size="14.00">Riders_Enrolled_Count </text>
<text text-anchor="start" x="983.26" y="-1979" font-family="Arial" font-size="14.00" fill="#666666">[int]</text>
<polygon fill="none" stroke="black" points="827.62,-1936 827.62,-1966.8 1148.21,-1966.8 1148.21,-1936 827.62,-1936"/>
<text text-anchor="start" x="834.62" y="-1948.2" font-family="Arial" font-size="14.00">Riders_Completed_Count </text>
<text text-anchor="start" x="999.6" y="-1948.2" font-family="Arial" font-size="14.00" fill="#666666">[int]</text>
<polygon fill="none" stroke="black" points="827.62,-1905.2 827.62,-1936 1148.21,-1936 1148.21,-1905.2 827.62,-1905.2"/>
<text text-anchor="start" x="834.62" y="-1917.4" font-family="Arial" font-size="14.00">Count_Booked_Provisional </text>
<text text-anchor="start" x="1007.39" y="-1917.4" font-family="Arial" font-size="14.00" fill="#666666">[int]</text>
<polygon fill="none" stroke="black" points="827.62,-1874.4 827.62,-1905.2 1148.21,-1905.2 1148.21,-1874.4 827.62,-1874.4"/>
<text text-anchor="start" x="834.62" y="-1886.6" font-family="Arial" font-size="14.00">Count_Booked_Confirmed </text>
<text text-anchor="start" x="1003.5" y="-1886.6" font-family="Arial" font-size="14.00" fill="#666666">[int]</text>
<polygon fill="none" stroke="black" points="827.62,-1843.6 827.62,-1874.4 1148.21,-1874.4 1148.21,-1843.6 827.62,-1843.6"/>
<text text-anchor="start" x="834.62" y="-1855.8" font-family="Arial" font-size="14.00">Count_Attended_Confirmed </text>
<text text-anchor="start" x="1012.06" y="-1855.8" font-family="Arial" font-size="14.00" fill="#666666">[int]</text>
<polygon fill="none" stroke="black" points="827.62,-1812.8 827.62,-1843.6 1148.21,-1843.6 1148.21,-1812.8 827.62,-1812.8"/>
<text text-anchor="start" x="834.62" y="-1825" font-family="Arial" font-size="14.00">Count_Female </text>
<text text-anchor="start" x="930.33" y="-1825" font-family="Arial" font-size="14.00" fill="#666666">[int]</text>
<polygon fill="none" stroke="black" points="827.62,-1782 827.62,-1812.8 1148.21,-1812.8 1148.21,-1782 827.62,-1782"/>
<text text-anchor="start" x="834.62" y="-1794.2" font-family="Arial" font-size="14.00">Count_Male </text>
<text text-anchor="start" x="914" y="-1794.2" font-family="Arial" font-size="14.00" fill="#666666">[int]</text>
<polygon fill="none" stroke="black" points="827.62,-1751.2 827.62,-1782 1148.21,-1782 1148.21,-1751.2 827.62,-1751.2"/>
<text text-anchor="start" x="834.62" y="-1763.4" font-family="Arial" font-size="14.00">Count_Gender_Other </text>
<text text-anchor="start" x="973.15" y="-1763.4" font-family="Arial" font-size="14.00" fill="#666666">[int]</text>
<polygon fill="none" stroke="black" points="827.62,-1720.4 827.62,-1751.2 1148.21,-1751.2 1148.21,-1720.4 827.62,-1720.4"/>
<text text-anchor="start" x="834.62" y="-1732.6" font-family="Arial" font-size="14.00">Count_Pupil_Premium </text>
<text text-anchor="start" x="978.57" y="-1732.6" font-family="Arial" font-size="14.00" fill="#666666">[int]</text>
<polygon fill="none" stroke="black" points="827.62,-1689.6 827.62,-1720.4 1148.21,-1720.4 1148.21,-1689.6 827.62,-1689.6"/>
<text text-anchor="start" x="834.62" y="-1701.8" font-family="Arial" font-size="14.00">Count_SEND </text>
<text text-anchor="start" x="922.55" y="-1701.8" font-family="Arial" font-size="14.00" fill="#666666">[int]</text>
<polygon fill="none" stroke="black" points="827.62,-1658.8 827.62,-1689.6 1148.21,-1689.6 1148.21,-1658.8 827.62,-1658.8"/>
<text text-anchor="start" x="834.62" y="-1671" font-family="Arial" font-size="14.00">Count_Ethnicity_White_British </text>
<text text-anchor="start" x="1026.82" y="-1671" font-family="Arial" font-size="14.00" fill="#666666">[int]</text>
<polygon fill="none" stroke="black" points="827.62,-1628 827.62,-1658.8 1148.21,-1658.8 1148.21,-1628 827.62,-1628"/>
<text text-anchor="start" x="834.62" y="-1640.2" font-family="Arial" font-size="14.00">Count_Ethnicity_White_Irish </text>
<text text-anchor="start" x="1014.37" y="-1640.2" font-family="Arial" font-size="14.00" fill="#666666">[int]</text>
<polygon fill="none" stroke="black" points="827.62,-1597.2 827.62,-1628 1148.21,-1628 1148.21,-1597.2 827.62,-1597.2"/>
<text text-anchor="start" x="834.62" y="-1609.4" font-family="Arial" font-size="14.00">Count_Ethnicity_Gypsy_Romany </text>
<text text-anchor="start" x="1043.94" y="-1609.4" font-family="Arial" font-size="14.00" fill="#666666">[int]</text>
<polygon fill="none" stroke="black" points="827.62,-1566.4 827.62,-1597.2 1148.21,-1597.2 1148.21,-1566.4 827.62,-1566.4"/>
<text text-anchor="start" x="834.62" y="-1578.6" font-family="Arial" font-size="14.00">Count_Ethnicity_White_Other </text>
<text text-anchor="start" x="1022.93" y="-1578.6" font-family="Arial" font-size="14.00" fill="#666666">[int]</text>
<polygon fill="none" stroke="black" points="827.62,-1535.6 827.62,-1566.4 1148.21,-1566.4 1148.21,-1535.6 827.62,-1535.6"/>
<text text-anchor="start" x="834.62" y="-1547.8" font-family="Arial" font-size="14.00">Count_Ethnicity_Mixed_White_Black_Carib </text>
<text text-anchor="start" x="1108.53" y="-1547.8" font-family="Arial" font-size="14.00" fill="#666666">[int]</text>
<polygon fill="none" stroke="black" points="827.62,-1504.8 827.62,-1535.6 1148.21,-1535.6 1148.21,-1504.8 827.62,-1504.8"/>
<text text-anchor="start" x="834.62" y="-1517" font-family="Arial" font-size="14.00">Count_Ethnicity_Mixed_White_Black_African </text>
<text text-anchor="start" x="1118.64" y="-1517" font-family="Arial" font-size="14.00" fill="#666666">[int]</text>
<polygon fill="none" stroke="black" points="827.62,-1474 827.62,-1504.8 1148.21,-1504.8 1148.21,-1474 827.62,-1474"/>
<text text-anchor="start" x="834.62" y="-1486.2" font-family="Arial" font-size="14.00">Count_Ethnicity_Mixed_White_Asian </text>
<text text-anchor="start" x="1068.07" y="-1486.2" font-family="Arial" font-size="14.00" fill="#666666">[int]</text>
<polygon fill="none" stroke="black" points="827.62,-1443.2 827.62,-1474 1148.21,-1474 1148.21,-1443.2 827.62,-1443.2"/>
<text text-anchor="start" x="834.62" y="-1455.4" font-family="Arial" font-size="14.00">Count_Ethnicity_Mixed_Other </text>
<text text-anchor="start" x="1024.49" y="-1455.4" font-family="Arial" font-size="14.00" fill="#666666">[int]</text>
<polygon fill="none" stroke="black" points="827.62,-1412.4 827.62,-1443.2 1148.21,-1443.2 1148.21,-1412.4 827.62,-1412.4"/>
<text text-anchor="start" x="834.62" y="-1424.6" font-family="Arial" font-size="14.00">Count_Ethnicity_Asian_Indian </text>
<text text-anchor="start" x="1025.3" y="-1424.6" font-family="Arial" font-size="14.00" fill="#666666">[int]</text>
<polygon fill="none" stroke="black" points="827.62,-1381.6 827.62,-1412.4 1148.21,-1412.4 1148.21,-1381.6 827.62,-1381.6"/>
<text text-anchor="start" x="834.62" y="-1393.8" font-family="Arial" font-size="14.00">Count_Ethnicity_Asian_Pakistani </text>
<text text-anchor="start" x="1043.96" y="-1393.8" font-family="Arial" font-size="14.00" fill="#666666">[int]</text>
<polygon fill="none" stroke="black" points="827.62,-1350.8 827.62,-1381.6 1148.21,-1381.6 1148.21,-1350.8 827.62,-1350.8"/>
<text text-anchor="start" x="834.62" y="-1363" font-family="Arial" font-size="14.00">Count_Ethnicity_Asian_Bangladeshi </text>
<text text-anchor="start" x="1064.22" y="-1363" font-family="Arial" font-size="14.00" fill="#666666">[int]</text>
<polygon fill="none" stroke="black" points="827.62,-1320 827.62,-1350.8 1148.21,-1350.8 1148.21,-1320 827.62,-1320"/>
<text text-anchor="start" x="834.62" y="-1332.2" font-family="Arial" font-size="14.00">Count_Ethnicity_Asian_Chinese </text>
<text text-anchor="start" x="1038.52" y="-1332.2" font-family="Arial" font-size="14.00" fill="#666666">[int]</text>
<polygon fill="none" stroke="black" points="827.62,-1289.2 827.62,-1320 1148.21,-1320 1148.21,-1289.2 827.62,-1289.2"/>
<text text-anchor="start" x="834.62" y="-1301.4" font-family="Arial" font-size="14.00">Count_Ethnicity_Asian_Other </text>
<text text-anchor="start" x="1022.17" y="-1301.4" font-family="Arial" font-size="14.00" fill="#666666">[int]</text>
<polygon fill="none" stroke="black" points="827.62,-1258.4 827.62,-1289.2 1148.21,-1289.2 1148.21,-1258.4 827.62,-1258.4"/>
<text text-anchor="start" x="834.62" y="-1270.6" font-family="Arial" font-size="14.00">Count_Ethnicity_Black_African </text>
<text text-anchor="start" x="1029.94" y="-1270.6" font-family="Arial" font-size="14.00" fill="#666666">[int]</text>
<polygon fill="none" stroke="black" points="827.62,-1227.6 827.62,-1258.4 1148.21,-1258.4 1148.21,-1227.6 827.62,-1227.6"/>
<text text-anchor="start" x="834.62" y="-1239.8" font-family="Arial" font-size="14.00">Count_Ethnicity_Black_Caribbean </text>
<text text-anchor="start" x="1050.97" y="-1239.8" font-family="Arial" font-size="14.00" fill="#666666">[int]</text>
<polygon fill="none" stroke="black" points="827.62,-1196.8 827.62,-1227.6 1148.21,-1227.6 1148.21,-1196.8 827.62,-1196.8"/>
<text text-anchor="start" x="834.62" y="-1209" font-family="Arial" font-size="14.00">Count_Ethnicity_Black_Other </text>
<text text-anchor="start" x="1021.38" y="-1209" font-family="Arial" font-size="14.00" fill="#666666">[int]</text>
<polygon fill="none" stroke="black" points="827.62,-1166 827.62,-1196.8 1148.21,-1196.8 1148.21,-1166 827.62,-1166"/>
<text text-anchor="start" x="834.62" y="-1178.2" font-family="Arial" font-size="14.00">Count_Ethnicity_Other_Arab </text>
<text text-anchor="start" x="1016.72" y="-1178.2" font-family="Arial" font-size="14.00" fill="#666666">[int]</text>
<polygon fill="none" stroke="black" points="827.62,-1135.2 827.62,-1166 1148.21,-1166 1148.21,-1135.2 827.62,-1135.2"/>
<text text-anchor="start" x="834.62" y="-1147.4" font-family="Arial" font-size="14.00">Count_Ethnicity_Other_Any </text>
<text text-anchor="start" x="1011.27" y="-1147.4" font-family="Arial" font-size="14.00" fill="#666666">[int]</text>
<polygon fill="none" stroke="black" points="827.62,-1104.4 827.62,-1135.2 1148.21,-1135.2 1148.21,-1104.4 827.62,-1104.4"/>
<text text-anchor="start" x="834.62" y="-1116.6" font-family="Arial" font-size="14.00">Count_Ethnicity_Not_Stated </text>
<text text-anchor="start" x="1014.39" y="-1116.6" font-family="Arial" font-size="14.00" fill="#666666">[int]</text>
</g>
<!-- Fact_Course_Delivery&#45;&gt;Dim_Training_Provider -->
<g id="edge3" class="edge">
<title>Fact_Course_Delivery:Provider_Key&#45;&gt;Dim_Training_Provider:Provider_Key</title>
<path fill="none" stroke="black" d="M816.74,-2041.17C711.48,-1981.5 864.94,-928 744.14,-928"/>
<polygon fill="black" stroke="black" points="816.63,-2041.14 825.13,-2048.06 821.79,-2042.51 825.97,-2043.63 825.97,-2043.63 825.97,-2043.63 821.79,-2042.51 827.45,-2039.37 816.63,-2041.14"/>
<text text-anchor="start" x="436.17" y="-2053.8" font-family="Arial" font-size="10.00">FOREIGN KEY (Provider_Key) REFERENCES Dim_Training_Provider (Provider_Key)</text>
</g>
</g>
</svg>
