<?xml version="1.0" encoding="UTF-8" standalone="no"?>
<!DOCTYPE svg PUBLIC "-//W3C//DTD SVG 1.1//EN"
 "http://www.w3.org/Graphics/SVG/1.1/DTD/svg11.dtd">
<!-- Generated by graphviz version 12.1.2 (20240928.0832)
 -->
<!-- Title: Dim_Instructor Pages: 1 -->
<svg width="423pt" height="1368pt"
 viewBox="0.00 0.00 422.59 1368.00" xmlns="http://www.w3.org/2000/svg" xmlns:xlink="http://www.w3.org/1999/xlink">
<g id="graph0" class="graph" transform="scale(1 1) rotate(0) translate(4 1364)">
<title>Dim_Instructor</title>
<polygon fill="white" stroke="none" points="-4,4 -4,-1364 418.59,-1364 418.59,4 -4,4"/>
<!-- Dim_Instructor -->
<g id="node1" class="node">
<title>Dim_Instructor</title>
<polygon fill="#efefef" stroke="none" points="46.2,-1278.2 46.2,-1313.8 368.39,-1313.8 368.39,-1278.2 46.2,-1278.2"/>
<polygon fill="none" stroke="black" points="46.2,-1278.2 46.2,-1313.8 368.39,-1313.8 368.39,-1278.2 46.2,-1278.2"/>
<text text-anchor="start" x="89.56" y="-1291.6" font-family="Arial Bold" font-size="18.00">Dim_Instructor</text>
<text text-anchor="start" x="200.54" y="-1291.6" font-family="Arial" font-size="14.00">    </text>
<text text-anchor="start" x="231.66" y="-1291.6" font-family="Arial" font-size="14.00" fill="#666666">[BASE TABLE]</text>
<polygon fill="none" stroke="black" points="46.2,-1247.4 46.2,-1278.2 368.39,-1278.2 368.39,-1247.4 46.2,-1247.4"/>
<text text-anchor="start" x="53.2" y="-1259.6" font-family="Arial" font-size="14.00">Instructor_Key </text>
<text text-anchor="start" x="147.35" y="-1259.6" font-family="Arial" font-size="14.00" fill="#666666">[bigint unsigned]</text>
<polygon fill="none" stroke="black" points="46.2,-1216.6 46.2,-1247.4 368.39,-1247.4 368.39,-1216.6 46.2,-1216.6"/>
<text text-anchor="start" x="53.2" y="-1228.8" font-family="Arial" font-size="14.00">Source_Instructor_Id </text>
<text text-anchor="start" x="187.05" y="-1228.8" font-family="Arial" font-size="14.00" fill="#666666">[bigint unsigned]</text>
<polygon fill="none" stroke="black" points="46.2,-1185.8 46.2,-1216.6 368.39,-1216.6 368.39,-1185.8 46.2,-1185.8"/>
<text text-anchor="start" x="53.2" y="-1198" font-family="Arial" font-size="14.00">Source_System_Key </text>
<text text-anchor="start" x="187.82" y="-1198" font-family="Arial" font-size="14.00" fill="#666666">[int]</text>
<polygon fill="none" stroke="black" points="46.2,-1155 46.2,-1185.8 368.39,-1185.8 368.39,-1155 46.2,-1155"/>
<text text-anchor="start" x="53.2" y="-1167.2" font-family="Arial" font-size="14.00">Instructor_Number </text>
<text text-anchor="start" x="173.02" y="-1167.2" font-family="Arial" font-size="14.00" fill="#666666">[int unsigned]</text>
<polygon fill="none" stroke="black" points="46.2,-1124.2 46.2,-1155 368.39,-1155 368.39,-1124.2 46.2,-1124.2"/>
<text text-anchor="start" x="53.2" y="-1136.4" font-family="Arial" font-size="14.00">Instructor_Type </text>
<text text-anchor="start" x="154.35" y="-1136.4" font-family="Arial" font-size="14.00" fill="#666666">[varchar(255)]</text>
<polygon fill="none" stroke="black" points="46.2,-1093.4 46.2,-1124.2 368.39,-1124.2 368.39,-1093.4 46.2,-1093.4"/>
<text text-anchor="start" x="53.2" y="-1105.6" font-family="Arial" font-size="14.00">First_Name </text>
<text text-anchor="start" x="129.43" y="-1105.6" font-family="Arial" font-size="14.00" fill="#666666">[varchar(255)]</text>
<polygon fill="none" stroke="black" points="46.2,-1062.6 46.2,-1093.4 368.39,-1093.4 368.39,-1062.6 46.2,-1062.6"/>
<text text-anchor="start" x="53.2" y="-1074.8" font-family="Arial" font-size="14.00">Last_Name </text>
<text text-anchor="start" x="128.68" y="-1074.8" font-family="Arial" font-size="14.00" fill="#666666">[varchar(255)]</text>
<polygon fill="none" stroke="black" points="46.2,-1031.8 46.2,-1062.6 368.39,-1062.6 368.39,-1031.8 46.2,-1031.8"/>
<text text-anchor="start" x="53.2" y="-1044" font-family="Arial" font-size="14.00">Email </text>
<text text-anchor="start" x="92.1" y="-1044" font-family="Arial" font-size="14.00" fill="#666666">[varchar(255)]</text>
<polygon fill="none" stroke="black" points="46.2,-1001 46.2,-1031.8 368.39,-1031.8 368.39,-1001 46.2,-1001"/>
<text text-anchor="start" x="53.2" y="-1013.2" font-family="Arial" font-size="14.00">Telephone </text>
<text text-anchor="start" x="123.25" y="-1013.2" font-family="Arial" font-size="14.00" fill="#666666">[varchar(255)]</text>
<polygon fill="none" stroke="black" points="46.2,-970.2 46.2,-1001 368.39,-1001 368.39,-970.2 46.2,-970.2"/>
<text text-anchor="start" x="53.2" y="-982.4" font-family="Arial" font-size="14.00">Landline </text>
<text text-anchor="start" x="110.03" y="-982.4" font-family="Arial" font-size="14.00" fill="#666666">[varchar(255)]</text>
<polygon fill="none" stroke="black" points="46.2,-939.4 46.2,-970.2 368.39,-970.2 368.39,-939.4 46.2,-939.4"/>
<text text-anchor="start" x="53.2" y="-951.6" font-family="Arial" font-size="14.00">Age_Range_Id </text>
<text text-anchor="start" x="150.5" y="-951.6" font-family="Arial" font-size="14.00" fill="#666666">[bigint unsigned]</text>
<polygon fill="none" stroke="black" points="46.2,-908.6 46.2,-939.4 368.39,-939.4 368.39,-908.6 46.2,-908.6"/>
<text text-anchor="start" x="53.2" y="-920.8" font-family="Arial" font-size="14.00">Ethnicity_Id </text>
<text text-anchor="start" x="129.46" y="-920.8" font-family="Arial" font-size="14.00" fill="#666666">[bigint unsigned]</text>
<polygon fill="none" stroke="black" points="46.2,-877.8 46.2,-908.6 368.39,-908.6 368.39,-877.8 46.2,-877.8"/>
<text text-anchor="start" x="53.2" y="-890" font-family="Arial" font-size="14.00">Gender_Id </text>
<text text-anchor="start" x="123.25" y="-890" font-family="Arial" font-size="14.00" fill="#666666">[bigint unsigned]</text>
<polygon fill="none" stroke="black" points="46.2,-847 46.2,-877.8 368.39,-877.8 368.39,-847 46.2,-847"/>
<text text-anchor="start" x="53.2" y="-859.2" font-family="Arial" font-size="14.00">Title_Id </text>
<text text-anchor="start" x="103" y="-859.2" font-family="Arial" font-size="14.00" fill="#666666">[bigint unsigned]</text>
<polygon fill="none" stroke="black" points="46.2,-816.2 46.2,-847 368.39,-847 368.39,-816.2 46.2,-816.2"/>
<text text-anchor="start" x="53.2" y="-828.4" font-family="Arial" font-size="14.00">Address_01 </text>
<text text-anchor="start" x="131.81" y="-828.4" font-family="Arial" font-size="14.00" fill="#666666">[varchar(255)]</text>
<polygon fill="none" stroke="black" points="46.2,-785.4 46.2,-816.2 368.39,-816.2 368.39,-785.4 46.2,-785.4"/>
<text text-anchor="start" x="53.2" y="-797.6" font-family="Arial" font-size="14.00">Address_02 </text>
<text text-anchor="start" x="131.81" y="-797.6" font-family="Arial" font-size="14.00" fill="#666666">[varchar(255)]</text>
<polygon fill="none" stroke="black" points="46.2,-754.6 46.2,-785.4 368.39,-785.4 368.39,-754.6 46.2,-754.6"/>
<text text-anchor="start" x="53.2" y="-766.8" font-family="Arial" font-size="14.00">City </text>
<text text-anchor="start" x="81.2" y="-766.8" font-family="Arial" font-size="14.00" fill="#666666">[varchar(255)]</text>
<polygon fill="none" stroke="black" points="46.2,-723.8 46.2,-754.6 368.39,-754.6 368.39,-723.8 46.2,-723.8"/>
<text text-anchor="start" x="53.2" y="-736" font-family="Arial" font-size="14.00">Postcode </text>
<text text-anchor="start" x="115.46" y="-736" font-family="Arial" font-size="14.00" fill="#666666">[varchar(255)]</text>
<polygon fill="none" stroke="black" points="46.2,-693 46.2,-723.8 368.39,-723.8 368.39,-693 46.2,-693"/>
<text text-anchor="start" x="53.2" y="-705.2" font-family="Arial" font-size="14.00">Status_Raw </text>
<text text-anchor="start" x="132.57" y="-705.2" font-family="Arial" font-size="14.00" fill="#666666">[tinyint]</text>
<polygon fill="none" stroke="black" points="46.2,-662.2 46.2,-693 368.39,-693 368.39,-662.2 46.2,-662.2"/>
<text text-anchor="start" x="53.2" y="-674.4" font-family="Arial" font-size="14.00">Is_Pending </text>
<text text-anchor="start" x="127.14" y="-674.4" font-family="Arial" font-size="14.00" fill="#666666">[tinyint(1)]</text>
<polygon fill="none" stroke="black" points="46.2,-631.4 46.2,-662.2 368.39,-662.2 368.39,-631.4 46.2,-631.4"/>
<text text-anchor="start" x="53.2" y="-643.6" font-family="Arial" font-size="14.00">Flag_Nsi_Migrated </text>
<text text-anchor="start" x="174.59" y="-643.6" font-family="Arial" font-size="14.00" fill="#666666">[tinyint(1)]</text>
<polygon fill="none" stroke="black" points="46.2,-600.6 46.2,-631.4 368.39,-631.4 368.39,-600.6 46.2,-600.6"/>
<text text-anchor="start" x="53.2" y="-612.8" font-family="Arial" font-size="14.00">Pref_Receive_News </text>
<text text-anchor="start" x="183.92" y="-612.8" font-family="Arial" font-size="14.00" fill="#666666">[tinyint(1)]</text>
<polygon fill="none" stroke="black" points="46.2,-569.8 46.2,-600.6 368.39,-600.6 368.39,-569.8 46.2,-569.8"/>
<text text-anchor="start" x="53.2" y="-582" font-family="Arial" font-size="14.00">Pref_Delivering_Bikeability </text>
<text text-anchor="start" x="223.61" y="-582" font-family="Arial" font-size="14.00" fill="#666666">[tinyint(1)]</text>
<polygon fill="none" stroke="black" points="46.2,-539 46.2,-569.8 368.39,-569.8 368.39,-539 46.2,-539"/>
<text text-anchor="start" x="53.2" y="-551.2" font-family="Arial" font-size="14.00">Pref_Delivering_Other </text>
<text text-anchor="start" x="195.6" y="-551.2" font-family="Arial" font-size="14.00" fill="#666666">[tinyint(1)]</text>
<polygon fill="none" stroke="black" points="46.2,-508.2 46.2,-539 368.39,-539 368.39,-508.2 46.2,-508.2"/>
<text text-anchor="start" x="53.2" y="-520.4" font-family="Arial" font-size="14.00">Pref_Bursary_Eligibility </text>
<text text-anchor="start" x="201.03" y="-520.4" font-family="Arial" font-size="14.00" fill="#666666">[tinyint(1)]</text>
<polygon fill="none" stroke="black" points="46.2,-477.4 46.2,-508.2 368.39,-508.2 368.39,-477.4 46.2,-477.4"/>
<text text-anchor="start" x="53.2" y="-489.6" font-family="Arial" font-size="14.00">Has_Received_Bursary </text>
<text text-anchor="start" x="204.16" y="-489.6" font-family="Arial" font-size="14.00" fill="#666666">[tinyint(1)]</text>
<polygon fill="none" stroke="black" points="46.2,-446.6 46.2,-477.4 368.39,-477.4 368.39,-446.6 46.2,-446.6"/>
<text text-anchor="start" x="53.2" y="-458.8" font-family="Arial" font-size="14.00">Date_Registered </text>
<text text-anchor="start" x="162.15" y="-458.8" font-family="Arial" font-size="14.00" fill="#666666">[date]</text>
<polygon fill="none" stroke="black" points="46.2,-415.8 46.2,-446.6 368.39,-446.6 368.39,-415.8 46.2,-415.8"/>
<text text-anchor="start" x="53.2" y="-428" font-family="Arial" font-size="14.00">Date_Renewal </text>
<text text-anchor="start" x="148.92" y="-428" font-family="Arial" font-size="14.00" fill="#666666">[date]</text>
<polygon fill="none" stroke="black" points="46.2,-385 46.2,-415.8 368.39,-415.8 368.39,-385 46.2,-385"/>
<text text-anchor="start" x="53.2" y="-397.2" font-family="Arial" font-size="14.00">Date_Deregistered </text>
<text text-anchor="start" x="174.6" y="-397.2" font-family="Arial" font-size="14.00" fill="#666666">[date]</text>
<polygon fill="none" stroke="black" points="46.2,-354.2 46.2,-385 368.39,-385 368.39,-354.2 46.2,-354.2"/>
<text text-anchor="start" x="53.2" y="-366.4" font-family="Arial" font-size="14.00">Deregistration_Reason </text>
<text text-anchor="start" x="200.28" y="-366.4" font-family="Arial" font-size="14.00" fill="#666666">[text]</text>
<polygon fill="none" stroke="black" points="46.2,-323.4 46.2,-354.2 368.39,-354.2 368.39,-323.4 46.2,-323.4"/>
<text text-anchor="start" x="53.2" y="-335.6" font-family="Arial" font-size="14.00">First_Aid_Training_Complete_Date </text>
<text text-anchor="start" x="275.75" y="-335.6" font-family="Arial" font-size="14.00" fill="#666666">[date]</text>
<polygon fill="none" stroke="black" points="46.2,-292.6 46.2,-323.4 368.39,-323.4 368.39,-292.6 46.2,-292.6"/>
<text text-anchor="start" x="53.2" y="-304.8" font-family="Arial" font-size="14.00">Safeguarding_Training_Complete_Date </text>
<text text-anchor="start" x="303.81" y="-304.8" font-family="Arial" font-size="14.00" fill="#666666">[date]</text>
<polygon fill="none" stroke="black" points="46.2,-261.8 46.2,-292.6 368.39,-292.6 368.39,-261.8 46.2,-261.8"/>
<text text-anchor="start" x="53.2" y="-274" font-family="Arial" font-size="14.00">Send_Training_Complete_Date </text>
<text text-anchor="start" x="253.21" y="-274" font-family="Arial" font-size="14.00" fill="#666666">[date]</text>
<polygon fill="none" stroke="black" points="46.2,-231 46.2,-261.8 368.39,-261.8 368.39,-231 46.2,-231"/>
<text text-anchor="start" x="53.2" y="-243.2" font-family="Arial" font-size="14.00">Send_Training_Overridden </text>
<text text-anchor="start" x="225.19" y="-243.2" font-family="Arial" font-size="14.00" fill="#666666">[tinyint(1)]</text>
<polygon fill="none" stroke="black" points="46.2,-200.2 46.2,-231 368.39,-231 368.39,-200.2 46.2,-200.2"/>
<text text-anchor="start" x="53.2" y="-212.4" font-family="Arial" font-size="14.00">Send_Training_Certificate_Download_Date </text>
<text text-anchor="start" x="326.36" y="-212.4" font-family="Arial" font-size="14.00" fill="#666666">[date]</text>
<polygon fill="none" stroke="black" points="46.2,-169.4 46.2,-200.2 368.39,-200.2 368.39,-169.4 46.2,-169.4"/>
<text text-anchor="start" x="53.2" y="-181.6" font-family="Arial" font-size="14.00">Account_Notes </text>
<text text-anchor="start" x="152.03" y="-181.6" font-family="Arial" font-size="14.00" fill="#666666">[text]</text>
<polygon fill="none" stroke="black" points="46.2,-138.6 46.2,-169.4 368.39,-169.4 368.39,-138.6 46.2,-138.6"/>
<text text-anchor="start" x="53.2" y="-150.8" font-family="Arial" font-size="14.00">Source_Created_At </text>
<text text-anchor="start" x="180.05" y="-150.8" font-family="Arial" font-size="14.00" fill="#666666">[timestamp]</text>
<polygon fill="none" stroke="black" points="46.2,-107.8 46.2,-138.6 368.39,-138.6 368.39,-107.8 46.2,-107.8"/>
<text text-anchor="start" x="53.2" y="-120" font-family="Arial" font-size="14.00">Source_Updated_At </text>
<text text-anchor="start" x="183.18" y="-120" font-family="Arial" font-size="14.00" fill="#666666">[timestamp]</text>
<polygon fill="none" stroke="black" points="46.2,-77 46.2,-107.8 368.39,-107.8 368.39,-77 46.2,-77"/>
<text text-anchor="start" x="53.2" y="-89.2" font-family="Arial" font-size="14.00">created_at </text>
<text text-anchor="start" x="123.25" y="-89.2" font-family="Arial" font-size="14.00" fill="#666666">[timestamp]</text>
<polygon fill="none" stroke="black" points="46.2,-46.2 46.2,-77 368.39,-77 368.39,-46.2 46.2,-46.2"/>
<text text-anchor="start" x="53.2" y="-58.4" font-family="Arial" font-size="14.00">updated_at </text>
<text text-anchor="start" x="127.16" y="-58.4" font-family="Arial" font-size="14.00" fill="#666666">[timestamp]</text>
<polygon fill="none" stroke="black" stroke-width="3" points="44.7,-44.7 44.7,-1315.3 369.89,-1315.3 369.89,-44.7 44.7,-44.7"/>
</g>
</g>
</svg>
