<?xml version="1.0" encoding="UTF-8" standalone="no"?>
<!DOCTYPE svg PUBLIC "-//W3C//DTD SVG 1.1//EN"
 "http://www.w3.org/Graphics/SVG/1.1/DTD/svg11.dtd">
<!-- Generated by graphviz version 12.1.2 (20240928.0832)
 -->
<!-- Title: Dim_Date Pages: 1 -->
<svg width="1259pt" height="2481pt"
 viewBox="0.00 0.00 1259.28 2480.80" xmlns="http://www.w3.org/2000/svg" xmlns:xlink="http://www.w3.org/1999/xlink">
<g id="graph0" class="graph" transform="scale(1 1) rotate(0) translate(4 2476.8)">
<title>Dim_Date</title>
<polygon fill="white" stroke="none" points="-4,4 -4,-2476.8 1255.28,-2476.8 1255.28,4 -4,4"/>
<!-- Dim_Date -->
<g id="node1" class="node">
<title>Dim_Date</title>
<polygon fill="#efefef" stroke="none" points="514.76,-292.6 514.76,-328.2 728.23,-328.2 728.23,-292.6 514.76,-292.6"/>
<polygon fill="none" stroke="black" points="514.76,-292.6 514.76,-328.2 728.23,-328.2 728.23,-292.6 514.76,-292.6"/>
<text text-anchor="start" x="521.76" y="-306" font-family="Arial Bold" font-size="18.00">Dim_Date</text>
<text text-anchor="start" x="596.74" y="-306" font-family="Arial" font-size="14.00">    </text>
<text text-anchor="start" x="627.86" y="-306" font-family="Arial" font-size="14.00" fill="#666666">[BASE TABLE]</text>
<polygon fill="none" stroke="black" points="514.76,-261.8 514.76,-292.6 728.23,-292.6 728.23,-261.8 514.76,-261.8"/>
<text text-anchor="start" x="521.76" y="-274" font-family="Arial" font-size="14.00">Date_Key </text>
<text text-anchor="start" x="587.13" y="-274" font-family="Arial" font-size="14.00" fill="#666666">[int]</text>
<polygon fill="none" stroke="black" points="514.76,-231 514.76,-261.8 728.23,-261.8 728.23,-231 514.76,-231"/>
<text text-anchor="start" x="521.76" y="-243.2" font-family="Arial" font-size="14.00">Full_Date </text>
<text text-anchor="start" x="585.57" y="-243.2" font-family="Arial" font-size="14.00" fill="#666666">[date]</text>
<polygon fill="none" stroke="black" points="514.76,-200.2 514.76,-231 728.23,-231 728.23,-200.2 514.76,-200.2"/>
<text text-anchor="start" x="521.76" y="-212.4" font-family="Arial" font-size="14.00">Month_Name </text>
<text text-anchor="start" x="609.69" y="-212.4" font-family="Arial" font-size="14.00" fill="#666666">[varchar(10)]</text>
<polygon fill="none" stroke="black" points="514.76,-169.4 514.76,-200.2 728.23,-200.2 728.23,-169.4 514.76,-169.4"/>
<text text-anchor="start" x="521.76" y="-181.6" font-family="Arial" font-size="14.00">Calendar_Year </text>
<text text-anchor="start" x="619.82" y="-181.6" font-family="Arial" font-size="14.00" fill="#666666">[int]</text>
<polygon fill="none" stroke="black" points="514.76,-138.6 514.76,-169.4 728.23,-169.4 728.23,-138.6 514.76,-138.6"/>
<text text-anchor="start" x="521.76" y="-150.8" font-family="Arial" font-size="14.00">Financial_Year </text>
<text text-anchor="start" x="619.04" y="-150.8" font-family="Arial" font-size="14.00" fill="#666666">[varchar(10)]</text>
<polygon fill="none" stroke="black" points="514.76,-107.8 514.76,-138.6 728.23,-138.6 728.23,-107.8 514.76,-107.8"/>
<text text-anchor="start" x="521.76" y="-120" font-family="Arial" font-size="14.00">Financial_Quarter </text>
<text text-anchor="start" x="636.93" y="-120" font-family="Arial" font-size="14.00" fill="#666666">[char(2)]</text>
<polygon fill="none" stroke="black" points="514.76,-77 514.76,-107.8 728.23,-107.8 728.23,-77 514.76,-77"/>
<text text-anchor="start" x="521.76" y="-89.2" font-family="Arial" font-size="14.00">Financial_Month_Number </text>
<text text-anchor="start" x="685.95" y="-89.2" font-family="Arial" font-size="14.00" fill="#666666">[int]</text>
<polygon fill="none" stroke="black" points="514.76,-46.2 514.76,-77 728.23,-77 728.23,-46.2 514.76,-46.2"/>
<text text-anchor="start" x="521.76" y="-58.4" font-family="Arial" font-size="14.00">Is_Weekend </text>
<text text-anchor="start" x="603.47" y="-58.4" font-family="Arial" font-size="14.00" fill="#666666">[tinyint(1)]</text>
<polygon fill="none" stroke="black" stroke-width="3" points="513.26,-44.7 513.26,-329.7 729.73,-329.7 729.73,-44.7 513.26,-44.7"/>
</g>
<!-- Fact_Course_Delivery -->
<g id="node2" class="node">
<title>Fact_Course_Delivery</title>
<polygon fill="#efefef" stroke="none" points="43.2,-1993.6 43.2,-2029.2 363.79,-2029.2 363.79,-1993.6 43.2,-1993.6"/>
<polygon fill="none" stroke="black" points="43.2,-1993.6 43.2,-2029.2 363.79,-2029.2 363.79,-1993.6 43.2,-1993.6"/>
<text text-anchor="start" x="59.77" y="-2007" font-family="Arial Bold" font-size="18.00">Fact_Course_Delivery</text>
<text text-anchor="start" x="222.73" y="-2007" font-family="Arial" font-size="14.00">    </text>
<text text-anchor="start" x="253.85" y="-2007" font-family="Arial" font-size="14.00" fill="#666666">[BASE TABLE]</text>
<polygon fill="none" stroke="black" points="43.2,-1962.8 43.2,-1993.6 363.79,-1993.6 363.79,-1962.8 43.2,-1962.8"/>
<text text-anchor="start" x="50.2" y="-1975" font-family="Arial" font-size="14.00">Delivery_Fact_Key </text>
<text text-anchor="start" x="171.58" y="-1975" font-family="Arial" font-size="14.00" fill="#666666">[bigint unsigned]</text>
<polygon fill="none" stroke="black" points="43.2,-1932 43.2,-1962.8 363.79,-1962.8 363.79,-1932 43.2,-1932"/>
<text text-anchor="start" x="50.2" y="-1944.2" font-family="Arial" font-size="14.00">Date_Key </text>
<text text-anchor="start" x="115.57" y="-1944.2" font-family="Arial" font-size="14.00" fill="#666666">[int]</text>
<polygon fill="none" stroke="black" points="43.2,-1901.2 43.2,-1932 363.79,-1932 363.79,-1901.2 43.2,-1901.2"/>
<text text-anchor="start" x="50.2" y="-1913.4" font-family="Arial" font-size="14.00">Delivery_Key </text>
<text text-anchor="start" x="136.57" y="-1913.4" font-family="Arial" font-size="14.00" fill="#666666">[bigint unsigned]</text>
<polygon fill="none" stroke="black" points="43.2,-1870.4 43.2,-1901.2 363.79,-1901.2 363.79,-1870.4 43.2,-1870.4"/>
<text text-anchor="start" x="50.2" y="-1882.6" font-family="Arial" font-size="14.00">School_Key </text>
<text text-anchor="start" x="128.81" y="-1882.6" font-family="Arial" font-size="14.00" fill="#666666">[bigint unsigned]</text>
<polygon fill="none" stroke="black" points="43.2,-1839.6 43.2,-1870.4 363.79,-1870.4 363.79,-1839.6 43.2,-1839.6"/>
<text text-anchor="start" x="50.2" y="-1851.8" font-family="Arial" font-size="14.00">Organisation_Key </text>
<text text-anchor="start" x="165.38" y="-1851.8" font-family="Arial" font-size="14.00" fill="#666666">[bigint unsigned]</text>
<polygon fill="none" stroke="black" points="43.2,-1808.8 43.2,-1839.6 363.79,-1839.6 363.79,-1808.8 43.2,-1808.8"/>
<text text-anchor="start" x="50.2" y="-1821" font-family="Arial" font-size="14.00">Course_Key </text>
<text text-anchor="start" x="131.13" y="-1821" font-family="Arial" font-size="14.00" fill="#666666">[bigint unsigned]</text>
<polygon fill="none" stroke="black" points="43.2,-1778 43.2,-1808.8 363.79,-1808.8 363.79,-1778 43.2,-1778"/>
<text text-anchor="start" x="50.2" y="-1790.2" font-family="Arial" font-size="14.00">Provider_Key </text>
<text text-anchor="start" x="138.13" y="-1790.2" font-family="Arial" font-size="14.00" fill="#666666">[bigint unsigned]</text>
<polygon fill="none" stroke="black" points="43.2,-1747.2 43.2,-1778 363.79,-1778 363.79,-1747.2 43.2,-1747.2"/>
<text text-anchor="start" x="50.2" y="-1759.4" font-family="Arial" font-size="14.00">Grant_Key </text>
<text text-anchor="start" x="121.01" y="-1759.4" font-family="Arial" font-size="14.00" fill="#666666">[bigint unsigned]</text>
<polygon fill="none" stroke="black" points="43.2,-1716.4 43.2,-1747.2 363.79,-1747.2 363.79,-1716.4 43.2,-1716.4"/>
<text text-anchor="start" x="50.2" y="-1728.6" font-family="Arial" font-size="14.00">Riders_Enrolled_Count </text>
<text text-anchor="start" x="198.84" y="-1728.6" font-family="Arial" font-size="14.00" fill="#666666">[int]</text>
<polygon fill="none" stroke="black" points="43.2,-1685.6 43.2,-1716.4 363.79,-1716.4 363.79,-1685.6 43.2,-1685.6"/>
<text text-anchor="start" x="50.2" y="-1697.8" font-family="Arial" font-size="14.00">Riders_Completed_Count </text>
<text text-anchor="start" x="215.18" y="-1697.8" font-family="Arial" font-size="14.00" fill="#666666">[int]</text>
<polygon fill="none" stroke="black" points="43.2,-1654.8 43.2,-1685.6 363.79,-1685.6 363.79,-1654.8 43.2,-1654.8"/>
<text text-anchor="start" x="50.2" y="-1667" font-family="Arial" font-size="14.00">Count_Booked_Provisional </text>
<text text-anchor="start" x="222.98" y="-1667" font-family="Arial" font-size="14.00" fill="#666666">[int]</text>
<polygon fill="none" stroke="black" points="43.2,-1624 43.2,-1654.8 363.79,-1654.8 363.79,-1624 43.2,-1624"/>
<text text-anchor="start" x="50.2" y="-1636.2" font-family="Arial" font-size="14.00">Count_Booked_Confirmed </text>
<text text-anchor="start" x="219.08" y="-1636.2" font-family="Arial" font-size="14.00" fill="#666666">[int]</text>
<polygon fill="none" stroke="black" points="43.2,-1593.2 43.2,-1624 363.79,-1624 363.79,-1593.2 43.2,-1593.2"/>
<text text-anchor="start" x="50.2" y="-1605.4" font-family="Arial" font-size="14.00">Count_Attended_Confirmed </text>
<text text-anchor="start" x="227.65" y="-1605.4" font-family="Arial" font-size="14.00" fill="#666666">[int]</text>
<polygon fill="none" stroke="black" points="43.2,-1562.4 43.2,-1593.2 363.79,-1593.2 363.79,-1562.4 43.2,-1562.4"/>
<text text-anchor="start" x="50.2" y="-1574.6" font-family="Arial" font-size="14.00">Count_Female </text>
<text text-anchor="start" x="145.92" y="-1574.6" font-family="Arial" font-size="14.00" fill="#666666">[int]</text>
<polygon fill="none" stroke="black" points="43.2,-1531.6 43.2,-1562.4 363.79,-1562.4 363.79,-1531.6 43.2,-1531.6"/>
<text text-anchor="start" x="50.2" y="-1543.8" font-family="Arial" font-size="14.00">Count_Male </text>
<text text-anchor="start" x="129.58" y="-1543.8" font-family="Arial" font-size="14.00" fill="#666666">[int]</text>
<polygon fill="none" stroke="black" points="43.2,-1500.8 43.2,-1531.6 363.79,-1531.6 363.79,-1500.8 43.2,-1500.8"/>
<text text-anchor="start" x="50.2" y="-1513" font-family="Arial" font-size="14.00">Count_Gender_Other </text>
<text text-anchor="start" x="188.73" y="-1513" font-family="Arial" font-size="14.00" fill="#666666">[int]</text>
<polygon fill="none" stroke="black" points="43.2,-1470 43.2,-1500.8 363.79,-1500.8 363.79,-1470 43.2,-1470"/>
<text text-anchor="start" x="50.2" y="-1482.2" font-family="Arial" font-size="14.00">Count_Pupil_Premium </text>
<text text-anchor="start" x="194.16" y="-1482.2" font-family="Arial" font-size="14.00" fill="#666666">[int]</text>
<polygon fill="none" stroke="black" points="43.2,-1439.2 43.2,-1470 363.79,-1470 363.79,-1439.2 43.2,-1439.2"/>
<text text-anchor="start" x="50.2" y="-1451.4" font-family="Arial" font-size="14.00">Count_SEND </text>
<text text-anchor="start" x="138.13" y="-1451.4" font-family="Arial" font-size="14.00" fill="#666666">[int]</text>
<polygon fill="none" stroke="black" points="43.2,-1408.4 43.2,-1439.2 363.79,-1439.2 363.79,-1408.4 43.2,-1408.4"/>
<text text-anchor="start" x="50.2" y="-1420.6" font-family="Arial" font-size="14.00">Count_Ethnicity_White_British </text>
<text text-anchor="start" x="242.4" y="-1420.6" font-family="Arial" font-size="14.00" fill="#666666">[int]</text>
<polygon fill="none" stroke="black" points="43.2,-1377.6 43.2,-1408.4 363.79,-1408.4 363.79,-1377.6 43.2,-1377.6"/>
<text text-anchor="start" x="50.2" y="-1389.8" font-family="Arial" font-size="14.00">Count_Ethnicity_White_Irish </text>
<text text-anchor="start" x="229.95" y="-1389.8" font-family="Arial" font-size="14.00" fill="#666666">[int]</text>
<polygon fill="none" stroke="black" points="43.2,-1346.8 43.2,-1377.6 363.79,-1377.6 363.79,-1346.8 43.2,-1346.8"/>
<text text-anchor="start" x="50.2" y="-1359" font-family="Arial" font-size="14.00">Count_Ethnicity_Gypsy_Romany </text>
<text text-anchor="start" x="259.52" y="-1359" font-family="Arial" font-size="14.00" fill="#666666">[int]</text>
<polygon fill="none" stroke="black" points="43.2,-1316 43.2,-1346.8 363.79,-1346.8 363.79,-1316 43.2,-1316"/>
<text text-anchor="start" x="50.2" y="-1328.2" font-family="Arial" font-size="14.00">Count_Ethnicity_White_Other </text>
<text text-anchor="start" x="238.52" y="-1328.2" font-family="Arial" font-size="14.00" fill="#666666">[int]</text>
<polygon fill="none" stroke="black" points="43.2,-1285.2 43.2,-1316 363.79,-1316 363.79,-1285.2 43.2,-1285.2"/>
<text text-anchor="start" x="50.2" y="-1297.4" font-family="Arial" font-size="14.00">Count_Ethnicity_Mixed_White_Black_Carib </text>
<text text-anchor="start" x="324.11" y="-1297.4" font-family="Arial" font-size="14.00" fill="#666666">[int]</text>
<polygon fill="none" stroke="black" points="43.2,-1254.4 43.2,-1285.2 363.79,-1285.2 363.79,-1254.4 43.2,-1254.4"/>
<text text-anchor="start" x="50.2" y="-1266.6" font-family="Arial" font-size="14.00">Count_Ethnicity_Mixed_White_Black_African </text>
<text text-anchor="start" x="334.23" y="-1266.6" font-family="Arial" font-size="14.00" fill="#666666">[int]</text>
<polygon fill="none" stroke="black" points="43.2,-1223.6 43.2,-1254.4 363.79,-1254.4 363.79,-1223.6 43.2,-1223.6"/>
<text text-anchor="start" x="50.2" y="-1235.8" font-family="Arial" font-size="14.00">Count_Ethnicity_Mixed_White_Asian </text>
<text text-anchor="start" x="283.65" y="-1235.8" font-family="Arial" font-size="14.00" fill="#666666">[int]</text>
<polygon fill="none" stroke="black" points="43.2,-1192.8 43.2,-1223.6 363.79,-1223.6 363.79,-1192.8 43.2,-1192.8"/>
<text text-anchor="start" x="50.2" y="-1205" font-family="Arial" font-size="14.00">Count_Ethnicity_Mixed_Other </text>
<text text-anchor="start" x="240.08" y="-1205" font-family="Arial" font-size="14.00" fill="#666666">[int]</text>
<polygon fill="none" stroke="black" points="43.2,-1162 43.2,-1192.8 363.79,-1192.8 363.79,-1162 43.2,-1162"/>
<text text-anchor="start" x="50.2" y="-1174.2" font-family="Arial" font-size="14.00">Count_Ethnicity_Asian_Indian </text>
<text text-anchor="start" x="240.88" y="-1174.2" font-family="Arial" font-size="14.00" fill="#666666">[int]</text>
<polygon fill="none" stroke="black" points="43.2,-1131.2 43.2,-1162 363.79,-1162 363.79,-1131.2 43.2,-1131.2"/>
<text text-anchor="start" x="50.2" y="-1143.4" font-family="Arial" font-size="14.00">Count_Ethnicity_Asian_Pakistani </text>
<text text-anchor="start" x="259.54" y="-1143.4" font-family="Arial" font-size="14.00" fill="#666666">[int]</text>
<polygon fill="none" stroke="black" points="43.2,-1100.4 43.2,-1131.2 363.79,-1131.2 363.79,-1100.4 43.2,-1100.4"/>
<text text-anchor="start" x="50.2" y="-1112.6" font-family="Arial" font-size="14.00">Count_Ethnicity_Asian_Bangladeshi </text>
<text text-anchor="start" x="279.8" y="-1112.6" font-family="Arial" font-size="14.00" fill="#666666">[int]</text>
<polygon fill="none" stroke="black" points="43.2,-1069.6 43.2,-1100.4 363.79,-1100.4 363.79,-1069.6 43.2,-1069.6"/>
<text text-anchor="start" x="50.2" y="-1081.8" font-family="Arial" font-size="14.00">Count_Ethnicity_Asian_Chinese </text>
<text text-anchor="start" x="254.1" y="-1081.8" font-family="Arial" font-size="14.00" fill="#666666">[int]</text>
<polygon fill="none" stroke="black" points="43.2,-1038.8 43.2,-1069.6 363.79,-1069.6 363.79,-1038.8 43.2,-1038.8"/>
<text text-anchor="start" x="50.2" y="-1051" font-family="Arial" font-size="14.00">Count_Ethnicity_Asian_Other </text>
<text text-anchor="start" x="237.75" y="-1051" font-family="Arial" font-size="14.00" fill="#666666">[int]</text>
<polygon fill="none" stroke="black" points="43.2,-1008 43.2,-1038.8 363.79,-1038.8 363.79,-1008 43.2,-1008"/>
<text text-anchor="start" x="50.2" y="-1020.2" font-family="Arial" font-size="14.00">Count_Ethnicity_Black_African </text>
<text text-anchor="start" x="245.52" y="-1020.2" font-family="Arial" font-size="14.00" fill="#666666">[int]</text>
<polygon fill="none" stroke="black" points="43.2,-977.2 43.2,-1008 363.79,-1008 363.79,-977.2 43.2,-977.2"/>
<text text-anchor="start" x="50.2" y="-989.4" font-family="Arial" font-size="14.00">Count_Ethnicity_Black_Caribbean </text>
<text text-anchor="start" x="266.55" y="-989.4" font-family="Arial" font-size="14.00" fill="#666666">[int]</text>
<polygon fill="none" stroke="black" points="43.2,-946.4 43.2,-977.2 363.79,-977.2 363.79,-946.4 43.2,-946.4"/>
<text text-anchor="start" x="50.2" y="-958.6" font-family="Arial" font-size="14.00">Count_Ethnicity_Black_Other </text>
<text text-anchor="start" x="236.96" y="-958.6" font-family="Arial" font-size="14.00" fill="#666666">[int]</text>
<polygon fill="none" stroke="black" points="43.2,-915.6 43.2,-946.4 363.79,-946.4 363.79,-915.6 43.2,-915.6"/>
<text text-anchor="start" x="50.2" y="-927.8" font-family="Arial" font-size="14.00">Count_Ethnicity_Other_Arab </text>
<text text-anchor="start" x="232.3" y="-927.8" font-family="Arial" font-size="14.00" fill="#666666">[int]</text>
<polygon fill="none" stroke="black" points="43.2,-884.8 43.2,-915.6 363.79,-915.6 363.79,-884.8 43.2,-884.8"/>
<text text-anchor="start" x="50.2" y="-897" font-family="Arial" font-size="14.00">Count_Ethnicity_Other_Any </text>
<text text-anchor="start" x="226.85" y="-897" font-family="Arial" font-size="14.00" fill="#666666">[int]</text>
<polygon fill="none" stroke="black" points="43.2,-854 43.2,-884.8 363.79,-884.8 363.79,-854 43.2,-854"/>
<text text-anchor="start" x="50.2" y="-866.2" font-family="Arial" font-size="14.00">Count_Ethnicity_Not_Stated </text>
<text text-anchor="start" x="229.98" y="-866.2" font-family="Arial" font-size="14.00" fill="#666666">[int]</text>
</g>
<!-- Fact_Course_Delivery&#45;&gt;Dim_Date -->
<g id="edge1" class="edge">
<title>Fact_Course_Delivery:Date_Key&#45;&gt;Dim_Date:Date_Key</title>
<path fill="none" stroke="black" d="M373.49,-1941.83C445.89,-1843.96 389.64,-488.25 416.5,-410.4 440.4,-341.1 440.46,-277.2 513.76,-277.2"/>
<polygon fill="black" stroke="black" points="373.49,-1941.83 362.65,-1943.43 369,-1944.7 365.36,-1947.04 365.36,-1947.04 365.36,-1947.04 369,-1944.7 367.5,-1951.01 373.49,-1941.83"/>
<text text-anchor="start" x="371.79" y="-1957.4" font-family="Arial" font-size="10.00">FOREIGN KEY (Date_Key) REFERENCES Dim_Date (Date_Key)</text>
</g>
<!-- Fact_HandsUp_Survey -->
<g id="node3" class="node">
<title>Fact_HandsUp_Survey</title>
<polygon fill="#efefef" stroke="none" points="468.26,-1716.4 468.26,-1752 774.73,-1752 774.73,-1716.4 468.26,-1716.4"/>
<polygon fill="none" stroke="black" points="468.26,-1716.4 468.26,-1752 774.73,-1752 774.73,-1716.4 468.26,-1716.4"/>
<text text-anchor="start" x="475.26" y="-1729.8" font-family="Arial Bold" font-size="18.00">Fact_HandsUp_Survey</text>
<text text-anchor="start" x="643.24" y="-1729.8" font-family="Arial" font-size="14.00">    </text>
<text text-anchor="start" x="674.36" y="-1729.8" font-family="Arial" font-size="14.00" fill="#666666">[BASE TABLE]</text>
<polygon fill="none" stroke="black" points="468.26,-1685.6 468.26,-1716.4 774.73,-1716.4 774.73,-1685.6 468.26,-1685.6"/>
<text text-anchor="start" x="475.26" y="-1697.8" font-family="Arial" font-size="14.00">Survey_Fact_Key </text>
<text text-anchor="start" x="589.65" y="-1697.8" font-family="Arial" font-size="14.00" fill="#666666">[bigint unsigned]</text>
<polygon fill="none" stroke="black" points="468.26,-1654.8 468.26,-1685.6 774.73,-1685.6 774.73,-1654.8 468.26,-1654.8"/>
<text text-anchor="start" x="475.26" y="-1667" font-family="Arial" font-size="14.00">Date_Key </text>
<text text-anchor="start" x="540.64" y="-1667" font-family="Arial" font-size="14.00" fill="#666666">[int]</text>
<polygon fill="none" stroke="black" points="468.26,-1624 468.26,-1654.8 774.73,-1654.8 774.73,-1624 468.26,-1624"/>
<text text-anchor="start" x="475.26" y="-1636.2" font-family="Arial" font-size="14.00">Delivery_Key </text>
<text text-anchor="start" x="561.63" y="-1636.2" font-family="Arial" font-size="14.00" fill="#666666">[bigint unsigned]</text>
<polygon fill="none" stroke="black" points="468.26,-1593.2 468.26,-1624 774.73,-1624 774.73,-1593.2 468.26,-1593.2"/>
<text text-anchor="start" x="475.26" y="-1605.4" font-family="Arial" font-size="14.00">Course_Key </text>
<text text-anchor="start" x="556.19" y="-1605.4" font-family="Arial" font-size="14.00" fill="#666666">[bigint unsigned]</text>
<polygon fill="none" stroke="black" points="468.26,-1562.4 468.26,-1593.2 774.73,-1593.2 774.73,-1562.4 468.26,-1562.4"/>
<text text-anchor="start" x="475.26" y="-1574.6" font-family="Arial" font-size="14.00">Exp_Enjoyed </text>
<text text-anchor="start" x="561.66" y="-1574.6" font-family="Arial" font-size="14.00" fill="#666666">[int]</text>
<polygon fill="none" stroke="black" points="468.26,-1531.6 468.26,-1562.4 774.73,-1562.4 774.73,-1531.6 468.26,-1531.6"/>
<text text-anchor="start" x="475.26" y="-1543.8" font-family="Arial" font-size="14.00">Exp_Did_Not_Enjoy </text>
<text text-anchor="start" x="604.45" y="-1543.8" font-family="Arial" font-size="14.00" fill="#666666">[int]</text>
<polygon fill="none" stroke="black" points="468.26,-1500.8 468.26,-1531.6 774.73,-1531.6 774.73,-1500.8 468.26,-1500.8"/>
<text text-anchor="start" x="475.26" y="-1513" font-family="Arial" font-size="14.00">Exp_Not_Sure </text>
<text text-anchor="start" x="570.21" y="-1513" font-family="Arial" font-size="14.00" fill="#666666">[int]</text>
<polygon fill="none" stroke="black" points="468.26,-1470 468.26,-1500.8 774.73,-1500.8 774.73,-1470 468.26,-1470"/>
<text text-anchor="start" x="475.26" y="-1482.2" font-family="Arial" font-size="14.00">Exp_Absent </text>
<text text-anchor="start" x="554.65" y="-1482.2" font-family="Arial" font-size="14.00" fill="#666666">[int]</text>
<polygon fill="none" stroke="black" points="468.26,-1439.2 468.26,-1470 774.73,-1470 774.73,-1439.2 468.26,-1439.2"/>
<text text-anchor="start" x="475.26" y="-1451.4" font-family="Arial" font-size="14.00">Base_Yes </text>
<text text-anchor="start" x="542.97" y="-1451.4" font-family="Arial" font-size="14.00" fill="#666666">[int]</text>
<polygon fill="none" stroke="black" points="468.26,-1408.4 468.26,-1439.2 774.73,-1439.2 774.73,-1408.4 468.26,-1408.4"/>
<text text-anchor="start" x="475.26" y="-1420.6" font-family="Arial" font-size="14.00">Base_No </text>
<text text-anchor="start" x="536.75" y="-1420.6" font-family="Arial" font-size="14.00" fill="#666666">[int]</text>
<polygon fill="none" stroke="black" points="468.26,-1377.6 468.26,-1408.4 774.73,-1408.4 774.73,-1377.6 468.26,-1377.6"/>
<text text-anchor="start" x="475.26" y="-1389.8" font-family="Arial" font-size="14.00">Base_Not_Sure </text>
<text text-anchor="start" x="577.99" y="-1389.8" font-family="Arial" font-size="14.00" fill="#666666">[int]</text>
<polygon fill="none" stroke="black" points="468.26,-1346.8 468.26,-1377.6 774.73,-1377.6 774.73,-1346.8 468.26,-1346.8"/>
<text text-anchor="start" x="475.26" y="-1359" font-family="Arial" font-size="14.00">Safe_More </text>
<text text-anchor="start" x="547.64" y="-1359" font-family="Arial" font-size="14.00" fill="#666666">[int]</text>
<polygon fill="none" stroke="black" points="468.26,-1316 468.26,-1346.8 774.73,-1346.8 774.73,-1316 468.26,-1316"/>
<text text-anchor="start" x="475.26" y="-1328.2" font-family="Arial" font-size="14.00">Safe_Less </text>
<text text-anchor="start" x="545.31" y="-1328.2" font-family="Arial" font-size="14.00" fill="#666666">[int]</text>
<polygon fill="none" stroke="black" points="468.26,-1285.2 468.26,-1316 774.73,-1316 774.73,-1285.2 468.26,-1285.2"/>
<text text-anchor="start" x="475.26" y="-1297.4" font-family="Arial" font-size="14.00">Safe_No_Diff </text>
<text text-anchor="start" x="562.42" y="-1297.4" font-family="Arial" font-size="14.00" fill="#666666">[int]</text>
<polygon fill="none" stroke="black" points="468.26,-1254.4 468.26,-1285.2 774.73,-1285.2 774.73,-1254.4 468.26,-1254.4"/>
<text text-anchor="start" x="475.26" y="-1266.6" font-family="Arial" font-size="14.00">Safe_Not_Sure </text>
<text text-anchor="start" x="574.88" y="-1266.6" font-family="Arial" font-size="14.00" fill="#666666">[int]</text>
<polygon fill="none" stroke="black" points="468.26,-1223.6 468.26,-1254.4 774.73,-1254.4 774.73,-1223.6 468.26,-1223.6"/>
<text text-anchor="start" x="475.26" y="-1235.8" font-family="Arial" font-size="14.00">Conf_More </text>
<text text-anchor="start" x="548.41" y="-1235.8" font-family="Arial" font-size="14.00" fill="#666666">[int]</text>
<polygon fill="none" stroke="black" points="468.26,-1192.8 468.26,-1223.6 774.73,-1223.6 774.73,-1192.8 468.26,-1192.8"/>
<text text-anchor="start" x="475.26" y="-1205" font-family="Arial" font-size="14.00">Conf_Less </text>
<text text-anchor="start" x="546.08" y="-1205" font-family="Arial" font-size="14.00" fill="#666666">[int]</text>
<polygon fill="none" stroke="black" points="468.26,-1162 468.26,-1192.8 774.73,-1192.8 774.73,-1162 468.26,-1162"/>
<text text-anchor="start" x="475.26" y="-1174.2" font-family="Arial" font-size="14.00">Conf_No_Diff </text>
<text text-anchor="start" x="563.19" y="-1174.2" font-family="Arial" font-size="14.00" fill="#666666">[int]</text>
<polygon fill="none" stroke="black" points="468.26,-1131.2 468.26,-1162 774.73,-1162 774.73,-1131.2 468.26,-1131.2"/>
<text text-anchor="start" x="475.26" y="-1143.4" font-family="Arial" font-size="14.00">Conf_Not_Sure </text>
<text text-anchor="start" x="575.66" y="-1143.4" font-family="Arial" font-size="14.00" fill="#666666">[int]</text>
</g>
<!-- Fact_HandsUp_Survey&#45;&gt;Dim_Date -->
<g id="edge2" class="edge">
<title>Fact_HandsUp_Survey:Date_Key&#45;&gt;Dim_Date:Date_Key</title>
<path fill="none" stroke="black" d="M784.04,-1664.29C849.57,-1566.11 803.71,-277.2 729.23,-277.2"/>
<polygon fill="black" stroke="black" points="784.15,-1664.21 773.39,-1666.34 779.8,-1667.3 776.27,-1669.81 776.27,-1669.81 776.27,-1669.81 779.8,-1667.3 778.61,-1673.67 784.15,-1664.21"/>
<text text-anchor="start" x="782.73" y="-1680.2" font-family="Arial" font-size="10.00">FOREIGN KEY (Date_Key) REFERENCES Dim_Date (Date_Key)</text>
</g>
<!-- Fact_Parent_Survey -->
<g id="node4" class="node">
<title>Fact_Parent_Survey</title>
<polygon fill="#efefef" stroke="none" points="878.91,-2394 878.91,-2429.6 1208.08,-2429.6 1208.08,-2394 878.91,-2394"/>
<polygon fill="none" stroke="black" points="878.91,-2394 878.91,-2429.6 1208.08,-2429.6 1208.08,-2394 878.91,-2394"/>
<text text-anchor="start" x="908.27" y="-2407.4" font-family="Arial Bold" font-size="18.00">Fact_Parent_Survey</text>
<text text-anchor="start" x="1054.24" y="-2407.4" font-family="Arial" font-size="14.00">    </text>
<text text-anchor="start" x="1085.35" y="-2407.4" font-family="Arial" font-size="14.00" fill="#666666">[BASE TABLE]</text>
<polygon fill="none" stroke="black" points="878.91,-2363.2 878.91,-2394 1208.08,-2394 1208.08,-2363.2 878.91,-2363.2"/>
<text text-anchor="start" x="885.91" y="-2375.4" font-family="Arial" font-size="14.00">Parent_Survey_Key </text>
<text text-anchor="start" x="1014.32" y="-2375.4" font-family="Arial" font-size="14.00" fill="#666666">[bigint unsigned]</text>
<polygon fill="none" stroke="black" points="878.91,-2332.4 878.91,-2363.2 1208.08,-2363.2 1208.08,-2332.4 878.91,-2332.4"/>
<text text-anchor="start" x="885.91" y="-2344.6" font-family="Arial" font-size="14.00">Date_Key </text>
<text text-anchor="start" x="951.29" y="-2344.6" font-family="Arial" font-size="14.00" fill="#666666">[int]</text>
<polygon fill="none" stroke="black" points="878.91,-2301.6 878.91,-2332.4 1208.08,-2332.4 1208.08,-2301.6 878.91,-2301.6"/>
<text text-anchor="start" x="885.91" y="-2313.8" font-family="Arial" font-size="14.00">Rider_Key </text>
<text text-anchor="start" x="955.17" y="-2313.8" font-family="Arial" font-size="14.00" fill="#666666">[bigint unsigned]</text>
<polygon fill="none" stroke="black" points="878.91,-2270.8 878.91,-2301.6 1208.08,-2301.6 1208.08,-2270.8 878.91,-2270.8"/>
<text text-anchor="start" x="885.91" y="-2283" font-family="Arial" font-size="14.00">Course_Key </text>
<text text-anchor="start" x="966.84" y="-2283" font-family="Arial" font-size="14.00" fill="#666666">[bigint unsigned]</text>
<polygon fill="none" stroke="black" points="878.91,-2240 878.91,-2270.8 1208.08,-2270.8 1208.08,-2240 878.91,-2240"/>
<text text-anchor="start" x="885.91" y="-2252.2" font-family="Arial" font-size="14.00">Delivery_Key </text>
<text text-anchor="start" x="972.28" y="-2252.2" font-family="Arial" font-size="14.00" fill="#666666">[bigint unsigned]</text>
<polygon fill="none" stroke="black" points="878.91,-2209.2 878.91,-2240 1208.08,-2240 1208.08,-2209.2 878.91,-2209.2"/>
<text text-anchor="start" x="885.91" y="-2221.4" font-family="Arial" font-size="14.00">Grant_Key </text>
<text text-anchor="start" x="956.73" y="-2221.4" font-family="Arial" font-size="14.00" fill="#666666">[bigint unsigned]</text>
<polygon fill="none" stroke="black" points="878.91,-2178.4 878.91,-2209.2 1208.08,-2209.2 1208.08,-2178.4 878.91,-2178.4"/>
<text text-anchor="start" x="885.91" y="-2190.6" font-family="Arial" font-size="14.00">Like_To_Participate </text>
<text text-anchor="start" x="1013.54" y="-2190.6" font-family="Arial" font-size="14.00" fill="#666666">[tinyint(1)]</text>
<polygon fill="none" stroke="black" points="878.91,-2147.6 878.91,-2178.4 1208.08,-2178.4 1208.08,-2147.6 878.91,-2147.6"/>
<text text-anchor="start" x="885.91" y="-2159.8" font-family="Arial" font-size="14.00">Like_To_Answer_Survey </text>
<text text-anchor="start" x="1045.44" y="-2159.8" font-family="Arial" font-size="14.00" fill="#666666">[tinyint(1)]</text>
<polygon fill="none" stroke="black" points="878.91,-2116.8 878.91,-2147.6 1208.08,-2147.6 1208.08,-2116.8 878.91,-2116.8"/>
<text text-anchor="start" x="885.91" y="-2129" font-family="Arial" font-size="14.00">Pref_Join_Bikeability </text>
<text text-anchor="start" x="1019.76" y="-2129" font-family="Arial" font-size="14.00" fill="#666666">[tinyint(1)]</text>
<polygon fill="none" stroke="black" points="878.91,-2086 878.91,-2116.8 1208.08,-2116.8 1208.08,-2086 878.91,-2086"/>
<text text-anchor="start" x="885.91" y="-2098.2" font-family="Arial" font-size="14.00">Rider_Emotion </text>
<text text-anchor="start" x="982.4" y="-2098.2" font-family="Arial" font-size="14.00" fill="#666666">[int]</text>
<polygon fill="none" stroke="black" points="878.91,-2055.2 878.91,-2086 1208.08,-2086 1208.08,-2055.2 878.91,-2055.2"/>
<text text-anchor="start" x="885.91" y="-2067.4" font-family="Arial" font-size="14.00">Pref_More_Training </text>
<text text-anchor="start" x="1013.53" y="-2067.4" font-family="Arial" font-size="14.00" fill="#666666">[int]</text>
<polygon fill="none" stroke="black" points="878.91,-2024.4 878.91,-2055.2 1208.08,-2055.2 1208.08,-2024.4 878.91,-2024.4"/>
<text text-anchor="start" x="885.91" y="-2036.6" font-family="Arial" font-size="14.00">Pref_Interest_In_Training </text>
<text text-anchor="start" x="1047.78" y="-2036.6" font-family="Arial" font-size="14.00" fill="#666666">[int]</text>
<polygon fill="none" stroke="black" points="878.91,-1993.6 878.91,-2024.4 1208.08,-2024.4 1208.08,-1993.6 878.91,-1993.6"/>
<text text-anchor="start" x="885.91" y="-2005.8" font-family="Arial" font-size="14.00">Confidence_Bike_General </text>
<text text-anchor="start" x="1053.24" y="-2005.8" font-family="Arial" font-size="14.00" fill="#666666">[int]</text>
<polygon fill="none" stroke="black" points="878.91,-1962.8 878.91,-1993.6 1208.08,-1993.6 1208.08,-1962.8 878.91,-1962.8"/>
<text text-anchor="start" x="885.91" y="-1975" font-family="Arial" font-size="14.00">Confidence_Road </text>
<text text-anchor="start" x="1001.89" y="-1975" font-family="Arial" font-size="14.00" fill="#666666">[int]</text>
<polygon fill="none" stroke="black" points="878.91,-1932 878.91,-1962.8 1208.08,-1962.8 1208.08,-1932 878.91,-1932"/>
<text text-anchor="start" x="885.91" y="-1944.2" font-family="Arial" font-size="14.00">Confidence_Independent </text>
<text text-anchor="start" x="1046.27" y="-1944.2" font-family="Arial" font-size="14.00" fill="#666666">[int]</text>
<polygon fill="none" stroke="black" points="878.91,-1901.2 878.91,-1932 1208.08,-1932 1208.08,-1901.2 878.91,-1901.2"/>
<text text-anchor="start" x="885.91" y="-1913.4" font-family="Arial" font-size="14.00">Frequency_School </text>
<text text-anchor="start" x="1006.54" y="-1913.4" font-family="Arial" font-size="14.00" fill="#666666">[int]</text>
<polygon fill="none" stroke="black" points="878.91,-1870.4 878.91,-1901.2 1208.08,-1901.2 1208.08,-1870.4 878.91,-1870.4"/>
<text text-anchor="start" x="885.91" y="-1882.6" font-family="Arial" font-size="14.00">Frequency_Leisure </text>
<text text-anchor="start" x="1009.65" y="-1882.6" font-family="Arial" font-size="14.00" fill="#666666">[int]</text>
<polygon fill="none" stroke="black" points="878.91,-1839.6 878.91,-1870.4 1208.08,-1870.4 1208.08,-1839.6 878.91,-1839.6"/>
<text text-anchor="start" x="885.91" y="-1851.8" font-family="Arial" font-size="14.00">Frequency_Exercise </text>
<text text-anchor="start" x="1017.42" y="-1851.8" font-family="Arial" font-size="14.00" fill="#666666">[int]</text>
<polygon fill="none" stroke="black" points="878.91,-1808.8 878.91,-1839.6 1208.08,-1839.6 1208.08,-1808.8 878.91,-1808.8"/>
<text text-anchor="start" x="885.91" y="-1821" font-family="Arial" font-size="14.00">Feedback_Is_Fun </text>
<text text-anchor="start" x="1001.87" y="-1821" font-family="Arial" font-size="14.00" fill="#666666">[tinyint(1)]</text>
<polygon fill="none" stroke="black" points="878.91,-1778 878.91,-1808.8 1208.08,-1808.8 1208.08,-1778 878.91,-1778"/>
<text text-anchor="start" x="885.91" y="-1790.2" font-family="Arial" font-size="14.00">Feedback_Is_Hard </text>
<text text-anchor="start" x="1008.09" y="-1790.2" font-family="Arial" font-size="14.00" fill="#666666">[tinyint(1)]</text>
<polygon fill="none" stroke="black" points="878.91,-1747.2 878.91,-1778 1208.08,-1778 1208.08,-1747.2 878.91,-1747.2"/>
<text text-anchor="start" x="885.91" y="-1759.4" font-family="Arial" font-size="14.00">Feedback_Is_Healthy </text>
<text text-anchor="start" x="1025.22" y="-1759.4" font-family="Arial" font-size="14.00" fill="#666666">[tinyint(1)]</text>
<polygon fill="none" stroke="black" points="878.91,-1716.4 878.91,-1747.2 1208.08,-1747.2 1208.08,-1716.4 878.91,-1716.4"/>
<text text-anchor="start" x="885.91" y="-1728.6" font-family="Arial" font-size="14.00">Feedback_Still_New </text>
<text text-anchor="start" x="1017.42" y="-1728.6" font-family="Arial" font-size="14.00" fill="#666666">[tinyint(1)]</text>
<polygon fill="none" stroke="black" points="878.91,-1685.6 878.91,-1716.4 1208.08,-1716.4 1208.08,-1685.6 878.91,-1685.6"/>
<text text-anchor="start" x="885.91" y="-1697.8" font-family="Arial" font-size="14.00">Feedback_Family_Friends </text>
<text text-anchor="start" x="1054.76" y="-1697.8" font-family="Arial" font-size="14.00" fill="#666666">[tinyint(1)]</text>
<polygon fill="none" stroke="black" points="878.91,-1654.8 878.91,-1685.6 1208.08,-1685.6 1208.08,-1654.8 878.91,-1654.8"/>
<text text-anchor="start" x="885.91" y="-1667" font-family="Arial" font-size="14.00">Feedback_Dont_See_Others_Like_Me </text>
<text text-anchor="start" x="1131.84" y="-1667" font-family="Arial" font-size="14.00" fill="#666666">[tinyint(1)]</text>
<polygon fill="none" stroke="black" points="878.91,-1624 878.91,-1654.8 1208.08,-1654.8 1208.08,-1624 878.91,-1624"/>
<text text-anchor="start" x="885.91" y="-1636.2" font-family="Arial" font-size="14.00">Feedback_On_Own </text>
<text text-anchor="start" x="1014.32" y="-1636.2" font-family="Arial" font-size="14.00" fill="#666666">[tinyint(1)]</text>
<polygon fill="none" stroke="black" points="878.91,-1593.2 878.91,-1624 1208.08,-1624 1208.08,-1593.2 878.91,-1593.2"/>
<text text-anchor="start" x="885.91" y="-1605.4" font-family="Arial" font-size="14.00">Feedback_Not_Enjoy </text>
<text text-anchor="start" x="1023.66" y="-1605.4" font-family="Arial" font-size="14.00" fill="#666666">[tinyint(1)]</text>
<polygon fill="none" stroke="black" points="878.91,-1562.4 878.91,-1593.2 1208.08,-1593.2 1208.08,-1562.4 878.91,-1562.4"/>
<text text-anchor="start" x="885.91" y="-1574.6" font-family="Arial" font-size="14.00">Feedback_None_Apply </text>
<text text-anchor="start" x="1035.35" y="-1574.6" font-family="Arial" font-size="14.00" fill="#666666">[tinyint(1)]</text>
<polygon fill="none" stroke="black" points="878.91,-1531.6 878.91,-1562.4 1208.08,-1562.4 1208.08,-1531.6 878.91,-1531.6"/>
<text text-anchor="start" x="885.91" y="-1543.8" font-family="Arial" font-size="14.00">Feedback_None_Apply_Input </text>
<text text-anchor="start" x="1074.27" y="-1543.8" font-family="Arial" font-size="14.00" fill="#666666">[varchar(500)]</text>
<polygon fill="none" stroke="black" points="878.91,-1500.8 878.91,-1531.6 1208.08,-1531.6 1208.08,-1500.8 878.91,-1500.8"/>
<text text-anchor="start" x="885.91" y="-1513" font-family="Arial" font-size="14.00">Encouragement_Use_Bike </text>
<text text-anchor="start" x="1056.35" y="-1513" font-family="Arial" font-size="14.00" fill="#666666">[tinyint(1)]</text>
<polygon fill="none" stroke="black" points="878.91,-1470 878.91,-1500.8 1208.08,-1500.8 1208.08,-1470 878.91,-1470"/>
<text text-anchor="start" x="885.91" y="-1482.2" font-family="Arial" font-size="14.00">Encouragement_Use_Bike_On_Road </text>
<text text-anchor="start" x="1124.06" y="-1482.2" font-family="Arial" font-size="14.00" fill="#666666">[tinyint(1)]</text>
<polygon fill="none" stroke="black" points="878.91,-1439.2 878.91,-1470 1208.08,-1470 1208.08,-1439.2 878.91,-1439.2"/>
<text text-anchor="start" x="885.91" y="-1451.4" font-family="Arial" font-size="14.00">Encourage_More_Direct_Routes </text>
<text text-anchor="start" x="1093.69" y="-1451.4" font-family="Arial" font-size="14.00" fill="#666666">[tinyint]</text>
<polygon fill="none" stroke="black" points="878.91,-1408.4 878.91,-1439.2 1208.08,-1439.2 1208.08,-1408.4 878.91,-1408.4"/>
<text text-anchor="start" x="885.91" y="-1420.6" font-family="Arial" font-size="14.00">Encourage_Local_Route_Awareness </text>
<text text-anchor="start" x="1120.96" y="-1420.6" font-family="Arial" font-size="14.00" fill="#666666">[tinyint]</text>
<polygon fill="none" stroke="black" points="878.91,-1377.6 878.91,-1408.4 1208.08,-1408.4 1208.08,-1377.6 878.91,-1377.6"/>
<text text-anchor="start" x="885.91" y="-1389.8" font-family="Arial" font-size="14.00">Encourage_Storage </text>
<text text-anchor="start" x="1014.34" y="-1389.8" font-family="Arial" font-size="14.00" fill="#666666">[tinyint]</text>
<polygon fill="none" stroke="black" points="878.91,-1346.8 878.91,-1377.6 1208.08,-1377.6 1208.08,-1346.8 878.91,-1346.8"/>
<text text-anchor="start" x="885.91" y="-1359" font-family="Arial" font-size="14.00">Encourage_Road_Surfaces </text>
<text text-anchor="start" x="1061.81" y="-1359" font-family="Arial" font-size="14.00" fill="#666666">[tinyint]</text>
<polygon fill="none" stroke="black" points="878.91,-1316 878.91,-1346.8 1208.08,-1346.8 1208.08,-1316 878.91,-1316"/>
<text text-anchor="start" x="885.91" y="-1328.2" font-family="Arial" font-size="14.00">Encourage_Confidence </text>
<text text-anchor="start" x="1036.13" y="-1328.2" font-family="Arial" font-size="14.00" fill="#666666">[tinyint]</text>
<polygon fill="none" stroke="black" points="878.91,-1285.2 878.91,-1316 1208.08,-1316 1208.08,-1285.2 878.91,-1285.2"/>
<text text-anchor="start" x="885.91" y="-1297.4" font-family="Arial" font-size="14.00">Encourage_Cycle_Maintenance </text>
<text text-anchor="start" x="1088.26" y="-1297.4" font-family="Arial" font-size="14.00" fill="#666666">[tinyint]</text>
<polygon fill="none" stroke="black" points="878.91,-1254.4 878.91,-1285.2 1208.08,-1285.2 1208.08,-1254.4 878.91,-1254.4"/>
<text text-anchor="start" x="885.91" y="-1266.6" font-family="Arial" font-size="14.00">Encourage_Local_Initiatives </text>
<text text-anchor="start" x="1064.92" y="-1266.6" font-family="Arial" font-size="14.00" fill="#666666">[tinyint]</text>
<polygon fill="none" stroke="black" points="878.91,-1223.6 878.91,-1254.4 1208.08,-1254.4 1208.08,-1223.6 878.91,-1223.6"/>
<text text-anchor="start" x="885.91" y="-1235.8" font-family="Arial" font-size="14.00">Encourage_Purchase_Ability </text>
<text text-anchor="start" x="1069.58" y="-1235.8" font-family="Arial" font-size="14.00" fill="#666666">[tinyint]</text>
<polygon fill="none" stroke="black" points="878.91,-1192.8 878.91,-1223.6 1208.08,-1223.6 1208.08,-1192.8 878.91,-1192.8"/>
<text text-anchor="start" x="885.91" y="-1205" font-family="Arial" font-size="14.00">Encourage_Doesnt_Want_To_Cycle_More </text>
<text text-anchor="start" x="1156.73" y="-1205" font-family="Arial" font-size="14.00" fill="#666666">[tinyint]</text>
<polygon fill="none" stroke="black" points="878.91,-1162 878.91,-1192.8 1208.08,-1192.8 1208.08,-1162 878.91,-1162"/>
<text text-anchor="start" x="885.91" y="-1174.2" font-family="Arial" font-size="14.00">Encourage_None </text>
<text text-anchor="start" x="998.78" y="-1174.2" font-family="Arial" font-size="14.00" fill="#666666">[tinyint]</text>
<polygon fill="none" stroke="black" points="878.91,-1131.2 878.91,-1162 1208.08,-1162 1208.08,-1131.2 878.91,-1131.2"/>
<text text-anchor="start" x="885.91" y="-1143.4" font-family="Arial" font-size="14.00">Encourage_Other_Reason </text>
<text text-anchor="start" x="1056.36" y="-1143.4" font-family="Arial" font-size="14.00" fill="#666666">[varchar(500)]</text>
<polygon fill="none" stroke="black" points="878.91,-1100.4 878.91,-1131.2 1208.08,-1131.2 1208.08,-1100.4 878.91,-1100.4"/>
<text text-anchor="start" x="885.91" y="-1112.6" font-family="Arial" font-size="14.00">Likert_Life_Skill </text>
<text text-anchor="start" x="987.85" y="-1112.6" font-family="Arial" font-size="14.00" fill="#666666">[tinyint]</text>
<polygon fill="none" stroke="black" points="878.91,-1069.6 878.91,-1100.4 1208.08,-1100.4 1208.08,-1069.6 878.91,-1069.6"/>
<text text-anchor="start" x="885.91" y="-1081.8" font-family="Arial" font-size="14.00">Likert_Self_Esteem </text>
<text text-anchor="start" x="1011.2" y="-1081.8" font-family="Arial" font-size="14.00" fill="#666666">[tinyint]</text>
<polygon fill="none" stroke="black" points="878.91,-1038.8 878.91,-1069.6 1208.08,-1069.6 1208.08,-1038.8 878.91,-1038.8"/>
<text text-anchor="start" x="885.91" y="-1051" font-family="Arial" font-size="14.00">Likert_Fitness </text>
<text text-anchor="start" x="976.95" y="-1051" font-family="Arial" font-size="14.00" fill="#666666">[tinyint]</text>
<polygon fill="none" stroke="black" points="878.91,-1008 878.91,-1038.8 1208.08,-1038.8 1208.08,-1008 878.91,-1008"/>
<text text-anchor="start" x="885.91" y="-1020.2" font-family="Arial" font-size="14.00">Likert_Active </text>
<text text-anchor="start" x="969.95" y="-1020.2" font-family="Arial" font-size="14.00" fill="#666666">[tinyint]</text>
<polygon fill="none" stroke="black" points="878.91,-977.2 878.91,-1008 1208.08,-1008 1208.08,-977.2 878.91,-977.2"/>
<text text-anchor="start" x="885.91" y="-989.4" font-family="Arial" font-size="14.00">Likert_Mindfulness </text>
<text text-anchor="start" x="1006.53" y="-989.4" font-family="Arial" font-size="14.00" fill="#666666">[tinyint]</text>
<polygon fill="none" stroke="black" points="878.91,-946.4 878.91,-977.2 1208.08,-977.2 1208.08,-946.4 878.91,-946.4"/>
<text text-anchor="start" x="885.91" y="-958.6" font-family="Arial" font-size="14.00">Likert_Improve_Self_Regulate </text>
<text text-anchor="start" x="1078.13" y="-958.6" font-family="Arial" font-size="14.00" fill="#666666">[tinyint]</text>
<polygon fill="none" stroke="black" points="878.91,-915.6 878.91,-946.4 1208.08,-946.4 1208.08,-915.6 878.91,-915.6"/>
<text text-anchor="start" x="885.91" y="-927.8" font-family="Arial" font-size="14.00">Likert_Improve_Concentration </text>
<text text-anchor="start" x="1077.35" y="-927.8" font-family="Arial" font-size="14.00" fill="#666666">[tinyint]</text>
<polygon fill="none" stroke="black" points="878.91,-884.8 878.91,-915.6 1208.08,-915.6 1208.08,-884.8 878.91,-884.8"/>
<text text-anchor="start" x="885.91" y="-897" font-family="Arial" font-size="14.00">Likert_Improve_Academic_Performance </text>
<text text-anchor="start" x="1139.58" y="-897" font-family="Arial" font-size="14.00" fill="#666666">[tinyint]</text>
<polygon fill="none" stroke="black" points="878.91,-854 878.91,-884.8 1208.08,-884.8 1208.08,-854 878.91,-854"/>
<text text-anchor="start" x="885.91" y="-866.2" font-family="Arial" font-size="14.00">Likert_Independence </text>
<text text-anchor="start" x="1020.58" y="-866.2" font-family="Arial" font-size="14.00" fill="#666666">[tinyint]</text>
<polygon fill="none" stroke="black" points="878.91,-823.2 878.91,-854 1208.08,-854 1208.08,-823.2 878.91,-823.2"/>
<text text-anchor="start" x="885.91" y="-835.4" font-family="Arial" font-size="14.00">Likert_Improve_Road_Awareness </text>
<text text-anchor="start" x="1100.69" y="-835.4" font-family="Arial" font-size="14.00" fill="#666666">[tinyint]</text>
<polygon fill="none" stroke="black" points="878.91,-792.4 878.91,-823.2 1208.08,-823.2 1208.08,-792.4 878.91,-792.4"/>
<text text-anchor="start" x="885.91" y="-804.6" font-family="Arial" font-size="14.00">Likert_Improve_Environment_Awareness </text>
<text text-anchor="start" x="1145.82" y="-804.6" font-family="Arial" font-size="14.00" fill="#666666">[tinyint]</text>
<polygon fill="none" stroke="black" points="878.91,-761.6 878.91,-792.4 1208.08,-792.4 1208.08,-761.6 878.91,-761.6"/>
<text text-anchor="start" x="885.91" y="-773.8" font-family="Arial" font-size="14.00">Likert_Help_Socialise </text>
<text text-anchor="start" x="1024.43" y="-773.8" font-family="Arial" font-size="14.00" fill="#666666">[tinyint]</text>
<polygon fill="none" stroke="black" points="878.91,-730.8 878.91,-761.6 1208.08,-761.6 1208.08,-730.8 878.91,-730.8"/>
<text text-anchor="start" x="885.91" y="-743" font-family="Arial" font-size="14.00">Likert_Make_Children_Happy </text>
<text text-anchor="start" x="1074.24" y="-743" font-family="Arial" font-size="14.00" fill="#666666">[tinyint]</text>
<polygon fill="none" stroke="black" points="878.91,-700 878.91,-730.8 1208.08,-730.8 1208.08,-700 878.91,-700"/>
<text text-anchor="start" x="885.91" y="-712.2" font-family="Arial" font-size="14.00">Likert_Keep_Children_Occupied </text>
<text text-anchor="start" x="1091.37" y="-712.2" font-family="Arial" font-size="14.00" fill="#666666">[tinyint]</text>
<polygon fill="none" stroke="black" points="878.91,-669.2 878.91,-700 1208.08,-700 1208.08,-669.2 878.91,-669.2"/>
<text text-anchor="start" x="885.91" y="-681.4" font-family="Arial" font-size="14.00">Likert_Encourage_Children_Outside </text>
<text text-anchor="start" x="1115.5" y="-681.4" font-family="Arial" font-size="14.00" fill="#666666">[tinyint]</text>
<polygon fill="none" stroke="black" points="878.91,-638.4 878.91,-669.2 1208.08,-669.2 1208.08,-638.4 878.91,-638.4"/>
<text text-anchor="start" x="885.91" y="-650.6" font-family="Arial" font-size="14.00">Likert_Children_Less_Dependent </text>
<text text-anchor="start" x="1097.61" y="-650.6" font-family="Arial" font-size="14.00" fill="#666666">[tinyint]</text>
<polygon fill="none" stroke="black" points="878.91,-607.6 878.91,-638.4 1208.08,-638.4 1208.08,-607.6 878.91,-607.6"/>
<text text-anchor="start" x="885.91" y="-619.8" font-family="Arial" font-size="14.00">Likert_Reduce_Other_Transport_Expense </text>
<text text-anchor="start" x="1152.84" y="-619.8" font-family="Arial" font-size="14.00" fill="#666666">[tinyint]</text>
<polygon fill="none" stroke="black" points="878.91,-576.8 878.91,-607.6 1208.08,-607.6 1208.08,-576.8 878.91,-576.8"/>
<text text-anchor="start" x="885.91" y="-589" font-family="Arial" font-size="14.00">Likert_Enable_Cycle_As_Family </text>
<text text-anchor="start" x="1091.34" y="-589" font-family="Arial" font-size="14.00" fill="#666666">[tinyint]</text>
<polygon fill="none" stroke="black" points="878.91,-546 878.91,-576.8 1208.08,-576.8 1208.08,-546 878.91,-546"/>
<text text-anchor="start" x="885.91" y="-558.2" font-family="Arial" font-size="14.00">Likely_To_Recommend </text>
<text text-anchor="start" x="1036.87" y="-558.2" font-family="Arial" font-size="14.00" fill="#666666">[int]</text>
<polygon fill="none" stroke="black" points="878.91,-515.2 878.91,-546 1208.08,-546 1208.08,-515.2 878.91,-515.2"/>
<text text-anchor="start" x="885.91" y="-527.4" font-family="Arial" font-size="14.00">Source_Survey_Id </text>
<text text-anchor="start" x="1004.98" y="-527.4" font-family="Arial" font-size="14.00" fill="#666666">[bigint unsigned]</text>
<polygon fill="none" stroke="black" points="878.91,-484.4 878.91,-515.2 1208.08,-515.2 1208.08,-484.4 878.91,-484.4"/>
<text text-anchor="start" x="885.91" y="-496.6" font-family="Arial" font-size="14.00">Source_Created_At </text>
<text text-anchor="start" x="1012.77" y="-496.6" font-family="Arial" font-size="14.00" fill="#666666">[timestamp]</text>
<polygon fill="none" stroke="black" points="878.91,-453.6 878.91,-484.4 1208.08,-484.4 1208.08,-453.6 878.91,-453.6"/>
<text text-anchor="start" x="885.91" y="-465.8" font-family="Arial" font-size="14.00">Source_Updated_At </text>
<text text-anchor="start" x="1015.89" y="-465.8" font-family="Arial" font-size="14.00" fill="#666666">[timestamp]</text>
</g>
<!-- Fact_Parent_Survey&#45;&gt;Dim_Date -->
<g id="edge3" class="edge">
<title>Fact_Parent_Survey:Date_Key&#45;&gt;Dim_Date:Date_Key</title>
<path fill="none" stroke="black" d="M871.94,-2339.39C825.57,-2203.22 843.19,-459.36 826.5,-410.4 802.84,-341.02 802.53,-277.2 729.23,-277.2"/>
<polygon fill="black" stroke="black" points="871.93,-2339.38 874.05,-2350.13 875.02,-2343.72 877.53,-2347.25 877.53,-2347.25 877.53,-2347.25 875.02,-2343.72 881.39,-2344.92 871.93,-2339.38"/>
<text text-anchor="start" x="577.5" y="-2357.8" font-family="Arial" font-size="10.00">FOREIGN KEY (Date_Key) REFERENCES Dim_Date (Date_Key)</text>
</g>
</g>
</svg>
