<?xml version="1.0" encoding="UTF-8" standalone="no"?>
<!DOCTYPE svg PUBLIC "-//W3C//DTD SVG 1.1//EN"
 "http://www.w3.org/Graphics/SVG/1.1/DTD/svg11.dtd">
<!-- Generated by graphviz version 12.1.2 (20240928.0832)
 -->
<!-- Title: Dim_Rider Pages: 1 -->
<svg width="1052pt" height="1776pt"
 viewBox="0.00 0.00 1052.16 1776.40" xmlns="http://www.w3.org/2000/svg" xmlns:xlink="http://www.w3.org/1999/xlink">
<g id="graph0" class="graph" transform="scale(1 1) rotate(0) translate(4 1772.4)">
<title>Dim_Rider</title>
<polygon fill="white" stroke="none" points="-4,4 -4,-1772.4 1048.16,-1772.4 1048.16,4 -4,4"/>
<!-- Dim_Rider -->
<g id="node1" class="node">
<title>Dim_Rider</title>
<polygon fill="#efefef" stroke="none" points="456.8,-666.2 456.8,-701.8 707.39,-701.8 707.39,-666.2 456.8,-666.2"/>
<polygon fill="none" stroke="black" points="456.8,-666.2 456.8,-701.8 707.39,-701.8 707.39,-666.2 456.8,-666.2"/>
<text text-anchor="start" x="479.35" y="-679.6" font-family="Arial Bold" font-size="18.00">Dim_Rider</text>
<text text-anchor="start" x="560.35" y="-679.6" font-family="Arial" font-size="14.00">    </text>
<text text-anchor="start" x="591.46" y="-679.6" font-family="Arial" font-size="14.00" fill="#666666">[BASE TABLE]</text>
<polygon fill="none" stroke="black" points="456.8,-635.4 456.8,-666.2 707.39,-666.2 707.39,-635.4 456.8,-635.4"/>
<text text-anchor="start" x="463.8" y="-647.6" font-family="Arial" font-size="14.00">Rider_Key </text>
<text text-anchor="start" x="533.06" y="-647.6" font-family="Arial" font-size="14.00" fill="#666666">[bigint unsigned]</text>
<polygon fill="none" stroke="black" points="456.8,-604.6 456.8,-635.4 707.39,-635.4 707.39,-604.6 456.8,-604.6"/>
<text text-anchor="start" x="463.8" y="-616.8" font-family="Arial" font-size="14.00">Source_Rider_Id </text>
<text text-anchor="start" x="572.75" y="-616.8" font-family="Arial" font-size="14.00" fill="#666666">[bigint unsigned]</text>
<polygon fill="none" stroke="black" points="456.8,-573.8 456.8,-604.6 707.39,-604.6 707.39,-573.8 456.8,-573.8"/>
<text text-anchor="start" x="463.8" y="-586" font-family="Arial" font-size="14.00">Source_System_Key </text>
<text text-anchor="start" x="598.42" y="-586" font-family="Arial" font-size="14.00" fill="#666666">[bigint unsigned]</text>
<polygon fill="none" stroke="black" points="456.8,-543 456.8,-573.8 707.39,-573.8 707.39,-543 456.8,-543"/>
<text text-anchor="start" x="463.8" y="-555.2" font-family="Arial" font-size="14.00">School_Key </text>
<text text-anchor="start" x="542.41" y="-555.2" font-family="Arial" font-size="14.00" fill="#666666">[bigint unsigned]</text>
<polygon fill="none" stroke="black" points="456.8,-512.2 456.8,-543 707.39,-543 707.39,-512.2 456.8,-512.2"/>
<text text-anchor="start" x="463.8" y="-524.4" font-family="Arial" font-size="14.00">Ethnicity </text>
<text text-anchor="start" x="520.6" y="-524.4" font-family="Arial" font-size="14.00" fill="#666666">[varchar(50)]</text>
<polygon fill="none" stroke="black" points="456.8,-481.4 456.8,-512.2 707.39,-512.2 707.39,-481.4 456.8,-481.4"/>
<text text-anchor="start" x="463.8" y="-493.6" font-family="Arial" font-size="14.00">Gender </text>
<text text-anchor="start" x="514.39" y="-493.6" font-family="Arial" font-size="14.00" fill="#666666">[varchar(20)]</text>
<polygon fill="none" stroke="black" points="456.8,-450.6 456.8,-481.4 707.39,-481.4 707.39,-450.6 456.8,-450.6"/>
<text text-anchor="start" x="463.8" y="-462.8" font-family="Arial" font-size="14.00">Pupil_Premium </text>
<text text-anchor="start" x="562.62" y="-462.8" font-family="Arial" font-size="14.00" fill="#666666">[tinyint]</text>
<polygon fill="none" stroke="black" points="456.8,-419.8 456.8,-450.6 707.39,-450.6 707.39,-419.8 456.8,-419.8"/>
<text text-anchor="start" x="463.8" y="-432" font-family="Arial" font-size="14.00">Has_Send </text>
<text text-anchor="start" x="533.07" y="-432" font-family="Arial" font-size="14.00" fill="#666666">[tinyint]</text>
<polygon fill="none" stroke="black" stroke-width="3" points="455.3,-418.3 455.3,-703.3 708.89,-703.3 708.89,-418.3 455.3,-418.3"/>
</g>
<!-- Dim_Source_System -->
<g id="node4" class="node">
<title>Dim_Source_System</title>
<polygon fill="#efefef" stroke="none" points="249.35,-212.6 249.35,-248.2 540.83,-248.2 540.83,-212.6 249.35,-212.6"/>
<polygon fill="none" stroke="black" points="249.35,-212.6 249.35,-248.2 540.83,-248.2 540.83,-212.6 249.35,-212.6"/>
<text text-anchor="start" x="256.35" y="-226" font-family="Arial Bold" font-size="18.00">Dim_Source_System</text>
<text text-anchor="start" x="409.35" y="-226" font-family="Arial" font-size="14.00">    </text>
<text text-anchor="start" x="440.46" y="-226" font-family="Arial" font-size="14.00" fill="#666666">[BASE TABLE]</text>
<polygon fill="none" stroke="black" points="249.35,-181.8 249.35,-212.6 540.83,-212.6 540.83,-181.8 249.35,-181.8"/>
<text text-anchor="start" x="256.35" y="-194" font-family="Arial" font-size="14.00">Source_System_Key </text>
<text text-anchor="start" x="390.97" y="-194" font-family="Arial" font-size="14.00" fill="#666666">[bigint unsigned]</text>
<polygon fill="none" stroke="black" points="249.35,-151 249.35,-181.8 540.83,-181.8 540.83,-151 249.35,-151"/>
<text text-anchor="start" x="256.35" y="-163.2" font-family="Arial" font-size="14.00">System_Name </text>
<text text-anchor="start" x="352.05" y="-163.2" font-family="Arial" font-size="14.00" fill="#666666">[varchar(50)]</text>
<polygon fill="none" stroke="black" points="249.35,-120.2 249.35,-151 540.83,-151 540.83,-120.2 249.35,-120.2"/>
<text text-anchor="start" x="256.35" y="-132.4" font-family="Arial" font-size="14.00">System_Type </text>
<text text-anchor="start" x="345.83" y="-132.4" font-family="Arial" font-size="14.00" fill="#666666">[varchar(50)]</text>
<polygon fill="none" stroke="black" points="249.35,-89.4 249.35,-120.2 540.83,-120.2 540.83,-89.4 249.35,-89.4"/>
<text text-anchor="start" x="256.35" y="-101.6" font-family="Arial" font-size="14.00">Last_Sync_Date </text>
<text text-anchor="start" x="362.97" y="-101.6" font-family="Arial" font-size="14.00" fill="#666666">[datetime]</text>
</g>
<!-- Dim_Rider&#45;&gt;Dim_Source_System -->
<g id="edge3" class="edge">
<title>Dim_Rider:Source_System_Key&#45;&gt;Dim_Source_System:Source_System_Key</title>
<path fill="none" stroke="black" d="M445.77,-588.68C364.36,-579.8 420.83,-458.56 456.8,-373.6 477.17,-325.49 520.32,-339.45 540.83,-291.4 557.27,-252.89 583.7,-197.2 541.83,-197.2"/>
<polygon fill="black" stroke="black" points="445.48,-588.67 455.24,-593.68 450.81,-588.94 455.13,-589.17 455.13,-589.17 455.13,-589.17 450.81,-588.94 455.7,-584.69 445.48,-588.67"/>
<text text-anchor="start" x="7" y="-599.2" font-family="Arial" font-size="10.00">FOREIGN KEY (Source_System_Key) REFERENCES Dim_Source_System (Source_System_Key)</text>
</g>
<!-- Dim_School -->
<g id="node5" class="node">
<title>Dim_School</title>
<polygon fill="#efefef" stroke="none" points="644.8,-258.8 644.8,-294.4 895.39,-294.4 895.39,-258.8 644.8,-258.8"/>
<polygon fill="none" stroke="black" points="644.8,-258.8 644.8,-294.4 895.39,-294.4 895.39,-258.8 644.8,-258.8"/>
<text text-anchor="start" x="662.35" y="-272.2" font-family="Arial Bold" font-size="18.00">Dim_School</text>
<text text-anchor="start" x="753.35" y="-272.2" font-family="Arial" font-size="14.00">    </text>
<text text-anchor="start" x="784.47" y="-272.2" font-family="Arial" font-size="14.00" fill="#666666">[BASE TABLE]</text>
<polygon fill="none" stroke="black" points="644.8,-228 644.8,-258.8 895.39,-258.8 895.39,-228 644.8,-228"/>
<text text-anchor="start" x="651.8" y="-240.2" font-family="Arial" font-size="14.00">School_Key </text>
<text text-anchor="start" x="730.41" y="-240.2" font-family="Arial" font-size="14.00" fill="#666666">[bigint unsigned]</text>
<polygon fill="none" stroke="black" points="644.8,-197.2 644.8,-228 895.39,-228 895.39,-197.2 644.8,-197.2"/>
<text text-anchor="start" x="651.8" y="-209.4" font-family="Arial" font-size="14.00">Source_School_Id </text>
<text text-anchor="start" x="770.1" y="-209.4" font-family="Arial" font-size="14.00" fill="#666666">[int]</text>
<polygon fill="none" stroke="black" points="644.8,-166.4 644.8,-197.2 895.39,-197.2 895.39,-166.4 644.8,-166.4"/>
<text text-anchor="start" x="651.8" y="-178.6" font-family="Arial" font-size="14.00">Source_System_Key </text>
<text text-anchor="start" x="786.42" y="-178.6" font-family="Arial" font-size="14.00" fill="#666666">[bigint unsigned]</text>
<polygon fill="none" stroke="black" points="644.8,-135.6 644.8,-166.4 895.39,-166.4 895.39,-135.6 644.8,-135.6"/>
<text text-anchor="start" x="651.8" y="-147.8" font-family="Arial" font-size="14.00">School_Urn </text>
<text text-anchor="start" x="728.84" y="-147.8" font-family="Arial" font-size="14.00" fill="#666666">[varchar(255)]</text>
<polygon fill="none" stroke="black" points="644.8,-104.8 644.8,-135.6 895.39,-135.6 895.39,-104.8 644.8,-104.8"/>
<text text-anchor="start" x="651.8" y="-117" font-family="Arial" font-size="14.00">School_Name </text>
<text text-anchor="start" x="743.63" y="-117" font-family="Arial" font-size="14.00" fill="#666666">[varchar(255)]</text>
<polygon fill="none" stroke="black" points="644.8,-74 644.8,-104.8 895.39,-104.8 895.39,-74 644.8,-74"/>
<text text-anchor="start" x="651.8" y="-86.2" font-family="Arial" font-size="14.00">LA_Code </text>
<text text-anchor="start" x="714.07" y="-86.2" font-family="Arial" font-size="14.00" fill="#666666">[varchar(255)]</text>
<polygon fill="none" stroke="black" points="644.8,-43.2 644.8,-74 895.39,-74 895.39,-43.2 644.8,-43.2"/>
<text text-anchor="start" x="651.8" y="-55.4" font-family="Arial" font-size="14.00">LA_Name </text>
<text text-anchor="start" x="717.95" y="-55.4" font-family="Arial" font-size="14.00" fill="#666666">[varchar(255)]</text>
</g>
<!-- Dim_Rider&#45;&gt;Dim_School -->
<g id="edge4" class="edge">
<title>Dim_Rider:School_Key&#45;&gt;Dim_School:School_Key</title>
<path fill="none" stroke="black" d="M718.72,-557.73C786.77,-548.26 746.85,-441.4 707.39,-373.6 691.24,-345.87 661.02,-365.29 644.8,-337.6 623.65,-301.47 601.93,-243.4 643.8,-243.4"/>
<polygon fill="black" stroke="black" points="718.7,-557.73 708.43,-553.89 713.38,-558.07 709.05,-558.36 709.05,-558.36 709.05,-558.36 713.38,-558.07 709.01,-562.87 718.7,-557.73"/>
<text text-anchor="start" x="715.39" y="-568.4" font-family="Arial" font-size="10.00">FOREIGN KEY (School_Key) REFERENCES Dim_School (School_Key)</text>
</g>
<!-- Dim_Consent -->
<g id="node2" class="node">
<title>Dim_Consent</title>
<polygon fill="#efefef" stroke="none" points="258.52,-1689.6 258.52,-1725.2 531.67,-1725.2 531.67,-1689.6 258.52,-1689.6"/>
<polygon fill="none" stroke="black" points="258.52,-1689.6 258.52,-1725.2 531.67,-1725.2 531.67,-1689.6 258.52,-1689.6"/>
<text text-anchor="start" x="282.85" y="-1703" font-family="Arial Bold" font-size="18.00">Dim_Consent</text>
<text text-anchor="start" x="382.85" y="-1703" font-family="Arial" font-size="14.00">    </text>
<text text-anchor="start" x="413.97" y="-1703" font-family="Arial" font-size="14.00" fill="#666666">[BASE TABLE]</text>
<polygon fill="none" stroke="black" points="258.52,-1658.8 258.52,-1689.6 531.67,-1689.6 531.67,-1658.8 258.52,-1658.8"/>
<text text-anchor="start" x="265.52" y="-1671" font-family="Arial" font-size="14.00">Consent_Key </text>
<text text-anchor="start" x="353.46" y="-1671" font-family="Arial" font-size="14.00" fill="#666666">[bigint unsigned]</text>
<polygon fill="none" stroke="black" points="258.52,-1628 258.52,-1658.8 531.67,-1658.8 531.67,-1628 258.52,-1628"/>
<text text-anchor="start" x="265.52" y="-1640.2" font-family="Arial" font-size="14.00">Source_Consent_Id </text>
<text text-anchor="start" x="393.16" y="-1640.2" font-family="Arial" font-size="14.00" fill="#666666">[bigint unsigned]</text>
<polygon fill="none" stroke="black" points="258.52,-1597.2 258.52,-1628 531.67,-1628 531.67,-1597.2 258.52,-1597.2"/>
<text text-anchor="start" x="265.52" y="-1609.4" font-family="Arial" font-size="14.00">Source_System_Key </text>
<text text-anchor="start" x="400.14" y="-1609.4" font-family="Arial" font-size="14.00" fill="#666666">[bigint unsigned]</text>
<polygon fill="none" stroke="black" points="258.52,-1566.4 258.52,-1597.2 531.67,-1597.2 531.67,-1566.4 258.52,-1566.4"/>
<text text-anchor="start" x="265.52" y="-1578.6" font-family="Arial" font-size="14.00">Rider_Key </text>
<text text-anchor="start" x="334.77" y="-1578.6" font-family="Arial" font-size="14.00" fill="#666666">[bigint unsigned]</text>
<polygon fill="none" stroke="black" points="258.52,-1535.6 258.52,-1566.4 531.67,-1566.4 531.67,-1535.6 258.52,-1535.6"/>
<text text-anchor="start" x="265.52" y="-1547.8" font-family="Arial" font-size="14.00">Delivery_Key </text>
<text text-anchor="start" x="351.88" y="-1547.8" font-family="Arial" font-size="14.00" fill="#666666">[bigint unsigned]</text>
<polygon fill="none" stroke="black" points="258.52,-1504.8 258.52,-1535.6 531.67,-1535.6 531.67,-1504.8 258.52,-1504.8"/>
<text text-anchor="start" x="265.52" y="-1517" font-family="Arial" font-size="14.00">Consent_Status </text>
<text text-anchor="start" x="369.03" y="-1517" font-family="Arial" font-size="14.00" fill="#666666">[tinyint]</text>
<polygon fill="none" stroke="black" points="258.52,-1474 258.52,-1504.8 531.67,-1504.8 531.67,-1474 258.52,-1474"/>
<text text-anchor="start" x="265.52" y="-1486.2" font-family="Arial" font-size="14.00">Pref_Join_Bikeclub </text>
<text text-anchor="start" x="389.26" y="-1486.2" font-family="Arial" font-size="14.00" fill="#666666">[tinyint(1)]</text>
<polygon fill="none" stroke="black" points="258.52,-1443.2 258.52,-1474 531.67,-1474 531.67,-1443.2 258.52,-1443.2"/>
<text text-anchor="start" x="265.52" y="-1455.4" font-family="Arial" font-size="14.00">Pref_Further_Research </text>
<text text-anchor="start" x="415.7" y="-1455.4" font-family="Arial" font-size="14.00" fill="#666666">[tinyint(1)]</text>
<polygon fill="none" stroke="black" points="258.52,-1412.4 258.52,-1443.2 531.67,-1443.2 531.67,-1412.4 258.52,-1412.4"/>
<text text-anchor="start" x="265.52" y="-1424.6" font-family="Arial" font-size="14.00">Pref_Receive_News </text>
<text text-anchor="start" x="396.24" y="-1424.6" font-family="Arial" font-size="14.00" fill="#666666">[tinyint(1)]</text>
<polygon fill="none" stroke="black" points="258.52,-1381.6 258.52,-1412.4 531.67,-1412.4 531.67,-1381.6 258.52,-1381.6"/>
<text text-anchor="start" x="265.52" y="-1393.8" font-family="Arial" font-size="14.00">Has_Bike </text>
<text text-anchor="start" x="329.33" y="-1393.8" font-family="Arial" font-size="14.00" fill="#666666">[tinyint]</text>
<polygon fill="none" stroke="black" points="258.52,-1350.8 258.52,-1381.6 531.67,-1381.6 531.67,-1350.8 258.52,-1350.8"/>
<text text-anchor="start" x="265.52" y="-1363" font-family="Arial" font-size="14.00">Ability_Cannot_Cycle </text>
<text text-anchor="start" x="402.48" y="-1363" font-family="Arial" font-size="14.00" fill="#666666">[tinyint]</text>
<polygon fill="none" stroke="black" points="258.52,-1320 258.52,-1350.8 531.67,-1350.8 531.67,-1320 258.52,-1320"/>
<text text-anchor="start" x="265.52" y="-1332.2" font-family="Arial" font-size="14.00">Ability_Can_Look_Over_Shoulder </text>
<text text-anchor="start" x="480.32" y="-1332.2" font-family="Arial" font-size="14.00" fill="#666666">[tinyint]</text>
<polygon fill="none" stroke="black" points="258.52,-1289.2 258.52,-1320 531.67,-1320 531.67,-1289.2 258.52,-1289.2"/>
<text text-anchor="start" x="265.52" y="-1301.4" font-family="Arial" font-size="14.00">Ability_Can_One_Hand_Signal </text>
<text text-anchor="start" x="462.43" y="-1301.4" font-family="Arial" font-size="14.00" fill="#666666">[tinyint]</text>
<polygon fill="none" stroke="black" points="258.52,-1258.4 258.52,-1289.2 531.67,-1289.2 531.67,-1258.4 258.52,-1258.4"/>
<text text-anchor="start" x="265.52" y="-1270.6" font-family="Arial" font-size="14.00">Ability_Has_Level_2 </text>
<text text-anchor="start" x="396.26" y="-1270.6" font-family="Arial" font-size="14.00" fill="#666666">[tinyint]</text>
<polygon fill="none" stroke="black" points="258.52,-1227.6 258.52,-1258.4 531.67,-1258.4 531.67,-1227.6 258.52,-1227.6"/>
<text text-anchor="start" x="265.52" y="-1239.8" font-family="Arial" font-size="14.00">Cycle_Ability_Raw </text>
<text text-anchor="start" x="385.34" y="-1239.8" font-family="Arial" font-size="14.00" fill="#666666">[text]</text>
<polygon fill="none" stroke="black" points="258.52,-1196.8 258.52,-1227.6 531.67,-1227.6 531.67,-1196.8 258.52,-1196.8"/>
<text text-anchor="start" x="265.52" y="-1209" font-family="Arial" font-size="14.00">Is_Pupil_Premium </text>
<text text-anchor="start" x="383.01" y="-1209" font-family="Arial" font-size="14.00" fill="#666666">[tinyint]</text>
<polygon fill="none" stroke="black" points="258.52,-1166 258.52,-1196.8 531.67,-1196.8 531.67,-1166 258.52,-1166"/>
<text text-anchor="start" x="265.52" y="-1178.2" font-family="Arial" font-size="14.00">Is_SEND </text>
<text text-anchor="start" x="326.98" y="-1178.2" font-family="Arial" font-size="14.00" fill="#666666">[tinyint]</text>
<polygon fill="none" stroke="black" points="258.52,-1135.2 258.52,-1166 531.67,-1166 531.67,-1135.2 258.52,-1135.2"/>
<text text-anchor="start" x="265.52" y="-1147.4" font-family="Arial" font-size="14.00">SEND_Details </text>
<text text-anchor="start" x="358.88" y="-1147.4" font-family="Arial" font-size="14.00" fill="#666666">[text]</text>
<polygon fill="none" stroke="black" points="258.52,-1104.4 258.52,-1135.2 531.67,-1135.2 531.67,-1104.4 258.52,-1104.4"/>
<text text-anchor="start" x="265.52" y="-1116.6" font-family="Arial" font-size="14.00">Has_Medical_Condition </text>
<text text-anchor="start" x="417.27" y="-1116.6" font-family="Arial" font-size="14.00" fill="#666666">[tinyint]</text>
<polygon fill="none" stroke="black" points="258.52,-1073.6 258.52,-1104.4 531.67,-1104.4 531.67,-1073.6 258.52,-1073.6"/>
<text text-anchor="start" x="265.52" y="-1085.8" font-family="Arial" font-size="14.00">Medical_Details </text>
<text text-anchor="start" x="368.23" y="-1085.8" font-family="Arial" font-size="14.00" fill="#666666">[text]</text>
<polygon fill="none" stroke="black" points="258.52,-1042.8 258.52,-1073.6 531.67,-1073.6 531.67,-1042.8 258.52,-1042.8"/>
<text text-anchor="start" x="265.52" y="-1055" font-family="Arial" font-size="14.00">Attended </text>
<text text-anchor="start" x="325.46" y="-1055" font-family="Arial" font-size="14.00" fill="#666666">[tinyint]</text>
<polygon fill="none" stroke="black" points="258.52,-1012 258.52,-1042.8 531.67,-1042.8 531.67,-1012 258.52,-1012"/>
<text text-anchor="start" x="265.52" y="-1024.2" font-family="Arial" font-size="14.00">Year_Group </text>
<text text-anchor="start" x="345.68" y="-1024.2" font-family="Arial" font-size="14.00" fill="#666666">[varchar(10)]</text>
<polygon fill="none" stroke="black" points="258.52,-981.2 258.52,-1012 531.67,-1012 531.67,-981.2 258.52,-981.2"/>
<text text-anchor="start" x="265.52" y="-993.4" font-family="Arial" font-size="14.00">Gender </text>
<text text-anchor="start" x="316.1" y="-993.4" font-family="Arial" font-size="14.00" fill="#666666">[varchar(50)]</text>
<polygon fill="none" stroke="black" points="258.52,-950.4 258.52,-981.2 531.67,-981.2 531.67,-950.4 258.52,-950.4"/>
<text text-anchor="start" x="265.52" y="-962.6" font-family="Arial" font-size="14.00">Ethnicity </text>
<text text-anchor="start" x="322.32" y="-962.6" font-family="Arial" font-size="14.00" fill="#666666">[varchar(100)]</text>
<polygon fill="none" stroke="black" points="258.52,-919.6 258.52,-950.4 531.67,-950.4 531.67,-919.6 258.52,-919.6"/>
<text text-anchor="start" x="265.52" y="-931.8" font-family="Arial" font-size="14.00">Pre_Freq_To_School </text>
<text text-anchor="start" x="402.48" y="-931.8" font-family="Arial" font-size="14.00" fill="#666666">[int]</text>
<polygon fill="none" stroke="black" points="258.52,-888.8 258.52,-919.6 531.67,-919.6 531.67,-888.8 258.52,-888.8"/>
<text text-anchor="start" x="265.52" y="-901" font-family="Arial" font-size="14.00">Pre_Freq_Leisure </text>
<text text-anchor="start" x="381.47" y="-901" font-family="Arial" font-size="14.00" fill="#666666">[int]</text>
<polygon fill="none" stroke="black" points="258.52,-858 258.52,-888.8 531.67,-888.8 531.67,-858 258.52,-858"/>
<text text-anchor="start" x="265.52" y="-870.2" font-family="Arial" font-size="14.00">Pre_Freq_Exercise </text>
<text text-anchor="start" x="389.24" y="-870.2" font-family="Arial" font-size="14.00" fill="#666666">[int]</text>
<polygon fill="none" stroke="black" points="258.52,-827.2 258.52,-858 531.67,-858 531.67,-827.2 258.52,-827.2"/>
<text text-anchor="start" x="265.52" y="-839.4" font-family="Arial" font-size="14.00">Pre_Freq_Other </text>
<text text-anchor="start" x="370.57" y="-839.4" font-family="Arial" font-size="14.00" fill="#666666">[int]</text>
</g>
<!-- Dim_Consent&#45;&gt;Dim_Rider -->
<g id="edge1" class="edge">
<title>Dim_Consent:Rider_Key&#45;&gt;Dim_Rider:Rider_Key</title>
<path fill="none" stroke="black" d="M539.79,-1574.27C574.44,-1495.18 553.9,-819.31 531.67,-784 512,-752.76 476.61,-779.15 456.8,-748 433.62,-711.55 412.6,-650.8 455.8,-650.8"/>
<polygon fill="black" stroke="black" points="539.77,-1574.29 529.63,-1578.46 536.11,-1578.17 533.13,-1581.31 533.13,-1581.31 533.13,-1581.31 536.11,-1578.17 536.17,-1584.65 539.77,-1574.29"/>
<text text-anchor="start" x="539.67" y="-1591.8" font-family="Arial" font-size="10.00">FOREIGN KEY (Rider_Key) REFERENCES Dim_Rider (Rider_Key)</text>
</g>
<!-- Map_Rider_Send -->
<g id="node3" class="node">
<title>Map_Rider_Send</title>
<polygon fill="#efefef" stroke="none" points="636.36,-1289.2 636.36,-1324.8 901.83,-1324.8 901.83,-1289.2 636.36,-1289.2"/>
<polygon fill="none" stroke="black" points="636.36,-1289.2 636.36,-1324.8 901.83,-1324.8 901.83,-1289.2 636.36,-1289.2"/>
<text text-anchor="start" x="643.36" y="-1302.6" font-family="Arial Bold" font-size="18.00">Map_Rider_Send</text>
<text text-anchor="start" x="770.34" y="-1302.6" font-family="Arial" font-size="14.00">    </text>
<text text-anchor="start" x="801.46" y="-1302.6" font-family="Arial" font-size="14.00" fill="#666666">[BASE TABLE]</text>
<polygon fill="none" stroke="black" points="636.36,-1258.4 636.36,-1289.2 901.83,-1289.2 901.83,-1258.4 636.36,-1258.4"/>
<text text-anchor="start" x="643.36" y="-1270.6" font-family="Arial" font-size="14.00">Rider_Key </text>
<text text-anchor="start" x="712.61" y="-1270.6" font-family="Arial" font-size="14.00" fill="#666666">[bigint unsigned]</text>
<polygon fill="none" stroke="black" points="636.36,-1227.6 636.36,-1258.4 901.83,-1258.4 901.83,-1227.6 636.36,-1227.6"/>
<text text-anchor="start" x="643.36" y="-1239.8" font-family="Arial" font-size="14.00">Send_Code_Key </text>
<text text-anchor="start" x="753.11" y="-1239.8" font-family="Arial" font-size="14.00" fill="#666666">[bigint unsigned]</text>
</g>
<!-- Map_Rider_Send&#45;&gt;Dim_Rider -->
<g id="edge2" class="edge">
<title>Map_Rider_Send:Rider_Key&#45;&gt;Dim_Rider:Rider_Key</title>
<path fill="none" stroke="black" d="M625.34,-1272.52C514.18,-1241.38 844.1,-650.8 708.39,-650.8"/>
<polygon fill="black" stroke="black" points="625.11,-1272.49 634.46,-1278.22 630.4,-1273.17 634.69,-1273.72 634.69,-1273.72 634.69,-1273.72 630.4,-1273.17 635.59,-1269.29 625.11,-1272.49"/>
<text text-anchor="start" x="642.36" y="-1283.8" font-family="Arial" font-size="10.00">FOREIGN KEY (Rider_Key) REFERENCES Dim_Rider (Rider_Key)</text>
</g>
</g>
</svg>
