<?xml version="1.0" encoding="UTF-8" standalone="no"?>
<!DOCTYPE svg PUBLIC "-//W3C//DTD SVG 1.1//EN"
 "http://www.w3.org/Graphics/SVG/1.1/DTD/svg11.dtd">
<!-- Generated by graphviz version 12.1.2 (20240928.0832)
 -->
<!-- Title: Dim_School Pages: 1 -->
<svg width="1177pt" height="1930pt"
 viewBox="0.00 0.00 1177.41 1930.40" xmlns="http://www.w3.org/2000/svg" xmlns:xlink="http://www.w3.org/1999/xlink">
<g id="graph0" class="graph" transform="scale(1 1) rotate(0) translate(4 1926.4)">
<title>Dim_School</title>
<polygon fill="white" stroke="none" points="-4,4 -4,-1926.4 1173.41,-1926.4 1173.41,4 -4,4"/>
<!-- Dim_School -->
<g id="node1" class="node">
<title>Dim_School</title>
<polygon fill="#efefef" stroke="none" points="450.62,-543 450.62,-578.6 701.2,-578.6 701.2,-543 450.62,-543"/>
<polygon fill="none" stroke="black" points="450.62,-543 450.62,-578.6 701.2,-578.6 701.2,-543 450.62,-543"/>
<text text-anchor="start" x="468.17" y="-556.4" font-family="Arial Bold" font-size="18.00">Dim_School</text>
<text text-anchor="start" x="559.17" y="-556.4" font-family="Arial" font-size="14.00">    </text>
<text text-anchor="start" x="590.29" y="-556.4" font-family="Arial" font-size="14.00" fill="#666666">[BASE TABLE]</text>
<polygon fill="none" stroke="black" points="450.62,-512.2 450.62,-543 701.2,-543 701.2,-512.2 450.62,-512.2"/>
<text text-anchor="start" x="457.62" y="-524.4" font-family="Arial" font-size="14.00">School_Key </text>
<text text-anchor="start" x="536.23" y="-524.4" font-family="Arial" font-size="14.00" fill="#666666">[bigint unsigned]</text>
<polygon fill="none" stroke="black" points="450.62,-481.4 450.62,-512.2 701.2,-512.2 701.2,-481.4 450.62,-481.4"/>
<text text-anchor="start" x="457.62" y="-493.6" font-family="Arial" font-size="14.00">Source_School_Id </text>
<text text-anchor="start" x="575.92" y="-493.6" font-family="Arial" font-size="14.00" fill="#666666">[int]</text>
<polygon fill="none" stroke="black" points="450.62,-450.6 450.62,-481.4 701.2,-481.4 701.2,-450.6 450.62,-450.6"/>
<text text-anchor="start" x="457.62" y="-462.8" font-family="Arial" font-size="14.00">Source_System_Key </text>
<text text-anchor="start" x="592.24" y="-462.8" font-family="Arial" font-size="14.00" fill="#666666">[bigint unsigned]</text>
<polygon fill="none" stroke="black" points="450.62,-419.8 450.62,-450.6 701.2,-450.6 701.2,-419.8 450.62,-419.8"/>
<text text-anchor="start" x="457.62" y="-432" font-family="Arial" font-size="14.00">School_Urn </text>
<text text-anchor="start" x="534.66" y="-432" font-family="Arial" font-size="14.00" fill="#666666">[varchar(255)]</text>
<polygon fill="none" stroke="black" points="450.62,-389 450.62,-419.8 701.2,-419.8 701.2,-389 450.62,-389"/>
<text text-anchor="start" x="457.62" y="-401.2" font-family="Arial" font-size="14.00">School_Name </text>
<text text-anchor="start" x="549.45" y="-401.2" font-family="Arial" font-size="14.00" fill="#666666">[varchar(255)]</text>
<polygon fill="none" stroke="black" points="450.62,-358.2 450.62,-389 701.2,-389 701.2,-358.2 450.62,-358.2"/>
<text text-anchor="start" x="457.62" y="-370.4" font-family="Arial" font-size="14.00">LA_Code </text>
<text text-anchor="start" x="519.89" y="-370.4" font-family="Arial" font-size="14.00" fill="#666666">[varchar(255)]</text>
<polygon fill="none" stroke="black" points="450.62,-327.4 450.62,-358.2 701.2,-358.2 701.2,-327.4 450.62,-327.4"/>
<text text-anchor="start" x="457.62" y="-339.6" font-family="Arial" font-size="14.00">LA_Name </text>
<text text-anchor="start" x="523.76" y="-339.6" font-family="Arial" font-size="14.00" fill="#666666">[varchar(255)]</text>
<polygon fill="none" stroke="black" stroke-width="3" points="449.12,-325.9 449.12,-580.1 702.7,-580.1 702.7,-325.9 449.12,-325.9"/>
</g>
<!-- Dim_Source_System -->
<g id="node5" class="node">
<title>Dim_Source_System</title>
<polygon fill="#efefef" stroke="none" points="430.17,-166.4 430.17,-202 721.65,-202 721.65,-166.4 430.17,-166.4"/>
<polygon fill="none" stroke="black" points="430.17,-166.4 430.17,-202 721.65,-202 721.65,-166.4 430.17,-166.4"/>
<text text-anchor="start" x="437.17" y="-179.8" font-family="Arial Bold" font-size="18.00">Dim_Source_System</text>
<text text-anchor="start" x="590.16" y="-179.8" font-family="Arial" font-size="14.00">    </text>
<text text-anchor="start" x="621.28" y="-179.8" font-family="Arial" font-size="14.00" fill="#666666">[BASE TABLE]</text>
<polygon fill="none" stroke="black" points="430.17,-135.6 430.17,-166.4 721.65,-166.4 721.65,-135.6 430.17,-135.6"/>
<text text-anchor="start" x="437.17" y="-147.8" font-family="Arial" font-size="14.00">Source_System_Key </text>
<text text-anchor="start" x="571.79" y="-147.8" font-family="Arial" font-size="14.00" fill="#666666">[bigint unsigned]</text>
<polygon fill="none" stroke="black" points="430.17,-104.8 430.17,-135.6 721.65,-135.6 721.65,-104.8 430.17,-104.8"/>
<text text-anchor="start" x="437.17" y="-117" font-family="Arial" font-size="14.00">System_Name </text>
<text text-anchor="start" x="532.87" y="-117" font-family="Arial" font-size="14.00" fill="#666666">[varchar(50)]</text>
<polygon fill="none" stroke="black" points="430.17,-74 430.17,-104.8 721.65,-104.8 721.65,-74 430.17,-74"/>
<text text-anchor="start" x="437.17" y="-86.2" font-family="Arial" font-size="14.00">System_Type </text>
<text text-anchor="start" x="526.65" y="-86.2" font-family="Arial" font-size="14.00" fill="#666666">[varchar(50)]</text>
<polygon fill="none" stroke="black" points="430.17,-43.2 430.17,-74 721.65,-74 721.65,-43.2 430.17,-43.2"/>
<text text-anchor="start" x="437.17" y="-55.4" font-family="Arial" font-size="14.00">Last_Sync_Date </text>
<text text-anchor="start" x="543.79" y="-55.4" font-family="Arial" font-size="14.00" fill="#666666">[datetime]</text>
</g>
<!-- Dim_School&#45;&gt;Dim_Source_System -->
<g id="edge4" class="edge">
<title>Dim_School:Source_System_Key&#45;&gt;Dim_Source_System:Source_System_Key</title>
<path fill="none" stroke="black" d="M712.27,-465.45C843.4,-450.81 859.52,-151 722.65,-151"/>
<polygon fill="black" stroke="black" points="712.52,-465.43 702.29,-461.49 707.2,-465.72 702.87,-465.96 702.87,-465.96 702.87,-465.96 707.2,-465.72 702.79,-470.47 712.52,-465.43"/>
<text text-anchor="start" x="709.2" y="-476" font-family="Arial" font-size="10.00">FOREIGN KEY (Source_System_Key) REFERENCES Dim_Source_System (Source_System_Key)</text>
</g>
<!-- Dim_Delivery_Header -->
<g id="node2" class="node">
<title>Dim_Delivery_Header</title>
<polygon fill="#efefef" stroke="none" points="43.2,-1720.4 43.2,-1756 346.62,-1756 346.62,-1720.4 43.2,-1720.4"/>
<polygon fill="none" stroke="black" points="43.2,-1720.4 43.2,-1756 346.62,-1756 346.62,-1720.4 43.2,-1720.4"/>
<text text-anchor="start" x="50.2" y="-1733.8" font-family="Arial Bold" font-size="18.00">Dim_Delivery_Header</text>
<text text-anchor="start" x="215.14" y="-1733.8" font-family="Arial" font-size="14.00">    </text>
<text text-anchor="start" x="246.25" y="-1733.8" font-family="Arial" font-size="14.00" fill="#666666">[BASE TABLE]</text>
<polygon fill="none" stroke="black" points="43.2,-1689.6 43.2,-1720.4 346.62,-1720.4 346.62,-1689.6 43.2,-1689.6"/>
<text text-anchor="start" x="50.2" y="-1701.8" font-family="Arial" font-size="14.00">Delivery_Key </text>
<text text-anchor="start" x="136.57" y="-1701.8" font-family="Arial" font-size="14.00" fill="#666666">[bigint unsigned]</text>
<polygon fill="none" stroke="black" points="43.2,-1658.8 43.2,-1689.6 346.62,-1689.6 346.62,-1658.8 43.2,-1658.8"/>
<text text-anchor="start" x="50.2" y="-1671" font-family="Arial" font-size="14.00">Source_Delivery_Id </text>
<text text-anchor="start" x="176.26" y="-1671" font-family="Arial" font-size="14.00" fill="#666666">[bigint unsigned]</text>
<polygon fill="none" stroke="black" points="43.2,-1628 43.2,-1658.8 346.62,-1658.8 346.62,-1628 43.2,-1628"/>
<text text-anchor="start" x="50.2" y="-1640.2" font-family="Arial" font-size="14.00">Source_System_Key </text>
<text text-anchor="start" x="184.82" y="-1640.2" font-family="Arial" font-size="14.00" fill="#666666">[bigint unsigned]</text>
<polygon fill="none" stroke="black" points="43.2,-1597.2 43.2,-1628 346.62,-1628 346.62,-1597.2 43.2,-1597.2"/>
<text text-anchor="start" x="50.2" y="-1609.4" font-family="Arial" font-size="14.00">Grant_Key </text>
<text text-anchor="start" x="121.01" y="-1609.4" font-family="Arial" font-size="14.00" fill="#666666">[bigint unsigned]</text>
<polygon fill="none" stroke="black" points="43.2,-1566.4 43.2,-1597.2 346.62,-1597.2 346.62,-1566.4 43.2,-1566.4"/>
<text text-anchor="start" x="50.2" y="-1578.6" font-family="Arial" font-size="14.00">School_Key </text>
<text text-anchor="start" x="128.81" y="-1578.6" font-family="Arial" font-size="14.00" fill="#666666">[bigint unsigned]</text>
<polygon fill="none" stroke="black" points="43.2,-1535.6 43.2,-1566.4 346.62,-1566.4 346.62,-1535.6 43.2,-1535.6"/>
<text text-anchor="start" x="50.2" y="-1547.8" font-family="Arial" font-size="14.00">Organisation_Key </text>
<text text-anchor="start" x="165.38" y="-1547.8" font-family="Arial" font-size="14.00" fill="#666666">[bigint unsigned]</text>
<polygon fill="none" stroke="black" points="43.2,-1504.8 43.2,-1535.6 346.62,-1535.6 346.62,-1504.8 43.2,-1504.8"/>
<text text-anchor="start" x="50.2" y="-1517" font-family="Arial" font-size="14.00">Training_Provider_Key </text>
<text text-anchor="start" x="196.5" y="-1517" font-family="Arial" font-size="14.00" fill="#666666">[bigint unsigned]</text>
<polygon fill="none" stroke="black" points="43.2,-1474 43.2,-1504.8 346.62,-1504.8 346.62,-1474 43.2,-1474"/>
<text text-anchor="start" x="50.2" y="-1486.2" font-family="Arial" font-size="14.00">External_System_Key </text>
<text text-anchor="start" x="191.82" y="-1486.2" font-family="Arial" font-size="14.00" fill="#666666">[bigint unsigned]</text>
<polygon fill="none" stroke="black" points="43.2,-1443.2 43.2,-1474 346.62,-1474 346.62,-1443.2 43.2,-1443.2"/>
<text text-anchor="start" x="50.2" y="-1455.4" font-family="Arial" font-size="14.00">Delivery_Status </text>
<text text-anchor="start" x="152.13" y="-1455.4" font-family="Arial" font-size="14.00" fill="#666666">[varchar(50)]</text>
<polygon fill="none" stroke="black" points="43.2,-1412.4 43.2,-1443.2 346.62,-1443.2 346.62,-1412.4 43.2,-1412.4"/>
<text text-anchor="start" x="50.2" y="-1424.6" font-family="Arial" font-size="14.00">Date_Delivery_Start </text>
<text text-anchor="start" x="179.37" y="-1424.6" font-family="Arial" font-size="14.00" fill="#666666">[date]</text>
<polygon fill="none" stroke="black" points="43.2,-1381.6 43.2,-1412.4 346.62,-1412.4 346.62,-1381.6 43.2,-1381.6"/>
<text text-anchor="start" x="50.2" y="-1393.8" font-family="Arial" font-size="14.00">Date_Delivery_End </text>
<text text-anchor="start" x="174.71" y="-1393.8" font-family="Arial" font-size="14.00" fill="#666666">[date]</text>
<polygon fill="none" stroke="black" points="43.2,-1350.8 43.2,-1381.6 346.62,-1381.6 346.62,-1350.8 43.2,-1350.8"/>
<text text-anchor="start" x="50.2" y="-1363" font-family="Arial" font-size="14.00">Digitisation_Booking </text>
<text text-anchor="start" x="180.94" y="-1363" font-family="Arial" font-size="14.00" fill="#666666">[tinyint]</text>
<polygon fill="none" stroke="black" points="43.2,-1320 43.2,-1350.8 346.62,-1350.8 346.62,-1320 43.2,-1320"/>
<text text-anchor="start" x="50.2" y="-1332.2" font-family="Arial" font-size="14.00">Fleet_Cycles_Used </text>
<text text-anchor="start" x="175.48" y="-1332.2" font-family="Arial" font-size="14.00" fill="#666666">[int]</text>
<polygon fill="none" stroke="black" points="43.2,-1289.2 43.2,-1320 346.62,-1320 346.62,-1289.2 43.2,-1289.2"/>
<text text-anchor="start" x="50.2" y="-1301.4" font-family="Arial" font-size="14.00">Consent_Cutoff_Date </text>
<text text-anchor="start" x="188.73" y="-1301.4" font-family="Arial" font-size="14.00" fill="#666666">[date]</text>
<polygon fill="none" stroke="black" points="43.2,-1258.4 43.2,-1289.2 346.62,-1289.2 346.62,-1258.4 43.2,-1258.4"/>
<text text-anchor="start" x="50.2" y="-1270.6" font-family="Arial" font-size="14.00">Pref_Alt_Delivery_Location </text>
<text text-anchor="start" x="222.96" y="-1270.6" font-family="Arial" font-size="14.00" fill="#666666">[tinyint]</text>
<polygon fill="none" stroke="black" points="43.2,-1227.6 43.2,-1258.4 346.62,-1258.4 346.62,-1227.6 43.2,-1227.6"/>
<text text-anchor="start" x="50.2" y="-1239.8" font-family="Arial" font-size="14.00">Alt_Delivery_Location </text>
<text text-anchor="start" x="189.5" y="-1239.8" font-family="Arial" font-size="14.00" fill="#666666">[text]</text>
<polygon fill="none" stroke="black" points="43.2,-1196.8 43.2,-1227.6 346.62,-1227.6 346.62,-1196.8 43.2,-1196.8"/>
<text text-anchor="start" x="50.2" y="-1209" font-family="Arial" font-size="14.00">Notes </text>
<text text-anchor="start" x="90.66" y="-1209" font-family="Arial" font-size="14.00" fill="#666666">[text]</text>
<polygon fill="none" stroke="black" points="43.2,-1166 43.2,-1196.8 346.62,-1196.8 346.62,-1166 43.2,-1166"/>
<text text-anchor="start" x="50.2" y="-1178.2" font-family="Arial" font-size="14.00">Instructor_General_Notes </text>
<text text-anchor="start" x="214.39" y="-1178.2" font-family="Arial" font-size="14.00" fill="#666666">[text]</text>
<polygon fill="none" stroke="black" points="43.2,-1135.2 43.2,-1166 346.62,-1166 346.62,-1135.2 43.2,-1135.2"/>
<text text-anchor="start" x="50.2" y="-1147.4" font-family="Arial" font-size="14.00">Teacher_Notes </text>
<text text-anchor="start" x="149.81" y="-1147.4" font-family="Arial" font-size="14.00" fill="#666666">[text]</text>
<polygon fill="none" stroke="black" points="43.2,-1104.4 43.2,-1135.2 346.62,-1135.2 346.62,-1104.4 43.2,-1104.4"/>
<text text-anchor="start" x="50.2" y="-1116.6" font-family="Arial" font-size="14.00">School_Contacts </text>
<text text-anchor="start" x="159.93" y="-1116.6" font-family="Arial" font-size="14.00" fill="#666666">[json]</text>
<polygon fill="none" stroke="black" points="43.2,-1073.6 43.2,-1104.4 346.62,-1104.4 346.62,-1073.6 43.2,-1073.6"/>
<text text-anchor="start" x="50.2" y="-1085.8" font-family="Arial" font-size="14.00">Venue </text>
<text text-anchor="start" x="94.57" y="-1085.8" font-family="Arial" font-size="14.00" fill="#666666">[json]</text>
<polygon fill="none" stroke="black" points="43.2,-1042.8 43.2,-1073.6 346.62,-1073.6 346.62,-1042.8 43.2,-1042.8"/>
<text text-anchor="start" x="50.2" y="-1055" font-family="Arial" font-size="14.00">Provider_Additional_Questions </text>
<text text-anchor="start" x="246.32" y="-1055" font-family="Arial" font-size="14.00" fill="#666666">[json]</text>
<polygon fill="none" stroke="black" points="43.2,-1012 43.2,-1042.8 346.62,-1042.8 346.62,-1012 43.2,-1012"/>
<text text-anchor="start" x="50.2" y="-1024.2" font-family="Arial" font-size="14.00">Comms_Start_Date </text>
<text text-anchor="start" x="177.02" y="-1024.2" font-family="Arial" font-size="14.00" fill="#666666">[date]</text>
<polygon fill="none" stroke="black" points="43.2,-981.2 43.2,-1012 346.62,-1012 346.62,-981.2 43.2,-981.2"/>
<text text-anchor="start" x="50.2" y="-993.4" font-family="Arial" font-size="14.00">Date_Completed </text>
<text text-anchor="start" x="159.15" y="-993.4" font-family="Arial" font-size="14.00" fill="#666666">[date]</text>
<polygon fill="none" stroke="black" points="43.2,-950.4 43.2,-981.2 346.62,-981.2 346.62,-950.4 43.2,-950.4"/>
<text text-anchor="start" x="50.2" y="-962.6" font-family="Arial" font-size="14.00">Pref_Link_Managed_Consent </text>
<text text-anchor="start" x="239.33" y="-962.6" font-family="Arial" font-size="14.00" fill="#666666">[tinyint]</text>
<polygon fill="none" stroke="black" points="43.2,-919.6 43.2,-950.4 346.62,-950.4 346.62,-919.6 43.2,-919.6"/>
<text text-anchor="start" x="50.2" y="-931.8" font-family="Arial" font-size="14.00">Include_Tp_Terms_In_Consent </text>
<text text-anchor="start" x="250.2" y="-931.8" font-family="Arial" font-size="14.00" fill="#666666">[tinyint]</text>
<polygon fill="none" stroke="black" points="43.2,-888.8 43.2,-919.6 346.62,-919.6 346.62,-888.8 43.2,-888.8"/>
<text text-anchor="start" x="50.2" y="-901" font-family="Arial" font-size="14.00">Consent_Src_Characteristics </text>
<text text-anchor="start" x="235.39" y="-901" font-family="Arial" font-size="14.00" fill="#666666">[tinyint]</text>
<polygon fill="none" stroke="black" points="43.2,-858 43.2,-888.8 346.62,-888.8 346.62,-858 43.2,-858"/>
<text text-anchor="start" x="50.2" y="-870.2" font-family="Arial" font-size="14.00">Max_Consents </text>
<text text-anchor="start" x="147.47" y="-870.2" font-family="Arial" font-size="14.00" fill="#666666">[int]</text>
<polygon fill="none" stroke="black" points="43.2,-827.2 43.2,-858 346.62,-858 346.62,-827.2 43.2,-827.2"/>
<text text-anchor="start" x="50.2" y="-839.4" font-family="Arial" font-size="14.00">Waiting_List_Enabled </text>
<text text-anchor="start" x="189.51" y="-839.4" font-family="Arial" font-size="14.00" fill="#666666">[tinyint]</text>
</g>
<!-- Dim_Delivery_Header&#45;&gt;Dim_School -->
<g id="edge1" class="edge">
<title>Dim_Delivery_Header:School_Key&#45;&gt;Dim_School:School_Key</title>
<path fill="none" stroke="black" d="M355.23,-1574.78C397.81,-1492.23 388.81,-708.28 398.91,-660.8 412.1,-598.84 386.28,-527.6 449.62,-527.6"/>
<polygon fill="black" stroke="black" points="355.22,-1574.79 344.82,-1578.27 351.3,-1578.41 348.12,-1581.35 348.12,-1581.35 348.12,-1581.35 351.3,-1578.41 350.92,-1584.88 355.22,-1574.79"/>
<text text-anchor="start" x="354.62" y="-1591.8" font-family="Arial" font-size="10.00">FOREIGN KEY (School_Key) REFERENCES Dim_School (School_Key)</text>
</g>
<!-- Dim_Rider -->
<g id="node3" class="node">
<title>Dim_Rider</title>
<polygon fill="#efefef" stroke="none" points="450.62,-1397 450.62,-1432.6 701.2,-1432.6 701.2,-1397 450.62,-1397"/>
<polygon fill="none" stroke="black" points="450.62,-1397 450.62,-1432.6 701.2,-1432.6 701.2,-1397 450.62,-1397"/>
<text text-anchor="start" x="473.17" y="-1410.4" font-family="Arial Bold" font-size="18.00">Dim_Rider</text>
<text text-anchor="start" x="554.16" y="-1410.4" font-family="Arial" font-size="14.00">    </text>
<text text-anchor="start" x="585.28" y="-1410.4" font-family="Arial" font-size="14.00" fill="#666666">[BASE TABLE]</text>
<polygon fill="none" stroke="black" points="450.62,-1366.2 450.62,-1397 701.2,-1397 701.2,-1366.2 450.62,-1366.2"/>
<text text-anchor="start" x="457.62" y="-1378.4" font-family="Arial" font-size="14.00">Rider_Key </text>
<text text-anchor="start" x="526.87" y="-1378.4" font-family="Arial" font-size="14.00" fill="#666666">[bigint unsigned]</text>
<polygon fill="none" stroke="black" points="450.62,-1335.4 450.62,-1366.2 701.2,-1366.2 701.2,-1335.4 450.62,-1335.4"/>
<text text-anchor="start" x="457.62" y="-1347.6" font-family="Arial" font-size="14.00">Source_Rider_Id </text>
<text text-anchor="start" x="566.57" y="-1347.6" font-family="Arial" font-size="14.00" fill="#666666">[bigint unsigned]</text>
<polygon fill="none" stroke="black" points="450.62,-1304.6 450.62,-1335.4 701.2,-1335.4 701.2,-1304.6 450.62,-1304.6"/>
<text text-anchor="start" x="457.62" y="-1316.8" font-family="Arial" font-size="14.00">Source_System_Key </text>
<text text-anchor="start" x="592.24" y="-1316.8" font-family="Arial" font-size="14.00" fill="#666666">[bigint unsigned]</text>
<polygon fill="none" stroke="black" points="450.62,-1273.8 450.62,-1304.6 701.2,-1304.6 701.2,-1273.8 450.62,-1273.8"/>
<text text-anchor="start" x="457.62" y="-1286" font-family="Arial" font-size="14.00">School_Key </text>
<text text-anchor="start" x="536.23" y="-1286" font-family="Arial" font-size="14.00" fill="#666666">[bigint unsigned]</text>
<polygon fill="none" stroke="black" points="450.62,-1243 450.62,-1273.8 701.2,-1273.8 701.2,-1243 450.62,-1243"/>
<text text-anchor="start" x="457.62" y="-1255.2" font-family="Arial" font-size="14.00">Ethnicity </text>
<text text-anchor="start" x="514.42" y="-1255.2" font-family="Arial" font-size="14.00" fill="#666666">[varchar(50)]</text>
<polygon fill="none" stroke="black" points="450.62,-1212.2 450.62,-1243 701.2,-1243 701.2,-1212.2 450.62,-1212.2"/>
<text text-anchor="start" x="457.62" y="-1224.4" font-family="Arial" font-size="14.00">Gender </text>
<text text-anchor="start" x="508.21" y="-1224.4" font-family="Arial" font-size="14.00" fill="#666666">[varchar(20)]</text>
<polygon fill="none" stroke="black" points="450.62,-1181.4 450.62,-1212.2 701.2,-1212.2 701.2,-1181.4 450.62,-1181.4"/>
<text text-anchor="start" x="457.62" y="-1193.6" font-family="Arial" font-size="14.00">Pupil_Premium </text>
<text text-anchor="start" x="556.43" y="-1193.6" font-family="Arial" font-size="14.00" fill="#666666">[tinyint]</text>
<polygon fill="none" stroke="black" points="450.62,-1150.6 450.62,-1181.4 701.2,-1181.4 701.2,-1150.6 450.62,-1150.6"/>
<text text-anchor="start" x="457.62" y="-1162.8" font-family="Arial" font-size="14.00">Has_Send </text>
<text text-anchor="start" x="526.89" y="-1162.8" font-family="Arial" font-size="14.00" fill="#666666">[tinyint]</text>
</g>
<!-- Dim_Rider&#45;&gt;Dim_School -->
<g id="edge2" class="edge">
<title>Dim_Rider:School_Key&#45;&gt;Dim_School:School_Key</title>
<path fill="none" stroke="black" d="M709.21,-1281.66C744.37,-1202.56 742.04,-527.6 702.2,-527.6"/>
<polygon fill="black" stroke="black" points="709.24,-1281.63 699.14,-1285.89 705.61,-1285.54 702.66,-1288.71 702.66,-1288.71 702.66,-1288.71 705.61,-1285.54 705.73,-1292.02 709.24,-1281.63"/>
<text text-anchor="start" x="373.43" y="-1299.2" font-family="Arial" font-size="10.00">FOREIGN KEY (School_Key) REFERENCES Dim_School (School_Key)</text>
</g>
<!-- Fact_Course_Delivery -->
<g id="node4" class="node">
<title>Fact_Course_Delivery</title>
<polygon fill="#efefef" stroke="none" points="805.62,-1843.6 805.62,-1879.2 1126.21,-1879.2 1126.21,-1843.6 805.62,-1843.6"/>
<polygon fill="none" stroke="black" points="805.62,-1843.6 805.62,-1879.2 1126.21,-1879.2 1126.21,-1843.6 805.62,-1843.6"/>
<text text-anchor="start" x="822.19" y="-1857" font-family="Arial Bold" font-size="18.00">Fact_Course_Delivery</text>
<text text-anchor="start" x="985.15" y="-1857" font-family="Arial" font-size="14.00">    </text>
<text text-anchor="start" x="1016.26" y="-1857" font-family="Arial" font-size="14.00" fill="#666666">[BASE TABLE]</text>
<polygon fill="none" stroke="black" points="805.62,-1812.8 805.62,-1843.6 1126.21,-1843.6 1126.21,-1812.8 805.62,-1812.8"/>
<text text-anchor="start" x="812.62" y="-1825" font-family="Arial" font-size="14.00">Delivery_Fact_Key </text>
<text text-anchor="start" x="934" y="-1825" font-family="Arial" font-size="14.00" fill="#666666">[bigint unsigned]</text>
<polygon fill="none" stroke="black" points="805.62,-1782 805.62,-1812.8 1126.21,-1812.8 1126.21,-1782 805.62,-1782"/>
<text text-anchor="start" x="812.62" y="-1794.2" font-family="Arial" font-size="14.00">Date_Key </text>
<text text-anchor="start" x="877.99" y="-1794.2" font-family="Arial" font-size="14.00" fill="#666666">[int]</text>
<polygon fill="none" stroke="black" points="805.62,-1751.2 805.62,-1782 1126.21,-1782 1126.21,-1751.2 805.62,-1751.2"/>
<text text-anchor="start" x="812.62" y="-1763.4" font-family="Arial" font-size="14.00">Delivery_Key </text>
<text text-anchor="start" x="898.98" y="-1763.4" font-family="Arial" font-size="14.00" fill="#666666">[bigint unsigned]</text>
<polygon fill="none" stroke="black" points="805.62,-1720.4 805.62,-1751.2 1126.21,-1751.2 1126.21,-1720.4 805.62,-1720.4"/>
<text text-anchor="start" x="812.62" y="-1732.6" font-family="Arial" font-size="14.00">School_Key </text>
<text text-anchor="start" x="891.22" y="-1732.6" font-family="Arial" font-size="14.00" fill="#666666">[bigint unsigned]</text>
<polygon fill="none" stroke="black" points="805.62,-1689.6 805.62,-1720.4 1126.21,-1720.4 1126.21,-1689.6 805.62,-1689.6"/>
<text text-anchor="start" x="812.62" y="-1701.8" font-family="Arial" font-size="14.00">Organisation_Key </text>
<text text-anchor="start" x="927.8" y="-1701.8" font-family="Arial" font-size="14.00" fill="#666666">[bigint unsigned]</text>
<polygon fill="none" stroke="black" points="805.62,-1658.8 805.62,-1689.6 1126.21,-1689.6 1126.21,-1658.8 805.62,-1658.8"/>
<text text-anchor="start" x="812.62" y="-1671" font-family="Arial" font-size="14.00">Course_Key </text>
<text text-anchor="start" x="893.55" y="-1671" font-family="Arial" font-size="14.00" fill="#666666">[bigint unsigned]</text>
<polygon fill="none" stroke="black" points="805.62,-1628 805.62,-1658.8 1126.21,-1658.8 1126.21,-1628 805.62,-1628"/>
<text text-anchor="start" x="812.62" y="-1640.2" font-family="Arial" font-size="14.00">Provider_Key </text>
<text text-anchor="start" x="900.55" y="-1640.2" font-family="Arial" font-size="14.00" fill="#666666">[bigint unsigned]</text>
<polygon fill="none" stroke="black" points="805.62,-1597.2 805.62,-1628 1126.21,-1628 1126.21,-1597.2 805.62,-1597.2"/>
<text text-anchor="start" x="812.62" y="-1609.4" font-family="Arial" font-size="14.00">Grant_Key </text>
<text text-anchor="start" x="883.43" y="-1609.4" font-family="Arial" font-size="14.00" fill="#666666">[bigint unsigned]</text>
<polygon fill="none" stroke="black" points="805.62,-1566.4 805.62,-1597.2 1126.21,-1597.2 1126.21,-1566.4 805.62,-1566.4"/>
<text text-anchor="start" x="812.62" y="-1578.6" font-family="Arial" font-size="14.00">Riders_Enrolled_Count </text>
<text text-anchor="start" x="961.26" y="-1578.6" font-family="Arial" font-size="14.00" fill="#666666">[int]</text>
<polygon fill="none" stroke="black" points="805.62,-1535.6 805.62,-1566.4 1126.21,-1566.4 1126.21,-1535.6 805.62,-1535.6"/>
<text text-anchor="start" x="812.62" y="-1547.8" font-family="Arial" font-size="14.00">Riders_Completed_Count </text>
<text text-anchor="start" x="977.6" y="-1547.8" font-family="Arial" font-size="14.00" fill="#666666">[int]</text>
<polygon fill="none" stroke="black" points="805.62,-1504.8 805.62,-1535.6 1126.21,-1535.6 1126.21,-1504.8 805.62,-1504.8"/>
<text text-anchor="start" x="812.62" y="-1517" font-family="Arial" font-size="14.00">Count_Booked_Provisional </text>
<text text-anchor="start" x="985.39" y="-1517" font-family="Arial" font-size="14.00" fill="#666666">[int]</text>
<polygon fill="none" stroke="black" points="805.62,-1474 805.62,-1504.8 1126.21,-1504.8 1126.21,-1474 805.62,-1474"/>
<text text-anchor="start" x="812.62" y="-1486.2" font-family="Arial" font-size="14.00">Count_Booked_Confirmed </text>
<text text-anchor="start" x="981.5" y="-1486.2" font-family="Arial" font-size="14.00" fill="#666666">[int]</text>
<polygon fill="none" stroke="black" points="805.62,-1443.2 805.62,-1474 1126.21,-1474 1126.21,-1443.2 805.62,-1443.2"/>
<text text-anchor="start" x="812.62" y="-1455.4" font-family="Arial" font-size="14.00">Count_Attended_Confirmed </text>
<text text-anchor="start" x="990.06" y="-1455.4" font-family="Arial" font-size="14.00" fill="#666666">[int]</text>
<polygon fill="none" stroke="black" points="805.62,-1412.4 805.62,-1443.2 1126.21,-1443.2 1126.21,-1412.4 805.62,-1412.4"/>
<text text-anchor="start" x="812.62" y="-1424.6" font-family="Arial" font-size="14.00">Count_Female </text>
<text text-anchor="start" x="908.33" y="-1424.6" font-family="Arial" font-size="14.00" fill="#666666">[int]</text>
<polygon fill="none" stroke="black" points="805.62,-1381.6 805.62,-1412.4 1126.21,-1412.4 1126.21,-1381.6 805.62,-1381.6"/>
<text text-anchor="start" x="812.62" y="-1393.8" font-family="Arial" font-size="14.00">Count_Male </text>
<text text-anchor="start" x="892" y="-1393.8" font-family="Arial" font-size="14.00" fill="#666666">[int]</text>
<polygon fill="none" stroke="black" points="805.62,-1350.8 805.62,-1381.6 1126.21,-1381.6 1126.21,-1350.8 805.62,-1350.8"/>
<text text-anchor="start" x="812.62" y="-1363" font-family="Arial" font-size="14.00">Count_Gender_Other </text>
<text text-anchor="start" x="951.15" y="-1363" font-family="Arial" font-size="14.00" fill="#666666">[int]</text>
<polygon fill="none" stroke="black" points="805.62,-1320 805.62,-1350.8 1126.21,-1350.8 1126.21,-1320 805.62,-1320"/>
<text text-anchor="start" x="812.62" y="-1332.2" font-family="Arial" font-size="14.00">Count_Pupil_Premium </text>
<text text-anchor="start" x="956.57" y="-1332.2" font-family="Arial" font-size="14.00" fill="#666666">[int]</text>
<polygon fill="none" stroke="black" points="805.62,-1289.2 805.62,-1320 1126.21,-1320 1126.21,-1289.2 805.62,-1289.2"/>
<text text-anchor="start" x="812.62" y="-1301.4" font-family="Arial" font-size="14.00">Count_SEND </text>
<text text-anchor="start" x="900.55" y="-1301.4" font-family="Arial" font-size="14.00" fill="#666666">[int]</text>
<polygon fill="none" stroke="black" points="805.62,-1258.4 805.62,-1289.2 1126.21,-1289.2 1126.21,-1258.4 805.62,-1258.4"/>
<text text-anchor="start" x="812.62" y="-1270.6" font-family="Arial" font-size="14.00">Count_Ethnicity_White_British </text>
<text text-anchor="start" x="1004.82" y="-1270.6" font-family="Arial" font-size="14.00" fill="#666666">[int]</text>
<polygon fill="none" stroke="black" points="805.62,-1227.6 805.62,-1258.4 1126.21,-1258.4 1126.21,-1227.6 805.62,-1227.6"/>
<text text-anchor="start" x="812.62" y="-1239.8" font-family="Arial" font-size="14.00">Count_Ethnicity_White_Irish </text>
<text text-anchor="start" x="992.37" y="-1239.8" font-family="Arial" font-size="14.00" fill="#666666">[int]</text>
<polygon fill="none" stroke="black" points="805.62,-1196.8 805.62,-1227.6 1126.21,-1227.6 1126.21,-1196.8 805.62,-1196.8"/>
<text text-anchor="start" x="812.62" y="-1209" font-family="Arial" font-size="14.00">Count_Ethnicity_Gypsy_Romany </text>
<text text-anchor="start" x="1021.94" y="-1209" font-family="Arial" font-size="14.00" fill="#666666">[int]</text>
<polygon fill="none" stroke="black" points="805.62,-1166 805.62,-1196.8 1126.21,-1196.8 1126.21,-1166 805.62,-1166"/>
<text text-anchor="start" x="812.62" y="-1178.2" font-family="Arial" font-size="14.00">Count_Ethnicity_White_Other </text>
<text text-anchor="start" x="1000.93" y="-1178.2" font-family="Arial" font-size="14.00" fill="#666666">[int]</text>
<polygon fill="none" stroke="black" points="805.62,-1135.2 805.62,-1166 1126.21,-1166 1126.21,-1135.2 805.62,-1135.2"/>
<text text-anchor="start" x="812.62" y="-1147.4" font-family="Arial" font-size="14.00">Count_Ethnicity_Mixed_White_Black_Carib </text>
<text text-anchor="start" x="1086.53" y="-1147.4" font-family="Arial" font-size="14.00" fill="#666666">[int]</text>
<polygon fill="none" stroke="black" points="805.62,-1104.4 805.62,-1135.2 1126.21,-1135.2 1126.21,-1104.4 805.62,-1104.4"/>
<text text-anchor="start" x="812.62" y="-1116.6" font-family="Arial" font-size="14.00">Count_Ethnicity_Mixed_White_Black_African </text>
<text text-anchor="start" x="1096.64" y="-1116.6" font-family="Arial" font-size="14.00" fill="#666666">[int]</text>
<polygon fill="none" stroke="black" points="805.62,-1073.6 805.62,-1104.4 1126.21,-1104.4 1126.21,-1073.6 805.62,-1073.6"/>
<text text-anchor="start" x="812.62" y="-1085.8" font-family="Arial" font-size="14.00">Count_Ethnicity_Mixed_White_Asian </text>
<text text-anchor="start" x="1046.07" y="-1085.8" font-family="Arial" font-size="14.00" fill="#666666">[int]</text>
<polygon fill="none" stroke="black" points="805.62,-1042.8 805.62,-1073.6 1126.21,-1073.6 1126.21,-1042.8 805.62,-1042.8"/>
<text text-anchor="start" x="812.62" y="-1055" font-family="Arial" font-size="14.00">Count_Ethnicity_Mixed_Other </text>
<text text-anchor="start" x="1002.49" y="-1055" font-family="Arial" font-size="14.00" fill="#666666">[int]</text>
<polygon fill="none" stroke="black" points="805.62,-1012 805.62,-1042.8 1126.21,-1042.8 1126.21,-1012 805.62,-1012"/>
<text text-anchor="start" x="812.62" y="-1024.2" font-family="Arial" font-size="14.00">Count_Ethnicity_Asian_Indian </text>
<text text-anchor="start" x="1003.3" y="-1024.2" font-family="Arial" font-size="14.00" fill="#666666">[int]</text>
<polygon fill="none" stroke="black" points="805.62,-981.2 805.62,-1012 1126.21,-1012 1126.21,-981.2 805.62,-981.2"/>
<text text-anchor="start" x="812.62" y="-993.4" font-family="Arial" font-size="14.00">Count_Ethnicity_Asian_Pakistani </text>
<text text-anchor="start" x="1021.96" y="-993.4" font-family="Arial" font-size="14.00" fill="#666666">[int]</text>
<polygon fill="none" stroke="black" points="805.62,-950.4 805.62,-981.2 1126.21,-981.2 1126.21,-950.4 805.62,-950.4"/>
<text text-anchor="start" x="812.62" y="-962.6" font-family="Arial" font-size="14.00">Count_Ethnicity_Asian_Bangladeshi </text>
<text text-anchor="start" x="1042.22" y="-962.6" font-family="Arial" font-size="14.00" fill="#666666">[int]</text>
<polygon fill="none" stroke="black" points="805.62,-919.6 805.62,-950.4 1126.21,-950.4 1126.21,-919.6 805.62,-919.6"/>
<text text-anchor="start" x="812.62" y="-931.8" font-family="Arial" font-size="14.00">Count_Ethnicity_Asian_Chinese </text>
<text text-anchor="start" x="1016.52" y="-931.8" font-family="Arial" font-size="14.00" fill="#666666">[int]</text>
<polygon fill="none" stroke="black" points="805.62,-888.8 805.62,-919.6 1126.21,-919.6 1126.21,-888.8 805.62,-888.8"/>
<text text-anchor="start" x="812.62" y="-901" font-family="Arial" font-size="14.00">Count_Ethnicity_Asian_Other </text>
<text text-anchor="start" x="1000.17" y="-901" font-family="Arial" font-size="14.00" fill="#666666">[int]</text>
<polygon fill="none" stroke="black" points="805.62,-858 805.62,-888.8 1126.21,-888.8 1126.21,-858 805.62,-858"/>
<text text-anchor="start" x="812.62" y="-870.2" font-family="Arial" font-size="14.00">Count_Ethnicity_Black_African </text>
<text text-anchor="start" x="1007.94" y="-870.2" font-family="Arial" font-size="14.00" fill="#666666">[int]</text>
<polygon fill="none" stroke="black" points="805.62,-827.2 805.62,-858 1126.21,-858 1126.21,-827.2 805.62,-827.2"/>
<text text-anchor="start" x="812.62" y="-839.4" font-family="Arial" font-size="14.00">Count_Ethnicity_Black_Caribbean </text>
<text text-anchor="start" x="1028.97" y="-839.4" font-family="Arial" font-size="14.00" fill="#666666">[int]</text>
<polygon fill="none" stroke="black" points="805.62,-796.4 805.62,-827.2 1126.21,-827.2 1126.21,-796.4 805.62,-796.4"/>
<text text-anchor="start" x="812.62" y="-808.6" font-family="Arial" font-size="14.00">Count_Ethnicity_Black_Other </text>
<text text-anchor="start" x="999.38" y="-808.6" font-family="Arial" font-size="14.00" fill="#666666">[int]</text>
<polygon fill="none" stroke="black" points="805.62,-765.6 805.62,-796.4 1126.21,-796.4 1126.21,-765.6 805.62,-765.6"/>
<text text-anchor="start" x="812.62" y="-777.8" font-family="Arial" font-size="14.00">Count_Ethnicity_Other_Arab </text>
<text text-anchor="start" x="994.72" y="-777.8" font-family="Arial" font-size="14.00" fill="#666666">[int]</text>
<polygon fill="none" stroke="black" points="805.62,-734.8 805.62,-765.6 1126.21,-765.6 1126.21,-734.8 805.62,-734.8"/>
<text text-anchor="start" x="812.62" y="-747" font-family="Arial" font-size="14.00">Count_Ethnicity_Other_Any </text>
<text text-anchor="start" x="989.27" y="-747" font-family="Arial" font-size="14.00" fill="#666666">[int]</text>
<polygon fill="none" stroke="black" points="805.62,-704 805.62,-734.8 1126.21,-734.8 1126.21,-704 805.62,-704"/>
<text text-anchor="start" x="812.62" y="-716.2" font-family="Arial" font-size="14.00">Count_Ethnicity_Not_Stated </text>
<text text-anchor="start" x="992.39" y="-716.2" font-family="Arial" font-size="14.00" fill="#666666">[int]</text>
</g>
<!-- Fact_Course_Delivery&#45;&gt;Dim_School -->
<g id="edge3" class="edge">
<title>Fact_Course_Delivery:School_Key&#45;&gt;Dim_School:School_Key</title>
<path fill="none" stroke="black" d="M796.72,-1729.3C746.66,-1642.61 764.56,-716.58 752.91,-660.8 739.96,-598.79 765.55,-527.6 702.2,-527.6"/>
<polygon fill="black" stroke="black" points="796.64,-1729.23 801.5,-1739.06 800.76,-1732.62 804.1,-1735.37 804.1,-1735.37 804.1,-1735.37 800.76,-1732.62 807.22,-1732.11 796.64,-1729.23"/>
<text text-anchor="start" x="475.84" y="-1745.8" font-family="Arial" font-size="10.00">FOREIGN KEY (School_Key) REFERENCES Dim_School (School_Key)</text>
</g>
</g>
</svg>
