<?xml version="1.0" encoding="UTF-8" standalone="no"?>
<!DOCTYPE svg PUBLIC "-//W3C//DTD SVG 1.1//EN"
 "http://www.w3.org/Graphics/SVG/1.1/DTD/svg11.dtd">
<!-- Generated by graphviz version 12.1.2 (20240928.0832)
 -->
<!-- Title: Fact_Instructor_Course Pages: 1 -->
<svg width="409pt" height="352pt"
 viewBox="0.00 0.00 408.85 351.60" xmlns="http://www.w3.org/2000/svg" xmlns:xlink="http://www.w3.org/1999/xlink">
<g id="graph0" class="graph" transform="scale(1 1) rotate(0) translate(4 347.6)">
<title>Fact_Instructor_Course</title>
<polygon fill="white" stroke="none" points="-4,4 -4,-347.6 404.85,-347.6 404.85,4 -4,4"/>
<!-- Fact_Instructor_Course -->
<g id="node1" class="node">
<title>Fact_Instructor_Course</title>
<polygon fill="#efefef" stroke="none" points="46.2,-261.8 46.2,-297.4 354.65,-297.4 354.65,-261.8 46.2,-261.8"/>
<polygon fill="none" stroke="black" points="46.2,-261.8 46.2,-297.4 354.65,-297.4 354.65,-261.8 46.2,-261.8"/>
<text text-anchor="start" x="53.2" y="-275.2" font-family="Arial Bold" font-size="18.00">Fact_Instructor_Course</text>
<text text-anchor="start" x="223.16" y="-275.2" font-family="Arial" font-size="14.00">    </text>
<text text-anchor="start" x="254.28" y="-275.2" font-family="Arial" font-size="14.00" fill="#666666">[BASE TABLE]</text>
<polygon fill="none" stroke="black" points="46.2,-231 46.2,-261.8 354.65,-261.8 354.65,-231 46.2,-231"/>
<text text-anchor="start" x="53.2" y="-243.2" font-family="Arial" font-size="14.00">Instructor_Course_Key </text>
<text text-anchor="start" x="200.27" y="-243.2" font-family="Arial" font-size="14.00" fill="#666666">[bigint unsigned]</text>
<polygon fill="none" stroke="black" points="46.2,-200.2 46.2,-231 354.65,-231 354.65,-200.2 46.2,-200.2"/>
<text text-anchor="start" x="53.2" y="-212.4" font-family="Arial" font-size="14.00">Instructor_Key </text>
<text text-anchor="start" x="147.35" y="-212.4" font-family="Arial" font-size="14.00" fill="#666666">[bigint unsigned]</text>
<polygon fill="none" stroke="black" points="46.2,-169.4 46.2,-200.2 354.65,-200.2 354.65,-169.4 46.2,-169.4"/>
<text text-anchor="start" x="53.2" y="-181.6" font-family="Arial" font-size="14.00">Course_Key </text>
<text text-anchor="start" x="134.13" y="-181.6" font-family="Arial" font-size="14.00" fill="#666666">[bigint unsigned]</text>
<polygon fill="none" stroke="black" points="46.2,-138.6 46.2,-169.4 354.65,-169.4 354.65,-138.6 46.2,-138.6"/>
<text text-anchor="start" x="53.2" y="-150.8" font-family="Arial" font-size="14.00">Source_System_Key </text>
<text text-anchor="start" x="187.82" y="-150.8" font-family="Arial" font-size="14.00" fill="#666666">[int]</text>
<polygon fill="none" stroke="black" points="46.2,-107.8 46.2,-138.6 354.65,-138.6 354.65,-107.8 46.2,-107.8"/>
<text text-anchor="start" x="53.2" y="-120" font-family="Arial" font-size="14.00">Active_From </text>
<text text-anchor="start" x="135.66" y="-120" font-family="Arial" font-size="14.00" fill="#666666">[datetime]</text>
<polygon fill="none" stroke="black" points="46.2,-77 46.2,-107.8 354.65,-107.8 354.65,-77 46.2,-77"/>
<text text-anchor="start" x="53.2" y="-89.2" font-family="Arial" font-size="14.00">Active_To </text>
<text text-anchor="start" x="119.34" y="-89.2" font-family="Arial" font-size="14.00" fill="#666666">[datetime]</text>
<polygon fill="none" stroke="black" points="46.2,-46.2 46.2,-77 354.65,-77 354.65,-46.2 46.2,-46.2"/>
<text text-anchor="start" x="53.2" y="-58.4" font-family="Arial" font-size="14.00">Is_Current </text>
<text text-anchor="start" x="122.45" y="-58.4" font-family="Arial" font-size="14.00" fill="#666666">[tinyint(1)]</text>
<polygon fill="none" stroke="black" stroke-width="3" points="44.7,-44.7 44.7,-298.9 356.15,-298.9 356.15,-44.7 44.7,-44.7"/>
</g>
</g>
</svg>
