<?xml version="1.0" encoding="UTF-8" standalone="no"?>
<!DOCTYPE svg PUBLIC "-//W3C//DTD SVG 1.1//EN"
 "http://www.w3.org/Graphics/SVG/1.1/DTD/svg11.dtd">
<!-- Generated by graphviz version 12.1.2 (20240928.0832)
 -->
<!-- Title: Fact_Follow_Up_Survey Pages: 1 -->
<svg width="421pt" height="844pt"
 viewBox="0.00 0.00 420.88 844.40" xmlns="http://www.w3.org/2000/svg" xmlns:xlink="http://www.w3.org/1999/xlink">
<g id="graph0" class="graph" transform="scale(1 1) rotate(0) translate(4 840.4)">
<title>Fact_Follow_Up_Survey</title>
<polygon fill="white" stroke="none" points="-4,4 -4,-840.4 416.88,-840.4 416.88,4 -4,4"/>
<!-- Fact_Follow_Up_Survey -->
<g id="node1" class="node">
<title>Fact_Follow_Up_Survey</title>
<polygon fill="#efefef" stroke="none" points="46.2,-754.6 46.2,-790.2 366.68,-790.2 366.68,-754.6 46.2,-754.6"/>
<polygon fill="none" stroke="black" points="46.2,-754.6 46.2,-790.2 366.68,-790.2 366.68,-754.6 46.2,-754.6"/>
<text text-anchor="start" x="53.2" y="-768" font-family="Arial Bold" font-size="18.00">Fact_Follow_Up_Survey</text>
<text text-anchor="start" x="235.2" y="-768" font-family="Arial" font-size="14.00">    </text>
<text text-anchor="start" x="266.31" y="-768" font-family="Arial" font-size="14.00" fill="#666666">[BASE TABLE]</text>
<polygon fill="none" stroke="black" points="46.2,-723.8 46.2,-754.6 366.68,-754.6 366.68,-723.8 46.2,-723.8"/>
<text text-anchor="start" x="53.2" y="-736" font-family="Arial" font-size="14.00">Follow_Up_Key </text>
<text text-anchor="start" x="155.14" y="-736" font-family="Arial" font-size="14.00" fill="#666666">[bigint unsigned]</text>
<polygon fill="none" stroke="black" points="46.2,-693 46.2,-723.8 366.68,-723.8 366.68,-693 46.2,-693"/>
<text text-anchor="start" x="53.2" y="-705.2" font-family="Arial" font-size="14.00">Source_Survey_Id </text>
<text text-anchor="start" x="172.27" y="-705.2" font-family="Arial" font-size="14.00" fill="#666666">[bigint unsigned]</text>
<polygon fill="none" stroke="black" points="46.2,-662.2 46.2,-693 366.68,-693 366.68,-662.2 46.2,-662.2"/>
<text text-anchor="start" x="53.2" y="-674.4" font-family="Arial" font-size="14.00">Source_System_Key </text>
<text text-anchor="start" x="187.82" y="-674.4" font-family="Arial" font-size="14.00" fill="#666666">[int]</text>
<polygon fill="none" stroke="black" points="46.2,-631.4 46.2,-662.2 366.68,-662.2 366.68,-631.4 46.2,-631.4"/>
<text text-anchor="start" x="53.2" y="-643.6" font-family="Arial" font-size="14.00">Delivery_Key </text>
<text text-anchor="start" x="139.57" y="-643.6" font-family="Arial" font-size="14.00" fill="#666666">[bigint unsigned]</text>
<polygon fill="none" stroke="black" points="46.2,-600.6 46.2,-631.4 366.68,-631.4 366.68,-600.6 46.2,-600.6"/>
<text text-anchor="start" x="53.2" y="-612.8" font-family="Arial" font-size="14.00">Rider_Key </text>
<text text-anchor="start" x="122.45" y="-612.8" font-family="Arial" font-size="14.00" fill="#666666">[bigint unsigned]</text>
<polygon fill="none" stroke="black" points="46.2,-569.8 46.2,-600.6 366.68,-600.6 366.68,-569.8 46.2,-569.8"/>
<text text-anchor="start" x="53.2" y="-582" font-family="Arial" font-size="14.00">Course_Key </text>
<text text-anchor="start" x="134.13" y="-582" font-family="Arial" font-size="14.00" fill="#666666">[bigint unsigned]</text>
<polygon fill="none" stroke="black" points="46.2,-539 46.2,-569.8 366.68,-569.8 366.68,-539 46.2,-539"/>
<text text-anchor="start" x="53.2" y="-551.2" font-family="Arial" font-size="14.00">Course_Label_Raw </text>
<text text-anchor="start" x="180.05" y="-551.2" font-family="Arial" font-size="14.00" fill="#666666">[varchar(255)]</text>
<polygon fill="none" stroke="black" points="46.2,-508.2 46.2,-539 366.68,-539 366.68,-508.2 46.2,-508.2"/>
<text text-anchor="start" x="53.2" y="-520.4" font-family="Arial" font-size="14.00">Invitation_Month </text>
<text text-anchor="start" x="159.82" y="-520.4" font-family="Arial" font-size="14.00" fill="#666666">[int]</text>
<polygon fill="none" stroke="black" points="46.2,-477.4 46.2,-508.2 366.68,-508.2 366.68,-477.4 46.2,-477.4"/>
<text text-anchor="start" x="53.2" y="-489.6" font-family="Arial" font-size="14.00">q1a_freq_school </text>
<text text-anchor="start" x="160.61" y="-489.6" font-family="Arial" font-size="14.00" fill="#666666">[varchar(255)]</text>
<polygon fill="none" stroke="black" points="46.2,-446.6 46.2,-477.4 366.68,-477.4 366.68,-446.6 46.2,-446.6"/>
<text text-anchor="start" x="53.2" y="-458.8" font-family="Arial" font-size="14.00">q1b_freq_leisure </text>
<text text-anchor="start" x="161.39" y="-458.8" font-family="Arial" font-size="14.00" fill="#666666">[varchar(255)]</text>
<polygon fill="none" stroke="black" points="46.2,-415.8 46.2,-446.6 366.68,-446.6 366.68,-415.8 46.2,-415.8"/>
<text text-anchor="start" x="53.2" y="-428" font-family="Arial" font-size="14.00">q1c_freq_exercise </text>
<text text-anchor="start" x="171.49" y="-428" font-family="Arial" font-size="14.00" fill="#666666">[varchar(255)]</text>
<polygon fill="none" stroke="black" points="46.2,-385 46.2,-415.8 366.68,-415.8 366.68,-385 46.2,-385"/>
<text text-anchor="start" x="53.2" y="-397.2" font-family="Arial" font-size="14.00">q2a_conf_use_cycle </text>
<text text-anchor="start" x="184.74" y="-397.2" font-family="Arial" font-size="14.00" fill="#666666">[varchar(255)]</text>
<polygon fill="none" stroke="black" points="46.2,-354.2 46.2,-385 366.68,-385 366.68,-354.2 46.2,-354.2"/>
<text text-anchor="start" x="53.2" y="-366.4" font-family="Arial" font-size="14.00">q2b_conf_cycle_roads </text>
<text text-anchor="start" x="197.19" y="-366.4" font-family="Arial" font-size="14.00" fill="#666666">[varchar(255)]</text>
<polygon fill="none" stroke="black" points="46.2,-323.4 46.2,-354.2 366.68,-354.2 366.68,-323.4 46.2,-323.4"/>
<text text-anchor="start" x="53.2" y="-335.6" font-family="Arial" font-size="14.00">q3a_enc_use_cycle </text>
<text text-anchor="start" x="180.85" y="-335.6" font-family="Arial" font-size="14.00" fill="#666666">[varchar(255)]</text>
<polygon fill="none" stroke="black" points="46.2,-292.6 46.2,-323.4 366.68,-323.4 366.68,-292.6 46.2,-292.6"/>
<text text-anchor="start" x="53.2" y="-304.8" font-family="Arial" font-size="14.00">q3b_enc_cycle_roads </text>
<text text-anchor="start" x="193.3" y="-304.8" font-family="Arial" font-size="14.00" fill="#666666">[varchar(255)]</text>
<polygon fill="none" stroke="black" points="46.2,-261.8 46.2,-292.6 366.68,-292.6 366.68,-261.8 46.2,-261.8"/>
<text text-anchor="start" x="53.2" y="-274" font-family="Arial" font-size="14.00">q4_safety_roads </text>
<text text-anchor="start" x="160.61" y="-274" font-family="Arial" font-size="14.00" fill="#666666">[varchar(255)]</text>
<polygon fill="none" stroke="black" points="46.2,-231 46.2,-261.8 366.68,-261.8 366.68,-231 46.2,-231"/>
<text text-anchor="start" x="53.2" y="-243.2" font-family="Arial" font-size="14.00">q5_child_desire </text>
<text text-anchor="start" x="155.16" y="-243.2" font-family="Arial" font-size="14.00" fill="#666666">[varchar(255)]</text>
<polygon fill="none" stroke="black" points="46.2,-200.2 46.2,-231 366.68,-231 366.68,-200.2 46.2,-200.2"/>
<text text-anchor="start" x="53.2" y="-212.4" font-family="Arial" font-size="14.00">q6_encouragement_factors </text>
<text text-anchor="start" x="227.54" y="-212.4" font-family="Arial" font-size="14.00" fill="#666666">[json]</text>
<polygon fill="none" stroke="black" points="46.2,-169.4 46.2,-200.2 366.68,-200.2 366.68,-169.4 46.2,-169.4"/>
<text text-anchor="start" x="53.2" y="-181.6" font-family="Arial" font-size="14.00">q7_conf_change </text>
<text text-anchor="start" x="160.63" y="-181.6" font-family="Arial" font-size="14.00" fill="#666666">[varchar(255)]</text>
<polygon fill="none" stroke="black" points="46.2,-138.6 46.2,-169.4 366.68,-169.4 366.68,-138.6 46.2,-138.6"/>
<text text-anchor="start" x="53.2" y="-150.8" font-family="Arial" font-size="14.00">q8_physical_activity </text>
<text text-anchor="start" x="181.6" y="-150.8" font-family="Arial" font-size="14.00" fill="#666666">[varchar(255)]</text>
<polygon fill="none" stroke="black" points="46.2,-107.8 46.2,-138.6 366.68,-138.6 366.68,-107.8 46.2,-107.8"/>
<text text-anchor="start" x="53.2" y="-120" font-family="Arial" font-size="14.00">Source_Created_At </text>
<text text-anchor="start" x="180.05" y="-120" font-family="Arial" font-size="14.00" fill="#666666">[timestamp]</text>
<polygon fill="none" stroke="black" points="46.2,-77 46.2,-107.8 366.68,-107.8 366.68,-77 46.2,-77"/>
<text text-anchor="start" x="53.2" y="-89.2" font-family="Arial" font-size="14.00">created_at </text>
<text text-anchor="start" x="123.25" y="-89.2" font-family="Arial" font-size="14.00" fill="#666666">[timestamp]</text>
<polygon fill="none" stroke="black" points="46.2,-46.2 46.2,-77 366.68,-77 366.68,-46.2 46.2,-46.2"/>
<text text-anchor="start" x="53.2" y="-58.4" font-family="Arial" font-size="14.00">updated_at </text>
<text text-anchor="start" x="127.16" y="-58.4" font-family="Arial" font-size="14.00" fill="#666666">[timestamp]</text>
<polygon fill="none" stroke="black" stroke-width="3" points="44.7,-44.7 44.7,-791.7 368.18,-791.7 368.18,-44.7 44.7,-44.7"/>
</g>
</g>
</svg>
