<?xml version="1.0" encoding="UTF-8" standalone="no"?>
<!DOCTYPE svg PUBLIC "-//W3C//DTD SVG 1.1//EN"
 "http://www.w3.org/Graphics/SVG/1.1/DTD/svg11.dtd">
<!-- Generated by graphviz version 12.1.2 (20240928.0832)
 -->
<!-- Title: Fact_Instructor_Delivery Pages: 1 -->
<svg width="421pt" height="444pt"
 viewBox="0.00 0.00 420.83 444.00" xmlns="http://www.w3.org/2000/svg" xmlns:xlink="http://www.w3.org/1999/xlink">
<g id="graph0" class="graph" transform="scale(1 1) rotate(0) translate(4 440)">
<title>Fact_Instructor_Delivery</title>
<polygon fill="white" stroke="none" points="-4,4 -4,-440 416.83,-440 416.83,4 -4,4"/>
<!-- Fact_Instructor_Delivery -->
<g id="node1" class="node">
<title>Fact_Instructor_Delivery</title>
<polygon fill="#efefef" stroke="none" points="46.2,-354.2 46.2,-389.8 366.63,-389.8 366.63,-354.2 46.2,-354.2"/>
<polygon fill="none" stroke="black" points="46.2,-354.2 46.2,-389.8 366.63,-389.8 366.63,-354.2 46.2,-354.2"/>
<text text-anchor="start" x="53.2" y="-367.6" font-family="Arial Bold" font-size="18.00">Fact_Instructor_Delivery</text>
<text text-anchor="start" x="235.14" y="-367.6" font-family="Arial" font-size="14.00">    </text>
<text text-anchor="start" x="266.26" y="-367.6" font-family="Arial" font-size="14.00" fill="#666666">[BASE TABLE]</text>
<polygon fill="none" stroke="black" points="46.2,-323.4 46.2,-354.2 366.63,-354.2 366.63,-323.4 46.2,-323.4"/>
<text text-anchor="start" x="53.2" y="-335.6" font-family="Arial" font-size="14.00">Instructor_Delivery_Key </text>
<text text-anchor="start" x="205.7" y="-335.6" font-family="Arial" font-size="14.00" fill="#666666">[bigint unsigned]</text>
<polygon fill="none" stroke="black" points="46.2,-292.6 46.2,-323.4 366.63,-323.4 366.63,-292.6 46.2,-292.6"/>
<text text-anchor="start" x="53.2" y="-304.8" font-family="Arial" font-size="14.00">Source_System_Key </text>
<text text-anchor="start" x="187.82" y="-304.8" font-family="Arial" font-size="14.00" fill="#666666">[int]</text>
<polygon fill="none" stroke="black" points="46.2,-261.8 46.2,-292.6 366.63,-292.6 366.63,-261.8 46.2,-261.8"/>
<text text-anchor="start" x="53.2" y="-274" font-family="Arial" font-size="14.00">Delivery_Key </text>
<text text-anchor="start" x="139.57" y="-274" font-family="Arial" font-size="14.00" fill="#666666">[bigint unsigned]</text>
<polygon fill="none" stroke="black" points="46.2,-231 46.2,-261.8 366.63,-261.8 366.63,-231 46.2,-231"/>
<text text-anchor="start" x="53.2" y="-243.2" font-family="Arial" font-size="14.00">Instructor_Key </text>
<text text-anchor="start" x="147.35" y="-243.2" font-family="Arial" font-size="14.00" fill="#666666">[bigint unsigned]</text>
<polygon fill="none" stroke="black" points="46.2,-200.2 46.2,-231 366.63,-231 366.63,-200.2 46.2,-200.2"/>
<text text-anchor="start" x="53.2" y="-212.4" font-family="Arial" font-size="14.00">Instructor_Notified </text>
<text text-anchor="start" x="170.7" y="-212.4" font-family="Arial" font-size="14.00" fill="#666666">[tinyint(1)]</text>
<polygon fill="none" stroke="black" points="46.2,-169.4 46.2,-200.2 366.63,-200.2 366.63,-169.4 46.2,-169.4"/>
<text text-anchor="start" x="53.2" y="-181.6" font-family="Arial" font-size="14.00">Source_Created_At </text>
<text text-anchor="start" x="180.05" y="-181.6" font-family="Arial" font-size="14.00" fill="#666666">[timestamp]</text>
<polygon fill="none" stroke="black" points="46.2,-138.6 46.2,-169.4 366.63,-169.4 366.63,-138.6 46.2,-138.6"/>
<text text-anchor="start" x="53.2" y="-150.8" font-family="Arial" font-size="14.00">Source_Updated_At </text>
<text text-anchor="start" x="183.18" y="-150.8" font-family="Arial" font-size="14.00" fill="#666666">[timestamp]</text>
<polygon fill="none" stroke="black" points="46.2,-107.8 46.2,-138.6 366.63,-138.6 366.63,-107.8 46.2,-107.8"/>
<text text-anchor="start" x="53.2" y="-120" font-family="Arial" font-size="14.00">Source_Deleted_At </text>
<text text-anchor="start" x="178.5" y="-120" font-family="Arial" font-size="14.00" fill="#666666">[timestamp]</text>
<polygon fill="none" stroke="black" points="46.2,-77 46.2,-107.8 366.63,-107.8 366.63,-77 46.2,-77"/>
<text text-anchor="start" x="53.2" y="-89.2" font-family="Arial" font-size="14.00">created_at </text>
<text text-anchor="start" x="123.25" y="-89.2" font-family="Arial" font-size="14.00" fill="#666666">[timestamp]</text>
<polygon fill="none" stroke="black" points="46.2,-46.2 46.2,-77 366.63,-77 366.63,-46.2 46.2,-46.2"/>
<text text-anchor="start" x="53.2" y="-58.4" font-family="Arial" font-size="14.00">updated_at </text>
<text text-anchor="start" x="127.16" y="-58.4" font-family="Arial" font-size="14.00" fill="#666666">[timestamp]</text>
<polygon fill="none" stroke="black" stroke-width="3" points="44.7,-44.7 44.7,-391.3 368.13,-391.3 368.13,-44.7 44.7,-44.7"/>
</g>
</g>
</svg>
