<?xml version="1.0" encoding="UTF-8" standalone="no"?>
<!DOCTYPE svg PUBLIC "-//W3C//DTD SVG 1.1//EN"
 "http://www.w3.org/Graphics/SVG/1.1/DTD/svg11.dtd">
<!-- Generated by graphviz version 12.1.2 (20240928.0832)
 -->
<!-- Title: Fact_Grant_Financials Pages: 1 -->
<svg width="403pt" height="1522pt"
 viewBox="0.00 0.00 402.85 1522.00" xmlns="http://www.w3.org/2000/svg" xmlns:xlink="http://www.w3.org/1999/xlink">
<g id="graph0" class="graph" transform="scale(1 1) rotate(0) translate(4 1518)">
<title>Fact_Grant_Financials</title>
<polygon fill="white" stroke="none" points="-4,4 -4,-1518 398.85,-1518 398.85,4 -4,4"/>
<!-- Fact_Grant_Financials -->
<g id="node1" class="node">
<title>Fact_Grant_Financials</title>
<polygon fill="#efefef" stroke="none" points="46.2,-1432.2 46.2,-1467.8 348.65,-1467.8 348.65,-1432.2 46.2,-1432.2"/>
<polygon fill="none" stroke="black" points="46.2,-1432.2 46.2,-1467.8 348.65,-1467.8 348.65,-1432.2 46.2,-1432.2"/>
<text text-anchor="start" x="53.2" y="-1445.6" font-family="Arial Bold" font-size="18.00">Fact_Grant_Financials</text>
<text text-anchor="start" x="217.16" y="-1445.6" font-family="Arial" font-size="14.00">    </text>
<text text-anchor="start" x="248.28" y="-1445.6" font-family="Arial" font-size="14.00" fill="#666666">[BASE TABLE]</text>
<polygon fill="none" stroke="black" points="46.2,-1401.4 46.2,-1432.2 348.65,-1432.2 348.65,-1401.4 46.2,-1401.4"/>
<text text-anchor="start" x="53.2" y="-1413.6" font-family="Arial" font-size="14.00">Grant_Financial_Key </text>
<text text-anchor="start" x="187.83" y="-1413.6" font-family="Arial" font-size="14.00" fill="#666666">[bigint unsigned]</text>
<polygon fill="none" stroke="black" points="46.2,-1370.6 46.2,-1401.4 348.65,-1401.4 348.65,-1370.6 46.2,-1370.6"/>
<text text-anchor="start" x="53.2" y="-1382.8" font-family="Arial" font-size="14.00">Source_Format_Id </text>
<text text-anchor="start" x="173.03" y="-1382.8" font-family="Arial" font-size="14.00" fill="#666666">[bigint unsigned]</text>
<polygon fill="none" stroke="black" points="46.2,-1339.8 46.2,-1370.6 348.65,-1370.6 348.65,-1339.8 46.2,-1339.8"/>
<text text-anchor="start" x="53.2" y="-1352" font-family="Arial" font-size="14.00">Grant_Key </text>
<text text-anchor="start" x="124.01" y="-1352" font-family="Arial" font-size="14.00" fill="#666666">[bigint unsigned]</text>
<polygon fill="none" stroke="black" points="46.2,-1309 46.2,-1339.8 348.65,-1339.8 348.65,-1309 46.2,-1309"/>
<text text-anchor="start" x="53.2" y="-1321.2" font-family="Arial" font-size="14.00">Source_System_Key </text>
<text text-anchor="start" x="187.82" y="-1321.2" font-family="Arial" font-size="14.00" fill="#666666">[int]</text>
<polygon fill="none" stroke="black" points="46.2,-1278.2 46.2,-1309 348.65,-1309 348.65,-1278.2 46.2,-1278.2"/>
<text text-anchor="start" x="53.2" y="-1290.4" font-family="Arial" font-size="14.00">Max_Allocation </text>
<text text-anchor="start" x="152.03" y="-1290.4" font-family="Arial" font-size="14.00" fill="#666666">[decimal(15,2)]</text>
<polygon fill="none" stroke="black" points="46.2,-1247.4 46.2,-1278.2 348.65,-1278.2 348.65,-1247.4 46.2,-1247.4"/>
<text text-anchor="start" x="53.2" y="-1259.6" font-family="Arial" font-size="14.00">Total_Levels </text>
<text text-anchor="start" x="136.47" y="-1259.6" font-family="Arial" font-size="14.00" fill="#666666">[int]</text>
<polygon fill="none" stroke="black" points="46.2,-1216.6 46.2,-1247.4 348.65,-1247.4 348.65,-1216.6 46.2,-1216.6"/>
<text text-anchor="start" x="53.2" y="-1228.8" font-family="Arial" font-size="14.00">Total_Plus </text>
<text text-anchor="start" x="123.23" y="-1228.8" font-family="Arial" font-size="14.00" fill="#666666">[int]</text>
<polygon fill="none" stroke="black" points="46.2,-1185.8 46.2,-1216.6 348.65,-1216.6 348.65,-1185.8 46.2,-1185.8"/>
<text text-anchor="start" x="53.2" y="-1198" font-family="Arial" font-size="14.00">Places_Level_1 </text>
<text text-anchor="start" x="155.94" y="-1198" font-family="Arial" font-size="14.00" fill="#666666">[int]</text>
<polygon fill="none" stroke="black" points="46.2,-1155 46.2,-1185.8 348.65,-1185.8 348.65,-1155 46.2,-1155"/>
<text text-anchor="start" x="53.2" y="-1167.2" font-family="Arial" font-size="14.00">Grant_Level_1 </text>
<text text-anchor="start" x="148.93" y="-1167.2" font-family="Arial" font-size="14.00" fill="#666666">[decimal(15,2)]</text>
<polygon fill="none" stroke="black" points="46.2,-1124.2 46.2,-1155 348.65,-1155 348.65,-1124.2 46.2,-1124.2"/>
<text text-anchor="start" x="53.2" y="-1136.4" font-family="Arial" font-size="14.00">Places_Level_1_2 </text>
<text text-anchor="start" x="171.51" y="-1136.4" font-family="Arial" font-size="14.00" fill="#666666">[int]</text>
<polygon fill="none" stroke="black" points="46.2,-1093.4 46.2,-1124.2 348.65,-1124.2 348.65,-1093.4 46.2,-1093.4"/>
<text text-anchor="start" x="53.2" y="-1105.6" font-family="Arial" font-size="14.00">Grant_Level_1_2 </text>
<text text-anchor="start" x="164.5" y="-1105.6" font-family="Arial" font-size="14.00" fill="#666666">[decimal(15,2)]</text>
<polygon fill="none" stroke="black" points="46.2,-1062.6 46.2,-1093.4 348.65,-1093.4 348.65,-1062.6 46.2,-1062.6"/>
<text text-anchor="start" x="53.2" y="-1074.8" font-family="Arial" font-size="14.00">Places_Level_2 </text>
<text text-anchor="start" x="155.94" y="-1074.8" font-family="Arial" font-size="14.00" fill="#666666">[int]</text>
<polygon fill="none" stroke="black" points="46.2,-1031.8 46.2,-1062.6 348.65,-1062.6 348.65,-1031.8 46.2,-1031.8"/>
<text text-anchor="start" x="53.2" y="-1044" font-family="Arial" font-size="14.00">Grant_Level_2 </text>
<text text-anchor="start" x="148.93" y="-1044" font-family="Arial" font-size="14.00" fill="#666666">[decimal(15,2)]</text>
<polygon fill="none" stroke="black" points="46.2,-1001 46.2,-1031.8 348.65,-1031.8 348.65,-1001 46.2,-1001"/>
<text text-anchor="start" x="53.2" y="-1013.2" font-family="Arial" font-size="14.00">Places_Level_3 </text>
<text text-anchor="start" x="155.94" y="-1013.2" font-family="Arial" font-size="14.00" fill="#666666">[int]</text>
<polygon fill="none" stroke="black" points="46.2,-970.2 46.2,-1001 348.65,-1001 348.65,-970.2 46.2,-970.2"/>
<text text-anchor="start" x="53.2" y="-982.4" font-family="Arial" font-size="14.00">Grant_Level_3 </text>
<text text-anchor="start" x="148.93" y="-982.4" font-family="Arial" font-size="14.00" fill="#666666">[decimal(15,2)]</text>
<polygon fill="none" stroke="black" points="46.2,-939.4 46.2,-970.2 348.65,-970.2 348.65,-939.4 46.2,-939.4"/>
<text text-anchor="start" x="53.2" y="-951.6" font-family="Arial" font-size="14.00">Places_Plus_Balance </text>
<text text-anchor="start" x="192.51" y="-951.6" font-family="Arial" font-size="14.00" fill="#666666">[int]</text>
<polygon fill="none" stroke="black" points="46.2,-908.6 46.2,-939.4 348.65,-939.4 348.65,-908.6 46.2,-908.6"/>
<text text-anchor="start" x="53.2" y="-920.8" font-family="Arial" font-size="14.00">Grant_Plus_Balance </text>
<text text-anchor="start" x="185.5" y="-920.8" font-family="Arial" font-size="14.00" fill="#666666">[decimal(15,2)]</text>
<polygon fill="none" stroke="black" points="46.2,-877.8 46.2,-908.6 348.65,-908.6 348.65,-877.8 46.2,-877.8"/>
<text text-anchor="start" x="53.2" y="-890" font-family="Arial" font-size="14.00">Places_Plus_Bus </text>
<text text-anchor="start" x="166.04" y="-890" font-family="Arial" font-size="14.00" fill="#666666">[int]</text>
<polygon fill="none" stroke="black" points="46.2,-847 46.2,-877.8 348.65,-877.8 348.65,-847 46.2,-847"/>
<text text-anchor="start" x="53.2" y="-859.2" font-family="Arial" font-size="14.00">Grant_Plus_Bus </text>
<text text-anchor="start" x="159.03" y="-859.2" font-family="Arial" font-size="14.00" fill="#666666">[decimal(15,2)]</text>
<polygon fill="none" stroke="black" points="46.2,-816.2 46.2,-847 348.65,-847 348.65,-816.2 46.2,-816.2"/>
<text text-anchor="start" x="53.2" y="-828.4" font-family="Arial" font-size="14.00">Places_Plus_Fix </text>
<text text-anchor="start" x="160.58" y="-828.4" font-family="Arial" font-size="14.00" fill="#666666">[int]</text>
<polygon fill="none" stroke="black" points="46.2,-785.4 46.2,-816.2 348.65,-816.2 348.65,-785.4 46.2,-785.4"/>
<text text-anchor="start" x="53.2" y="-797.6" font-family="Arial" font-size="14.00">Grant_Plus_Fix </text>
<text text-anchor="start" x="153.57" y="-797.6" font-family="Arial" font-size="14.00" fill="#666666">[decimal(15,2)]</text>
<polygon fill="none" stroke="black" points="46.2,-754.6 46.2,-785.4 348.65,-785.4 348.65,-754.6 46.2,-754.6"/>
<text text-anchor="start" x="53.2" y="-766.8" font-family="Arial" font-size="14.00">Places_Plus_Learn </text>
<text text-anchor="start" x="177.72" y="-766.8" font-family="Arial" font-size="14.00" fill="#666666">[int]</text>
<polygon fill="none" stroke="black" points="46.2,-723.8 46.2,-754.6 348.65,-754.6 348.65,-723.8 46.2,-723.8"/>
<text text-anchor="start" x="53.2" y="-736" font-family="Arial" font-size="14.00">Grant_Plus_Learn </text>
<text text-anchor="start" x="170.72" y="-736" font-family="Arial" font-size="14.00" fill="#666666">[decimal(15,2)]</text>
<polygon fill="none" stroke="black" points="46.2,-693 46.2,-723.8 348.65,-723.8 348.65,-693 46.2,-693"/>
<text text-anchor="start" x="53.2" y="-705.2" font-family="Arial" font-size="14.00">Places_Plus_On_Show </text>
<text text-anchor="start" x="203.4" y="-705.2" font-family="Arial" font-size="14.00" fill="#666666">[int]</text>
<polygon fill="none" stroke="black" points="46.2,-662.2 46.2,-693 348.65,-693 348.65,-662.2 46.2,-662.2"/>
<text text-anchor="start" x="53.2" y="-674.4" font-family="Arial" font-size="14.00">Grant_Plus_On_Show </text>
<text text-anchor="start" x="196.39" y="-674.4" font-family="Arial" font-size="14.00" fill="#666666">[decimal(15,2)]</text>
<polygon fill="none" stroke="black" points="46.2,-631.4 46.2,-662.2 348.65,-662.2 348.65,-631.4 46.2,-631.4"/>
<text text-anchor="start" x="53.2" y="-643.6" font-family="Arial" font-size="14.00">Places_Plus_Parents </text>
<text text-anchor="start" x="190.16" y="-643.6" font-family="Arial" font-size="14.00" fill="#666666">[int]</text>
<polygon fill="none" stroke="black" points="46.2,-600.6 46.2,-631.4 348.65,-631.4 348.65,-600.6 46.2,-600.6"/>
<text text-anchor="start" x="53.2" y="-612.8" font-family="Arial" font-size="14.00">Grant_Plus_Parents </text>
<text text-anchor="start" x="183.16" y="-612.8" font-family="Arial" font-size="14.00" fill="#666666">[decimal(15,2)]</text>
<polygon fill="none" stroke="black" points="46.2,-569.8 46.2,-600.6 348.65,-600.6 348.65,-569.8 46.2,-569.8"/>
<text text-anchor="start" x="53.2" y="-582" font-family="Arial" font-size="14.00">Places_Plus_Promotion </text>
<text text-anchor="start" x="205.72" y="-582" font-family="Arial" font-size="14.00" fill="#666666">[int]</text>
<polygon fill="none" stroke="black" points="46.2,-539 46.2,-569.8 348.65,-569.8 348.65,-539 46.2,-539"/>
<text text-anchor="start" x="53.2" y="-551.2" font-family="Arial" font-size="14.00">Grant_Plus_Promotion </text>
<text text-anchor="start" x="198.72" y="-551.2" font-family="Arial" font-size="14.00" fill="#666666">[decimal(15,2)]</text>
<polygon fill="none" stroke="black" points="46.2,-508.2 46.2,-539 348.65,-539 348.65,-508.2 46.2,-508.2"/>
<text text-anchor="start" x="53.2" y="-520.4" font-family="Arial" font-size="14.00">Places_Plus_Recycled </text>
<text text-anchor="start" x="199.5" y="-520.4" font-family="Arial" font-size="14.00" fill="#666666">[int]</text>
<polygon fill="none" stroke="black" points="46.2,-477.4 46.2,-508.2 348.65,-508.2 348.65,-477.4 46.2,-477.4"/>
<text text-anchor="start" x="53.2" y="-489.6" font-family="Arial" font-size="14.00">Grant_Plus_Recycled </text>
<text text-anchor="start" x="192.49" y="-489.6" font-family="Arial" font-size="14.00" fill="#666666">[decimal(15,2)]</text>
<polygon fill="none" stroke="black" points="46.2,-446.6 46.2,-477.4 348.65,-477.4 348.65,-446.6 46.2,-446.6"/>
<text text-anchor="start" x="53.2" y="-458.8" font-family="Arial" font-size="14.00">Places_Plus_Ride </text>
<text text-anchor="start" x="170.71" y="-458.8" font-family="Arial" font-size="14.00" fill="#666666">[int]</text>
<polygon fill="none" stroke="black" points="46.2,-415.8 46.2,-446.6 348.65,-446.6 348.65,-415.8 46.2,-415.8"/>
<text text-anchor="start" x="53.2" y="-428" font-family="Arial" font-size="14.00">Grant_Plus_Ride </text>
<text text-anchor="start" x="163.7" y="-428" font-family="Arial" font-size="14.00" fill="#666666">[decimal(15,2)]</text>
<polygon fill="none" stroke="black" points="46.2,-385 46.2,-415.8 348.65,-415.8 348.65,-385 46.2,-385"/>
<text text-anchor="start" x="53.2" y="-397.2" font-family="Arial" font-size="14.00">Places_Plus_Transition </text>
<text text-anchor="start" x="203.39" y="-397.2" font-family="Arial" font-size="14.00" fill="#666666">[int]</text>
<polygon fill="none" stroke="black" points="46.2,-354.2 46.2,-385 348.65,-385 348.65,-354.2 46.2,-354.2"/>
<text text-anchor="start" x="53.2" y="-366.4" font-family="Arial" font-size="14.00">Grant_Plus_Transition </text>
<text text-anchor="start" x="196.38" y="-366.4" font-family="Arial" font-size="14.00" fill="#666666">[decimal(15,2)]</text>
<polygon fill="none" stroke="black" points="46.2,-323.4 46.2,-354.2 348.65,-354.2 348.65,-323.4 46.2,-323.4"/>
<text text-anchor="start" x="53.2" y="-335.6" font-family="Arial" font-size="14.00">Places_Plus_Family </text>
<text text-anchor="start" x="183.14" y="-335.6" font-family="Arial" font-size="14.00" fill="#666666">[int]</text>
<polygon fill="none" stroke="black" points="46.2,-292.6 46.2,-323.4 348.65,-323.4 348.65,-292.6 46.2,-292.6"/>
<text text-anchor="start" x="53.2" y="-304.8" font-family="Arial" font-size="14.00">Grant_Plus_Family </text>
<text text-anchor="start" x="176.13" y="-304.8" font-family="Arial" font-size="14.00" fill="#666666">[decimal(15,2)]</text>
<polygon fill="none" stroke="black" points="46.2,-261.8 46.2,-292.6 348.65,-292.6 348.65,-261.8 46.2,-261.8"/>
<text text-anchor="start" x="53.2" y="-274" font-family="Arial" font-size="14.00">Places_Plus_Adult </text>
<text text-anchor="start" x="173.83" y="-274" font-family="Arial" font-size="14.00" fill="#666666">[int]</text>
<polygon fill="none" stroke="black" points="46.2,-231 46.2,-261.8 348.65,-261.8 348.65,-231 46.2,-231"/>
<text text-anchor="start" x="53.2" y="-243.2" font-family="Arial" font-size="14.00">Grant_Plus_Adult </text>
<text text-anchor="start" x="166.82" y="-243.2" font-family="Arial" font-size="14.00" fill="#666666">[decimal(15,2)]</text>
<polygon fill="none" stroke="black" points="46.2,-200.2 46.2,-231 348.65,-231 348.65,-200.2 46.2,-200.2"/>
<text text-anchor="start" x="53.2" y="-212.4" font-family="Arial" font-size="14.00">Grant_Send </text>
<text text-anchor="start" x="132.59" y="-212.4" font-family="Arial" font-size="14.00" fill="#666666">[decimal(15,2)]</text>
<polygon fill="none" stroke="black" points="46.2,-169.4 46.2,-200.2 348.65,-200.2 348.65,-169.4 46.2,-169.4"/>
<text text-anchor="start" x="53.2" y="-181.6" font-family="Arial" font-size="14.00">Places_Send </text>
<text text-anchor="start" x="139.59" y="-181.6" font-family="Arial" font-size="14.00" fill="#666666">[int]</text>
<polygon fill="none" stroke="black" points="46.2,-138.6 46.2,-169.4 348.65,-169.4 348.65,-138.6 46.2,-138.6"/>
<text text-anchor="start" x="53.2" y="-150.8" font-family="Arial" font-size="14.00">Grant_Inclusion </text>
<text text-anchor="start" x="155.14" y="-150.8" font-family="Arial" font-size="14.00" fill="#666666">[decimal(15,2)]</text>
<polygon fill="none" stroke="black" points="46.2,-107.8 46.2,-138.6 348.65,-138.6 348.65,-107.8 46.2,-107.8"/>
<text text-anchor="start" x="53.2" y="-120" font-family="Arial" font-size="14.00">Places_Inclusion </text>
<text text-anchor="start" x="162.15" y="-120" font-family="Arial" font-size="14.00" fill="#666666">[int]</text>
<polygon fill="none" stroke="black" points="46.2,-77 46.2,-107.8 348.65,-107.8 348.65,-77 46.2,-77"/>
<text text-anchor="start" x="53.2" y="-89.2" font-family="Arial" font-size="14.00">created_at </text>
<text text-anchor="start" x="123.25" y="-89.2" font-family="Arial" font-size="14.00" fill="#666666">[timestamp]</text>
<polygon fill="none" stroke="black" points="46.2,-46.2 46.2,-77 348.65,-77 348.65,-46.2 46.2,-46.2"/>
<text text-anchor="start" x="53.2" y="-58.4" font-family="Arial" font-size="14.00">updated_at </text>
<text text-anchor="start" x="127.16" y="-58.4" font-family="Arial" font-size="14.00" fill="#666666">[timestamp]</text>
<polygon fill="none" stroke="black" stroke-width="3" points="44.7,-44.7 44.7,-1469.3 350.15,-1469.3 350.15,-44.7 44.7,-44.7"/>
</g>
</g>
</svg>
