<?xml version="1.0" encoding="UTF-8" standalone="no"?>
<!DOCTYPE svg PUBLIC "-//W3C//DTD SVG 1.1//EN"
 "http://www.w3.org/Graphics/SVG/1.1/DTD/svg11.dtd">
<!-- Generated by graphviz version 12.1.2 (20240928.0832)
 -->
<!-- Title: Fact_Grant_Claim_Send_Records Pages: 1 -->
<svg width="486pt" height="382pt"
 viewBox="0.00 0.00 485.84 382.40" xmlns="http://www.w3.org/2000/svg" xmlns:xlink="http://www.w3.org/1999/xlink">
<g id="graph0" class="graph" transform="scale(1 1) rotate(0) translate(4 378.4)">
<title>Fact_Grant_Claim_Send_Records</title>
<polygon fill="white" stroke="none" points="-4,4 -4,-378.4 481.84,-378.4 481.84,4 -4,4"/>
<!-- Fact_Grant_Claim_Send_Records -->
<g id="node1" class="node">
<title>Fact_Grant_Claim_Send_Records</title>
<polygon fill="#efefef" stroke="none" points="46.2,-292.6 46.2,-328.2 431.64,-328.2 431.64,-292.6 46.2,-292.6"/>
<polygon fill="none" stroke="black" points="46.2,-292.6 46.2,-328.2 431.64,-328.2 431.64,-292.6 46.2,-292.6"/>
<text text-anchor="start" x="53.2" y="-306" font-family="Arial Bold" font-size="18.00">Fact_Grant_Claim_Send_Records</text>
<text text-anchor="start" x="300.16" y="-306" font-family="Arial" font-size="14.00">    </text>
<text text-anchor="start" x="331.27" y="-306" font-family="Arial" font-size="14.00" fill="#666666">[BASE TABLE]</text>
<polygon fill="none" stroke="black" points="46.2,-261.8 46.2,-292.6 431.64,-292.6 431.64,-261.8 46.2,-261.8"/>
<text text-anchor="start" x="53.2" y="-274" font-family="Arial" font-size="14.00">Claim_Send_Key </text>
<text text-anchor="start" x="165.26" y="-274" font-family="Arial" font-size="14.00" fill="#666666">[bigint unsigned]</text>
<polygon fill="none" stroke="black" points="46.2,-231 46.2,-261.8 431.64,-261.8 431.64,-231 46.2,-231"/>
<text text-anchor="start" x="53.2" y="-243.2" font-family="Arial" font-size="14.00">Claim_Key </text>
<text text-anchor="start" x="124.78" y="-243.2" font-family="Arial" font-size="14.00" fill="#666666">[bigint unsigned]</text>
<polygon fill="none" stroke="black" points="46.2,-200.2 46.2,-231 431.64,-231 431.64,-200.2 46.2,-200.2"/>
<text text-anchor="start" x="53.2" y="-212.4" font-family="Arial" font-size="14.00">Source_System_Key </text>
<text text-anchor="start" x="187.82" y="-212.4" font-family="Arial" font-size="14.00" fill="#666666">[int]</text>
<polygon fill="none" stroke="black" points="46.2,-169.4 46.2,-200.2 431.64,-200.2 431.64,-169.4 46.2,-169.4"/>
<text text-anchor="start" x="53.2" y="-181.6" font-family="Arial" font-size="14.00">Send_Id_String </text>
<text text-anchor="start" x="153.61" y="-181.6" font-family="Arial" font-size="14.00" fill="#666666">[varchar(255)]</text>
<polygon fill="none" stroke="black" points="46.2,-138.6 46.2,-169.4 431.64,-169.4 431.64,-138.6 46.2,-138.6"/>
<text text-anchor="start" x="53.2" y="-150.8" font-family="Arial" font-size="14.00">Send_Riders_Count </text>
<text text-anchor="start" x="183.17" y="-150.8" font-family="Arial" font-size="14.00" fill="#666666">[int]</text>
<polygon fill="none" stroke="black" points="46.2,-107.8 46.2,-138.6 431.64,-138.6 431.64,-107.8 46.2,-107.8"/>
<text text-anchor="start" x="53.2" y="-120" font-family="Arial" font-size="14.00">Send_Amount </text>
<text text-anchor="start" x="145.82" y="-120" font-family="Arial" font-size="14.00" fill="#666666">[decimal(15,2)]</text>
<polygon fill="none" stroke="black" points="46.2,-77 46.2,-107.8 431.64,-107.8 431.64,-77 46.2,-77"/>
<text text-anchor="start" x="53.2" y="-89.2" font-family="Arial" font-size="14.00">created_at </text>
<text text-anchor="start" x="123.25" y="-89.2" font-family="Arial" font-size="14.00" fill="#666666">[timestamp]</text>
<polygon fill="none" stroke="black" points="46.2,-46.2 46.2,-77 431.64,-77 431.64,-46.2 46.2,-46.2"/>
<text text-anchor="start" x="53.2" y="-58.4" font-family="Arial" font-size="14.00">updated_at </text>
<text text-anchor="start" x="127.16" y="-58.4" font-family="Arial" font-size="14.00" fill="#666666">[timestamp]</text>
<polygon fill="none" stroke="black" stroke-width="3" points="44.7,-44.7 44.7,-329.7 433.14,-329.7 433.14,-44.7 44.7,-44.7"/>
</g>
</g>
</svg>
