<?xml version="1.0" encoding="UTF-8" standalone="no"?>
<!DOCTYPE svg PUBLIC "-//W3C//DTD SVG 1.1//EN"
 "http://www.w3.org/Graphics/SVG/1.1/DTD/svg11.dtd">
<!-- Generated by graphviz version 12.1.2 (20240928.0832)
 -->
<!-- Title: Fact_Grant_Claim_Logs Pages: 1 -->
<svg width="418pt" height="352pt"
 viewBox="0.00 0.00 417.86 351.60" xmlns="http://www.w3.org/2000/svg" xmlns:xlink="http://www.w3.org/1999/xlink">
<g id="graph0" class="graph" transform="scale(1 1) rotate(0) translate(4 347.6)">
<title>Fact_Grant_Claim_Logs</title>
<polygon fill="white" stroke="none" points="-4,4 -4,-347.6 413.86,-347.6 413.86,4 -4,4"/>
<!-- Fact_Grant_Claim_Logs -->
<g id="node1" class="node">
<title>Fact_Grant_Claim_Logs</title>
<polygon fill="#efefef" stroke="none" points="46.2,-261.8 46.2,-297.4 363.66,-297.4 363.66,-261.8 46.2,-261.8"/>
<polygon fill="none" stroke="black" points="46.2,-261.8 46.2,-297.4 363.66,-297.4 363.66,-261.8 46.2,-261.8"/>
<text text-anchor="start" x="53.2" y="-275.2" font-family="Arial Bold" font-size="18.00">Fact_Grant_Claim_Logs</text>
<text text-anchor="start" x="232.17" y="-275.2" font-family="Arial" font-size="14.00">    </text>
<text text-anchor="start" x="263.29" y="-275.2" font-family="Arial" font-size="14.00" fill="#666666">[BASE TABLE]</text>
<polygon fill="none" stroke="black" points="46.2,-231 46.2,-261.8 363.66,-261.8 363.66,-231 46.2,-231"/>
<text text-anchor="start" x="53.2" y="-243.2" font-family="Arial" font-size="14.00">Claim_Log_Key </text>
<text text-anchor="start" x="155.92" y="-243.2" font-family="Arial" font-size="14.00" fill="#666666">[bigint unsigned]</text>
<polygon fill="none" stroke="black" points="46.2,-200.2 46.2,-231 363.66,-231 363.66,-200.2 46.2,-200.2"/>
<text text-anchor="start" x="53.2" y="-212.4" font-family="Arial" font-size="14.00">Claim_Key </text>
<text text-anchor="start" x="124.78" y="-212.4" font-family="Arial" font-size="14.00" fill="#666666">[bigint unsigned]</text>
<polygon fill="none" stroke="black" points="46.2,-169.4 46.2,-200.2 363.66,-200.2 363.66,-169.4 46.2,-169.4"/>
<text text-anchor="start" x="53.2" y="-181.6" font-family="Arial" font-size="14.00">Source_System_Key </text>
<text text-anchor="start" x="187.82" y="-181.6" font-family="Arial" font-size="14.00" fill="#666666">[int]</text>
<polygon fill="none" stroke="black" points="46.2,-138.6 46.2,-169.4 363.66,-169.4 363.66,-138.6 46.2,-138.6"/>
<text text-anchor="start" x="53.2" y="-150.8" font-family="Arial" font-size="14.00">Module_Key </text>
<text text-anchor="start" x="134.92" y="-150.8" font-family="Arial" font-size="14.00" fill="#666666">[varchar(255)]</text>
<polygon fill="none" stroke="black" points="46.2,-107.8 46.2,-138.6 363.66,-138.6 363.66,-107.8 46.2,-107.8"/>
<text text-anchor="start" x="53.2" y="-120" font-family="Arial" font-size="14.00">Item_Count </text>
<text text-anchor="start" x="129.46" y="-120" font-family="Arial" font-size="14.00" fill="#666666">[int]</text>
<polygon fill="none" stroke="black" points="46.2,-77 46.2,-107.8 363.66,-107.8 363.66,-77 46.2,-77"/>
<text text-anchor="start" x="53.2" y="-89.2" font-family="Arial" font-size="14.00">created_at </text>
<text text-anchor="start" x="123.25" y="-89.2" font-family="Arial" font-size="14.00" fill="#666666">[timestamp]</text>
<polygon fill="none" stroke="black" points="46.2,-46.2 46.2,-77 363.66,-77 363.66,-46.2 46.2,-46.2"/>
<text text-anchor="start" x="53.2" y="-58.4" font-family="Arial" font-size="14.00">updated_at </text>
<text text-anchor="start" x="127.16" y="-58.4" font-family="Arial" font-size="14.00" fill="#666666">[timestamp]</text>
<polygon fill="none" stroke="black" stroke-width="3" points="44.7,-44.7 44.7,-298.9 365.16,-298.9 365.16,-44.7 44.7,-44.7"/>
</g>
</g>
</svg>
