<?xml version="1.0" encoding="UTF-8" standalone="no"?>
<!DOCTYPE svg PUBLIC "-//W3C//DTD SVG 1.1//EN"
 "http://www.w3.org/Graphics/SVG/1.1/DTD/svg11.dtd">
<!-- Generated by graphviz version 12.1.2 (20240928.0832)
 -->
<!-- Title: Sync_Log Pages: 1 -->
<svg width="313pt" height="228pt"
 viewBox="0.00 0.00 312.88 228.40" xmlns="http://www.w3.org/2000/svg" xmlns:xlink="http://www.w3.org/1999/xlink">
<g id="graph0" class="graph" transform="scale(1 1) rotate(0) translate(4 224.4)">
<title>Sync_Log</title>
<polygon fill="white" stroke="none" points="-4,4 -4,-224.4 308.88,-224.4 308.88,4 -4,4"/>
<!-- Sync_Log -->
<g id="node1" class="node">
<title>Sync_Log</title>
<polygon fill="#efefef" stroke="none" points="46.2,-138.6 46.2,-174.2 258.68,-174.2 258.68,-138.6 46.2,-138.6"/>
<polygon fill="none" stroke="black" points="46.2,-138.6 46.2,-174.2 258.68,-174.2 258.68,-138.6 46.2,-138.6"/>
<text text-anchor="start" x="53.2" y="-152" font-family="Arial Bold" font-size="18.00">Sync_Log</text>
<text text-anchor="start" x="127.2" y="-152" font-family="Arial" font-size="14.00">    </text>
<text text-anchor="start" x="158.31" y="-152" font-family="Arial" font-size="14.00" fill="#666666">[BASE TABLE]</text>
<polygon fill="none" stroke="black" points="46.2,-107.8 46.2,-138.6 258.68,-138.6 258.68,-107.8 46.2,-107.8"/>
<text text-anchor="start" x="53.2" y="-120" font-family="Arial" font-size="14.00">Table_Name </text>
<text text-anchor="start" x="137.24" y="-120" font-family="Arial" font-size="14.00" fill="#666666">[varchar(50)]</text>
<polygon fill="none" stroke="black" points="46.2,-77 46.2,-107.8 258.68,-107.8 258.68,-77 46.2,-77"/>
<text text-anchor="start" x="53.2" y="-89.2" font-family="Arial" font-size="14.00">Last_Synced_At </text>
<text text-anchor="start" x="159.05" y="-89.2" font-family="Arial" font-size="14.00" fill="#666666">[datetime]</text>
<polygon fill="none" stroke="black" points="46.2,-46.2 46.2,-77 258.68,-77 258.68,-46.2 46.2,-46.2"/>
<text text-anchor="start" x="53.2" y="-58.4" font-family="Arial" font-size="14.00">Records_Processed </text>
<text text-anchor="start" x="183.15" y="-58.4" font-family="Arial" font-size="14.00" fill="#666666">[int]</text>
<polygon fill="none" stroke="black" stroke-width="3" points="44.7,-44.7 44.7,-175.7 260.18,-175.7 260.18,-44.7 44.7,-44.7"/>
</g>
</g>
</svg>
